<svg xmlns="http://www.w3.org/2000/svg" viewBox="0 0 466.18 458.32"><defs><style>.cls-1{isolation:isolate;}.cls-2{fill:#9d5574;}.cls-10,.cls-100,.cls-101,.cls-102,.cls-103,.cls-104,.cls-105,.cls-106,.cls-107,.cls-108,.cls-109,.cls-11,.cls-110,.cls-111,.cls-112,.cls-113,.cls-114,.cls-115,.cls-116,.cls-117,.cls-118,.cls-119,.cls-12,.cls-120,.cls-121,.cls-122,.cls-123,.cls-124,.cls-125,.cls-126,.cls-127,.cls-128,.cls-129,.cls-13,.cls-130,.cls-131,.cls-132,.cls-133,.cls-134,.cls-135,.cls-136,.cls-137,.cls-138,.cls-139,.cls-14,.cls-140,.cls-141,.cls-142,.cls-143,.cls-144,.cls-145,.cls-146,.cls-147,.cls-148,.cls-149,.cls-15,.cls-150,.cls-151,.cls-152,.cls-153,.cls-154,.cls-155,.cls-156,.cls-16,.cls-17,.cls-18,.cls-19,.cls-2,.cls-20,.cls-21,.cls-22,.cls-23,.cls-24,.cls-25,.cls-26,.cls-27,.cls-28,.cls-29,.cls-3,.cls-30,.cls-31,.cls-32,.cls-33,.cls-34,.cls-35,.cls-36,.cls-37,.cls-38,.cls-39,.cls-4,.cls-40,.cls-41,.cls-42,.cls-43,.cls-44,.cls-45,.cls-46,.cls-47,.cls-48,.cls-49,.cls-5,.cls-50,.cls-51,.cls-52,.cls-53,.cls-54,.cls-55,.cls-56,.cls-57,.cls-58,.cls-59,.cls-6,.cls-60,.cls-61,.cls-62,.cls-63,.cls-64,.cls-65,.cls-66,.cls-67,.cls-68,.cls-69,.cls-7,.cls-70,.cls-71,.cls-72,.cls-73,.cls-74,.cls-75,.cls-76,.cls-77,.cls-78,.cls-79,.cls-8,.cls-80,.cls-81,.cls-82,.cls-83,.cls-84,.cls-85,.cls-86,.cls-87,.cls-88,.cls-89,.cls-9,.cls-90,.cls-91,.cls-92,.cls-93,.cls-94,.cls-95,.cls-96,.cls-97,.cls-98,.cls-99{fill-rule:evenodd;mix-blend-mode:darken;}.cls-3{fill:#b1748c;}.cls-4{fill:#ab6c84;}.cls-5{fill:#a35f7a;}.cls-6{fill:#66172d;}.cls-7{fill:#5c182a;}.cls-8{fill:#b9929f;}.cls-9{fill:#71213b;}.cls-10{fill:#6c2037;}.cls-11{fill:#b68b9b;}.cls-12{fill:#641d31;}.cls-13{fill:#531822;}.cls-14{fill:#a87186;}.cls-15{fill:#661b34;}.cls-16{fill:#7e2040;}.cls-17{fill:#934e6d;}.cls-18{fill:#721e3c;}.cls-19{fill:#873754;}.cls-20{fill:#b1778b;}.cls-21{fill:#a96882;}.cls-22{fill:#883c5c;}.cls-23{fill:#b0778e;}.cls-24{fill:#ae768c;}.cls-25{fill:#b78395;}.cls-26{fill:#9e5e7a;}.cls-27{fill:#986977;}.cls-28{fill:#b88a99;}.cls-29{fill:#975772;}.cls-30{fill:#b38294;}.cls-31{fill:#a87188;}.cls-32{fill:#b47a90;}.cls-33{fill:#a2687f;}.cls-34{fill:#b18392;}.cls-35{fill:#9f657e;}.cls-36{fill:#722b42;}.cls-37{fill:#995d75;}.cls-38{fill:#5c1829;}.cls-39{fill:#bd8a9f;}.cls-40{fill:#96506c;}.cls-41{fill:#ad6f88;}.cls-42{fill:#904a65;}.cls-43{fill:#783547;}.cls-44{fill:#7c334f;}.cls-45{fill:#a1677f;}.cls-46{fill:#d3aab6;}.cls-47{fill:#b98596;}.cls-48{fill:#863c5a;}.cls-49{fill:#b48393;}.cls-50{fill:#6e2138;}.cls-51{fill:#a15774;}.cls-52{fill:#a97187;}.cls-53{fill:#88435c;}.cls-54{fill:#875e6c;}.cls-55{fill:#803450;}.cls-56{fill:#97687b;}.cls-57{fill:#85495c;}.cls-58{fill:#926576;}.cls-59{fill:#935a6e;}.cls-60{fill:#9e7481;}.cls-61{fill:#8a3f5c;}.cls-62{fill:#934c67;}.cls-63{fill:#7f4d5d;}.cls-64{fill:#764455;}.cls-65{fill:#a96b85;}.cls-66{fill:#b48195;}.cls-67{fill:#9a7884;}.cls-68{fill:#9e6879;}.cls-69{fill:#9b5573;}.cls-70{fill:#701832;}.cls-71{fill:#692a3c;}.cls-72{fill:#561625;}.cls-73{fill:#66152e;}.cls-74{fill:#4e1420;}.cls-75{fill:#4a141c;}.cls-76{fill:#581826;}.cls-77{fill:#904b66;}.cls-78{fill:#8c4a66;}.cls-79{fill:#5a1c2e;}.cls-80{fill:#6a192f;}.cls-81{fill:#b07b92;}.cls-82{fill:#a26a7d;}.cls-83{fill:#845867;}.cls-84{fill:#6a1a31;}.cls-85{fill:#945871;}.cls-86{fill:#873354;}.cls-87{fill:#7b2a4b;}.cls-88{fill:#7c2746;}.cls-89{fill:#a15d77;}.cls-90{fill:#9e5c76;}.cls-91{fill:#a1657d;}.cls-92{fill:#a1627a;}.cls-93{fill:#915869;}.cls-94{fill:#eacfd9;}.cls-95{fill:#b18491;}.cls-96{fill:#ead8da;}.cls-97{fill:#d9adba;}.cls-98{fill:#6c3845;}.cls-99{fill:#d5b6bf;}.cls-100{fill:#954a67;}.cls-101{fill:#a65c7b;}.cls-102{fill:#8b405e;}.cls-103{fill:#ae7890;}.cls-104{fill:#a76d87;}.cls-105{fill:#f7eef1;}.cls-106{fill:#a06e83;}.cls-107{fill:#aa6b83;}.cls-108{fill:#aa738a;}.cls-109{fill:#813753;}.cls-110{fill:#ae8094;}.cls-111{fill:#a76882;}.cls-112{fill:#93546d;}.cls-113{fill:#9c5d77;}.cls-114{fill:#5f2735;}.cls-115{fill:#945b6e;}.cls-116{fill:#965d73;}.cls-117{fill:#995974;}.cls-118{fill:#784558;}.cls-119{fill:#724857;}.cls-120{fill:#8f6373;}.cls-121{fill:#8b4d66;}.cls-122{fill:#835c68;}.cls-123{fill:#9b717e;}.cls-124{fill:#8b5e6e;}.cls-125{fill:#815767;}.cls-126{fill:#93697a;}.cls-127{fill:#803654;}.cls-128{fill:#94516d;}.cls-129{fill:#a46883;}.cls-130{fill:#a35b7b;}.cls-131{fill:#a1657e;}.cls-132{fill:#a16480;}.cls-133{fill:#924f6b;}.cls-134{fill:#955772;}.cls-135{fill:#f5e3e9;}.cls-136{fill:#91506a;}.cls-137{fill:#ad6784;}.cls-138{fill:#9f647e;}.cls-139{fill:#904968;}.cls-140{fill:#8b3b5b;}.cls-141{fill:#cfb2bc;}.cls-142{fill:#623d45;}.cls-143{fill:#965572;}.cls-144{fill:#996177;}.cls-145{fill:#975672;}.cls-146{fill:#9a6279;}.cls-147{fill:#dcced3;}.cls-148{fill:#aa728a;}.cls-149{fill:#925370;}.cls-150{fill:#9f6881;}.cls-151{fill:#a46580;}.cls-152{fill:#88405d;}.cls-153{fill:#ae778e;}.cls-154{fill:#bb7e99;}.cls-155{fill:#a25f7b;}.cls-156{fill:#935671;}</style></defs><title>tache4</title><g class="cls-1"><g id="taches_vin" data-name="taches vin"><g id="tache_4" data-name="tache 4"><path class="cls-2" d="M1371.72,5782.66a239.28,239.28,0,0,1,41.61-19.92c7.34-1.77,15.27-.64,22.19-4.52a85.51,85.51,0,0,1,33.06-4.24c0.72,5.06-3.85,5.49-6.63,7.24-5.5,3.47-6.39,6.59-.3,10.36,2.76,1.71,7.51,2.85,3.85,7.88-3.09,1.61-6.31,1.39-9.58.79-12.78-1.74-23.69,4.46-35.14,8.33-3.53,1.08-7,2.77-10.85,1.64-2.74-4.48-5.69-7.77-11.83-4.89-3.17,1.48-6.94,1.91-10.57,2.1-5.45-.48-11.74,5.59-16.29-2a2.4,2.4,0,0,1,.47-2.75" transform="translate(-1244.62 -5753.8)"/><path class="cls-3" d="M1622.7,6143.6c-2.8,1.58-3.9,6.16-8.39,4.78-6,.24-9.52,4.45-13.48,8.06-3.63,3.31-7.31,5.35-10.29-1.43-3.51,13.38-5.17,15.24-12.53,14.7-1.61-9.71,4.68-17.31,6.9-26,6.68-3.91,9.57-8.86,4.36-16a9.37,9.37,0,0,1,9.81-5.33c10.79,2.15,21.94.73,32.7,3.28a4,4,0,0,1-.23,5l-4.38,4.35c-2.49,2.37-2.86,5.82-4.46,8.65" transform="translate(-1244.62 -5753.8)"/><path class="cls-4" d="M1695.75,6058c-6.8,9.77-10.06,21.66-18.27,30.58-8-.77-11.23,5.67-15.05,10.65-3.69,4.81-7.46,7.85-13.71,5.21a7,7,0,0,1-1.3-2.82c2-12.85,10.68-22.24,17.06-32.81,4.88-1.26,3.7-5.78,4.81-9.08a11.06,11.06,0,0,1,1.27-2.7,46.12,46.12,0,0,0,3.76-5.2c1.37-2.41,2.13-5.87,5.64-5.68s4.45,3.73,4.58,6.36c0.44,9,7.75,3.18,11.21,5.49" transform="translate(-1244.62 -5753.8)"/><path class="cls-5" d="M1695.75,6058c-13.63,9.55-14.09-1.47-15-11.25-4.56,3.7-3,10.55-9.22,11.15-0.91-10,1.14-19.06,7.68-26.88,1.64,0.62,1.8,2.06,1.94,3.52-0.26-7.77-.26-7.77,3.69-14,3.47-2.73,7.06.47,10.59-.19a23.72,23.72,0,0,1,5.77,4.13c4,5,.52,10.37.7,15.56-3.87,5.36-.08,13.33-6.11,18" transform="translate(-1244.62 -5753.8)"/><path class="cls-6" d="M1306.91,6128.76l-7.74-7.44c-2-2.33-1.57-4.77-.36-7.26,4.64-4.36,4.23-11,7.14-16.12a61.81,61.81,0,0,0,8.53-8.32c2.3-2.9,5.06-5.64,9.17-4.22,4.74,1.64,4.28,6.1,4.65,10,0.54,5.79-2.8,11.31-1.09,17.16-0.33,7.91-.83,15.78-6.83,21.92-6.43,2.67-8.12-5.81-13.46-5.75" transform="translate(-1244.62 -5753.8)"/><path class="cls-7" d="M1263.63,5905.65c0.78-3.23,1.79-6.34,4.42-8.62l1.46,0.08a6,6,0,0,1,4.73,5.07,8.08,8.08,0,0,1-.89,4.33c-4.8,15.25,1.3,29.18,5.32,43.32a46.47,46.47,0,0,1,1,21.65c-1,5.4-.36,10.85,1,16.29,1.33,5.25,2.63,10.79-1.66,15.59-2.53.36-4.31-.91-5.87-2.68-6.27-8.58-8.2-18.14-8.16-28.75a267.77,267.77,0,0,0-3.32-46c-1.17-6.88,1.23-13.49,1.93-20.23" transform="translate(-1244.62 -5753.8)"/><path class="cls-8" d="M1571.9,5775.3c17.81,7,32.31,18.86,46.68,31.2,10.25,8.81,23.68,14.15,28.59,28.3,1.45,2.23,1.13,4.14-1,5.74-3.93,1.2-6.07-1.46-8.23-3.93-18-20.55-38.58-37.41-65-46-3.07-1-6.25-2.15-7.92-5.36,1.93-3.56,5.2-6.2,6.92-9.9" transform="translate(-1244.62 -5753.8)"/><path class="cls-9" d="M1263.55,6091c-1.61-2.83-4.76-5-3.75-8.93,0.55-15,6.75-29.2,6.22-44.34,3.74-8.18,4.54-16.45,1.17-25-1.6-4.07-2.39-8.38.66-12.33,2.94-1.31,5,.5,7.23,1.95,4.3,11.31,10.68,22.26,4.82,35.06-5.71,12.47-2.54,26.77-8,39.46-1.94,4.48-.08,9.44,5.31,11.73a7.39,7.39,0,0,1,1.36,7.46,4.63,4.63,0,0,1-2.14,2.22c-6.12.87-9.48-3.19-12.84-7.23" transform="translate(-1244.62 -5753.8)"/><path class="cls-10" d="M1274.77,6002.85l-6.62-2.2c-7-1.71-8.52-8-8.94-13.35-1.62-20.53-4.33-41.14.1-61.68a35.54,35.54,0,0,1,4.32-20c0.89,10-.43,19.87,3.71,30.1,2.26,5.6-.27,14.29.5,21.87,1.47,14.53-1.59,29.64,7,43,0.68,0.5.91,1,.67,1.49a1,1,0,0,1-.7.73" transform="translate(-1244.62 -5753.8)"/><path class="cls-11" d="M1571.9,5775.3c-0.62,4.21-2.06,7.88-6.43,9.56-1.1,1-2.53,2.07-3.86,1.6-15-5.37-31.33-4.93-46.42-10-0.83-1.27-1.27-3.1.19-3.65,7.28-2.73,7.62-8.14,6-14.45,16.83,5.63,34.69,8.18,50.47,16.89" transform="translate(-1244.62 -5753.8)"/><path class="cls-12" d="M1434.86,6207.94l-0.85.15-0.64-.58c-1.39-2.5-8.56-1.57-4.34-7.38a8.27,8.27,0,0,1,2.7-1.15c14.8-.41,14.26,4.43,15.68-18.33,0.83-6.71,1.66-13.42-1.05-19.95a40.63,40.63,0,0,1-2-6.07c-0.53-7.58-.28-15.48-11.37-15.76-2.81-.07-4.84-2.8-5.65-5.81a6.83,6.83,0,0,1,.93-4.87,6.14,6.14,0,0,1,3-1.54c5.66-.18,10.54,2.67,15.69,4.29,6.6,2.07,10.08,7,9.28,14.23a71.59,71.59,0,0,0,.83,22.81c-0.77,4.49.52,8.73,1.7,13a11.8,11.8,0,0,1,0,3,21.17,21.17,0,0,0,1.58,14.46,19.5,19.5,0,0,1-3.5,12.31,14.07,14.07,0,0,1-6-.35c-4.63-5.45-10.94.09-16-2.44" transform="translate(-1244.62 -5753.8)"/><path class="cls-13" d="M1448.8,6181.18c3.33,5.64-1.09,11.59.83,17.65,0.89,2.82-4.62,1.73-7,3-3.91,2.11-7.53-1.74-11.45-.89-5.95-2.64-12.17-4.8-16.89-9.61-2.72-5.44-7.7-4.52-12.41-4.37a6.1,6.1,0,0,1-4.51-3.85l1.41-4.36c0.75-4,1.3-7.8-2.54-10.94-1.35-1.1.25-2.52,1.52-3.34a8.44,8.44,0,0,1,3.08-.4,9.38,9.38,0,0,1,2.93,1c8.34,8.48,20.51,11.87,27.88,22.08,3.58,5,9.86,2,12.1-4.52,1.08-3.12-.74-8.62,5.8-7.67,0.27,2.13.74,4.28-.74,6.19" transform="translate(-1244.62 -5753.8)"/><path class="cls-14" d="M1371.72,5782.66c0,0.74.07,1.48,0.11,2.22,1.45,2.86,4.94,5.19,2.37,9.11-5,2.72-11.57,2.57-15.05,8.3,1.91,1.73,5.08,1.22,6.26,3.81-0.5,3.85,3.93,6.35,2.93,10.38-1.61,4.88-3.63,9.42-9.12,11.13a22.17,22.17,0,0,1-4.54-.36c-11.69-.77-11.92-9.52-10.2-17.22,1.34-6-1.89-6.08-5.15-7.47,9.75-8.35,21.62-13.25,32.4-19.9" transform="translate(-1244.62 -5753.8)"/><path class="cls-15" d="M1274.4,5881.51l4.12-6.69c6.48-5.92,13.13-10.38,21.45-2.92,0.8,0.71,2.42,1.33,2.37,2.06-0.62,8.19,7.19,13.57,7,21.55-0.7,8.65-5,16.56-5.1,25.36,0,2.52-1.59,3.9-4.25,3.74-2.78-.78-4.47-2.81-5.9-5.14,0.89-9.16-2-18-2.25-27.1-0.2-6.21-5.18-6.08-9.37-6.93-2.33-2.06-6.85.36-8.12-3.92" transform="translate(-1244.62 -5753.8)"/><path class="cls-16" d="M1398.07,6165.73c0.44,4.34,5.35,8.44.7,13-0.72-2.31,1.39-5.83-1.34-6.9-3.46-1.36-4.56,2.51-6.3,4.62-6.82-3.27-2.08-7.83-1.36-12,4.49-11.85,1.39-24,.14-35.68-2.44-22.76,3.79-28.66,26.54-22.09,1.4,0.41,2.77.94,4.17,1.37,7.72,4.44,14.88,9.2,10.7,20l-2.26.17c-2-.79-3.43-2.4-5-3.83-2.48-2.11-4.54-4.72-7.23-6.55-6-4.1-11-2.78-13.95,3.77s-4.6,13.3-3,21,3.19,15.73-1.82,23" transform="translate(-1244.62 -5753.8)"/><path class="cls-17" d="M1257,6077.78l-2-2.31c-4-5.56-3.55-11.38-.8-17.2,2.33-4.94,2-8.93-3.36-11.56l-0.07-.17c-3.6-4.58-5.61-9.42-2.38-15.08h0c5.44-1,4.47-9.63,11.06-9.32,6.89,2.29,8.62,6.42,8.24,14-0.6,12-3.5,23.48-5.24,35.19-0.43,2.89-.52,6.94-5.44,6.42" transform="translate(-1244.62 -5753.8)"/><path class="cls-18" d="M1318.84,6134.94c3.4-7,5-14.49,6.61-22-0.49-6.23,1.15-12.26,1.88-18.37,0.94-7.86.49-15.28-4.87-21.66a75.49,75.49,0,0,1-.37-10.87,3.61,3.61,0,0,1,3.53-2.7c7.05,2.89,11.4,7.91,12.33,15.63-1.32,14.69-4.86,29.08-5.93,43.82-0.15,8.21-1.81,16.35-1.2,24.6a7.23,7.23,0,0,1-3.39,3.91c-6.35,2.74-10-1.36-13.65-5.42l-1.12-2.51c1.61-2.1,4.88-1.89,6.18-4.42" transform="translate(-1244.62 -5753.8)"/><path class="cls-19" d="M1259.3,5925.62c-0.66,19.52,1.13,38.93,2.13,58.39,0.35,6.64,4,11.3,6.71,16.64-1.12,9.74,5.86,18.32,3.77,28.47-0.64,3.1-.82,5.37-3.64,6.86-3-13.21-4.6-26.8-10.94-39.06-2.91-7.43-4.83-15-2.53-23,1.2-16.13-2.06-32.68,4.5-48.31" transform="translate(-1244.62 -5753.8)"/><path class="cls-20" d="M1691.79,5901.29c3.67,2.86,4.23,7.32,5.81,11.26a26.65,26.65,0,0,1-2,2.49c-2.27,2.34-3.05,7.24-8,5.17-5.47-2.31-4.2-6.65-2.74-11-1.93,1.76-3.45,4.09-6.5,3.73-7.42-10.62-13.9-21.56-12.49-35.3,7.51-3.91,8.49,4.45,12.69,6.75,5.6,4.69,8.4,11.58,13.22,16.88" transform="translate(-1244.62 -5753.8)"/><path class="cls-21" d="M1679.69,5913.05c0.37-2.7,1.5-5.43,4.39-5.29,4.18,0.21,2.38,3.63,1.88,5.71-0.62,2.58-.14,4.68,2.34,5.09,7.31,1.2-.58-3.44,1.46-4.11,2.55-.83,5.22-1.29,7.83-1.91,2.76,9.9,5.22,19.91,8.46,29.66,1.09,3.29,1.62,6.13.63,9.32a3,3,0,0,1,.18,2.9c-6.34.08-5.88-5.43-6.91-9.11-1.41-5.06-3.65-8.53-9.28-8.84-2.85-2.66-1.26-9.64-8.17-8.37-3.83-4.48-5.86-9.29-2.82-15.05" transform="translate(-1244.62 -5753.8)"/><path class="cls-22" d="M1259.37,5996.17c8.56,12,9.34,25.77,8.91,39.81a96.74,96.74,0,0,1-8.48,46.11l-2.79-4.31a99.39,99.39,0,0,0,8.69-48c-0.32-4.92-6.72-3.42-8.55-7-3.49-5-2.05-22.2,2.21-26.53" transform="translate(-1244.62 -5753.8)"/><path class="cls-23" d="M1578.71,6170.19c6.53-1.74,6.85-7.74,8.68-12.68,1-2.76-1.86-7.82,2.81-8.13,5.61-.37,1.2,6.26,4.63,8.7,6.41-3.12,9.63-13.49,19.49-9.7-10.94,15-30.64,20.57-40.06,37.21-8.34,3.43-10.43-1.22-10.69-8.24a7.48,7.48,0,0,1,1.41-2.85c7.45,7.74,9.2-2.75,13.75-4.31" transform="translate(-1244.62 -5753.8)"/><path class="cls-11" d="M1490.56,5756c5.23-2.24,10.34.37,15.51,0.41,2.72,5.82,7.77,11.12,4.16,18.39-8.64,2-17.32.92-26,.3-6.08-8.67-5.09-11.67,6.32-19.1" transform="translate(-1244.62 -5753.8)"/><path class="cls-24" d="M1543.4,6199.19c-13.8,7.23-28.4,11-44.07,10.18a2.93,2.93,0,0,1-.24-2.68c2.33-3.35,6.05-6,5.74-10.74,3.11-5.59,7.79-6.9,13.63-5,2.25,1.54,2.4,3.62,1.48,5.87,0.43,1.65.89-.1,1.36-0.1,3.73,1.09,6.6.28,9.39-2.67,3.4-3.6,7.53-4.42,11.6-.56,1.28,1.73,2.57,3.46,1.11,5.72" transform="translate(-1244.62 -5753.8)"/><path class="cls-25" d="M1648.74,6101.33c0.15,0.91.3,1.81,0.45,2.71,3.2,3,9.72,2.8,9,9.49-0.22,10.43-11.38,7.09-15.94,12.47-2.24,2.66-7.08,3.13-10.74,4.59q0-2.24,0-4.48c-1.25-1.62-4.17-.46-4.91-2.94,8.47-6.18,11.76-17.63,22.17-21.85" transform="translate(-1244.62 -5753.8)"/><path class="cls-26" d="M1259.37,5996.17c-3.77,2.73-.49,5.89-0.66,8.84-0.34,5.9,1.26,12-1.56,17.68-1.71,4.14-1.59,10.11-8.78,8.74a51.66,51.66,0,0,0,2.06-22.42c-1.29-12.06,1.06-23.63,4.37-35.1-0.84,7.9,4.06,14.62,4.56,22.25" transform="translate(-1244.62 -5753.8)"/><path class="cls-27" d="M1354.27,6174.42a13.56,13.56,0,0,0-12.19-1.67c-6.57,2.51-10.85-.38-15.13-4.43,4.82-3.53,2.36-12,9.5-14,2.86,2.36,2.23,6.07,3.5,9a6.09,6.09,0,0,0,3.4,3.2,11.56,11.56,0,0,0,4.63-.8c2.31-1.18,1.83-3.48,2.16-5.45,1.14-3.69.82-8,4.71-10.44,3.28,1.6,5.3-4.21,8.8-1.52a9.31,9.31,0,0,1,1.72,4.48,35.3,35.3,0,0,1-.11,8.36,21.36,21.36,0,0,1-.67,3.36c-2.42,4.36-.88,12.88-10.33,9.88" transform="translate(-1244.62 -5753.8)"/><path class="cls-23" d="M1543.4,6199.19l-2.15-4.8a7.55,7.55,0,0,1,1.26-8.86c2.55-2.83,3.62-6,2.55-9.78,4.51-4.29,7-10.6,13.19-13.21,3.44-.21,3.13,4.3,7.12,4.87,5.15,0.73,2.43,4.62.12,7.17l-0.06.08c-6,7.3-6.25,18.38-15.47,23.57-2.1.91-4.09,2.51-6.55,1" transform="translate(-1244.62 -5753.8)"/><path class="cls-28" d="M1643.86,5840.14c2.42-1,3-3,3.31-5.34,9.93,2.09,13.68,11.05,17,18.39,2.09,4.59,5.11,8.39,7.26,12.78-0.12.46-.25,0.92-0.37,1.37-2.94,6.61-7.43,1.52-11.26,1.48-7.61-8.3-12.27-18.22-16-28.69" transform="translate(-1244.62 -5753.8)"/><path class="cls-29" d="M1339.31,5802.57l12.27-2.47c-6.32,7.33-6.18,14.58-4,21.66,1.22,4,5.56,2.39,8.66,2.72,1.55,4.08-1.64,6.31-3.51,9.07a7,7,0,0,1-2.72,1.3c-5.05.52-5.67-3.14-6.46-6.76-1.51-6.87-3.5-12.9-12.6-7.77-2.32,1.31-4.89.45-7-1.27l-0.84-1.29,16.21-15.18" transform="translate(-1244.62 -5753.8)"/><path class="cls-30" d="M1490.56,5756c0.67,2,2.51,5.05,1.79,5.9-2.35,2.76-2.57-2.51-4.08-1.87-6.77,2.85-6.39,8.16-4.28,13.89-2.73,3.11-6.32,3.8-10.2,3.68-7.86-1.55-10.67-5.62-6.23-13,1.92-3.2,1.94-6.91,3.22-10.27l19.78,1.69" transform="translate(-1244.62 -5753.8)"/><path class="cls-31" d="M1706.17,5954.4l0.52-2.87a11.91,11.91,0,0,1,3.47,7.72c1.28,26.36,1.3,52.6-6.42,78.2-0.28,1-1.24,1.7-1.88,2.54-3.73-4.63,2.54-10.63-2.06-15.15,2.76-4,5.05-8.18,2.54-13.24-1.83-4.74-6.22-8.95.92-14,4.15-2.92,1.68-9.62,2.45-14.56,0.07-3.59-1.25-7-1.73-10.46a19.53,19.53,0,0,1-.19-3.09c0.71-5.05,1.2-10.14,2.37-15.12" transform="translate(-1244.62 -5753.8)"/><path class="cls-32" d="M1658.21,6113.53c-1.14-4.94-8.94-3.54-9-9.49,8.41-1.15,12.34-7.87,16.75-13.79,3.47-4.66,6.67-7.84,11.53-1.72-6.13,8.56-10.36,18.58-19.26,25" transform="translate(-1244.62 -5753.8)"/><path class="cls-33" d="M1470.78,5754.3c3,4.11,2.49,8.36-.86,11.58-5.88,5.65-.71,7.27,3,9.63-1.18,3.52-3.16,4.9-6.55,2.41-15.58-12-15.58-12,1.6-23.06a3.09,3.09,0,0,0,.64-0.87l2.21,0.31" transform="translate(-1244.62 -5753.8)"/><path class="cls-34" d="M1510.42,5773.86c-0.37-6.09-7.29-10.55-4.35-17.46,5.35-1.06,10.42-.05,15.36,2,7.93,10.68,7.89,10.77-7,15.64a2.88,2.88,0,0,1-4-.19" transform="translate(-1244.62 -5753.8)"/><path class="cls-35" d="M1298.88,5846.06c2.52-7.24,7.89-12.28,13.34-17.25-1.16,8.42,5.54,14.54,6.58,22.33a13.46,13.46,0,0,1-.63,6.38c-5.86,5.85-11.83,4.46-14.62-3.27-0.9-2.5,1.6-6.9-3.74-7.08l-0.92-1.11" transform="translate(-1244.62 -5753.8)"/><path class="cls-36" d="M1307.77,5894.9c-0.27-6-9.63-8.72-7.88-13.26,3.93-10.24-5.54-9.32-9-11.27-3.18-1.78-7,5.54-12.35,4.45,0.77-3.36,1.93-6.49,4.89-8.61,10.31-7.73,16.75-.33,23.49,6,3.89,7.27,9.32,14.38,2.66,22.88l-1.79-.18" transform="translate(-1244.62 -5753.8)"/><path class="cls-37" d="M1391.63,6165.84c0.23,3.57-4.66,6.89-.51,10.65a48.67,48.67,0,0,0-1.48,5.15c-1.9,10.68-6.68,14-15.85,6.31-2-3.71-4.27-7.28-5.46-11.38a4.32,4.32,0,0,1,1.25-2.52,37.35,37.35,0,0,1,11.12-1.11,6.79,6.79,0,0,1,2.11.94c0.25,0.41.81,2.18,0.61-.19a9.26,9.26,0,0,1,.2-3.19,10,10,0,0,1,5.14-5.3l1.54-.15,1.33,0.79" transform="translate(-1244.62 -5753.8)"/><path class="cls-38" d="M1397.36,6183.13l5.17,2.47c4.6,0.87,10.11-1,13.21,4.4,5,3.87,11.86,5.1,15.44,11l-2.26.08c-10.2,2.92-19.09-1.57-27.66-5.78-2.21-1.09-3.82.27-5.43-.79-0.28-3.88-1-7.83,1.54-11.33" transform="translate(-1244.62 -5753.8)"/><path class="cls-39" d="M1549.95,6198.22c7.41-6.38,4-19.89,15.47-23.57-0.37,6.32.68,11.49,8.82,10.93-5.93,8.38-15.56,9.65-24.29,12.64" transform="translate(-1244.62 -5753.8)"/><path class="cls-40" d="M1336.24,6154.72c-5.27,3.05,1.54,14.35-9.3,13.6l-1.59-2.2c-1.8-7-4.69-14.2,2.17-20.32l2.09-2.18c2.79-4,5.44-2.93,8,.23a11,11,0,0,1,1.2,4.89c-0.09,2.32-.49,4.53-2.6,6" transform="translate(-1244.62 -5753.8)"/><path class="cls-41" d="M1506,6198.8c2.68,6.75-4.7,5.78-6.8,8.85-4.3,2-8.75-3.94-13,.25a13.6,13.6,0,0,1-11,2.16c-2.07-4.52.25-7.94,2.83-11.29a7.71,7.71,0,0,1,2.72-1.43c8.57-2.07,16.95-.62,25.29,1.46" transform="translate(-1244.62 -5753.8)"/><path class="cls-29" d="M1316.68,5850.92c-2.86-7.09-8.7-13.59-4.47-22.12l10.89-11.05,0.67,0.51c2.76,1.66,3.66,3.94,2.39,7-3.64,5.27-4.7,11.11-4.37,17.45,0.19,3.65,1.35,8.48-5.12,8.25" transform="translate(-1244.62 -5753.8)"/><path class="cls-42" d="M1285.43,6111l-1.88-2.32c-0.79-3.46-3.11-4.73-6.46-4.55l-2.8-1.81c-0.07-2.14,1.19-3.53,2.67-4.81h0c2.42-2.89-.27-9,6-9.45,4,2.17,7.95,4.35,10.49,8.33a7.2,7.2,0,0,1,.15,3c-1,2.68-2.33,5.31-1.85,8.35a4.77,4.77,0,0,1-1.9,3.93,5.24,5.24,0,0,1-4.43-.62" transform="translate(-1244.62 -5753.8)"/><path class="cls-43" d="M1395.82,6194.46c2,0.13.73-6.79,6.47-1.41,6.4,6,17,7.52,26.62,8-2.26,4.74,8.48.54,4.46,6.49-12.41-4.66-26.76-3.76-37.55-13.06" transform="translate(-1244.62 -5753.8)"/><path class="cls-44" d="M1305.64,5872.92c-7.21-2.88-13-10.38-22.23-6.71l6.4-9.61c3.45,0.24,5.94-3.18,9.51-2.5,2.15,0.5,3.29,2,4.11,3.94,1.14,2.67,1.94,5.46,2.92,8.19a14.22,14.22,0,0,1,.71,2.8,4.52,4.52,0,0,1-1.42,3.89" transform="translate(-1244.62 -5753.8)"/><path class="cls-45" d="M1250.83,6046.7c10.2-2.23,9.47,4,6.78,9.83a30.94,30.94,0,0,0-2.61,18.94c-4.81-4.34-8.66-8.54-4.4-15.87,2.12-3.66,1.18-8.55.24-12.89" transform="translate(-1244.62 -5753.8)"/><path class="cls-46" d="M1354.27,6174.42c8.26,0.56,5-7.84,8.54-11,3.93-2.84,7.55-2.59,10.82,1.09,2.11,4.77-1,7.43-4.13,10h0c-1.61,1.57-1.86,4.52-4.82,4.71-4-.46-8.59.26-10.41-4.89" transform="translate(-1244.62 -5753.8)"/><path class="cls-47" d="M1677.77,5886.09c-6,0-5.46-8.79-11.59-8.64-1.9-.23-2.38-1.35-1.95-3.06,1.92-2.82,5.21-4.46,6.66-7.68l0.56-.73c2.33,6.23,11,9.18,9.06,17.63-0.32,1.49-1.77,1.73-2.75,2.48" transform="translate(-1244.62 -5753.8)"/><path class="cls-48" d="M1327.53,6145.8c-1.86,6.65-2.18,13.47-2.17,20.32-1.94-.76-2.38-2.36-2.37-4.22,0-4.84-5.55-6.86-5.94-11.52l-3.27-8.52c4.47,1.69,8.35,5.49,13.75,3.93" transform="translate(-1244.62 -5753.8)"/><path class="cls-49" d="M1677.77,5886.09l2.75-2.48c8.66,2.77,8.39,11.22,11.26,17.68-6.77-3.12-10.26-9.28-14-15.2" transform="translate(-1244.62 -5753.8)"/><path class="cls-50" d="M1318.84,6134.94c4.73,11-5,1.72-6.18,4.42l-5.75-10.6c7.33-4.42,8.19,3.67,11.93,6.18" transform="translate(-1244.62 -5753.8)"/><path class="cls-7" d="M1274.4,5881.51l7,2.4c-0.37,4-1.67,7.76-2.48,11.66a6.34,6.34,0,0,1-1.91,2.07c-2.78.14-5.52-.71-8.32-0.35L1268,5897c1.23-5.54,2.88-10.9,6.36-15.52" transform="translate(-1244.62 -5753.8)"/><path class="cls-51" d="M1479.47,6198.74l-4.27,11.32a3.12,3.12,0,0,1-1.74.45c-1.88-.6-3.93-0.85-5.3-2.52-0.17-4.16-4.83-8.08-.69-12.49,4.47-.64,8.59,0,12,3.23" transform="translate(-1244.62 -5753.8)"/><path class="cls-52" d="M1364.67,6179.31l4.82-4.71c0.21,4.85,8.84,7,4.3,13.36-5.12-.69-7.3-4.48-9.12-8.65" transform="translate(-1244.62 -5753.8)"/><path class="cls-53" d="M1299.05,5855.26c-3.1.28-5.45,5.83-9.24,1.34a23.69,23.69,0,0,1,9.07-10.54l0.27,0.95c5.11,2.81,2.32,5.53-.1,8.25" transform="translate(-1244.62 -5753.8)"/><path class="cls-54" d="M1468.51,6207.51c2.16,0.15,4,.9,4.94,3-8.44,2.91-16.82,1.3-25.2-.33a2,2,0,0,1,2.82-1l5.93,0.29a14.38,14.38,0,0,1,7.12-3.3,5.1,5.1,0,0,1,4.4,1.33" transform="translate(-1244.62 -5753.8)"/><path class="cls-55" d="M1277,6097.47a5,5,0,0,1-2.67,4.81c-5.53-1.9-8.45-6.28-10.74-11.27l13.42,6.46" transform="translate(-1244.62 -5753.8)"/><path class="cls-56" d="M1435.51,5758.23c-6.51,5.87-14.48,4.56-22.19,4.52l22.19-4.52" transform="translate(-1244.62 -5753.8)"/><path class="cls-43" d="M1451.07,6209.19l-2.82,1c-4.46-.75-9.23.35-13.39-2.24,5.4,0.44,11.32-5.83,16.21,1.25" transform="translate(-1244.62 -5753.8)"/><path class="cls-26" d="M1248.37,6031.44c-0.57,5.24.8,10.18,2.38,15.08-4.44-4.45-10-8.73-2.38-15.08" transform="translate(-1244.62 -5753.8)"/><path class="cls-57" d="M1301.1,6115.07c-2.36,1.55-1.41,4.13-1.93,6.24l-6.94-5.86a2.41,2.41,0,0,1,0-3.13,7.46,7.46,0,0,1,4.9-1.42c2.13,0.62,4.86.68,4,4.18" transform="translate(-1244.62 -5753.8)"/><path class="cls-58" d="M1486.22,6207.91c4.25-4.71,8.63-2.31,13-.25a16.6,16.6,0,0,0,.1,1.72c-4.89,4.2-8.43-3.74-13.1-1.47" transform="translate(-1244.62 -5753.8)"/><path class="cls-59" d="M1317,6150.38c2.65,3.49,7.52,5.84,5.94,11.51-1.85-3.9-7.32-5.94-5.94-11.51" transform="translate(-1244.62 -5753.8)"/><path class="cls-25" d="M1622.7,6143.6c-0.16-3.73.5-7,4.46-8.65,0,3.66-.66,7-4.46,8.65" transform="translate(-1244.62 -5753.8)"/><path class="cls-60" d="M1292.56,6112.1c-0.11,1.12-.23,2.23-0.34,3.35-3-.41-4.89-2.46-6.8-4.5l5.53-.41a1.78,1.78,0,0,1,1.61,1.56" transform="translate(-1244.62 -5753.8)"/><path class="cls-60" d="M1277.09,6104.09c3.8-.82,7.63-1.68,6.46,4.55-2.48-1.06-5.11-1.9-6.46-4.55" transform="translate(-1244.62 -5753.8)"/><path class="cls-61" d="M1387.11,5784.84c7-1.13,14.1-1.71,20.71-5.91-0.41,3.91,3.58,6.6,1.32,10.32,1.43,4.26-3.64,2.38-4.36,4.61l0.14-.12c-3.75,2.34-7.4,4.89-12.19,4.33-11.1-1.78-12.34-4.69-5.61-13.24" transform="translate(-1244.62 -5753.8)"/><path class="cls-62" d="M1387.11,5784.84c-3.82,7.28-3,11.78,6.6,11-0.85,6.39-8.7,4.75-11,9.54a5.15,5.15,0,0,1-4.62.15,15.13,15.13,0,0,1-5.52-5.86c-0.67-2.24-.56-4.32,1.26-6,1.47-3.43-4.85-5-2.07-8.76,5.11,3.92,10.19-1.06,15.29,0" transform="translate(-1244.62 -5753.8)"/><path class="cls-63" d="M1455.18,5777.75l-35.07,11c0-.51,0-1,0-1.54,10.82-6.4,22.1-11.06,35.08-9.45" transform="translate(-1244.62 -5753.8)"/><path class="cls-64" d="M1420.11,5787.21q0,0.77,0,1.54c-4.66,3.05-9.57,5.35-15.33,5.13l4.36-4.62c3.75-.18,7-3.11,11-2" transform="translate(-1244.62 -5753.8)"/><path class="cls-65" d="M1558.23,6163.32a3.07,3.07,0,0,1,.86-1.91c6.77-.62,11.26-3.58,11.37-11.05,0.87-4.2,2.54-7.58,7.66-7.36a35.22,35.22,0,0,0,5.6-.67,4.13,4.13,0,0,1,3.77,1.42q-4.39,13.22-8.78,26.44c-0.37,5.49-5.25,7.88-7.77,11.79-4.14-1-2.32-6-5.45-7.4-1-1.83,2-6.74-.92-5.44-8.38,3.66-4-4.31-6.33-5.81" transform="translate(-1244.62 -5753.8)"/><path class="cls-66" d="M1578.68,6145.95c-4.92-2.61-5,2-6.63,4.41-7.27,6.18-5.18-1.37-6.26-4.27,5.88-8.76,16.24-11.35,24-17.46,0.59,3.41,7.67-1.57,6,4.49-1.26,4.59-1.56,10.23-8.33,10.63h-4.4c-2.33-1-3.11,1.13-4.41,2.19" transform="translate(-1244.62 -5753.8)"/><path class="cls-67" d="M1598.68,6124.54l27.94-.91c1.86,0.38,3.83.52,4.87,2.49-11,1.49-22,1.45-32.81-1.58" transform="translate(-1244.62 -5753.8)"/><path class="cls-68" d="M1666.68,6068.78c0.73-3.37,1.44-6.74,4.35-9.06-1.08,3.2,3,8.88-4.35,9.06" transform="translate(-1244.62 -5753.8)"/><path class="cls-69" d="M1679.61,6030.75c5.74-22.88,7.45-46.19,7.24-69.69,4.9-5.86-1-14.11,4.39-19.87,12.18,5.76,14,17,15.13,28.61,0,0.73,0,1.46,0,2.18-0.74,1.26.21-.25-0.79,0.73-3,3-2,10.16-6.79,10s-5.35-6.88-8.18-10.42c1.62,6-.5,13.5,7,17.21,6.45,6.88,1.51,13.1-2,18.52a112.48,112.48,0,0,1-9,12.41,63.1,63.1,0,0,0-6.21,15.44q-0.39-2.57-.78-5.13" transform="translate(-1244.62 -5753.8)"/><path class="cls-21" d="M1686.59,6020.44c-1.23-6.8,3.47-10.66,7.56-14.62,4.6-4.46,5.51-8.92,1.27-14,3.13-4.71,2.36-15.08,13-8.9-3.38,6.05,5.39,16.07-6.74,19.76-1.81.55,4.14,5.14,2.55,9-0.05.5-.11,1-0.16,1.48-0.9,4-4.94,4.46-7.38,6.72-0.43.23-.86,0.44-1.3,0.64-2.95,5.22-5.84-.39-8.76,0" transform="translate(-1244.62 -5753.8)"/><path class="cls-21" d="M1704.19,6011.64c3.74,6.14,4,11.1-4.4,13.21q-4.26-.11-4.44-4.37l0,0c4.11-1.76,8.15-3.58,8.79-8.8h0Z" transform="translate(-1244.62 -5753.8)"/><path class="cls-70" d="M1323.27,6071.07c7.88,4.77,9.13,12,6.38,19.87-2.5,7.19-.48,15.13-4.2,22-5.44-6.16,2-12.27.08-18.5-0.79-2.56.95-6.35-2.86-7.3-3.46-.86-4.79,1.92-6.11,4.75-2.1,4.49-6,6.9-10.84,7.85-2.45-6.12,2.78-10.78,3.11-16.37a7.53,7.53,0,0,1,1.23-2.56,44,44,0,0,1,5.9-6.06c2.14-1.28,3-3.8,4.86-5.24,1.46-1.13,3.3-1.53,2.45,1.58" transform="translate(-1244.62 -5753.8)"/><path class="cls-71" d="M1309.77,6081.88c3,6.94-3.07,11.81-4.05,17.85,1,5.87-.17,11.11-4.62,15.35-1.17-1.95-3.11-2.28-5.12-2.44,1.49-11.65,4.5-22.61,13.79-30.76" transform="translate(-1244.62 -5753.8)"/><path class="cls-72" d="M1277,5894.94c-0.55-4.49-1.35-9.07,4.41-11,9.23-2.21,15-.31,13.25,10.91-1.28,8.11,6.21,16.22,0,24.35,3,3.49,2.38,8,3.27,12a11.23,11.23,0,0,1-.13,3.16c-3.77,11.38-6.33,22.93-4.87,35,4.74,10.63,1.86,21.45.37,32.09-1,7.31-4.5,12.66-13.43,8.86-2.1-2.34-3-4.79-.68-7.53-3.49-19.15,1.82-39.41-4.61-57.67-4.26-12.12-4.62-23.9-5.95-36-0.45-4.12.63-4.57,3.93-3.22,6,2.5,6.25,7.54,5.61,12.86a33.79,33.79,0,0,0,2.16,17.22c8.55-8.15,9.72-22.56,1.88-29-4.34-3.55-4.6-7.6-5.22-12.1" transform="translate(-1244.62 -5753.8)"/><path class="cls-73" d="M1279.21,6002.83c0.07,2.42-.38,5,2.19,6.62,2.62,4.27,5.38,8.42,9.86,11.07,4.3,15.87.71,31-5.56,45.36-3,7-6,13.91-7.72,21.36-0.31.5-.63,1-0.95,1.48-8.31.06-11.7-4.89-7.63-15,6.1-15.13,3.75-31.82,10.56-47.13,2.23-5-4.25-15.43-5.2-23.77l0-2.22,4.41,2.2" transform="translate(-1244.62 -5753.8)"/><path class="cls-74" d="M1277,5894.94c2.41,4.14,4.26,8.07,9.09,11,7.64,4.55,5.17,28.66-2.73,33.27-4.15,2.42-6.74,1.29-6.85-4-0.13-6.39-3.21-12.55-.47-19.24,1.47-3.58-2.23-6.66-3.46-10q0-2.2,0-4.4a7.7,7.7,0,0,1,4.4-4.41q0-1.1,0-2.19" transform="translate(-1244.62 -5753.8)"/><path class="cls-72" d="M1277,5897.13a7.56,7.56,0,0,1-4.4,4.41l-3.91-4.25c2.67-5.18,5.47-3.64,8.3-.16" transform="translate(-1244.62 -5753.8)"/><path class="cls-55" d="M1283.67,6088.74c-4.67,1-3.42,6.61-6.68,8.73q0-4.37,0-8.75h0c1.85-7.71,2.59-16,10.93-20.21a6.26,6.26,0,0,1,2,2.74,20.77,20.77,0,0,1,.87,6.92c-0.39,4.87-.57,9.9-7.16,10.58" transform="translate(-1244.62 -5753.8)"/><path class="cls-75" d="M1448.76,6174.58c-2.41,1.77-2.15,4.37-2.2,6.9-0.1,4.29.74,9.61-5.22,10.28-5.35.6-11.34,2.6-14.85-5a20.09,20.09,0,0,0-14.46-11.6c-4.88-1-6.74-5.84-9.5-9.41,4.36-5.11.59-10.59,0.46-15.81-0.28-11.37,7.85-19.41,18.41-15.94,10.74,3.52,21.18,8.47,25.07,20.75l2.23,4.33c-2.26,5.16,3.92,10.3.05,15.47" transform="translate(-1244.62 -5753.8)"/><path class="cls-76" d="M1446.48,6154.79a60.84,60.84,0,0,0-17.88-15.2c-4.75-2.54-9.47-5.9-16.13-2.67-10.94,5.31-7.61,13.16-4.68,20.71,2.33,6,.76,8.18-5.26,8.16h-2.2c-2.3-10.26-1-20.75-1.75-31.11a15.14,15.14,0,0,1,8.07-14.36c5.83-2.94,11.24-.61,15.47,4.22a42,42,0,0,1,6.83,8.23c1,2,2.39,4,4.61,4.06,12.66,0.11,13.59,8.42,12.93,18" transform="translate(-1244.62 -5753.8)"/><path class="cls-77" d="M1459.88,6178.83l6.5,4.66c3.41,5.1,7.82,8.69,14.15,9.41a4,4,0,0,1,1.87,2.36c-0.13,1.81-1.51,2.6-2.83,3.43l-0.1,0c-4.63.91-8.73-1.51-13.14-2.06-2.75,1.29-4.85,0-6.81-1.74,0.36-4.08-4.5-7.27-2-11.73a10.08,10.08,0,0,1-.07-2,2.93,2.93,0,0,1,2.46-2.43" transform="translate(-1244.62 -5753.8)"/><path class="cls-78" d="M1457.49,6183.22c-1,4.13,10.58,5.66,2.35,11.3a3,3,0,0,1,.7,3.72l-1.12.82c-5.62-4.68-5.25-10.08-1.92-15.84" transform="translate(-1244.62 -5753.8)"/><path class="cls-79" d="M1448.76,6174.58c0.08-3.83,0-7.46-2.72-10.77-2.39-2.92-.21-4.24,2.67-4.7,3,7.34,3.89,14.69.09,22.06q0-3.3,0-6.6" transform="translate(-1244.62 -5753.8)"/><path class="cls-78" d="M1459.88,6178.83l-2.46,2.43c-1.11-3.64-6.13-6.76-1.51-11.18,2.16,2.54,4.67,4.91,4,8.75" transform="translate(-1244.62 -5753.8)"/><path class="cls-78" d="M1464.16,6207.77c-1.91,2.57-4.59,1.91-7.16,1.71-1.43-4,1.38-7,2.41-10.42l0.62-.42c5.62,1.13,3,6,4.13,9.13" transform="translate(-1244.62 -5753.8)"/><path class="cls-79" d="M1428.94,6132.75l-6.6-4.43c-0.72-3.65,2.7-3.18,4.4-4.41l2.3,4.4q0,2.22-.1,4.43" transform="translate(-1244.62 -5753.8)"/><path class="cls-80" d="M1426.74,6123.92c1.08,4-3.42,2.45-4.4,4.41-4.23-2.94-7.83-9.69-13.63-6.08-5.23,3.25-8.3,9.42-8.36,16.2-0.08,9.11,0,18.22,0,27.33l-2.25,0c-0.14-9.44.63-18.84-1.85-28.24-2.08-7.88,3.31-14.71,5.63-21.8,1.74-5.3,13.53-4.84,18,.06,2.4,2.62,4.59,5.44,6.87,8.17" transform="translate(-1244.62 -5753.8)"/><path class="cls-76" d="M1415.73,6190c-3.76-3.4-9.64-.43-13.21-4.4,5.89-3,10.77-3,13.21,4.4" transform="translate(-1244.62 -5753.8)"/><path class="cls-81" d="M1373.89,5793.64q0.07,3.26.15,6.52c0.07,6.3-3.59,7.64-8.95,6.72-3.54-3-7.49-.48-12.52.16,5.13-9.69,11.21-14.79,21.31-13.4" transform="translate(-1244.62 -5753.8)"/><path class="cls-82" d="M1365.1,5806.88c3.29-1.83,7.26-2.76,8.95-6.72q4.19,0.33,4.27,4.53c1.07,5.24-6.48,4.4-6.33,9l-4.45,2.16c0.54-3.35-7.69-4.31-2.44-9" transform="translate(-1244.62 -5753.8)"/><path class="cls-83" d="M1358.87,5827.13l-6.64,6.62c-1-4.12,2.79-6.13,4-9.27l2.62,2.65" transform="translate(-1244.62 -5753.8)"/><path class="cls-36" d="M1308.06,5912.93l-8.69,28.83c-3.83-2.31-1.31-6.36-2.55-9.38h0c-2-3.63-.27-6.33,2.21-8.83,2.2-7.63,4.51-15.23,6.52-22.91,0.54-2,.26-4.28,2.23-5.73l0.1,0.06c5.1,5.94,1.24,12,.19,18" transform="translate(-1244.62 -5753.8)"/><path class="cls-84" d="M1299,5923.54l-2.21,8.83c-4-3.87-1.49-8.79-2.13-13.21,2.83,0.08,4.27,1.55,4.35,4.37" transform="translate(-1244.62 -5753.8)"/><path class="cls-85" d="M1400.2,6068.88c-1.09,3.06-2.24,6.09-3.26,9.17-5.7,17.06-4,20.21,13.87,24.52,4.78,1.15,7.23,4.37,9.77,7.87-6.72-1.18-13.18-2.92-20.35-2.29-7.85.68-12.17,2-8.86,10.9,4.28,11.55.75,24,3.92,35.78,1,3.64-1,7.81-3.66,11l-0.37-.24c-4.27-5.37-1.82-12.11-3.68-18,0.85-12.33-1.28-24.35-3.87-36.33a12.51,12.51,0,0,1,0-3c0.4-2.14,1.56-4,2.36-6,3.78-9.34,1.13-14.42-8.1-16-1.28-6.81,4.63-11.12,5.93-17a4.93,4.93,0,0,1,2.71-1.47c4.46,1.11,9.27-1.89,13.59,1.11" transform="translate(-1244.62 -5753.8)"/><path class="cls-48" d="M1336.43,6143.72c-2.25-1.43-4.52-1.1-6.81-.11-4.88-8.8.46-17.51,0.21-26.27,2.67-9.49,6.7-18.48,10-27.72,5.45-2.78,5.87,1.41,6.36,4.86,0.71,5,1.45,9.84,6.7,12.31a5,5,0,0,1,1.67,2.41c-3.26,4.65-9.84,5.75-12.19,11.39-9.89,3.07-1,7-.47,10.5-1.62,1.75-.44,3.69-0.36,5.57a7.67,7.67,0,0,1-1.21,2.24c-1.34,1.58-2.09,3.66-4,4.82" transform="translate(-1244.62 -5753.8)"/><path class="cls-86" d="M1325.45,6060.12l-2.19,2.17c-1.84,2.14-3.89,3.67-6.91,2.43-1.73-2.58-.71-4.92.62-7.24,3.1-3.41,5.44-7.47,8.93-10.59,6.57-3.69,10.86.57,15.29,4.36,6,9.78,5.69,15.24-1.42,22.58-1.15-.2-2.21-1-2.09-2,1.12-9.4-4.32-11.81-12.23-11.7" transform="translate(-1244.62 -5753.8)"/><path class="cls-87" d="M1340.83,6088.75c0.67,11.2-5.55,19.74-11,28.59,1.18-14.14,2.8-28.21,6.55-41.94l1.39,0.34a6.68,6.68,0,0,1,2,2,20.76,20.76,0,0,1,1.22,9.65c-0.05.46-.12,0.92-0.19,1.38" transform="translate(-1244.62 -5753.8)"/><path class="cls-88" d="M1325.45,6060.12c13.89-3.18,15.33-1.74,13.25,13.21,0.46,1.93,0,2.94-2.2,2.2l-0.11-.12c-1.26-6.8-7.07-10.35-10.94-15.29" transform="translate(-1244.62 -5753.8)"/><path class="cls-88" d="M1316.95,6064.51l6.31-2.22c1.11,2.93,4,5.85,0,8.78-4-1.22-.66,8.59-6.64,4.46a7.48,7.48,0,0,1-3.5-5c-0.21-2.94.62-5.22,3.82-6" transform="translate(-1244.62 -5753.8)"/><path class="cls-89" d="M1706.37,5969.8a2,2,0,0,1-.85-0.63c-1.31-11.18-7.71-19.7-14.54-28l-0.87-.95a4.34,4.34,0,0,1,0-2.52l0.88-.94c6.81-5.89,9.32-.22,10.75,4.72,1.28,4.4,1.61,9.05,4.43,12.92,4.38,5.08-.3,10.27.2,15.4" transform="translate(-1244.62 -5753.8)"/><path class="cls-89" d="M1684.08,5928.22c0.57-2.14,1.13-4.49,4-4.14,2.1,0.25,2.77,2.07,2.82,4,0.06,2.89.06,5.79,0.08,8.68h0c-6.39.4-2.7-7.27-6.9-8.62v0.06Z" transform="translate(-1244.62 -5753.8)"/><path class="cls-90" d="M1479.57,6198.69l2.23-4.28c0.18-7.12,7-7.41,11-10.7l24.4-2c4.18,0.26,8.51,2.51,12.39-1,2.73-2.79,6.22-1.67,9.46-1.82,2,1.27,3.15,3.21,2.72,5.43-1.2,6.23-16.59,11.55-22.52,7.92-5.42.15-11.36-.77-13.19,6.58-8.83,2.34-17.64.25-26.45-.11" transform="translate(-1244.62 -5753.8)"/><path class="cls-91" d="M1519.22,6192.23c5.5,0.29,9.83-3.8,14.95-4.23,7.1-.6,5.74-4.76,4.85-9.12,1.73-1.86,4-2.22,6.37-2.25,7.09,2.34,2.47,7.25.68,8.81-3,2.62-3.48,5.85-4.82,8.94-5.73-4-8.76.65-11.61,4.11s-5.37,2.86-8.21.31c-1.45,1.28-2.9,1.37-4.35,0q1.08-3.29,2.15-6.58" transform="translate(-1244.62 -5753.8)"/><path class="cls-92" d="M1517.07,6198.81h4.35c-0.19,2.28-.85,4.57-3.62,4.08s-1-2.59-.74-4.07" transform="translate(-1244.62 -5753.8)"/><path class="cls-93" d="M1347.11,6168l-4,2c-1.58-2.66-1.48-6.13-4-8.34a68.11,68.11,0,0,1,2.76-23.88c1.45-4.2,3.43-7.65,8.83-6.39,3.26,1.65,2.52,4.34,1.84,7-1,2.54.36,4.72,1.14,7,0.34,5.42-2.33,10.26-2.89,15.51a9.39,9.39,0,0,1-3.64,7" transform="translate(-1244.62 -5753.8)"/><path class="cls-94" d="M1343.18,6137.2c0.8,8.93-2.2,17.41-3.11,26.13a2.19,2.19,0,0,1-1.62,2.09c-3.26-3-1.9-7-2.21-10.71q0.24-2.89.48-5.79c2.26-3.56-1-8.27,2.42-11.6a9.31,9.31,0,0,1,1.69-.19,1.58,1.58,0,0,1,2.35.06" transform="translate(-1244.62 -5753.8)"/><path class="cls-95" d="M1362.89,6152.57q-0.16-2.34-.32-4.68c-1.47-1.14-3.69-.61-5-2.23a6.66,6.66,0,0,1-.83-4.23,7.47,7.47,0,0,1,1.23-2.73,12.09,12.09,0,0,1,5.3-2.94,6.87,6.87,0,0,1,4.49.58c4.21,2.24,1.41,7.5,4.44,10.26,0.57,2-.27,3.7-1.35,5.32a3.94,3.94,0,0,1-2.41,1.35c-1.86-.19-3.82.24-5.59-0.72" transform="translate(-1244.62 -5753.8)"/><path class="cls-96" d="M1358.69,6141.36l-0.29,4.53c1.49,2.61-.48,3.42-2.26,4.33l-4.37,11.12c-0.7,1-1.45,1.12-2.25.11l1.93-17.78c-0.21-2,1-3,2.64-3.55a5.78,5.78,0,0,1,4.6,1.26" transform="translate(-1244.62 -5753.8)"/><path class="cls-95" d="M1373.36,6166c-3.06-2.77-6.84-2.49-10.55-2.5l0.37-2.39c2.54-2.37,1.84-7.06,5.94-8.31l0.5-.28c7.79,0.58,6.59,6,6,11.11a4.21,4.21,0,0,1-2.26,2.37" transform="translate(-1244.62 -5753.8)"/><path class="cls-97" d="M1369.12,6152.76c-2.24,2.59-.43,8.07-5.94,8.31q-0.14-4.25-.29-8.5c2.17-3,4.28-3.89,6.23.19" transform="translate(-1244.62 -5753.8)"/><path class="cls-98" d="M1356.14,6150.22l2.26-4.33c2-.71,4.48-2.2,4.17,2-2.15.75-3.09,4.85-6.43,2.33" transform="translate(-1244.62 -5753.8)"/><path class="cls-99" d="M1349.52,6161.44l2.25-.11c0.91,3.94,1.68,7.79-4.66,6.7Z" transform="translate(-1244.62 -5753.8)"/><path class="cls-59" d="M1338.45,6165.42l1.62-2.09c5.87,0.06,2.85,4.12,3,6.74a7.59,7.59,0,0,1-4.66-4.64" transform="translate(-1244.62 -5753.8)"/><path class="cls-20" d="M1664.83,5875l-2.9-5.93c2.79-1.54,6.56.56,9-2.39,0.09,4.32-2.94,6.36-6.07,8.32" transform="translate(-1244.62 -5753.8)"/><path class="cls-100" d="M1352.36,5833.66a2.07,2.07,0,0,1-1.09,1.75c0.12,2.73-6.9-1-3.92,4.33l0,0.05a7.22,7.22,0,0,1-7.48,1.49c-5-3.51-1.6-10.64-6.26-14.25-2.16-2.56-6.93,2.92-8.12-2.59l-1.68-6.19a4.12,4.12,0,0,0,1.08-.08c13.58-4.83,21.89-1.49,22.59,14.26,0,0.48,3.21.82,4.92,1.22" transform="translate(-1244.62 -5753.8)"/><path class="cls-101" d="M1708.38,5982.9c-8.14-2.6-7.7,7.3-13,8.9-10-4.71-5.46-13.78-7-21.76,7.09,1,7.66,7.05,10.55,11.43,1.26-4.43,1.32-9.46,7.41-9.49l2,10.91" transform="translate(-1244.62 -5753.8)"/><path class="cls-42" d="M1331.46,5859.54c-0.75,3.17-2.92,5.24-5.47,7-6.68-.24-5.54,9.05-11.63,9.54-5.07,0-7.19-3.45-8.73-7.56v0c-1.88-2.73-.09-7.28-4.38-8.8-0.06-1.81-.44-3.46-2.18-4.45-0.16-2.76,2.3-5.48.1-8.26,4.1-1.71,6.5-1.82,6.7,4.08,0.22,6.56,3.65,10.08,10.69,6.37,2.94-1.45,6.31.46,9.23-1.2,2.7-.29,4.9.28,5.69,3.28" transform="translate(-1244.62 -5753.8)"/><path class="cls-102" d="M1325.45,5857.49c-3,6.83-5.95.78-8.92,0q0.07-3.27.15-6.54c5.1-2,2.16-5.91,2.2-9.12,0.07-6.58-.88-13.56,6.56-17.35,2.93,3.48,5.9-5.33,8.82,0-5.37,10.36-7.61,21.55-8.81,33" transform="translate(-1244.62 -5753.8)"/><path class="cls-53" d="M1305.63,5868.53l8.83,6.61c1.61,5.83.39,11.65-.07,17.47-1.74,6.89-1.46,14.41-6.33,20.33q-0.1-9-.18-18c6.26-8.06-1.3-14.71-2.24-22q0-2.19,0-4.39" transform="translate(-1244.62 -5753.8)"/><path class="cls-103" d="M1382.68,6174.63l-2.16-.07c-3.48-2.54-6.43-5.27-3.81-10.12,0.88-2.61,1.47-5.3,2.54-7.86a16.36,16.36,0,0,1,3.06-4.5c1.51-1.6,3.21-3.13,5.66-2.37,2.74,0.85,2.5,3.32,2.35,5.4-0.25,3.55,1.07,7.27-1,10.63l-4.37,4.44c-1.47,1.12-.69,3.37-2.24,4.44" transform="translate(-1244.62 -5753.8)"/><path class="cls-104" d="M1389.29,6165.75v-14.69c-5.39,1.38-6.67,5.21-8.79,8.12-6.26-1.72-3.5-5.45-2-8.91a16.34,16.34,0,0,1,6.31-5.37,4.34,4.34,0,0,1,4.54,1c3.45,6.28,1.93,13,1.91,19.66a14.46,14.46,0,0,1-2,.14" transform="translate(-1244.62 -5753.8)"/><path class="cls-52" d="M1378.31,6165.8c-3,3.85,2.91,5.47,2.2,8.76-3.67.46-7.34,3.07-11,0-0.62-3.74,3.09-5.52,3.87-8.62l0.6-.21c1.46-1.3,2.91-1.13,4.34,0" transform="translate(-1244.62 -5753.8)"/><path class="cls-52" d="M1382.68,6174.63c0.08-1.82.45-3.49,2.24-4.44a47.93,47.93,0,0,1-.35,6.33c-0.31,1.74-1.3,3.42-3.31,3.63-0.61.06-1.34-1-2-1.61l3.44-3.9" transform="translate(-1244.62 -5753.8)"/><path class="cls-93" d="M1339.14,6137.33c-1,3.81.49,8.16-2.42,11.6q-0.15-2.6-.29-5.2c0.19-2.43-.43-5.21,2.71-6.39" transform="translate(-1244.62 -5753.8)"/><path class="cls-105" d="M1316.95,6064.51l-2.37,6.58c0.73,4.65-1.72,7.89-4.81,10.85v-0.05L1296,6112.64l-3.41-.53-1.61-1.56c-0.12-1.38-.24-2.76-0.36-4.13-0.49-2.41.55-4.53,1.25-6.71a4.06,4.06,0,0,0,.84-1.85c2.1-3.15-1.08-7.62,2.56-10.39,1.92-1.64,2-3.82,1.72-6.1,0.6-7.69,4.67-14.18,7.26-21.18a33.73,33.73,0,0,1,2.23-5.8A22.75,22.75,0,0,1,1315,6047c10.38,0.51,4.29,6.61,3.69,10.86q-0.89,3.33-1.78,6.65" transform="translate(-1244.62 -5753.8)"/><path class="cls-106" d="M1305.28,6059.92c1.71,8.46-6.91,14-6.24,22.18-1.6,1.84.44,5.11-2.52,6.42-5.48,1.38,4.91,9.3-3.85,9.33-1.87-4.15-8.95-3.17-9-9.11,3.81-2.73,4.67-6.64,4.4-11,6.62-3.65,3.75-11.14,6.61-16.32a10.12,10.12,0,0,1,4.25-4.5c3-.8,5.22-0.09,6.35,3" transform="translate(-1244.62 -5753.8)"/><path class="cls-60" d="M1291.84,6099.7c0.69,2.44,1.1,4.83-1.24,6.71-4.41-3.13-1.08-4.83,1.24-6.71" transform="translate(-1244.62 -5753.8)"/><path class="cls-53" d="M1301.23,5859.71c5.9,0.73,4,5.34,4.38,8.8l-4.38-8.8" transform="translate(-1244.62 -5753.8)"/><path class="cls-107" d="M1464.16,6207.77c-6.3-.81.39-7.51-4.13-9.13-0.06-1.38-.13-2.74-0.19-4.12l6.5,2.16c1.36,3.48,5,6.51,2.18,10.83l-4.35.26" transform="translate(-1244.62 -5753.8)"/><path class="cls-108" d="M1360.74,5976.14l8.75,2.48c1.22,3.1,1.35,6.37,1.74,9.63,0.57,4.69,3.49,4.93,7.13,3.29l6.6,4.47c1.51,2.9-1.94,8.48,4.68,8.6l6,9.29a8.29,8.29,0,0,1-3.48,2.81c-3.2,1.57-6.3,3.1-9.64,0-1.93-1.8-3,.06-3.9,1.62-4.73,3.67-9.07,8.18-15.9,7.16-2.73-6.29-6.9-10.78-14.16-11.59-2.79-.31-6.44-2.62-3.69,3.6,0.87,2-3.54,2.73-6.09,2.54-9.88-.75-14.05-6-13.79-17.37a7.62,7.62,0,0,1,5.2-3c3.4,0.16,6,2,8.5,4-2.77-5.33-2.77-5.33-11-6.22a11.19,11.19,0,0,1-5.43-5.4c3.57-7.29-.06-17,7.76-22.9,4.49,0.46,6.55,5.09,11,6.12s4.45,4.91,2.89,8.67c-0.67.76-1.07,1.9-2.42,1.69,1.44,0.94,1.21-1.08,2.11-1.21,6.85-4.8,5,4.35,8.6,4.93-2.83-7.86,3.31-10.25,8.51-13.26" transform="translate(-1244.62 -5753.8)"/><path class="cls-109" d="M1325.45,5857.49c-4.13-8.24.2-24.45,8.81-33,7.22,3.48,5,9.71,4.47,15.43,1.81,1.91,3.69,3.79,2.23,6.78l-9.5,12.85-6-2" transform="translate(-1244.62 -5753.8)"/><path class="cls-110" d="M1343.07,5985.22c-0.95-3.05,2.7-9-5.3-7.55-5.24.92-4.09-6.46-8.2-7.58-1.61.13-2.34-.53-2-2.18,12.69-3.87,23,2,33.13,8.25-5.58,5-6.39,12.3-8.52,19.23-4-3.41-2-10.78-9.15-10.16h0Z" transform="translate(-1244.62 -5753.8)"/><path class="cls-111" d="M1378.3,6016c2.36-5.3,3.43-5.81,4.9-2.76,2.94,6.15,5.52,1.73,8.35.57,2,1.83,4.9,2.22,6.67,4.36q2,6.66,3.93,13.33c-3.74,6-6.11.15-9-1,0.48,3.92,1.53,8-2.59,10.78a7.67,7.67,0,0,1-5.22,1,8.5,8.5,0,0,1-2.85-1.14c-2.52-8.16-1.24-17-4.16-25.07" transform="translate(-1244.62 -5753.8)"/><path class="cls-112" d="M1402.66,6042.77c-1.65,7.17,4.93,14.53-.49,21.61-7.35.77-8.2-6.65-12.44-9.82-3.06-3.87-1-6.65,2-9.23,2.89-1.63,3.3-5.69,6.52-6.93,4.49-1.73,6.34-.52,4.44,4.37" transform="translate(-1244.62 -5753.8)"/><path class="cls-113" d="M1402.66,6042.77c-2-6.61-4.25-3.88-5.09.2-0.56,2.72-1.43,3.72-3.88,3.88-3.5-1.44-9.67.69-8.78-6.59,11.2-.66,5.26-7.65,4.69-12.52,5.83-4.12,6.65,8,12.55,3.8,0.35,3.73,4.23,7.3.51,11.22" transform="translate(-1244.62 -5753.8)"/><path class="cls-114" d="M1296.82,5932.38c3.32,2.46,1.7,6.25,2.55,9.38,0.37,6.93-4,12.61-5.11,19.13-1.8,2.79.35,6.16-1.29,9a2,2,0,0,1-2.73-.08c0.75-12.73-1.31-25.95,6.58-37.41" transform="translate(-1244.62 -5753.8)"/><path class="cls-115" d="M1314.39,5892.6c-1.37-5.83-3.91-11.66.07-17.47,0.86-.66,2.56-1.61,2.45-1.92-4.37-12.41,3.92-7.4,9.08-6.67l-11.61,26.06" transform="translate(-1244.62 -5753.8)"/><path class="cls-116" d="M1327.61,5967.9l2,2.18c-2.89,7-.7,15.52-6.33,21.74-6.4,2.26-4.84-2.79-5.43-5.87-1-5.23,1.83-10.89-1.82-15.83-0.44-3.85,3.21-3.12,5-4.49l6.61,2.26" transform="translate(-1244.62 -5753.8)"/><path class="cls-117" d="M1391.5,6053.49c5.28,1.94,5.47,8.87,10.67,10.89l-1,2.55c-4.64,1.12-9.42,1.31-14.13,2h-2.15c-2.57-.72-5.59-0.17-7.5-2.72-0.69-2.13.09-3.77,1.68-5.15,4-2.67,7.49-6.29,12.39-7.53" transform="translate(-1244.62 -5753.8)"/><path class="cls-23" d="M1565.78,6146.09c2.48,0.85,1,7.5,6.27,4.27,6.23,7.95-5.56,8.27-6.2,13.87-0.23,2.06-3.55-3.84-6.77-2.82,2.61-4.94,2.7-11,6.69-15.33" transform="translate(-1244.62 -5753.8)"/><path class="cls-110" d="M1378.36,5991.54c-0.49,2.23.78,6.44-2.77,5.73-2.86-.57-7.62-4.86-7.21-6.13,1.35-4.25-2.42-8.77,1.1-12.53,5.65,2.46,6.24,8.39,8.88,12.92" transform="translate(-1244.62 -5753.8)"/><path class="cls-89" d="M1691,5941.18c1.91,6.24-1.25,12.55,1,19.19,1.31,3.89-3.18,1-5.13.69l-2.17-19.86c2.08-1.86,4.17-1.76,6.27-.05Z" transform="translate(-1244.62 -5753.8)"/><path class="cls-77" d="M1492.76,6183.71c-1.26,6-8.5,5.9-11,10.7l0,0c-2.1-2.58-5.34-2-8-2.86-4.12-1.35-4.18-3.47-1.37-6.27,5.93-2,12.3,1.07,18.19-1.52l2.2,0" transform="translate(-1244.62 -5753.8)"/><path class="cls-78" d="M1473,6185.59c-1.36,3-.78,4.68,2.92,4.45,3.12-.2,5.66.55,5.86,4.36-7.9.27-15-.55-15.41-10.91l6.57,0.25c0.8,0.39,1.07.79,0.82,1.21a1,1,0,0,1-.77.64" transform="translate(-1244.62 -5753.8)"/><path class="cls-118" d="M1382.71,5804.64c1.91-5.13,8.27-4.68,11-8.79l11.2-2.1c-3.84,8.56-14.17,5.54-19.71,11.05a1.53,1.53,0,0,1-2.5-.16" transform="translate(-1244.62 -5753.8)"/><path class="cls-119" d="M1321,5965.63l-4.21,4c-1.32,7.21-7.49,4.43-11.7,5.69a5.43,5.43,0,0,1-4.09-2.46,3.28,3.28,0,0,1,.23-3.08c7.17,1.37,12.34-6.76,19.77-4.18" transform="translate(-1244.62 -5753.8)"/><path class="cls-21" d="M1691,5941.15l-6.27.05q-0.3-6.52-.6-13c6.56-.53,3.19,6.87,6.9,8.62,0,1.46,0,2.92,0,4.37" transform="translate(-1244.62 -5753.8)"/><path class="cls-120" d="M1389.64,6004.6c-1.43.92-.77,5-4.87,1.87-5.72-4.31-1.56-7.06.19-10.47,4.76,1.13,4.59,4.94,4.68,8.6" transform="translate(-1244.62 -5753.8)"/><path class="cls-121" d="M1387.08,6068.89c4-5.76,9.2-2.9,14.13-2l-1,2c-4.37,0-8.75,5-13.12,0" transform="translate(-1244.62 -5753.8)"/><path class="cls-122" d="M1382.71,5804.64l2.5,0.16c-3.22,4.73-8.69,6.11-13.22,8.88-2.13-6,4.74-5.62,6.33-9l4.39-.05" transform="translate(-1244.62 -5753.8)"/><path class="cls-123" d="M1301.23,5969.81q0,1.06-.1,2.12a5.87,5.87,0,0,1-4.67,3.05c-3-.5-3.85-2.57-3.8-5.28-0.58-3.14-1-6.26,1.6-8.82-1.26,5.77,3.37,6.95,7,8.93" transform="translate(-1244.62 -5753.8)"/><path class="cls-90" d="M1473,6185.59c0-.62,0-1.24-0.05-1.86l17.62,0c-5.39,5-11.71,1.23-17.56,1.83" transform="translate(-1244.62 -5753.8)"/><path class="cls-124" d="M1341,5846.69l-2.23-6.78,8.57-.12a15.44,15.44,0,0,1-6.34,6.9" transform="translate(-1244.62 -5753.8)"/><path class="cls-125" d="M1529.55,6180.7c-3.76,5-8.08,2.91-12.39,1l12.39-1" transform="translate(-1244.62 -5753.8)"/><path class="cls-124" d="M1347.35,5839.74c-0.8-1-2.5-2.53-2.25-3,1.39-2.63,4.1-.72,6.17-1.32l-3.92,4.33" transform="translate(-1244.62 -5753.8)"/><path class="cls-126" d="M1398.22,6018.22a6.51,6.51,0,0,1-6.68-4.36l4.15,0c2,0.76,2.54,2.38,2.54,4.33" transform="translate(-1244.62 -5753.8)"/><path class="cls-3" d="M1578.68,6145.95c0.22-2.69-.6-6.41,3.62-6.23,2.8,0.12,1,2.55.79,4-1,1.78-2.59,2.17-4.41,2.19" transform="translate(-1244.62 -5753.8)"/><path class="cls-31" d="M1704.19,6011.64c0.42,6.28,0,11.7-8.79,8.8-1.6-7.46,7.72-4,8.79-8.8" transform="translate(-1244.62 -5753.8)"/><path class="cls-71" d="M1309.76,6081.93a26.22,26.22,0,0,1,4.81-10.84c1.72,1,2,2.65,2,4.45-1.61,2.86-2.31,6.69-6.86,6.4" transform="translate(-1244.62 -5753.8)"/><path class="cls-7" d="M1292.66,5969.71l4.17,4.45c6.45,3.29,4.52,9.11,4.5,14.46,0,8.49-3.76,16.26-4.53,24.64-0.31,3.38-1.52,7.43-6.57,7.2-9.27,1.41-9.22-4.66-8.83-11,7.31,1.43,9.39-3.46,9.58-9,0.35-10.22,4.54-20.6-.75-30.69l2.42-.08" transform="translate(-1244.62 -5753.8)"/><path class="cls-9" d="M1290.23,6020.46c5.94-14.9,11.13-29.91,6.59-46.3l4.3-2.23,2.4,2.27c4,4.73,3,10.18,2.61,15.71-1.22,18.31-6.91,36-7.16,54.41a11.74,11.74,0,0,1-1.19,2.9c-2.79,2.69-3.31,6.07-3.65,9.83-0.42,4.57-.87,9.56-6.13,11.82l-11,19.85c-3.9-6.57,0-12.87,2.83-17.49,9.71-15.9,10.36-33.16,10.37-50.77" transform="translate(-1244.62 -5753.8)"/><path class="cls-127" d="M1288,6068.87c1.66-5.24,5.35-9.89,3.22-16.15-1.42-4.18,2-5.42,5.51-5.9,5.87,2.64,3.27,7,2.26,11.06l-2.21,4.35c-4.83,1.08-1.42,10.27-8.74,8.9q0-1.14,0-2.27" transform="translate(-1244.62 -5753.8)"/><path class="cls-128" d="M1288,6071.13c4.93-1,2.93-8.78,8.75-8.9-2.19,3,0,6.6-.88,9.24-0.95,2.91-1.75,8.7-7.85,6.27q0-3.3,0-6.61" transform="translate(-1244.62 -5753.8)"/><path class="cls-129" d="M1385,6108.56l0.07,2.13-0.62,1.39a3.9,3.9,0,0,1-4,1.29c-2.47-2.1-2.57-6.08-6-7.45-0.8-.47-1.55-1-2.29-1.54-3.3-3-8.3-1.3-11.63-4.21a18.82,18.82,0,0,1-.85-10.35c7.11-9.84,9.47-9.84,18.92-.08-1.64,7.53,9.77,10.67,6.37,18.81" transform="translate(-1244.62 -5753.8)"/><path class="cls-130" d="M1385,6108.56c-0.87-2.25-1.62-6.39-2.65-6.46-10.42-.74-3.74-7.2-4.06-11.24a2.84,2.84,0,0,1-.82-3.46l0.93-.91c3.77,1.06,8.28-5.82,10.18-1.27,2,4.87.7,11.33,0.12,17-0.23,2.21-2.41,4.22-3.7,6.32" transform="translate(-1244.62 -5753.8)"/><path class="cls-131" d="M1389.35,6145.94l-4.41,0c-9.82-7-4.75-16.12-3.68-24.7,0.7-3.69,1.37-7.39,3.63-10.53l0.14-.06c5.09,11.3,5.52,23.18,4.32,35.25" transform="translate(-1244.62 -5753.8)"/><path class="cls-132" d="M1378.31,6066.69c2.18,0.82,6.11-3.6,6.62,2.21,2,7.42-4.52,11.68-6.57,17.59l-0.09,0c-6.51-1.81-8.26-7.89-9.35-12.91-1.51-6.92,3.49-8.29,9.4-6.92" transform="translate(-1244.62 -5753.8)"/><path class="cls-133" d="M1360.75,6090.85c-0.07,2.94,2.11,5.89,0,8.82,3.62,3.79,10.37-1.71,13.2,4.44h0c1.08,3.42-1.88,4.38-3.67,6.07-2.22,1.39-4.51,2.51-7.17,1.18,0.19-5.56-5.1-2-7-4.14-1.18-.86-1.75-2.26-2.81-3.22-1,1.34-.22,3.25-1.42,4.53-8.25-1.38-8-8.18-8.06-13.94-0.06-3-.3-4.73-3-5.84v0c-1.5-3.2-1.78-6.35.45-9.36a5.76,5.76,0,0,1,3.1-.53c5.48,1.79,6.64,10.71,14.42,8.75,1.54,0.55,2.77,1.3,2,3.26" transform="translate(-1244.62 -5753.8)"/><path class="cls-134" d="M1356.34,6106.31c2.14,1.53,8.86-3.76,6.55,4.4,2.93,6.17-2,10.36-3.86,15.31-2.71,2-5.06,1.34-7.2-.94-0.58-.92-0.16-2.28-0.57-2.93-1.59-2.5-1.26.59-1.41,0.79-1.95,2.63-2.58,7-7.58,5.24-2-2.62-4.06-5.23-1.37-8.59,1.16-7.49,7.34-8.94,13.09-10.93a2.71,2.71,0,0,1,2.35-2.35" transform="translate(-1244.62 -5753.8)"/><path class="cls-135" d="M1343.19,6128.61a77.21,77.21,0,0,0,5.24-7.63c0.91-1.69-3.77-6.67,2.46-5.06,4.53,1.16,4.56,4.7,1.07,7.88a9,9,0,0,1,1.68,6.41,5.18,5.18,0,0,1-1.8,2.81c-4-1-6.42,1.46-8.66,4.19l-2.35-.06c0.7-1.58-3.07-3.13,0-4.72,1.66-.73.62-3.15,2.39-3.81" transform="translate(-1244.62 -5753.8)"/><path class="cls-136" d="M1343.19,6128.61c-0.35,1.55-.09,3.48-2.39,3.81,0.52-3.24-2.86-2.42-3.94-3.82-1.45-1.88-3.57-4.48-3.17-6.27,0.74-3.36,4.4-2.72,7.2-2.74q1.16,4.51,2.3,9" transform="translate(-1244.62 -5753.8)"/><path class="cls-137" d="M1356.34,6106.31l-2.35,2.35-2.1-.13c-1.39-3.09-4.32-7.32.15-8.89,3.23-1.13,3.69,3.77,4.3,6.67" transform="translate(-1244.62 -5753.8)"/><path class="cls-138" d="M1325.52,6002.93c1.2,1.31,3.52,3.67,3.43,3.78-5.52,5.9-.84,7.16,3.73,8.2,3.39,0.77,5.81,4.91,10.38,2.61-1.22-2.62-6.84-2.12-5.56-5.94,1.43-4.27,5.37-1.49,7.5-.83,7.62,2.36,19.91-.61,17.86,14.1,2.13,3.19,6.07,1.55,8.79,3.32,3.49,2.28,6.58,4.9,5.78,9.45-0.83,4.75-4.7,5-8.43,4.22-4.26-.9-6.06.84-6.39,4.84a10.32,10.32,0,0,1-1.11,2.84c-2.65,2.91-7.21,1.67-9.88,4.56-6.31-2.94-8.51-9.7-13-14.34-3.6-3.69,3.17-7.71.68-14.39-0.63,8.83-9,10.4-9.92,17.25a13.84,13.84,0,0,1-4,6.38c-1.54,3.45-3.41,6.64-6.58,8.87-3.06-2.17,6.08-10.27-4.31-8.88-3-.51-6.77-2.67-3.29-4.9,5.83-3.74.11-4.8-.52-7-2.53-6.19,1.9-12.34.09-18.52a9.41,9.41,0,0,1,1.46-6c3.69-4.26,5.75-10.81,13.36-9.65" transform="translate(-1244.62 -5753.8)"/><path class="cls-139" d="M1327.59,6042.41c-1.57-8.92,10.51-11.33,9.64-20.11-0.12-1.22,2.44-1.4,3.6-.31,2.15,2,4.93,6.1,3.58,7.41-10.3,10,3.41,13.63,5,20.33,0.31,1.33,1.54,2.44,2.33,3.65,0.69,2.39,1.66,4.74,1.09,7.32-0.84,2.91-.35,5.56.62,8.49,2.36,7.12.08,11.35-8.16,10.71l-2.3,0c-1.18-1.28-3.36-.48-4.38-2.1l-2.11-2.24,2.19-2.2c6.27-6.63,5.5-13.24,0-19.84,0.3-7.69-7.59-7.17-11.07-11.07" transform="translate(-1244.62 -5753.8)"/><path class="cls-140" d="M1327.59,6042.41c4.81,2.58,15.39-.63,11.07,11.07q-4.62-8.38-13.36-4.49c0.34-2.34-.28-5,2.28-6.58" transform="translate(-1244.62 -5753.8)"/><path class="cls-48" d="M1338.6,6077.77c1.81,0,3.45.3,4.38,2.1-3.13,2.37-1.8,5.82-2.16,8.86-3.56-3.08-1.62-7.28-2.22-11" transform="translate(-1244.62 -5753.8)"/><path class="cls-141" d="M1351.84,6133c0-.81,0-1.62.06-2.43,2.46-3.65,4.62-3.08,6.28.61,1.25,2.77.92,5.75,0.59,8.68,0,0.5,0,1-.08,1.5l-5.3-.19c-1.33-.44-2.8-0.65-3.41-2.21q0.94-3,1.86-6" transform="translate(-1244.62 -5753.8)"/><path class="cls-142" d="M1350,6139l3.41,2.21-1.94,2.48q-6.12-.65-1.47-4.69" transform="translate(-1244.62 -5753.8)"/><path class="cls-143" d="M1382.72,6121.7c0.54,8.11-2.83,16.58,2.22,24.27l-4.41,4.43c-3.47,1.19-6.52.65-9-2.25-6-1.93-1.17-8.26-4.58-11.24a3.75,3.75,0,0,1-.69-2.78c6.2-2.93,5.39-12.93,13.78-13.67a4.58,4.58,0,0,1,2.65,1.24" transform="translate(-1244.62 -5753.8)"/><path class="cls-144" d="M1371.56,6148.15a14.76,14.76,0,0,1,9,2.25c-1.18,2.92-4,5.84,0,8.78-0.07,2.43.39,5-2.19,6.62l-4.35,0c-0.43-4.76,1.43-10.27-4.35-13.27,0-1.75.25-3.36,1.95-4.33" transform="translate(-1244.62 -5753.8)"/><path class="cls-96" d="M1358.76,6139.87c-5.37-.82,2.12-11.14-6.86-9.29q0-3.4.06-6.79c2.06,1.08,3.78,3.05,6.47,2.42l1.07,0.85a15.68,15.68,0,0,1,1.82,3.67c0.8,2.12,1.94,4.14,1.9,6.51-0.88,1.9-2.67,2.26-4.46,2.64" transform="translate(-1244.62 -5753.8)"/><path class="cls-141" d="M1363.23,6137.23c-2.82-1.54-3.43-4.42-4.34-7.12,5.09-2,6.22,2.19,8.08,5.21a6.62,6.62,0,0,1,0,1.58l-3.76.32" transform="translate(-1244.62 -5753.8)"/><path class="cls-145" d="M1312.23,6018.26c5.4,6.59-2.52,13.21,0,19.81-6.16,4.64-4.7,11.29-4.65,17.58,0.27,2-.72,3.32-2.35,4.28l-6.28-2c-3.87-3,1.84-8.06-2.26-11.06l0.08,0c2.46-2.59,2.6-6.06,2.7-9.18,0.32-9.19,4.42-15.6,12.7-19.43" transform="translate(-1244.62 -5753.8)"/><path class="cls-146" d="M1307.62,6055.65c-4.77-5.13-2-10.94-1.19-16.41,0.65-4.46,4-.08,5.84-1.17,1.72,1.88,5.77-.25,6.25,2.88,0.65,4.19-3.75,1.87-5.5,3.35-3.54,3,1.75,2.91,1.4,4.68l-6.79,6.67" transform="translate(-1244.62 -5753.8)"/><path class="cls-147" d="M1296.52,6088.53c0.39-2.32-.2-5,2.52-6.42,1.08,2.89,3.56,6.33-2.52,6.42" transform="translate(-1244.62 -5753.8)"/><path class="cls-148" d="M1360.69,6046.87c-1.19-6.14-.31-10.52,7.49-7.87,2.88,1,5.76,2.4,7.24-1.26,1.32-3.28-1.86-4.95-3.67-7.12-2.41-2.91-9.38,1.39-8.88-5.76l15.44-8.8c6.81,7.1,5.62,15.66,4.4,24.22,2.21,2.83.89,4.94-1.39,6.85-1.41.37-2.78,0.6-3.27-1.35-5,12.65-11.74-1.91-17.35,1.12" transform="translate(-1244.62 -5753.8)"/><path class="cls-149" d="M1325.52,6002.93c-5.31,2-7.64,7-11.18,10.8-4.88-10.14-1.43-24.85,6.7-28.52,0.85,2.17-3.62,6.1,2.2,6.62l4.42,4.41c1.27,1.22,3.54,1.94,2.25,4.45-1,1.73-2.61,2.13-4.39,2.25" transform="translate(-1244.62 -5753.8)"/><path class="cls-150" d="M1329.92,6000.68l-2.25-4.45c10.58-1.65,10.58-1.65,15.43,10.38-5.78.91-8.89-3.86-13.18-5.93" transform="translate(-1244.62 -5753.8)"/><path class="cls-110" d="M1343.07,5985.21c-1.33,2-1.45,4.95-4.91,5.74-0.05-3.64,1.43-5.5,4.92-5.73h0Z" transform="translate(-1244.62 -5753.8)"/><path class="cls-151" d="M1380.5,6046.87l2.2-6.61h2.21c1.13,4.6,6.57,3.44,8.78,6.59-2.35,1.67-6.05,2.91-2.2,6.63-2.95,3.84-6.21,7.27-11,8.78-2-5.13-7.59-10.27,0-15.39" transform="translate(-1244.62 -5753.8)"/><path class="cls-152" d="M1321,5985.21c-9.1,7.9-3.33,19.29-6.7,28.53-1.72,1-2.1,2.69-2.11,4.52-0.63,2.86,1.64,7.56-4.91,6.4-4.43-.78-3.56,3.31-3.84,5.89-0.66,6.1-.79,12.37-6.67,16.33-2.38-19.74,5.71-38.32,6.52-57.78,0.21-5-1.26-10,.18-14.89,3.75-3.46,9.76-.35,13.26-4.53,10.13,2.8.71,10.94,4.25,15.54" transform="translate(-1244.62 -5753.8)"/><path class="cls-153" d="M1380.5,6046.87c-5.76,5.13,4.21,10.27,0,15.39-1.77,1-2.15,2.61-2.18,4.42-5.92,2.26-12.42,4.32-3.9,11.47,2.6,2.18.68,6.44,3.85,8.35q0,2.17,0,4.34c-5.84-3.16-11.67-11.37-17.51,0l-2.25-2.15c-2.21-1.17-3.33-2.9-1.67-5.13,6.76-9.06,5.23-18.71,2.25-28.51a7.82,7.82,0,0,1,1.6-6q0-1.09,0-2.17c4,0.15,9.66-10.25,11.85,2.12,0.29,1.63,2.81-.57,3.26-2.2,1.73-6.25,3.14.66,4.7,0.08" transform="translate(-1244.62 -5753.8)"/><path class="cls-134" d="M1369.48,6108.5l4.44-4.39c7.1-.69,6.67,4.31,6.73,8.93a4.37,4.37,0,0,1,.64,4.75c-2.83,3.72-7.46,5.13-10.35,9.28-3.64,5.22-8.06,3.76-10.53-2.18,0.2-9.06,11.35-7.77,13.15-14.78,2.17,0.39.77-1.53,0.8-.06,0,0.2-.35.1-1.08,0.09a4.68,4.68,0,0,1-3.79-1.64" transform="translate(-1244.62 -5753.8)"/><path class="cls-154" d="M1380.36,6117.3q0.14-2.13.28-4.27l4.24-2.29c-0.44,3.71,1.47,7.88-2.17,11q-1-.08-2.07-0.12c-1.53-1.33-1.35-2.77-.29-4.28" transform="translate(-1244.62 -5753.8)"/><path class="cls-134" d="M1373.91,6104.11c-3.25-4.91-10.59,2.35-13.2-4.44,4.36,1.59,11-3.53,13.2,4.44" transform="translate(-1244.62 -5753.8)"/><path class="cls-138" d="M1360.7,6055.65c6.38,9.88,5.47,20.43-2.27,29.16-0.63.71,0,2.56,0.06,3.88-12.06,8.57-8.83-5.83-13.21-8.79,4.49-2.86,11.78-4.44,3.9-11.86-2.9-2.73.47-5.71,2.58-8,2.85-1.71,3.61-7.72,8.93-4.35" transform="translate(-1244.62 -5753.8)"/><path class="cls-155" d="M1369.48,6108.5c10.63,0.92,3.77,5.44,1.81,8.9-2.31,4.09-8.82,1.37-10.55,6.46,0.79,2.38-.36,2.86-2.41,2.43l0.1-.07c-1.58-6,3.6-10.15,4.45-15.5l6.59-2.21" transform="translate(-1244.62 -5753.8)"/><path class="cls-148" d="M1360.7,6055.65c-4.42-1.52-4,7-8.93,4.35-0.59-2.2-3.38-4.4,0-6.61,2.22-3,5.86-3.08,8.93-4.34Z" transform="translate(-1244.62 -5753.8)"/><path class="cls-156" d="M1328.45,6025.72c-3,1.44-5.32,3.83-8.79,1.58,2.36-3.64,5.31-2.51,8.79-1.58" transform="translate(-1244.62 -5753.8)"/><path class="cls-131" d="M1358.34,6126.28l2.41-2.43c3.38,4.33,6.6,6.44,10.23.05,2-3.52,6-4.8,9.39-6.6q0.14,2.14.28,4.28c-6.61,2.53-5.64,12.61-13.67,13.74l-8.09-5.21Z" transform="translate(-1244.62 -5753.8)"/></g></g></g></svg>