<svg xmlns="http://www.w3.org/2000/svg" viewBox="0 0 428.42 434.92"><defs><style>.cls-1{isolation:isolate;}.cls-2{fill:#b3758d;}.cls-10,.cls-100,.cls-101,.cls-102,.cls-103,.cls-104,.cls-105,.cls-106,.cls-107,.cls-108,.cls-109,.cls-11,.cls-110,.cls-111,.cls-112,.cls-113,.cls-114,.cls-115,.cls-116,.cls-117,.cls-118,.cls-119,.cls-12,.cls-120,.cls-121,.cls-122,.cls-123,.cls-124,.cls-125,.cls-126,.cls-127,.cls-128,.cls-129,.cls-13,.cls-130,.cls-131,.cls-132,.cls-133,.cls-134,.cls-135,.cls-136,.cls-137,.cls-138,.cls-14,.cls-15,.cls-16,.cls-17,.cls-18,.cls-19,.cls-2,.cls-20,.cls-21,.cls-22,.cls-23,.cls-24,.cls-25,.cls-26,.cls-27,.cls-28,.cls-29,.cls-3,.cls-30,.cls-31,.cls-32,.cls-33,.cls-34,.cls-35,.cls-36,.cls-37,.cls-38,.cls-39,.cls-4,.cls-40,.cls-41,.cls-42,.cls-43,.cls-44,.cls-45,.cls-46,.cls-47,.cls-48,.cls-49,.cls-5,.cls-50,.cls-51,.cls-52,.cls-53,.cls-54,.cls-55,.cls-56,.cls-57,.cls-58,.cls-59,.cls-6,.cls-60,.cls-61,.cls-62,.cls-63,.cls-64,.cls-65,.cls-66,.cls-67,.cls-68,.cls-69,.cls-7,.cls-70,.cls-71,.cls-72,.cls-73,.cls-74,.cls-75,.cls-76,.cls-77,.cls-78,.cls-79,.cls-8,.cls-80,.cls-81,.cls-82,.cls-83,.cls-84,.cls-85,.cls-86,.cls-87,.cls-88,.cls-89,.cls-9,.cls-90,.cls-91,.cls-92,.cls-93,.cls-94,.cls-95,.cls-96,.cls-97,.cls-98,.cls-99{fill-rule:evenodd;mix-blend-mode:darken;}.cls-3{fill:#9f5c77;}.cls-4{fill:#b68595;}.cls-5{fill:#9b5773;}.cls-6{fill:#651d31;}.cls-7{fill:#9e5371;}.cls-8{fill:#ac7088;}.cls-9{fill:#b48496;}.cls-10{fill:#a15c79;}.cls-11{fill:#a05a77;}.cls-12{fill:#a6647c;}.cls-13{fill:#be8f9d;}.cls-14{fill:#985671;}.cls-15{fill:#be98a5;}.cls-16{fill:#b2758b;}.cls-17{fill:#af7086;}.cls-18{fill:#a5657e;}.cls-19{fill:#a35b76;}.cls-20{fill:#b2768b;}.cls-21{fill:#a96882;}.cls-22{fill:#b17489;}.cls-23{fill:#793d4e;}.cls-24{fill:#712b40;}.cls-25{fill:#ba92a0;}.cls-26{fill:#995a72;}.cls-27{fill:#a45774;}.cls-28{fill:#a3627a;}.cls-29{fill:#b5728c;}.cls-30{fill:#a36980;}.cls-31{fill:#a5667c;}.cls-32{fill:#ac7e8c;}.cls-33{fill:#8a5367;}.cls-34{fill:#904964;}.cls-35{fill:#b2758c;}.cls-36{fill:#ab6e85;}.cls-37{fill:#8b5a6d;}.cls-38{fill:#9a6d7c;}.cls-39{fill:#a67482;}.cls-40{fill:#a6687d;}.cls-41{fill:#87475d;}.cls-42{fill:#946170;}.cls-43{fill:#b88695;}.cls-44{fill:#bf829a;}.cls-45{fill:#ac6e83;}.cls-46{fill:#ae6c7f;}.cls-47{fill:#a1687e;}.cls-48{fill:#976d7c;}.cls-49{fill:#8a5d6f;}.cls-50{fill:#98576f;}.cls-51{fill:#734552;}.cls-52{fill:#815060;}.cls-53{fill:#665858;}.cls-54{fill:#9c6778;}.cls-55{fill:#91626f;}.cls-56{fill:#865c69;}.cls-57{fill:#ad7087;}.cls-58{fill:#ac6a84;}.cls-59{fill:#a96982;}.cls-60{fill:#a35e7a;}.cls-61{fill:#a15a78;}.cls-62{fill:#b16885;}.cls-63{fill:#a3637e;}.cls-64{fill:#b27c8f;}.cls-65{fill:#b07a8f;}.cls-66{fill:#96516d;}.cls-67{fill:#672e3e;}.cls-68{fill:#73223d;}.cls-69{fill:#a9637f;}.cls-70{fill:#ae6a85;}.cls-71{fill:#944663;}.cls-72{fill:#9c4a6a;}.cls-73{fill:#853951;}.cls-74{fill:#a86981;}.cls-75{fill:#994868;}.cls-76{fill:#b2708d;}.cls-77{fill:#a65777;}.cls-78{fill:#8c566c;}.cls-79{fill:#a96581;}.cls-80{fill:#a35b79;}.cls-81{fill:#ae7e92;}.cls-82{fill:#ae6783;}.cls-83{fill:#a55b78;}.cls-84{fill:#8a3b57;}.cls-85{fill:#a95f7c;}.cls-86{fill:#712d41;}.cls-87{fill:#b57893;}.cls-88{fill:#a56b84;}.cls-89{fill:#ad6884;}.cls-90{fill:#974566;}.cls-91{fill:#79304a;}.cls-92{fill:#91425e;}.cls-93{fill:#c495a6;}.cls-94{fill:#cbabb5;}.cls-95{fill:#ba8299;}.cls-96{fill:#c59dac;}.cls-97{fill:#c090a3;}.cls-98{fill:#c99cab;}.cls-99{fill:#cca9b6;}.cls-100{fill:#7e4a5d;}.cls-101{fill:#f4dbe7;}.cls-102{fill:#9d6376;}.cls-103{fill:#72545e;}.cls-104{fill:#746c6a;}.cls-105{fill:#a2667c;}.cls-106{fill:#91375a;}.cls-107{fill:#5f233a;}.cls-108{fill:#a25473;}.cls-109{fill:#a2617b;}.cls-110{fill:#b57c93;}.cls-111{fill:#b4738d;}.cls-112{fill:#b4728e;}.cls-113{fill:#bd859c;}.cls-114{fill:#ab6180;}.cls-115{fill:#b8728c;}.cls-116{fill:#a55d79;}.cls-117{fill:#7a2d43;}.cls-118{fill:#ad6c87;}.cls-119{fill:#ad6e87;}.cls-120{fill:#b0738b;}.cls-121{fill:#9d5473;}.cls-122{fill:#772b43;}.cls-123{fill:#c191a3;}.cls-124{fill:#b97d95;}.cls-125{fill:#bd91a0;}.cls-126{fill:#bd859a;}.cls-127{fill:#cea5b4;}.cls-128{fill:#ceb2ba;}.cls-129{fill:#d4bac1;}.cls-130{fill:#cca9b3;}.cls-131{fill:#c49eaa;}.cls-132{fill:#bb8999;}.cls-133{fill:#ad788b;}.cls-134{fill:#a86d85;}.cls-135{fill:#ae768a;}.cls-136{fill:#c3859e;}.cls-137{fill:#c294a3;}.cls-138{fill:#c9a9b1;}</style></defs><title>tache6</title><g class="cls-1"><g id="taches_vin" data-name="taches vin"><g id="tache_6" data-name="tache 6"><path class="cls-2" d="M753.15,6148c-6.51-6-14.21-11.05-17.57-19.89l0.55-1.43c7.07-2.52,11.28-7.59,13.54-14.66,0.75-2.33-.66-3.09-1.87-4.25a9.1,9.1,0,0,1-1.08-5.64c1-9.25-7.28-14.55-9.5-22.42-0.8-4-3.11-7.35-4.67-11-5-11.72-.83-17.22,12.45-16.76,11.09,6.92,11.09,6.92,16,16.15,3.93-1.6,6.64-7.33,12.15-3.57,1.4,4.41-1,7.89-3.11,11.23-10.07,15.88-11.59,32-2.14,48.74-3.49,8.71-3.1,19.87-14.7,23.53" transform="translate(-693.67 -5774.54)"/><path class="cls-3" d="M898,6209.33l-3.74.13c-3.36-2.54-7.7.3-11.11-2a63.75,63.75,0,0,1-19.66-3c2.28-2.51-1-4-1.16-6-1.56-2.7,4.59-9-4-8.34-4.71.06-8.42,4.11-13.34,3.31-4.78-2.07-7.6-5.22-6-10.81,4.51-2.92,10.16-2.64,14.77-5.32,21.21,5.13,43,6.26,64.5,9.36,3.78,7.07,5.83,14.16.12,21.29-6.73,1.58-13.74-.88-20.42,1.44" transform="translate(-693.67 -5774.54)"/><path class="cls-4" d="M708.24,5917.17c8.32-21.19,19.1-40.9,34.76-57.66,5.78-.54,9.4-3.09,12.86-8.4,3.81-5.85,9-13,18.5-9.49,1,4.07-1.56,7-3.27,10.13-1.65,2.58-3,5.5-6.16,6.59-2.91-.38-3.72,1-4.26,3.84-0.77,4-3.66,6.94-6.36,9.89a25.17,25.17,0,0,0-7.55,12.94c-1.79,7.06-5.36,12.81-13.18,14.31-3.66.7-4.64,2.49-4.14,6.06s-2.05,6-3.63,8.85c-1.68,2-4.14,2.67-6.29,3.89a25.2,25.2,0,0,1-3.95,2.06c-3.12.65-6.12,1-7.33-3" transform="translate(-693.67 -5774.54)"/><path class="cls-5" d="M1122,5980.16l-1.37,9c-8.94-5.48-3.92-14.55-5.64-21.92,0.86,4.13-1,6.07-5,6.16-3.24.07-5.49-1.59-6.87-4.47a8,8,0,0,1-.18-6.3c0.82-2.5-4-2.57-2.74-5.56-0.36,1.59.28,3.34-.61,4.81s-2.2,1.62-3.63.64c-2.71-15.27-10.93-28.8-13.89-44,6.42-9.17,14.95-7.66,23.78-4.67,5.69,8.11,5.92,17.87,8,27,0.9,4,1.79,7.82,4.62,10.93l2.95,15.51c1.32,4.2.43,8.52,0.63,12.78" transform="translate(-693.67 -5774.54)"/><path class="cls-6" d="M940.39,5777.92l2.25,0.41c5,1.69,9.56,4.46,15,5.65s9.14,5.46,8.21,12.08c1.92-2.88-.45-8.23,4.15-9.47,3.33-.89,6.05,1.9,8.88,3.43a22.71,22.71,0,0,1,6.67,5.51c2.32,2.43,1.84,5.44,1.76,8.38,0,2.37.77,4.67,0.71,7.06a5.13,5.13,0,0,1-1.18,2.55c-5.3-1.74-4.72,7.16-10,5.55a12,12,0,0,1-3-.58c-6.66-6.68-16.24-7.16-24-11.36-3.74-2-1.67,1.26-2.14,1.78-6.13,6.76-8.72,6.29-12.28-2.44,1.26-9.5-4.43-18.94-.19-28.45a3.8,3.8,0,0,1,5.14-.09" transform="translate(-693.67 -5774.54)"/><path class="cls-3" d="M1097.07,5962.88c3.52-3.06.58-7.72,2.64-11,3.92,0.22-2.53,9.76,6.1,6.33,2.51-1,1.78,2.76.75,3.61-3.52,2.86-2.89,5.94-.2,8.25,2.21,1.89,6,3.85,6.22-1.91,0-1.33-2.52-2.6-1.59-4.7,0.43-1,1-1.86,2.22-3.94,6.16,9.58,2.61,20.82,7.4,29.73q0,1.19,0,2.38c-2.1,2.73,1,6.84-2.47,9.21-5.3-4.26-1.69-9.54-2.83-16.69,1.07,11-2.53,19.34-1.42,28.23,0.63,5.06-2.12,9-5.42,12.51-4.67,1.84-9.22,2.69-13.18-1.54,2.13-20.09-1.11-40.35,1.77-60.42" transform="translate(-693.67 -5774.54)"/><path class="cls-7" d="M889.73,5778.29l8.68-.52c5.06-.29,10.68-3.86,14.62,2.48-0.24,9.88-6.66,18.9-4.15,29.18-0.41,5.82-5.2,10.93-2.84,17.23-0.89,5.69-1.75,11.39.48,17,0.13,3.78.58,7.49,2.7,10.8a21.27,21.27,0,0,1,0,11c-0.77,2.64-1.57,5.27-3.39,7.43-8.22,2.2-15.57-.78-22.89-3.94a5.65,5.65,0,0,1-1.16-4.51c2.12-6.07,7.37-9.86,10.87-14.93,6.28-4.86,2.63-8.26-1.72-11.56-1.23-4.91.39-9.13,2.37-13.67,5.11-11.66,7.92-23.62.09-35.43a38.12,38.12,0,0,1-3.1-5c-0.77-1.79-1.6-3.59-.62-5.58" transform="translate(-693.67 -5774.54)"/><path class="cls-8" d="M708.24,5917.17c2.24,1.75,4.85,1.81,7.51,1.62,2.71,5.89,4.64,12,4.14,18.56,0.63,0.91,2,2.14,1.77,2.64-5.76,12.12,5.77,25.18-2.1,37.19-1.16,1.77-.74,4.25-0.73,6.44-2.18,13.27,5.23,26.38.74,39.7a6.72,6.72,0,0,1-4.77.43c-8.56-7.27-5.29-17.67-6.85-26.73-0.51-3,.42-6.4.76-9.6-0.88-12.33,1.32-25.13-5.65-36.54-0.81-3.55-.85-7,1.8-9.87-4.27-8.72,2.19-15.91,3.38-23.85" transform="translate(-693.67 -5774.54)"/><path class="cls-9" d="M711.37,5987.12c-3,10.58,2.32,20.94.94,31.52-0.14,1.06,2.26,2.46,3.48,3.7,5.06,2.53,5.95,7.64,5.92,12.14-0.07,12.24.74,24.62-2.59,36.64a30.43,30.43,0,0,0,1.57,13.5c1.47,4.41.45,7.69-4.89,8.19-1.6-1.23-3.5-2.24-3.41-4.69-3.58-22.68-3.54-45.94-10.85-68-1.29-3.9.6-8.07-1-12-1.6-7.7-1.08-15.16,2.67-22.24a7,7,0,0,1,8.12,1.22" transform="translate(-693.67 -5774.54)"/><path class="cls-10" d="M1057.26,5832.29l8.8,11.61c0.63,6.5,1.09,12.87-4.49,17.92-5.25,4.75-10.28,8-14-1.18-1.41-3.46-3.64-2.73-6.12-2.45-7.2-2-13.26-5.46-15.94-13,1.75-2.23-.63-4.2-0.44-6.35,1.62-4.29,3.65-7.85,9.17-5.1,2.48,1.75,4,5.84,7.89,4.32,6-2.32,2-8.34,4-12.23,1.53-.75,3-0.81,4.21.57a14.46,14.46,0,0,0,1.76.17c2.46,1.22,3.85,3.41,5.11,5.71" transform="translate(-693.67 -5774.54)"/><path class="cls-11" d="M753.15,6148c7.64-5.73,8.55-15.43,13.4-22.81,5.51-1.76,7.05,3.35,10.13,5.82,2.44,2.79,5.66,4.33,8.84,6.16,7.88,4.54,8.05,10.27.25,14.32-6.4,3.32-9.92,12.53-19.36,9.71l-5.07-4.48c-3.08-1.84-7-2.75-8-7,0-.59-0.11-1.18-0.2-1.77" transform="translate(-693.67 -5774.54)"/><path class="cls-12" d="M766.4,6161.16c7.83-.94,10.31-10.12,17.94-11.6,2.12-.41,6.07-1.28,5-4.33-0.76-2.08-.92-6.08-4.85-6.16-4.6-.09-7.16-3-9.2-6.59,16.33-3.36,24.5,2.49,27.75,19.84-0.18,4.25.39,8.71-2.93,12.22-4.37,6.61-13.36,2.39-18.27,7.76-4.33-4.83-11.77-5.34-15.39-11.15" transform="translate(-693.67 -5774.54)"/><path class="cls-13" d="M773,5841.8c-7.89,1.2-14.62,6.13-16.64,12.71-2.89,9.44,2.46,17.33-3.5,14.91,9-15,14.43-33.26,26.91-44.6,3-4,8-5.63,11.29-9.34,1.9-1.29,3.76-2.77,6.31-1.9,2.4,4.22-2.31,7.29-1.76,11.22-1,5.58.22,11.85-5.13,16a50.36,50.36,0,0,1-17.48,1" transform="translate(-693.67 -5774.54)"/><path class="cls-14" d="M1041.64,5857.29c3.75-2.76,8.58-9.26,7.93,2.49-0.15,2.78,2.52,5.88,4.53,4.66,4.25-2.59,9.3-5.35,9.74-11.4,0.23-3.21-.34-6.53,2.22-9.15,5.63,7,12.42,13.24,15.54,22-4.82,2-2.81,5.71-2.34,9.1,0.41,3,2.88,7-1.2,8.57-3,1.17-6.09-1.56-8.48-3.8-2.12-2-4.47-1.92-6,.43-12.39-2.79-17.54-12.52-21.95-22.94" transform="translate(-693.67 -5774.54)"/><path class="cls-15" d="M702.58,6006.93c2.89,15.64,8,31,8.58,46.9,0.39,11.43,5.38,22.73,1.22,34.29l-1.13-4.18c-5.69-15.74-7.64-32.49-13.06-48.3-3.79-2.86-1.16-6-.37-9-2.06-4.77.93-10.16-1.83-14.84-4.35-3.73-1.4-7.68-.36-11.58a7.91,7.91,0,0,1,0-6.71c3.57-.43,4.42,2.07,4.23,4.65-0.24,3.4.06,6.4,2.69,8.81" transform="translate(-693.67 -5774.54)"/><path class="cls-16" d="M715.8,6092.81c1-2.28,5.74-3.33,2.78-6.8-4-4.67-2.4-10.07-2.77-15.23a5.46,5.46,0,0,1,5.55-1.53,12.91,12.91,0,0,1,2.79,1.16c3.06,1.61,6.95,2.73,5.93,7.41-1.07,4.94,3.12,6.61,5.46,9.44,0.9,1.18,2.15,2.85,1.56,3.92-4.59,8.31.14,16,1.34,23.9a32.29,32.29,0,0,1,.42,5.87c-0.37,2.47-1.82,4.47-2.94,6.61l-0.36.49c-5.29-4.84-7.94-11.33-11-17.57-3.08-4.27-1.36-11.54-8.36-13.36q-0.21-2.16-.41-4.32" transform="translate(-693.67 -5774.54)"/><path class="cls-17" d="M918.33,6206.95V6187.8c11.23-2.92,22.23-7.06,34.12-6.6,9.1,6,9.37,8.39,1.89,16.3-9.76,3.31-19.69,6.1-29.59,9l-2,1c-1.61,1-3.11,1.23-4.4-.51" transform="translate(-693.67 -5774.54)"/><path class="cls-18" d="M1006.57,6185.52c-2.56,2.35-5.32,4.22-9,3.74-3.53-.4-6.87.75-10.28,1.31a8.62,8.62,0,0,1-3.72-2.18c-4.76-2.1-11.17-1.7-12.9-8.42a74.28,74.28,0,0,1,34.9-19.89c-1.21,5.8.63,10.73,3.56,15.76,2,3.38.89,7.12-2.51,9.69" transform="translate(-693.67 -5774.54)"/><path class="cls-19" d="M793,5824.21c-1.66-4.86,3.77-6.76,4.45-10.64,6-10,17.55-11.72,26.27-17.66,6.1,2.2,12.08-2.11,18.18-.33a5,5,0,0,1,.27,4.36c-5.32,7.35-13.94,8.61-21.61,11.57-3.29,1.27-7.37.78-9.41,4.58-2.66,4.2-5.62,8.17-7.66,12.78-1.65,3.73-4.06,7-9,4.23-1.23-2.84.65-6.19-1.47-8.87" transform="translate(-693.67 -5774.54)"/><path class="cls-20" d="M799.46,6163.26c2.75-2.4-1.76-7.25,3-9A23.62,23.62,0,0,1,818.07,6167c-0.06,3.57-1.14,7.21.57,10.69,1,2.13,2.83,3.59,4.33,5.32,2.33,3.62,1.66,6.76-1.51,9.5-3.18-.09-5.86-1.82-8.8-2.71l0.32-1c-7-2.78-11.37-10.82-20.14-10.09l-6.45-4.49c2.71-5.63,10.43-5.29,13.07-11" transform="translate(-693.67 -5774.54)"/><path class="cls-21" d="M1101.2,6082c-0.15,1.64.18,3.48-1.88,4.28-1.64,3.62-4.75,6.6-4.78,10.92l-2,2.26a4,4,0,0,1-4.33.82c-4.11-4-7.06-8.4-5.36-14.54,1.31-4.75-3-7.11-4.57-10.67,0.13-6.2,2.69-11,8.06-14.26,8.26-7.48,8.23-7.47,11.65,2.91a112.88,112.88,0,0,0,4.38,12.27c-0.12,2.06.09,4.19-1.21,6" transform="translate(-693.67 -5774.54)"/><path class="cls-22" d="M1006.57,6185.52c1.35-4.22,2.45-9-1.08-12.13-5.7-5.08-2.43-8.66.92-12.62,0.15-3.87,3.15-3.73,5.77-4.15,4.3-.41,7.26,3,10.67,4.54,5.13,2.4,7.21,7.52,3.69,13.29l-20,11.08" transform="translate(-693.67 -5774.54)"/><path class="cls-23" d="M986.58,5813.11l0.28-2.44c1.64-2.95,1.1-6.3,1.74-9.44,1.24-6,4.06-9.9,10.93-9,3.22-.43,5.8.24,6.65,3.88l6.88,6a6.76,6.76,0,0,1,1.32,7.67c-6,4.31-6.36-5.53-12-4.13-1.85,4-3.11,8.57-.66,13.54,1.59,3.24,3.39,6.53.19,9.89-7.58-.68-14.55-2.86-20.25-8.19,0.42-3.36,2.88-5.44,4.87-7.82" transform="translate(-693.67 -5774.54)"/><path class="cls-24" d="M984.47,5797.71c-3.9-4.45-9-7-14.22-9.42-3.2,4.93-1.11,12.49-8.87,15.85-0.83-5.34,6.15-9.21,1-14.41-3.9-3.92-7.3-4.36-12.42-3.46s-3.32-6.57-7.28-7.94c13.39,1.88,27.15,2,39.66,8.16,6.13,2.7,6.56,6.5,2.16,11.22" transform="translate(-693.67 -5774.54)"/><path class="cls-25" d="M702.58,6006.93c-8.28-1.48-1.6-10-6.28-13.24-2.08-2.1-1.71-4.31-.32-6.58h0a16.49,16.49,0,0,0,0-13.14c0.06-5.46-.14-11,2.23-16.09,2.1-5.51,1.64-11.8,5.17-16.87q0.75,0,1.51,0,0,5.43-.07,10.86c3.63,12,3.8,23.81-2.2,35.23,2.87,6.61-1.64,13.22,0,19.83" transform="translate(-693.67 -5774.54)"/><path class="cls-26" d="M1041.74,6163.37c-1.61,4-5.66,4.67-8.86,6.51-6.2-4.55-6.18-13.24-12-18,0-7.29,5.72-9.25,10.9-11.71,3.63,3.11,8.79,2.68,12.63,5.34a6.33,6.33,0,0,1,.9,2.73c-1.59,5-1,10.44-3.54,15.17" transform="translate(-693.67 -5774.54)"/><path class="cls-27" d="M1063.35,5880c-0.13-2,4.26-4.46,0-5.76-2.79-.84-4.27-1.49-2.19-3.94,2.23-2.63,5.38-1.66,6,1.15,1.29,5.86,5.69,8.1,11.36,11.32l-4.43-17.56c2.35-2.25,4.89,1.6,7.56.72l6.48,6.51a33.27,33.27,0,0,0,0,5.67,9.23,9.23,0,0,1-1.67,5.47c-8.28,9.86-8.28,9.86-22.15-.85a2.91,2.91,0,0,1-.92-2.73" transform="translate(-693.67 -5774.54)"/><path class="cls-28" d="M1097.17,6024.53c3.53-3.38,7-.06,10.57,0a5.43,5.43,0,0,1,1.52,4.31c-1.6,7.71,1.08,14.86,2.89,22.13-0.32,2.37,1,5.24-2.1,6.76-2.21.18-4.73,1.52-6.1-1.59-1.88-3.65-.25-10.71-8.61-8-1.78.58-3.92-2.64-4.52-5.27,0.63-6.64-.27-13.81,6.34-18.38" transform="translate(-693.67 -5774.54)"/><path class="cls-29" d="M970.43,6180.59c4.82,0.55,8.36,6.75,14.1,3.2q-0.05,1.85-.11,3.71c-3.89,5.33-10.92,6-15.4,10.5l-2.33,0c-4.12-2.41-9.2,2.47-13.08-1.74,4.2-4.31,5.94-8.63,0-12.94,4.95-5,10.44-6.58,16.83-2.77" transform="translate(-693.67 -5774.54)"/><path class="cls-30" d="M1032.9,5835.18c-4.71-2.17-4.71,2.59-6.64,4.51-2.2,1.58-3.76,1-4.82-1.39,0.09-5.32,3.43-9,6.43-12.9a15,15,0,0,0,.94-2.51c-0.12-3.11-3.27-3-4.81-4.54a4.78,4.78,0,0,1-1.14-4.21,4.11,4.11,0,0,1,3.29-2.76c5.52,1,9.48,4.9,13.64,8.06,3.22,2.44,5.47,2.83,8.38.32,1.92,0,3.64.46,4.6,2.37l-2.37,4.29h-4.26c-3.37,4.49-6.29,9.67-13.23,8.78" transform="translate(-693.67 -5774.54)"/><path class="cls-31" d="M821.51,6191.74c0.12-2.88,2.09-5.77-.05-8.63,5.88-4.21,11.76-4.19,17.64,0,1.82,3.22,2.64,7.19,6.6,8.81,1.36,1.72,5.17.57,4.91,4.19-1.53,2.79-5.18,2-7.08,4.23-2.54.5-5,.58-6.71-1.82-4-2.67-8.82-2.74-13.13-4.42h0c-0.93-.6-2.15-0.92-2.19-2.34" transform="translate(-693.67 -5774.54)"/><path class="cls-32" d="M841.3,5795.57c-5.81,3.72-11.67,4.12-17.62.34l41.62-14c2.14,2,2.09,4.27,1,6.72-7.14,6.61-15.52,8.8-25,6.91" transform="translate(-693.67 -5774.54)"/><path class="cls-33" d="M1026.15,5811.38l-2.08,1.79c-10.39,6.6-5.65,14.7-2.22,22.66,0,0.5.05,1,.08,1.49,0.88,1.81,2.54,2.22,4.33,2.37,0.39,1.56,2.33,3.23-.36,4.54-8.33,1.88-11.09-5.45-15.79-9.56-0.82-2.33-.25-4.75-0.42-7.13a16.29,16.29,0,0,1,.28-2.82c0.75-3.29.42-6.67,0.89-10a6.41,6.41,0,0,1,2.21-3.77q0-4.39,0-8.79c6.16,0.52,8.37,6.64,13.09,9.22" transform="translate(-693.67 -5774.54)"/><path class="cls-34" d="M1085.71,5883.6l0.07-6.61c8.1-.71,4.78,9.8,10.88,11.06,2.82,1.34,2,4,2.35,6.32a2.26,2.26,0,0,1,.65,1.8,1.15,1.15,0,0,1-.32,1c-2.26,1.83-4.62,3.49-6.14,6.15-1.18,2.07-1.92,5.38-5.26,4.53-3.56-.9-5.94-4.16-5.4-7.39,0.95-5.61-.67-11.77,3.15-16.83" transform="translate(-693.67 -5774.54)"/><path class="cls-35" d="M1043.91,6147.84q0-1.07-.08-2.14a4.07,4.07,0,0,1-.88-4.4,25.86,25.86,0,0,1,7.26-7.9c2.19-1.51,4.73-2.5,5.68,1.39,0.1,0.16-.61.46,0.1,0.65,2.59-2.38,4.84-.3,7.19.3a4.29,4.29,0,0,1,2.49,3.28c-4,6.22-9.55,10.88-15,15.64-3.79-.74-1-8-6.72-6.8" transform="translate(-693.67 -5774.54)"/><path class="cls-36" d="M1112.16,6051c-6.14-6.41-8.51-13.58-4.43-22,2.12-3.56,4.92-5,8.87-2.85a2.08,2.08,0,0,1,0,3.1c0.3,7.63-.49,15-4.47,21.79" transform="translate(-693.67 -5774.54)"/><path class="cls-37" d="M1118.4,5951.87c-7.5-2.53-7.7-9.91-8-15.34a46.23,46.23,0,0,0-7.06-22.09c-1.76-2.53-2.7-5.25-1.93-8.37a5.7,5.7,0,0,1,2-2.87c8.6,15.12,12,31.81,15,48.67" transform="translate(-693.67 -5774.54)"/><path class="cls-38" d="M1065.68,6139l-2-2.2c0-9.36,8.69-13.29,12.63-20.2,4-5.61,6.29-12.43,11.59-17.2l4.64,0.06c-5.38,15.61-14.76,28.5-26.89,39.53" transform="translate(-693.67 -5774.54)"/><path class="cls-39" d="M953.6,6196.29c4.35,0.63,9.08-1.52,13.08,1.74-14,2.63-27.14,9.69-41.94,8.46l-0.92-3.94c10.81,2.12,19.38-6.41,29.77-6.26" transform="translate(-693.67 -5774.54)"/><path class="cls-40" d="M1021,6152c9.66,2.15,9.3,11,11.88,17.85l-6.33,4.56c-0.32-9.25-7.31-12.54-14.23-15.87,1.08-4.59,4.39-6.22,8.68-6.53" transform="translate(-693.67 -5774.54)"/><path class="cls-41" d="M940.39,5777.92l-4.3.51a10.58,10.58,0,0,1-4,1.76c-1.33,1-4.56-1.5-4.29,2.42a17.24,17.24,0,0,0,.69,5.41,5.14,5.14,0,0,1-1.33,4.1c-5.91,4.16-8.31.35-10.29-4.49a25.09,25.09,0,0,1-2.39-7.36,4.94,4.94,0,0,1,1.79-4.11l6.55-.75a17.13,17.13,0,0,1,10.88,0c2.14,1,5.12-.19,6.66,2.46" transform="translate(-693.67 -5774.54)"/><path class="cls-42" d="M843.54,6200.32c0.35-4.34,3.59-4,6.56-4,2.29-2.34,5.12-2.61,8.15-2.11,2.41,0.62,4.33,1.82,5.07,4.38,2.46,1.87,6.55,3.69.21,5.87-7.54,2.89-13-4.51-20-4.13" transform="translate(-693.67 -5774.54)"/><path class="cls-43" d="M792.83,6178.74c6.06-3.38,6-3.32,10.86,3.13a4.14,4.14,0,0,0,3.67,1c6.46-2.12,5,2.84,5.61,6-7-2.74-14.55-4.49-20.14-10.09" transform="translate(-693.67 -5774.54)"/><path class="cls-39" d="M969,6198c2.92-6.75,8.65-9.37,15.4-10.5l2.22,2.2c0.92,0.56,2.08.88,2.23,2.21C982.73,6195.53,976,6197,969,6198" transform="translate(-693.67 -5774.54)"/><path class="cls-44" d="M916.29,5776.15c-0.1,1.29-.2,2.58-0.29,3.87,1.67,8.79,4.89,17.85-4.27,24.78-4.76-.87-4.21-4.14-2.89-7.22,2.12-4.93,1.72-10.25,2.86-15.32-2.18-8.13-9-2.66-13.28-4.5,5.7-3.42,11.87-1.61,17.88-1.62" transform="translate(-693.67 -5774.54)"/><path class="cls-45" d="M799.46,6163.26c-1.74,6.78-7.51,8.76-13.07,11-1.75-.12-3.72.25-4.59-2-0.08-4.08,1.2-8.45,5.86-6.33,5.37,2.45,7.81-2.4,11.81-2.71" transform="translate(-693.67 -5774.54)"/><path class="cls-46" d="M999.89,5793.25c-6.89-.49-8.2,4.08-8.72,9.49-0.31,3.21,1.54,7.7-4.31,7.93-1.13-1.84-2.74-3.52-2.12-6,4.83-4.29,0-11.12,4.08-15.59l10.46,2.32q2.44,0.2.61,1.83" transform="translate(-693.67 -5774.54)"/><path class="cls-47" d="M1043.91,6147.84c6-1.4,5.21,3.81,6.72,6.8l-8.89,8.72c-0.64-5.37-1.7-10.79,2.17-15.53" transform="translate(-693.67 -5774.54)"/><path class="cls-48" d="M1116.63,6029.19c0-.81-0.06-1.63-0.09-2.44-4.66-9.25-2.09-17.92,2.18-26.44,0.31-3-.89-6.29,1.9-8.73,0.09,12.69,2.43,25.61-4,37.61" transform="translate(-693.67 -5774.54)"/><path class="cls-49" d="M1105.55,6057.57c1.52-.25,3.1-2.42,4.52.17-4,7.71-1.26,17.89-8.87,24.28l-0.09-6.82c-0.07-6.27.63-12.34,4.44-17.62" transform="translate(-693.67 -5774.54)"/><path class="cls-9" d="M716.21,6097.14c15.67-3.61,5.27,9.1,8.36,13.36-5.12-3-6.15-8.55-8.36-13.36" transform="translate(-693.67 -5774.54)"/><path class="cls-50" d="M865.38,5788.8l-0.08-6.85c2.37-3.26,6-.93,8.87-2a3,3,0,0,1,1,2.22c-0.25,1.76.31,3.51,0.12,5.29-2.09,4-5.32,4-8.94,2.49l-1-1.16" transform="translate(-693.67 -5774.54)"/><path class="cls-23" d="M988.82,5789.1c-1.42,5.18,3.36,12-4.09,15.59-1.2-2.28,2.2-4.74-.26-7-0.22-3.84,2.15-8.17-2.16-11.22,2.21,0.78,5,.18,6.51,2.61" transform="translate(-693.67 -5774.54)"/><path class="cls-51" d="M874.3,5782.35c0-.8-0.08-1.6-0.12-2.39,4.88-3.44,10.3-1.75,15.56-1.66l2.11,4c-5.84,4.27-11.69,4-17.54,0" transform="translate(-693.67 -5774.54)"/><path class="cls-52" d="M1096.66,5888.05c-9.08,1.68-4.72-9.86-10.87-11.06,0-1.9.47-3.57,2.29-4.55,4.27,4.43,6.25,10.11,8.58,15.61" transform="translate(-693.67 -5774.54)"/><path class="cls-53" d="M1052.76,5822.12c-1.82-.24-3.64-0.47-4.6-2.37,1.34-2.79,3.09-4.91,6.65-4.18a3.45,3.45,0,0,1,2.23,2.11,7.29,7.29,0,0,1-4.28,4.45" transform="translate(-693.67 -5774.54)"/><path class="cls-54" d="M1094.53,6097.22c-6.11-7,3.63-7.09,4.79-10.92a14.31,14.31,0,0,1-4.79,10.92" transform="translate(-693.67 -5774.54)"/><path class="cls-55" d="M988.87,6191.91l-2.23-2.22c3.57-1.6,7.11-4,10.88-.43a11.2,11.2,0,0,1-8.66,2.65" transform="translate(-693.67 -5774.54)"/><path class="cls-56" d="M1103.43,5903.2c0,0.81-.07,1.61-0.11,2.42-5.65-.84-6.54-4.08-4.47-8.83l0.16-2.43a14.39,14.39,0,0,1,4.41,8.84" transform="translate(-693.67 -5774.54)"/><path class="cls-57" d="M723.1,6070.05a27.07,27.07,0,0,1-7.29.73c3.21-16.15,5.89-32.3,0-48.44h4.39c2.49,1.9,4.53,4.39,7.47,5.73,3.71,8.59,14.23,10.78,18.1,19.23,0.55,2.2.48,4.25-1.36,5.89-8.51-3.41.47,6.27-3.71,5.69-3.5,0-2.27-4.92-5.87-4.55-5.71,10,4.83,16.63,5.2,25.26-4,1.57-3.66,6.43-6.6,8.8-3.22-3.05-9.06-4.36-5.59-11.29,2.21-4.41-7.27-.93-4.72-7.05l0.69-.74c-1.46.17,0.32-.32-0.68,0.75s-1.8-.26-0.66.66a2,2,0,0,0,.65-0.67" transform="translate(-693.67 -5774.54)"/><path class="cls-58" d="M744.4,6053.19v-6.64c-4.56-8.28-2.28-15.27,4-21.58,1.55-1.55,2.77-3.35,5.44-2.59,4.27,1.22,14,17.8,11.29,20.36-5.64,5.29-1.12,7.81,1.4,11.53,2.13,3.14,6.88,4.62,6.28,9.54l-0.27.3c-5.54,1.23-9.07,5.06-13.35,10.48,0.91-11.79-8.95-15-14.79-21.41" transform="translate(-693.67 -5774.54)"/><path class="cls-59" d="M733.41,6088.4c1.8-3.23-4.55-12.59,6.6-8.8,2.21,7.63,11.59,12.4,8.79,22-4.67,4.9-6.35,12.36-13.19,15.41-0.77-3.89,2-8.59-3.75-11.3-4.89-2.33-.71-5.61.5-8.07,1.53-3.09,5.3-5.61,1-9.26" transform="translate(-693.67 -5774.54)"/><path class="cls-59" d="M735.94,6127.57c-0.41-2.35-.56-4.63,1.8-6.18,5.36-3,3.08-12.4,11.08-13.17,1.89-.49,5.2-1.8,4,1.83-2.79,8.27-4.23,18.48-16.85,17.52" transform="translate(-693.67 -5774.54)"/><path class="cls-60" d="M748.82,6108.22c-3.92,2.78-3.78,7.61-5.78,11.37-1.16,2.19-2.17,5.23-5.3,1.81l-2.12-4.37a23.38,23.38,0,0,1,13.19-15.41q0,3.3,0,6.6" transform="translate(-693.67 -5774.54)"/><path class="cls-61" d="M850.71,6178.44a1.64,1.64,0,0,1,1.59.52c-2.46,7.57-8.82,2.67-13.2,4.13l-17.65,0q-4.3-.14-4.4-4.43c11.19-4.3,22.43-1.16,33.65-.24" transform="translate(-693.67 -5774.54)"/><path class="cls-61" d="M859,6196.28l-8.85,0-4.4-4.4c4.51-1.18,7.78-6.11,13.25-4.4,2.13,2.92,2.68,5.85,0,8.78" transform="translate(-693.67 -5774.54)"/><path class="cls-62" d="M859,6196.28v-8.78c12.39-.62,6.15,6.1,4.37,11.07l-4.37-2.29" transform="translate(-693.67 -5774.54)"/><path class="cls-8" d="M724.6,5914.45c-0.91-4.68,5-8.45,1.12-14-2.12-3,2.45-2.6,3.92-2.74,9.51-.91,13.69-6.48,15.06-15.45a15.49,15.49,0,0,1,8.53-11.88c3.19-2,6.54-3.48,10.46-2.87a4.48,4.48,0,0,1,2,2.42c0.74,5-2.5,6.59-6.5,7.49-6.44.47-7.36,5.63-8.76,10.37-2.87,5.64-3.69,12.58-10,16.05-0.77.57-1.58,1.1-2.38,1.63-3.87,2.76-6.74,6.67-10.7,9.33a2.91,2.91,0,0,1-2.7-.38" transform="translate(-693.67 -5774.54)"/><path class="cls-63" d="M715.79,5938.67c5.79-6.64-4-13.25,0-19.88l2.23-2.17c0.69-.42,1.58-0.65,1.92-0.16,2.62,3.66,4.82,4.45,8.46,2.88a7,7,0,0,1,2.88,1.07c2.86,12.45-3.26,19.69-15.44,18.27" transform="translate(-693.67 -5774.54)"/><path class="cls-8" d="M764.23,5857.19l4.45-6.54c2.71-.91,5.4-1.46,8,0.35,3.2,6.85-1.54,12.57-3.53,18.2-1.88,5.32-6.21,2.84-8.9-1l0,0c-0.33-3.67-2.16-7.34,0-11" transform="translate(-693.67 -5774.54)"/><path class="cls-64" d="M775.25,5850.59a5.9,5.9,0,0,1-6.56.05c1.12-3.11,4.7-5,4.36-8.85,5.45-3.82,11.61-2,17.52-2.26a3.47,3.47,0,0,1,.79,4.1c-5.21,2.7-9.77,6.89-16.11,7" transform="translate(-693.67 -5774.54)"/><path class="cls-65" d="M764.23,5857.19c0.15,3.67,6.62,7.34,0,11-3.39,2.11-7.14,2.44-11,2.2,5.14-3.17,2.79-12.6,11-13.21" transform="translate(-693.67 -5774.54)"/><path class="cls-8" d="M729,5921c-3.86-.52-5.26,3.31-8.07,4.73-1.63-3,.56-7-2.95-9.16,1.6-2.56,4.19-2.11,6.62-2.17h2.2c2.3,1.68,3.67,3.67,2.2,6.6" transform="translate(-693.67 -5774.54)"/><path class="cls-66" d="M1083.55,5916.64c-6.84-5.64-7-14.82-11.42-21.85-2.81-4.46-5.6-9-8.56-13.4a15,15,0,0,0,3.25.08c5.84-1.11,4.08,6.94,10.21,7.66s2.44-9.83,8.69-5.54c1.93,7.32-3.36,15.26,2.12,23.33,4-3.47,2.74-12.71,11-10.15,0.46,3.47,1.59,6.59,4.46,8.83q0,4.41,0,8.82c-6.82-1.27-13.35.12-19.8,2.2" transform="translate(-693.67 -5774.54)"/><path class="cls-67" d="M975.39,5818c-2.5-.29-5.46.18-7.42-1-9.41-5.7-18.42-4.13-27.48.58-2.44,1.71-4.29.9-5.8-1.36a7.09,7.09,0,0,1,.44-6.65,2.71,2.71,0,0,1,3.05-.9c9.09,6.5,7.25-3.13,9.41-6.09,7.86,7.54,22.06,4.14,27.8,15.44" transform="translate(-693.67 -5774.54)"/><path class="cls-68" d="M938.18,5808.69l-2.26.09c-0.35-.34-0.7-0.68-1-1-0.85-2.21-2.09-3.76-4.82-2.72a5.32,5.32,0,0,1-3.53-2.23,6.92,6.92,0,0,1-.8-2.76,8.9,8.9,0,0,1,.6-2.79c0.81-3.46,3.47-6.78.8-10.52-2.46-1.47-.13-3,0-4.43,0.82-2.17,3.14-2.72,4.55-4.26l4.43,0.35c-0.05,10.14,3.56,20,2.1,30.27" transform="translate(-693.67 -5774.54)"/><path class="cls-67" d="M981.42,5820.26c-2.16-.51-4.75.13-6.17-2.33,5,1.33,5.68-7.61,11.33-4.82,0.37,3.89-.84,6.64-5.16,7.15" transform="translate(-693.67 -5774.54)"/><path class="cls-69" d="M1118.72,6000.31q-1.09,13.22-2.18,26.44c-3.2-.35-6.06.71-8.81,2.19,0-1.47,0-2.93,0-4.4,4.3-12.87,2.92-26.86,7.92-39.51,2.82,4.62-1.58,10.9,3.06,15.28" transform="translate(-693.67 -5774.54)"/><path class="cls-70" d="M883.11,5863.83c0,1.46,0,2.91.05,4.37-0.16,1.46,1.23,2.06,1.73,3.13,1.42,3.57,3-.45,4.57.08,5.93,1.45,8.63,5.15,7.91,11.24-9.26,4.29-.88,9.74-0.94,14.64a8.47,8.47,0,0,1-1.56,5.89c-6.14,1.34-5.49-5-8.37-7.37a18,18,0,0,1-1.35-2.79c-3.05-2.76,2.14-10.74-7.78-9.77-14.63,1.42-2.68,11.08-6,15.69-0.74,5.37-1.24,10.87-6.81,13.87-5.37-7.43-5-16.59-7.59-24.87-5.2-6.61-9.84-13.72-16.4-19.65-2.84,5-1.33,10.51-5.39,13.91-3.57,1.77-9.6,1.78-9.38-1.28,0.87-11.84-5.93-1.42-8.15-3.33a3.76,3.76,0,0,1-1.88-2.31,7.21,7.21,0,0,1,.31-3.06c4.82-5.24,8.8-11,11.06-17.84a8,8,0,0,1,5.33-3.09c8.56-.3,15.92,2.67,22.34,8.19a8.16,8.16,0,0,1,2.22,1.83c-0.35,4,3.54,4.88,5.41,7.22,3.06,2.52,5,.08,7.08-1.65,3.41-2.12,6.47-5.07,11-4.67a5.08,5.08,0,0,1,2.58,1.59" transform="translate(-693.67 -5774.54)"/><path class="cls-71" d="M894.13,5786.75c11,11.36,7.11,23.87,2.79,36.4-1.64,4.77-3.32,9.52-5,14.28-0.87,1.25-.93,2.85-1.81,4.1-7.24,5.57-14.23.19-21.34-.48a5.11,5.11,0,0,1-2-.83c-7.09-7.7-15.85-13.42-23.79-20.12,5-5.65,12.63-4.53,18.48-8-4.19-4.39-2.59-10-1.08-15.58,1.54-2.69,3.85-3,6.57-2.21,3.63,2.74,4,7.75,7.36,10.67a5.26,5.26,0,0,1,.74,2.74c-2.07,4.74.84,6.3,4.67,7.27,4.12,0.13,8.18,6,12.29,0,0.32-1,.66-1.9,1-2.84,2.72-8.4-3.88-17.17,1.08-25.44" transform="translate(-693.67 -5774.54)"/><path class="cls-72" d="M869.94,5839.57c6.61-.86,13.21,4.64,19.81,0,3,3.05,3.82,7,4.4,11-2.5,5.39-6.47,9.56-11,13.23-0.72,0-1.44,0-2.16-.06-3.49.63,2.55-6.58-2.58-3.56-8,4.69-14.39,2.62-20.75-2.65-3.87-11.34-1.24-15.75,10.68-18Z" transform="translate(-693.67 -5774.54)"/><path class="cls-73" d="M894.13,5786.75c-0.32,9.54,5.92,19.07-.5,27.89-3.42-5.28-2-12.72-4.72-19-1-2.31-1.9-5.33-5.16-4.29-2.41.78-1.54,3.62-1.94,5.68-2,10.3,4.4,14.82,11.82,17.64,0.59,5.34-.4,8.58-6.15,6.17-2.87-1.21-5.84-2.18-8.77-3.25-3.49-2.87-3.61-7.07-4.38-11h0c-4.73-7.31,2.3-14.66-.07-22-1.49-.77-1.5-1.51,0-2.23l17.54,0,2.29,4.44" transform="translate(-693.67 -5774.54)"/><path class="cls-74" d="M883.14,5870.41c-1.52-.75-1.49-1.49,0-2.21,7.58,0.11,14.71,2.36,21.87,4.52a198.56,198.56,0,0,0,1.9,21.76l-0.06,2.33c-1.26,3.69-1.26,7.85-3.58,11.1-1.92,2.68-3.61,7-8.17,3.08-1.31-2.38-2.56-4.79-1-7.55v-6.61c9.21-3,.22-9,2.21-13.22-1.18-5.07-2.15-10.31-8.8-11a5.52,5.52,0,0,1-4.42-2.19" transform="translate(-693.67 -5774.54)"/><path class="cls-61" d="M911.71,5804.25c4.11-7.6,4.34-15.89,4.29-24.23l2.36,6.72c5.85,10,1.45,20.29.72,30.47a14.21,14.21,0,0,1-1.62,6.38c-3.24,4.63-8.9-1.28-12.29,2.79-6.23-6.13-.92-10.62,2.19-15.42,1.24-2.37,1-5.7,4.35-6.71" transform="translate(-693.67 -5774.54)"/><path class="cls-75" d="M905.17,5826.38c2.37-7.17,7.31-1.57,11-2.22,2.48-.63,4.85-1,5.55,2.42-0.06,4.52-5.27,6.45-5.5,10.89l-2.08,2.16c-3.34.74-4.85,5.24-9,4.36-4.52-5.87-3.65-11.74,0-17.61" transform="translate(-693.67 -5774.54)"/><path class="cls-76" d="M911.71,5804.25l-4.35,6.71c-4.75-10.5.29-19.52,4.34-28.69,1.86,5.24,2.75,10.33-.87,15.36-1.57,2.19-1.85,4.74.88,6.62" transform="translate(-693.67 -5774.54)"/><path class="cls-77" d="M894.15,5850.6c-5.13-2.21-4.36-6.78-4.4-11l2.2-2.15c1.68,4.27,7.51-2.48,8.53,3.13,0.93,5.12-2.45,7.8-6.32,10" transform="translate(-693.67 -5774.54)"/><path class="cls-78" d="M906.93,5894.48c-1.93-7.14-6.08-14.09-1.89-21.76,0.24-2.4-.29-5.06,2.22-6.7a148.49,148.49,0,0,1-.33,28.46" transform="translate(-693.67 -5774.54)"/><path class="cls-78" d="M905.16,5844c2.51-2.44,4.8-5.34,9-4.36l-6.82,13.19c-7.55-1.27-1.09-6-2.16-8.83" transform="translate(-693.67 -5774.54)"/><path class="cls-79" d="M775.25,5850.59c4.66-3.27,8.81-7.72,15.35-6.71,1.52,7.52-3.34,13.91-3.75,21.09-0.21,3.74-2.38,7.84,4.12,9.13,5.19,1,3.92,6.15,4.19,10,0.29,4.14-1.26,9.21,5.12,10.34,5.35,0.54,8.27,2.84,6.06,8.62-2.14,5.61-2,12.36-7.92,16.09-5.36-3.75-7.83-11.18-15.43-12.1-3.82-2.68-7.88-4.93-12.49-7.77-2.46,6.4-5.13,12.74-5.12,18.92,0,11.56-6.27,18.35-15,23.33a14.57,14.57,0,0,0-7.94,11.74,95.43,95.43,0,0,0-4.17,15.24c-2,12.55-4.14,24.59-10.05,36.06-1.22,2.36,2.34,7.32,1.66,11.44-0.34,4.47.67,9.26-3,12.93-4.91.51-7.06-1.74-6.61-6.6a182.85,182.85,0,0,1-4.38-37.44c4.66-12.56,14.82-23.11,12.68-38.21-0.73-5.14,2.8-9.25,8.64-10.82,10.28-2.75,15-9.64,17.12-20.33,2.07-10.4.7-22.1,8.64-31-7-.43-11.25-2.33-5.27-9.77,4.87,0.48,7.1-1.7,6.63-6.59,3,0.65,7.79,6,7.23-2.8-0.33-5.3,6.44-8.88,3.76-14.83" transform="translate(-693.67 -5774.54)"/><path class="cls-80" d="M757.63,5874.81c0.48,2.41-2.62,5.16.13,7.15,3.86,2.8,3.71-1.51,5-3.25a2.93,2.93,0,0,1,3.87-1c1.88,1,1.88,2.8,1.26,4.75-0.8,2.5-3.71,3-4.54,5.84-3,10.43-6.12,20.78-6.48,31.76-0.25,7.29-10.21,17-18.65,18.6-5.75,1.07-8.5,4-5.89,9.9,1.12,2.52,1.89,5.46.62,7.4a77,77,0,0,0-11.37,26.93c-0.49,2.38-3.64,1.89-5.79,2a22.71,22.71,0,0,1,3.28-14.52c2.51-4.16,2.43-7.88-.26-10.83-4.67-5.13-4-10.42-.23-14.57,5-5.56-3.19-3.73-2.81-6.32,10.27-1.39,14.67-7.9,15.41-17.62-2.18-3.8-5.55-7.91,2.29-9.23,2.58,1.93,1.55,5.52,3.87,8.2,4.73-2.5,5.35-8.46,10.12-11.26-3.85-1.3-7.25,1.38-10.21-1a3.51,3.51,0,0,1,.54-4.34h0c7.87-2.14,10.66-7.91,11-15.42-0.4-6.61.9-12.09,8.78-13.2" transform="translate(-693.67 -5774.54)"/><path class="cls-81" d="M702.59,5987.1q1.1-17.61,2.2-35.23c1.22,0.63,3.29,1,3.53,1.93,2.93,10.91,4.34,22,3,33.32l-8.77,0" transform="translate(-693.67 -5774.54)"/><path class="cls-82" d="M1032.9,5835.18c5-2.06,7.69-7.57,13.23-8.78,5.31,5.69,2.82,11.19-2,14.71-6.38,4.71-8.21-2.49-11.28-5.93" transform="translate(-693.67 -5774.54)"/><path class="cls-30" d="M1038.81,5847.87c-5-.61-6.28-3.27-8.88-7.59,4.92,1.59,6.61,3.91,8.88,7.59" transform="translate(-693.67 -5774.54)"/><path class="cls-14" d="M1044.55,5846c2.57-1,4.65-.06,6.52,1.49,0.06,0-.86,1.95-1.58,2.18-3.06,1-4.41-.71-4.94-3.67" transform="translate(-693.67 -5774.54)"/><path class="cls-83" d="M799.46,5896.83c-2.54.83-6,3.58-6.38-1.72-0.3-3.9-1.92-7.72-.59-11.85,0.6-1.89-.2-4.23-0.37-6.38-10.88,2.12-9.25-4.64-8.12-11.27,1.1-6.44,2.18-12.86,5.2-18.76,0.5-1,.93-2,1.39-3q0-2.18,0-4.36,1.19-7.66,2.4-15.32c3.14,2.41,1.74,6,2.24,9,2.77,2.91,2.64,6.62,2.67,10.23,0.06,5.57.46,11.18-1.32,16.61,8.81-2.26,6.89,5.14,9,9.44s8.39,1.58,11.41,5.2c0,0.74.09,1.47,0.13,2.21,5.39,3.75,2.79,9.18,2.57,13.89-0.14,3-3.24,3.66-5.88,3.26-3.89-.59-5.31-3.06-4.32-7a29.62,29.62,0,0,1-10,9.82" transform="translate(-693.67 -5774.54)"/><path class="cls-84" d="M817,5874.71c-2.91,0-5.83.17-8.73,0.09-5-.13-9.18-0.9-5.71-7.55,1.66-3.17-.81-5.17-3-6-3.84-1.42-.75,4.62-4.37,4.44q0-16.29,0-32.49c8.79-1.66,5.86-12.07,11.85-16,1.11-.73,2-1.75,3.39-1.88,4.06-5.08,10.43-4.32,15.77-5.9,3.64-1.08,5.82,2.32,7.08,5.5a43.15,43.15,0,0,1,3.09,16c-5.45,10.33-9.85,21.18-15.17,31.59-1.2,3.45-2,7-4.09,10.12-0.07.7-.11,1.39-0.13,2.09" transform="translate(-693.67 -5774.54)"/><path class="cls-72" d="M834.67,5832.95c-0.46-1.74-1-3.46-1.37-5.23-3.92-18.77.34-19.37-22.84-12.38-1.75-3.24-.28-4.34,2.89-4.81,10.07-1.51,19.05-6,27.93-10.65l1.29,0.79c4.32,6.16,6.64,12.43,1,19.1,4.87,1.36,8.35,6.38,14.14,5.32,2.41-.44,3.58,1.25,3.28,3-1.2,7.27,4.88,8.53,9,11.44l0,0c-7.4,1.33-14.9,3.46-19.27-5.86-1.28-2.72-4.39-1.68-6.86-1.24-3,.54-5.95,3.13-9.13.46" transform="translate(-693.67 -5774.54)"/><path class="cls-50" d="M867.7,5795.5c-2.4.14-5-.34-6.57,2.25-5.82,7.83-12.62,6.81-19.82,2.21l0-.08q0-2.15,0-4.31l24.08-6.77,0.23,0.2c2.45,1.6,4.46,3.35,2.08,6.5" transform="translate(-693.67 -5774.54)"/><path class="cls-31" d="M850.71,6178.44c-11.23-.86-22.41,3.92-33.65.24-3.43-4.05-3.25-7.9.65-11.54Z" transform="translate(-693.67 -5774.54)"/><path class="cls-85" d="M1070.13,6094.47l9.26-19.21c5.48,2.5,9.62,5.61,5.67,12.43-2.79,4.82,4.93,7.08,2.87,11.72-1.71,7.09-4.9,13.27-11,17.65-5-4.56-12.41-8.37-4.86-16.72,0.53-.58-2.35,0-2.68-1.58a5.6,5.6,0,0,1,.71-4.29" transform="translate(-693.67 -5774.54)"/><path class="cls-61" d="M1087.19,6061.71c1-6,2-12,5.27-17.3,3.69,2.12,8.73,8,6.7-6.31,4.84,8.15,7.31,13.25,6.38,19.48-0.43,6.14-1,12.25-4.44,17.62-6.16-4.47-5.25-11.85-7.41-18-4.31-1.6-.07,9.2-6.5,4.51" transform="translate(-693.67 -5774.54)"/><path class="cls-86" d="M1006.41,5832.56c-2.48,0-3.52-1.82-4.5-3.69,1.32-7.31-9.34-12.94-2.91-21,1.72-2.17-3.28-6.07,1.46-7.39,3.71-1,5.88,2.53,8.4,4.36,1.89,1.37,2.84,4,4.21,6.11q-0.07,2.2-.14,4.4c-1.93,3.42-.79,7.44-2.11,11l0,0c-1.44,2.08-2.25,4.61-4.37,6.22" transform="translate(-693.67 -5774.54)"/><path class="cls-47" d="M1033,6141.31c3.56-5.85,6.18-12.5,13.13-15.47,4.45-.12,3.54,2.8,2.2,4.8-2.21,3.3-4.52,6.41-4.43,10.62q0,2.23-.06,4.45c-5,1.87-9.41,2.45-10.85-4.39" transform="translate(-693.67 -5774.54)"/><path class="cls-87" d="M1030.67,5824.17a34,34,0,0,1-8.74,13.15h0c-1.42-4.48-5.18-8.24-5.24-13,0-4.1-1.34-11.44,7.4-6.86,3.57,0.86,11.09-2.18,6.59,6.67" transform="translate(-693.67 -5774.54)"/><path class="cls-88" d="M1024.08,5817.5c-7.52-.59-7.6,4.17-5.11,8.61a21.15,21.15,0,0,1,2.95,11.2c-5.59-3.86-6.85-9.2-6.83-15.82,0-6.85,2.6-9.18,9-8.33q0,2.17,0,4.34" transform="translate(-693.67 -5774.54)"/><path class="cls-23" d="M1006.41,5832.56c0-3.12.17-6.07,4.37-6.22a6,6,0,0,1,0,6.75l-4.4-.53" transform="translate(-693.67 -5774.54)"/><path class="cls-23" d="M1010.81,5826.32c-1.82-4.15-.62-7.71,2.11-11-0.36,3.73,1.65,7.91-2.11,11" transform="translate(-693.67 -5774.54)"/><path class="cls-89" d="M1043.9,6141.25c-5.89-2.93-2.37-6.12-.31-9.34,1.19-1.86,6.52-2,2.53-6.07l17.53-22.09c2.89-.41,3.75-4,6.69-4.31,1.34,0,4-2.5,3.53,1-0.42,3.08-2.41,5.95-4.26,10.14,11.26-5.52,5.28,3.89,7.34,6.46-1.64,8.45-10,12.38-13.25,19.74-2.93,2.78-5.89-2.67-8.82,0h0c-0.26-3.12-1.43-3.75-3.9-1.57s-3,6.11-7.1,6" transform="translate(-693.67 -5774.54)"/><path class="cls-89" d="M1054.89,6136.84c0.3,1.82,2.78,3.43.58,5.44a1.8,1.8,0,0,1-1.72-.3c-1.59-2.08-.73-3.75,1.14-5.14h0Z" transform="translate(-693.67 -5774.54)"/><path class="cls-90" d="M916.25,5817.58c-0.23-10.34,5.19-20.3,2.11-30.84,2.08,3.09,3.77,7,8.72,4.41a5.26,5.26,0,0,1,.19,6.61c-0.07.73-.14,1.46-0.19,2.18-2,6.87-1,15.58-10.82,17.64" transform="translate(-693.67 -5774.54)"/><path class="cls-91" d="M931.66,5778.08c-0.21,2.81-1.75,4.21-4.55,4.26-2-.4-5.69-0.77-4.41-3.08,1.7-3.07,5.88-.8,9-1.18" transform="translate(-693.67 -5774.54)"/><path class="cls-91" d="M927.27,5797.76q-0.09-3.3-.18-6.61l0-4.39c2.45,3.64,5.21,7.27.14,11" transform="translate(-693.67 -5774.54)"/><path class="cls-92" d="M867.7,5795.5l-2.08-6.5c3.34-.57,8,1.46,8.65-4.43,4.79,7.31.61,14.65,0.07,22-5.54-1.69-7.38-5.59-6.64-11.05" transform="translate(-693.67 -5774.54)"/><path class="cls-2" d="M726.79,6028.94q0-7.71,0-15.41c3.83-.78,6.1-2.1,6.62-7,1-9.57,1.42-19.87,13.6-23.65,4-1.25,4.52-6.26,5.61-10.27-2.56-.94-3.82,1.32-5.59,2.09-2.64,1.16-5.64,3.86-8.08,1.77-3.72-3.18.62-5.74,2.05-8.31,2.16-3.88,1.43-8.76,4.42-12.3,3.5-4.36,6.32-9.42,11.89-11.68,1.49-.77,4,0.77,4.43-0.27,3.9-8.93,8.68-10.34,18.53-5.07a4,4,0,0,1-.68,3c-1.82,1.95-4.35,2.61-6.6,3.81-9.71,5.14-12,10.49-9.32,21.07,2.29,9-.67,16.57-6.09,23.53a71.79,71.79,0,0,0-13.32,18.52c-0.86,1.62-1.6,3.67-.36,5.18,1.79,2.18,4,.62,6-0.14a15,15,0,0,0,2.83-1.65c11.94-8,12.38-8.15,16.24,6.07,3.66,13.53,3.56,27.74,6.1,41.5a3.53,3.53,0,0,1-2.2,4.09c-4.63-3-7.8-7.44-11.24-11.65-2.86-3.5-10.51-6.36.67-8.91,3.16-.72,2.61-4.85.75-6.33-3.81-3-6.55-6.26-7.76-11.12-0.41-1.63-1.92-2.29-4.61,0-7,5.91-5.22,13.57-6.22,20.76-6.94-4.8-16.47-7-17.61-17.6" transform="translate(-693.67 -5774.54)"/><path class="cls-93" d="M896.61,5952.6c-0.07,5.29-4.66,8.35-6.32,12.86-6-3.64-9-10.46-6.7-15.31,0.25-.53.25-0.54,0.17-0.53a9,9,0,0,0-5.92,2.37c-1.56,1.54-4.71,3.82-5.45,2.71-7.39-11-17.07,1.35-25-2.73a16.19,16.19,0,0,0-2.09-.6c-5.22-5.25-12.37-6.33-19-8.65-12.12-5.63-12.83-11.84-2.86-26.59,2.37-3.51,6.21-6.24,5.3-11.27,0.29-2.36,1.32-4.94,3.91-3.83,5.07,2.17,11-.87,15.62,3,0.84,3,.45,6,0.33,9a3.87,3.87,0,0,1-3.47,2.58c-2.8-.07-5.63-1.58-8.4,0-2.53,1.46-5.06,3.15-4.75,6.51,0.29,3.06,3,3.7,5.46,4.33,3.78,1,7.67,1.24,11.34,3,2.57,1.27,1.41-2.39,2.68-3.25,4.46-2.87,10,1.41,14.29-2.17,2.26-1.26,2.61-3.44,2.74-5.74a5.75,5.75,0,0,1,1.29-2.52,12.37,12.37,0,0,1,2.52-1.44c3.88-.75,5.29-6.13,10-5.36a4.64,4.64,0,0,1,2.23,2c1.08,2.14,1.24,5.15,4.89,4.78,2.77-.29,6.23-1.54,7.44,2.25,1.1,3.43-2.26,5-4.17,7-1.73,1.84-3,4.42-5.38,5.28-3.63,1.31-.95.37,0,1.51,5.12,5.91,12.11,11.24,9.19,20.78" transform="translate(-693.67 -5774.54)"/><path class="cls-94" d="M825.89,5940.87c7.15,1.71,15.74.19,19.81,8.81,3.39,2.89,7.59,1.76,11.45,2.39,11,1.79,14.44,8.58,10,18.64-3.57,8.14-9,15.79-8,25.39h-0.1a5.77,5.77,0,0,1-4.2.81c-2.83-.44-3.67.53-2.63,3.18-5.65,3.38-9.92,9.42-17.49,9.14l-1-1.21c3-13.45,4.52-27.25,9.17-40.3,1.48-4.14.54-6.91-2.94-9.36-4.74-3.33-8.7-7.77-14.28-9.86-6.35-2.3-6.49,5.23-10.51,6.64-3.67-.39-4.42-3-4.62-6,2.12-8.26,7.18-11,15.26-8.22" transform="translate(-693.67 -5774.54)"/><path class="cls-95" d="M775,6059.73c-3.44-9.84-8-19-6-30.49,1.12-6.37-3.64-13.76-5.85-21-6.89.51-9,7.75-15.61,10-11.07,3.77-8.13-4.17-7.15-7.19a46.42,46.42,0,0,1,15-21.77c1.31,6.91,4.34,8.91,9.95,3.46a5.69,5.69,0,0,1,3,.24,62.89,62.89,0,0,0,20.36,11.21,5.17,5.17,0,0,1,1,2.74c-0.42,7.1-6.95,11.39-8.28,18.09-2.37,4.34-4,9.39-2.15,13.71,3.31,7.69.1,13.35-3.71,19.25a4,4,0,0,1-.5,1.75" transform="translate(-693.67 -5774.54)"/><path class="cls-96" d="M859.19,5996.09c-10.63-10.34,2.34-17.31,4.72-25.07,3.18-10.38,3.07-15-8-16.79-3.94-.65-8.17.11-10.18-4.56,8.27-.22,17.2,1.85,22.71-7.22,3.11,3.26-.17,7.66,3.8,10.83,3.28-4.5,8-6.39,13.67-6.38,2,0,4.64-2.31,5.49.82,1.21,4.47-3.41,2.26-5.09,3.56-1.05.82-2.63,1-7.51,2.57,11,0.34,6.05,9.26,11.51,11.59-5.85,14.8-19.31,21.87-31.1,30.63" transform="translate(-693.67 -5774.54)"/><path class="cls-97" d="M896.61,5952.6c-1.76-11-10.06-17.36-18-25.41,11.9,7.87,8.8-9.63,17.53-7.74-6.43-1.54-16.18,3.28-13-9.41,2.94-3,6.48-2.88,10.18-2a13.62,13.62,0,0,1,3,2c7.6-1.18,6-9.69,10.54-13.26,1,16.95,3.33,34.05-5.79,49.85-1.26,2.19-2,4.66-4.47,5.95" transform="translate(-693.67 -5774.54)"/><path class="cls-98" d="M775.5,6058c6.27-8.74-1.62-18.09,1.05-27.22a27,27,0,0,1,3.09-6.22c5.07-4.27,6-11.85,12.23-15.22,2.51-.31,5.06.25,7.56-0.25,5.37-1.09,6.9,2,5.5,6.14-2.07,6.12-.13,12.19-0.82,18.24L775.5,6058" transform="translate(-693.67 -5774.54)"/><path class="cls-99" d="M804.13,6033.44c-5.79-7.13-2.88-14.5.41-23.53-4.58,2.29-8.17,2.66-11.71,1.41-1.25-2.18.08-3.8,1.17-5.48,3.48-3.51,6.46-7.47,9.82-11.1,2.25-1.32,4.51-2.66,7.15-.95,2.2,3.57-2.38,6.81-.51,10.47,4,3.22,7.71-5.38,11.35-.55,2,2.61-.63,5.46-1.47,8.41,4.87-.8,8.64-6.69,14.29-3.05l0.14,0.15-30.65,24.22" transform="translate(-693.67 -5774.54)"/><path class="cls-100" d="M916.22,5837.47c-4.83-6.15,4.15-6.89,4.33-11.07,1.48-3.67-2-11,6.83-9.26,2.55,3.88,1.74,7-2.22,9.29-2.49,4.07-4.35,8.67-8.95,11" transform="translate(-693.67 -5774.54)"/><path class="cls-101" d="M925.17,5826.43l2.89-8.59a6.07,6.07,0,0,1,.64-5.63c2-2.08,3.57-5,7.28-3.43h-0.06q-0.12,3.06-.23,6.12c-1.31,3.06-2.89,6-4.09,9.11-1.13,3.53-3.36,4.11-6.44,2.41" transform="translate(-693.67 -5774.54)"/><path class="cls-96" d="M852.27,6000.08c-1.48-.89-4.23-1.83-4.2-2.67,0.1-2.71,3.11-2,4.76-2.3,2-.34,4.16.6,6.26,1-1.48,2.69-4.32,3.06-6.82,4" transform="translate(-693.67 -5774.54)"/><path class="cls-102" d="M1070.34,6099.44c-2,1.76-2,6.74-6.69,4.31a19.8,19.8,0,0,1,6.48-9.27q0.11,2.48.21,5" transform="translate(-693.67 -5774.54)"/><path class="cls-103" d="M931.61,5824c-1.5-4.32,1.33-6.7,4.09-9.11,0.9,2.15,2.8,2.51,4.8,2.71l-8.88,6.41" transform="translate(-693.67 -5774.54)"/><path class="cls-104" d="M951.32,6165.43a2.27,2.27,0,0,1-2.63,2,2.47,2.47,0,0,1-2.46-2.82,3,3,0,0,1,2.11-1.69c1.43-.31,2.82,0,3,2.51" transform="translate(-693.67 -5774.54)"/><path class="cls-105" d="M724.62,6044.63c2.54,3.6,3.59,6.82,2,10-0.7,1.34-3.8,1.17-4.64-.3-2-3.54.27-6.27,2.69-9.69" transform="translate(-693.67 -5774.54)"/><path class="cls-16" d="M725.3,6064.63c0.61,1.88,1.37,3,1.06,3.48a5.71,5.71,0,0,1-2.94,2.44c-2.29.52-.78-1.49-0.65-1.81a28.24,28.24,0,0,1,2.54-4.11" transform="translate(-693.67 -5774.54)"/><path class="cls-79" d="M748.85,5888c4,7-.37,13.18-11,15.42,6.82-2.89,5.88-11.34,11-15.42" transform="translate(-693.67 -5774.54)"/><path class="cls-79" d="M737.81,5903.44q0,2.2,0,4.4a5.24,5.24,0,0,1-4.41,4.4c-5.31,1.79-2.2,5.69-2.2,8.81H729l-2.2-6.6a19.41,19.41,0,0,1,11-11" transform="translate(-693.67 -5774.54)"/><path class="cls-106" d="M929.5,5813.28l-1.44,4.55c-7-1.06-3.84,6.73-7.51,8.56l-4.39-2.24q0-3.29.08-6.58c6.18-4.3,6.2-12.39,10.83-17.64,0.08,0.72.13,1.46,0.15,2.18,1.8,2.61,1.63,5.6,1.65,8.54,0.21,0.86.4,1.74,0.62,2.62" transform="translate(-693.67 -5774.54)"/><path class="cls-107" d="M929.5,5813.28a13.44,13.44,0,0,0-2.16-.23c-0.77-3.25.91-5.92,2.06-8.71,2.46-.85,2.14-4.8,5.54-4.84,2.14,2.86.51,6.21,1,9.27-3.33-.18-3.76,3.82-6.49,4.51" transform="translate(-693.67 -5774.54)"/><path class="cls-91" d="M929.41,5804.34l-2.07,8.71c-4.21-3.6,1.41-7.3-.11-10.93l2.18,2.22" transform="translate(-693.67 -5774.54)"/><path class="cls-108" d="M834.67,5832.95c4.83,0.2,7.65-5.8,12.95-4.19,2,0.61,5.79,1,5.84,1.67,0.83,11.75,10.39,7.29,16.46,9.15-7.46,3.5-15.44,6.67-11,17.61a3.85,3.85,0,0,1,1,3.76l-0.81,1.11a2,2,0,0,1-2.41-.46h0c-2.76-2-8.36-.13-7.93-6.41,0.56-8.3-3.78-7.66-9.17-4.62-2.21,1.24-4.87,1.08-7.12,2.21l-4.38,2.22c-2,3.48-2.72,8.66-8.85,6.57,6.19-9,5.09-21.87,15.4-28.63" transform="translate(-693.67 -5774.54)"/><path class="cls-109" d="M799.46,5896.83l11.31-16.39c2.37,1.91,1.53,3.58.9,5.2-1.16,3-1.91,6,2.48,6.52,5.51,0.68,3-3.37,3-5.77,0-3.16,2.06-6.32,0-9.47l9.9-6.51c1.48-1,3.17-2.45,4.59-.33a4.22,4.22,0,0,1-.67,5.81c-1.4,1.27-6.43-1.11-4.18,3.65,1.51,3.17,5.18,1.48,7.89,1.89a4.34,4.34,0,0,1,1.16,2.78,4.52,4.52,0,0,1-1.46,2.63,12.39,12.39,0,0,1-2.71,1.29c-7.36,1.56-7.15,9.75-11.89,13.61a3.29,3.29,0,0,0-2.52,2.25c-0.47,6.13-7.56,7.28-9.33,12.45a26.6,26.6,0,0,1-5.14,5.59c-2.74,1.45-5.82,4-6.35-1.92l0.85-1.27c4.76-5.11,4.36-12.21,6.95-18.19,2.21-5.09-2.6-3.21-4.76-3.84" transform="translate(-693.67 -5774.54)"/><path class="cls-110" d="M834.58,5885.74c0-.71.07-1.41,0.12-2.12,11-6.51,11.72-6.37,24.23,4.4,5.24,7.24,3.29,16.42,6.56,24.19,3.41-.43,7.17-1.23,4.46,4.46q0,1.09,0,2.18c-1.83,1.84-.16,4.83-2.18,6.61-5.14,4.62-10.3,4.57-15.49.09l-0.42-1.48c0.41-1.62,1.66-2.49,2.95-3.33,3.24-2.83,3-6.58,2.85-10.31-1.63,3.32.34,7.63-3,10.48-6.05.1-5-5.4-6.77-8.62q-4.17-3.33,0-6.68c1-2.2,5.11-4.67,4.36-5.06-4.85-2.52-3.1-9.8-8.86-11.41-3-.83-6.54-0.48-8.76-3.4" transform="translate(-693.67 -5774.54)"/><path class="cls-111" d="M869.85,5899.06c-2.09-5.88-3.64-12.42-.63-17.7,1.56-2.73,8.94.7,11.21-5.19,5.2,4.31,5.49,10.6,7,16.33-5,4.57-9.51,10.41-17.63,6.56" transform="translate(-693.67 -5774.54)"/><path class="cls-112" d="M858.92,5888c-1.37.28-3.81,1.08-3.95,0.78-4.74-9.95-12.78-6.45-20.28-5.18q0-1.09,0-2.18c1.13-6.22,2.25-12.44,3.3-18.28,10.48,2.55,10.22,16,20.4,18.63,0.68,0.18.39,4.07,0.55,6.23" transform="translate(-693.67 -5774.54)"/><path class="cls-113" d="M869.85,5899.06c7,0.85,11.09-6.16,17.63-6.56,0,0.71.06,1.42,0.07,2.13,2.39,5.06,5.46,9.82,6.61,15.41h-11c-9.95-8.28-7,5-11,6.6l-2.18,0c1.05-4-3.52-2.43-4.46-4.46l4.36-13.15" transform="translate(-693.67 -5774.54)"/><path class="cls-114" d="M832.49,5852.79c2-5.21,7.62-5,11.42-7.31,5.23-3.24,10.26-1.14,7.59,5.58s1.8,7.9,5.21,10.53c-9-.4-15.06-8.88-24.23-8.81" transform="translate(-693.67 -5774.54)"/><path class="cls-115" d="M896.36,5883.61c2.65,3.78,6.85,6.17,4.77,12.69-2.7,8.42-4.65,1.43-7,.53-1.65-5.22-5.65-9.92-3.74-16.5l5.94,3.29" transform="translate(-693.67 -5774.54)"/><path class="cls-7" d="M858.92,5861.58v-4.38c6.48,1.78,13,7,19.36-.4,1.24-1.44,3.3-2,4.7-.3,2.65,3.19-3.25,4.29-2,7.28l-11,4.45c-5.13.2-7.56-4.07-11-6.64" transform="translate(-693.67 -5774.54)"/><path class="cls-109" d="M819.26,5861.58c3.76-1.11,6.14-4.05,8.85-6.57,0.06,8.19-3.72,14-11,17.61,0.35-3.75-1.34-7.9,2.14-11" transform="translate(-693.67 -5774.54)"/><path class="cls-116" d="M858.92,5861.58c5.72-1.18,7.93,3.46,11,6.64-1.94,4.77-4.31,7.77-8.82,2.18-0.45-3-.79-6-2.2-8.79v0Z" transform="translate(-693.67 -5774.54)"/><path class="cls-111" d="M894.15,5910c-2.27-5.11-7.79-8.82-6.61-15.41,4.59,1.15,3.43,6.6,6.6,8.81l2.19,6.63-2.18,0" transform="translate(-693.67 -5774.54)"/><path class="cls-114" d="M858.92,5861.61c3.17,2.32,3.21,5.43,2.2,8.79-1.24-1.18-2.41-3.3-3.74-3.41-9.7-.8-0.29-3.67-0.67-5.4h2.2" transform="translate(-693.67 -5774.54)"/><path class="cls-115" d="M883.14,5870.41c1.82,0,3.45.43,4.42,2.19,0.4,1.61,2.15,4.41.1,4.58-4.36.38-3.76-3.94-4.52-6.77" transform="translate(-693.67 -5774.54)"/><path class="cls-92" d="M841.3,5800c6.64-.45,13.71,2.94,19.82-2.22,1.83,4.73-3.27,11.79,5.19,14.49,1.69,0.54,1.85,4.81-1.42,4-7.83-1.92-14,4.15-21.39,3.52,1.89-6.89-.14-13.35-2.21-19.8" transform="translate(-693.67 -5774.54)"/><path class="cls-92" d="M874.34,5806.55c3,3.07,3.46,7.13,4.38,11-4.62-2.41-13.54-3.12-4.38-11" transform="translate(-693.67 -5774.54)"/><path class="cls-117" d="M894.16,5815.36c-15.92-3.9-15.92-3.9-15.41-21.48,0.09-3.35-.12-6.72,4.7-7.09,3.92-.3,6.4,1.37,7.51,4.9,2.41,7.69,3.89,15.54,3.2,23.67" transform="translate(-693.67 -5774.54)"/><path class="cls-118" d="M746.63,5956.29c-1.49,6.52-.07,14.16-6.71,19.37,3.92-2.25,7.85-4.48,11.76-6.75,1.37-.8,2.18-3.42,4.34-1.54,1.69,1.47,1,3.29.15,5-3.18,6.41-3.53,13.91-13.8,16-4.15.85-8.1,11.84-6.46,19.19,2.62,11.7-3.17,8.47-9.11,6-5.69-10,1.9-16.8,5.54-24.74,2.3-5,5.69-10.81-.74-15.82-0.56-.44-0.66-2.58-0.53-2.63,9.2-3.18,6.34-12.15,9-18.45,2.33,1.28,5.34,1.54,6.62,4.4" transform="translate(-693.67 -5774.54)"/><path class="cls-119" d="M746.63,5956.29a6.67,6.67,0,0,1-6.62-4.4c-1.14-6.84,2.17-9.82,8.5-12,15.26-5.37,12.8-20.69,16.69-32.29,1.58-4.72,2.32-9.71,6-16,0.66,9.47,9.89,8.21,12.83,14.1,0.84,2-.53,2.68-2,3.26-6.05,0-8.71,1.82-4.2,7.73,1.72,2.26,4.23,4,4.69,7.15a3.84,3.84,0,0,1-3,3.11c-5.22-.69-9.42-1.14-11.35,6.12-1.31,4.92-7.69,7.49-10.51,12.27-4.08,3.25-5.56,9.11-11,11" transform="translate(-693.67 -5774.54)"/><path class="cls-120" d="M781.85,5907.84l2.2-2.2c8.36,0.45,12.56,5.07,13.22,13.21h0c-2.41,4-.34,9.28-3.64,13-7.54,1.32-11.66-1-8.37-9.09,1.59-3.91,1-6.08-2.33-8-1.88-2.08-3.19-4.25-1.08-6.94" transform="translate(-693.67 -5774.54)"/><path class="cls-121" d="M733.4,5912.24a7.66,7.66,0,0,1,4.41-4.4c4.43-1.29,18.76,7.32,24.23,5.73-1.57,8.84-19.06,2.58-22.11,9.07-0.46,1-4.28,1.69-5,1-3.18-3.2-.89-7.56-1.55-11.37" transform="translate(-693.67 -5774.54)"/><path class="cls-122" d="M824.72,5816.48c2.22,4.61,2.54,7.83.5,12.65-2.62,6.18-9.58,10.46-8.27,18.53,0.47,2.86.79,8.63-3.21,7.54-3.83-1-8.86-5.46-7.71-10.89,3.6-17.12,3.87-17.06,18.7-27.82" transform="translate(-693.67 -5774.54)"/><path class="cls-88" d="M1030.67,5824.17l-5.09,1.1c-0.13-.66-0.61-1.68-0.35-1.92,2.08-1.94,3.89-1.25,5.44.82h0Z" transform="translate(-693.67 -5774.54)"/><path class="cls-123" d="M766.45,5993.7c-4.81,6.86-4.81,6.86-14.08,5.47-0.15-3.64,4.36-5.93,3-9.88,5.12-8.43,10.16-16.42,3-26.77-3.43-5,4.93-16.61,12.87-19.41,2.72-1,5.56-1.55,8.35-2.31a1.82,1.82,0,0,1,2.58.1c-0.14,5.87-6.56,5.23-9,8.72a22.48,22.48,0,0,0-3.32,6.58c-2.23,7.77-3.49,15.32-.1,23.35,2,4.84.27,10-3.34,14.14" transform="translate(-693.67 -5774.54)"/><path class="cls-124" d="M781.84,5940.83l-2.23,0q0-1.07,0-2.13c-1.38-4.4-5.19-8.81,0-13.2l2.19-2.21c-2.33-3.7-2.06-6.75,2.21-8.79,8.17-2,8.51,4.42,5.19,7.33-9,7.86.48,7.63,3.56,10.3,2.58,2.86.91,6.39,1.53,9.57,0.59,3.58-5,4.52-3.6,8.46-9,2.64-9.07-3.2-8.9-9.3" transform="translate(-693.67 -5774.54)"/><path class="cls-35" d="M779.66,5925.47c-2.55,4.39,3,8.81,0,13.2-5.87,1.71-15.55-5.38-16.68,7.25l-5.31-.64c1.46-7.46,8.94-11.33,10.13-19.89,1-7.42,7.72-.68,11.9.08" transform="translate(-693.67 -5774.54)"/><path class="cls-125" d="M825.89,5940.87c-5.95.6-11.94,1.14-13.25,8.76,1.82,9.31-.19,18-4.55,26.2-5.75,8.34-9.43-1.08-14.17-1.65-4.25-4.28-2.23-8.66-.21-13,5.46-2.43-2.06-7.43,2-10.16,4-.94,7.9-1.92,7.69-7.31-0.31-8.09,4.7-13.3,10-18.36,1.52-3.73,1.45-8,4.08-11.35,2.8-3.11,4.58-7.15,8.42-9.32a4.25,4.25,0,0,1,4.45,1c3.11,2.49,2.46,5.2-.1,7.34-4.26,3.56-7,7.1-7.58,13.35-0.72,7.4-1.24,10.94,3.27,14.54" transform="translate(-693.67 -5774.54)"/><path class="cls-126" d="M830.31,5905.64H825.9c-1-7.66.25-14.59,6.6-19.82l2.08-.08c7.41,0.62,17-2.48,16.44,10.9-0.1,2.08,5.82-.68,7.23,4.27-3.36,1.31-6,4.62-10.41,4.7-5.84-.12-11.7-2.46-17.53,0" transform="translate(-693.67 -5774.54)"/><path class="cls-127" d="M852.25,5925.55l1.49,9.48c-5.42-.84,1.19,3.57-4.86,4.32-3.71.46-19-10.14-20.6-15.5-1.65-5.6,3.5-7.25,6.21-10.45,4.51-5.33,7.63-.94,11.19,1,3.32,3,4.68,7.18,6.61,11Z" transform="translate(-693.67 -5774.54)"/><path class="cls-97" d="M872.13,5916.64c0-2.15,0-4.31,0-6.46,0-3.46.33-6.43,4.92-6.71,4.93-.29,6.3,2.29,6.07,6.56-5.1-.18-4.67,8.86-11,6.6" transform="translate(-693.67 -5774.54)"/><path class="cls-126" d="M852.3,5925.47c-4.45-2.33-7.11-5.73-6.61-11l2.16-2.17c4.68,1.05,3.46,6.6,6.67,8.77h0l-2.22,4.42" transform="translate(-693.67 -5774.54)"/><path class="cls-113" d="M867.75,5925.46c0.82-2.17-3.65-6.1,2.18-6.61,1.73,3,1.34,5.33-2.18,6.61" transform="translate(-693.67 -5774.54)"/><path class="cls-128" d="M834.63,6009.07l-17.61,7c0.7-4.37,1.48-7.93,4.41-10.87-5.66-3-7.94,9-13.66,2.12-4.75-5.72,2-9,2.72-13.61a5.8,5.8,0,0,1,2.19-3.67c3.67-2.2,6.47-6,11.29-6.16,3.18,0.17,6.17-2.46,9.45-.64-2.5-6.42,3.72-13.33-1.51-19.83-4.14-5.14-9.61-10.28-6-18.17,8,2.21,12.2,9.91,19.43,13.32,3.3,1.55,3,4.8,1.73,7.66-1.94,4.43-8.31,8.55-.59,13.43a2.39,2.39,0,0,1-.09,1.88c-14.33,4.75-1.42,21.11-11.74,27.51" transform="translate(-693.67 -5774.54)"/><path class="cls-129" d="M825.89,5945.28c1.47,4,2.94,8.08,4.44,12.11,0.16,0.44,6,20.09,6,20.47,0,7.75-5.95,8.7-11.55,9.89a18.61,18.61,0,0,1-1.05-2.84c-6.31-4.32-5-12.91-10.45-18.28-2.22-2.21,2.61-8.17,3.83-12.55-4.56-10.45,3.5-8.26,8.82-8.8" transform="translate(-693.67 -5774.54)"/><path class="cls-130" d="M817.07,5954.08a2.07,2.07,0,0,1,.4,1c-4,11.22,5.15,19.7,6.22,29.85-4.05,1.56-5.88,6.8-11,6.62-0.71-5.79,3.29-13.59-6.61-15.46,2-8.86,6.08-17.2,6.56-26.44,0.1,2.84,1.53,4.38,4.42,4.45" transform="translate(-693.67 -5774.54)"/><path class="cls-123" d="M806.09,5976.07c3,0.61,7.13-4,8.78-.16,2.12,5,2.62,11-2.16,15.62l-2.21,2.22-6.57,2.22c-9.45-4.65-10.2,6-15.46,8.76-9,3.41-13.32-7.37-21.31-7l1.49-4c2.25-4.94,8-6.78,11.52-6.72,9.82,0.15,11.4-7.17,14.91-13.1,2.49-1.27,4.71-1.6,6.3,1.42,1.17,2.23,2.69,3.45,4.73.75" transform="translate(-693.67 -5774.54)"/><path class="cls-131" d="M795.07,5973.9c0.93,3,3,4.58-1.14,8.7-7.45,7.49-16.83,7.65-25.29,11.13l-2.19,0c4.09-12-6.33-24,.08-36,0.66-1.22,1.39-2.4,2.09-3.61l1.13,1c0.92,8.57,4.76,15.08,13.45,18.25,4.48-4.88.31-12.88,5.48-17.84,4.11-.71,6.86.25,6.37,5.17,0.76,4.4-3.56,8.81,0,13.21" transform="translate(-693.67 -5774.54)"/><path class="cls-132" d="M788.46,6004.73c1.85-5,2.81-9.53,9.22-12.21,5.77-2.41,4.5,1.9,6.23,3.45-0.64,5.51-4.75,8.24-8.83,11-2.21,1.51-4.42,1.95-6.62,0v-2.21Z" transform="translate(-693.67 -5774.54)"/><path class="cls-123" d="M788.46,6006.94h6.62l-2.26,4.38c-6.59,2.21-4.64,12.94-13.18,13.21-1.31-8,7.27-11,8.81-17.6" transform="translate(-693.67 -5774.54)"/><path class="cls-133" d="M817,5927.63c-7,3.24-11.9,8-10.87,16.35,1.23,9.87-3.34,10.93-11.07,7.86a4.53,4.53,0,0,1-4.43-2.15c-2.93-3.84,2.92-5.49,2.18-8.78,0.61-2.32,3.47-3.8,2.64-6.63-1.84-6.27,2.36-9.65,6.2-13.24a7.68,7.68,0,0,1,4.4-4.41c2.88,4.43,5.71,8.91,10.95,11" transform="translate(-693.67 -5774.54)"/><path class="cls-134" d="M817,5927.63c-8.36,1-12.51-2.14-10.95-11,0.89-2.33,1.3-6.31,2.73-6.72,8.06-2.31,5.63-7.59,3.21-13.86,3.53,1.95,3.92,5.78,7.24,5.16,5.44,4.4,2.24,8.82,0,13.24-2.62,4.07-2.2,8.67-2.28,13.18" transform="translate(-693.67 -5774.54)"/><path class="cls-135" d="M819.29,5914.45c-0.1-4.41,1.81-8.83,0-13.24,2.72-6.59,2.06-16.08,13.25-15.38l-6.6,19.82c-1.85,3.2-2.6,7.23-6.61,8.81" transform="translate(-693.67 -5774.54)"/><path class="cls-134" d="M801.66,5921c-1,4.61-6.45,7.75-3.32,13.92,2,4-2,5.46-5.52,6-3.91-2.94.8-5.87,0-8.81-0.1-4.95.13-9.79,4.45-13.25-0.1,3.87,2,3.34,4.4,2.2" transform="translate(-693.67 -5774.54)"/><path class="cls-136" d="M854.52,5921c0-1.1-.33-2.34.06-3.27,1.26-3-3.45-8.12,3.1-9.21,1-.17,3.58-2.48,3-0.08-1.09,4.44,3.05,12-6.16,12.56h0Z" transform="translate(-693.67 -5774.54)"/><path class="cls-35" d="M784.06,5914.47a14.74,14.74,0,0,0-2.21,8.79c-7.55-2.11-6.88-10.26-12.54-15.73,5.28,1.69,8.7-3.56,12.54.31l2.21,6.63" transform="translate(-693.67 -5774.54)"/><path class="cls-137" d="M790.64,5949.69c1.77,0.1,3.46.39,4.43,2.15-0.43,2.95,7.35,5.91,0,8.85a6.63,6.63,0,0,0-6.61-4.39c-4.64,3-7.27-1.78-10.88-2.79a20,20,0,0,1-6.71-6c2.85-3.56,8.58-2.38,11-6.67,3.17,2.71,1.65,10.09,8.8,8.86" transform="translate(-693.67 -5774.54)"/><path class="cls-131" d="M770.85,5947.5a6.57,6.57,0,0,1,6.6,4.38c-1.72,6.19-2.6,6.41-8.79,2.22l0,0,2.23-6.57" transform="translate(-693.67 -5774.54)"/><path class="cls-138" d="M768.65,5954.09c3.12,0,7,3.09,8.79-2.22,4.83-1.43,6.82,4.22,11,4.42-0.95,6.17,2.24,12.85-2.77,18.62-1.4,1.62-2,4.51-4.4,2.42-6.93-6.16-16.78-11-12.63-23.24" transform="translate(-693.67 -5774.54)"/></g></g></g></svg>