<svg xmlns="http://www.w3.org/2000/svg" viewBox="0 0 479.45 456.22"><defs><style>.cls-1{isolation:isolate;}.cls-2{fill:#80314c;}.cls-10,.cls-100,.cls-101,.cls-102,.cls-103,.cls-104,.cls-105,.cls-106,.cls-107,.cls-108,.cls-109,.cls-11,.cls-110,.cls-111,.cls-112,.cls-113,.cls-114,.cls-115,.cls-116,.cls-117,.cls-118,.cls-119,.cls-12,.cls-120,.cls-121,.cls-122,.cls-123,.cls-124,.cls-125,.cls-126,.cls-127,.cls-128,.cls-129,.cls-13,.cls-130,.cls-131,.cls-132,.cls-133,.cls-134,.cls-135,.cls-136,.cls-137,.cls-138,.cls-139,.cls-14,.cls-140,.cls-141,.cls-142,.cls-143,.cls-15,.cls-16,.cls-17,.cls-18,.cls-19,.cls-2,.cls-20,.cls-21,.cls-22,.cls-23,.cls-24,.cls-25,.cls-26,.cls-27,.cls-28,.cls-29,.cls-3,.cls-30,.cls-31,.cls-32,.cls-33,.cls-34,.cls-35,.cls-36,.cls-37,.cls-38,.cls-39,.cls-4,.cls-40,.cls-41,.cls-42,.cls-43,.cls-44,.cls-45,.cls-46,.cls-47,.cls-48,.cls-49,.cls-5,.cls-50,.cls-51,.cls-52,.cls-53,.cls-54,.cls-55,.cls-56,.cls-57,.cls-58,.cls-59,.cls-6,.cls-60,.cls-61,.cls-62,.cls-63,.cls-64,.cls-65,.cls-66,.cls-67,.cls-68,.cls-69,.cls-7,.cls-70,.cls-71,.cls-72,.cls-73,.cls-74,.cls-75,.cls-76,.cls-77,.cls-78,.cls-79,.cls-8,.cls-80,.cls-81,.cls-82,.cls-83,.cls-84,.cls-85,.cls-86,.cls-87,.cls-88,.cls-89,.cls-9,.cls-90,.cls-91,.cls-92,.cls-93,.cls-94,.cls-95,.cls-96,.cls-97,.cls-98,.cls-99{fill-rule:evenodd;mix-blend-mode:darken;}.cls-3{fill:#aa7787;}.cls-4{fill:#99617a;}.cls-5{fill:#a47789;}.cls-6{fill:#8c3f5d;}.cls-7{fill:#9f7585;}.cls-8{fill:#925e74;}.cls-9{fill:#a27384;}.cls-10{fill:#9d697f;}.cls-11{fill:#955775;}.cls-12{fill:#904a65;}.cls-13{fill:#833c54;}.cls-14{fill:#a57686;}.cls-15{fill:#641c32;}.cls-16{fill:#97516e;}.cls-17{fill:#9d6a80;}.cls-18{fill:#7e3a52;}.cls-19{fill:#955870;}.cls-20{fill:#722e46;}.cls-21{fill:#782d47;}.cls-22{fill:#662137;}.cls-23{fill:#985a74;}.cls-24{fill:#7b3450;}.cls-25{fill:#632236;}.cls-26{fill:#874c63;}.cls-27{fill:#9d6c7e;}.cls-28{fill:#8a516e;}.cls-29{fill:#90576f;}.cls-30{fill:#ae8092;}.cls-31{fill:#98516c;}.cls-32{fill:#a67a88;}.cls-33{fill:#8a445e;}.cls-34{fill:#7e374e;}.cls-35{fill:#91546a;}.cls-36{fill:#9a6b7c;}.cls-37{fill:#945971;}.cls-38{fill:#af8595;}.cls-39{fill:#a16e7f;}.cls-40{fill:#a67385;}.cls-41{fill:#986377;}.cls-42{fill:#863d5a;}.cls-43{fill:#9b627c;}.cls-44{fill:#af808f;}.cls-45{fill:#965d76;}.cls-46{fill:#99647a;}.cls-47{fill:#a06f83;}.cls-48{fill:#a47683;}.cls-49{fill:#7b314a;}.cls-50{fill:#9a657b;}.cls-51{fill:#9d6f80;}.cls-52{fill:#9c6a7f;}.cls-53{fill:#90586b;}.cls-54{fill:#915c73;}.cls-55{fill:#865267;}.cls-56{fill:#884f63;}.cls-57{fill:#a0677c;}.cls-58{fill:#893c57;}.cls-59{fill:#782a45;}.cls-60{fill:#74273e;}.cls-61{fill:#6d2139;}.cls-62{fill:#ab7e8e;}.cls-63{fill:#a1687e;}.cls-64{fill:#b38295;}.cls-65{fill:#af7c8e;}.cls-66{fill:#b27d8e;}.cls-67{fill:#915d73;}.cls-68{fill:#925973;}.cls-69{fill:#90556f;}.cls-70{fill:#996a7e;}.cls-71{fill:#956b7b;}.cls-72{fill:#9d6f82;}.cls-73{fill:#9a677c;}.cls-74{fill:#a07285;}.cls-75{fill:#9f607a;}.cls-76{fill:#8a4d67;}.cls-77{fill:#946077;}.cls-78{fill:#9a697e;}.cls-79{fill:#8d576f;}.cls-80{fill:#966078;}.cls-81{fill:#8e4d6e;}.cls-82{fill:#854d63;}.cls-83{fill:#8b435c;}.cls-84{fill:#8b455d;}.cls-85{fill:#7d2f46;}.cls-86{fill:#581829;}.cls-87{fill:#6c2c40;}.cls-88{fill:#732942;}.cls-89{fill:#e2c9cf;}.cls-90{fill:#7e314b;}.cls-91{fill:#8c405b;}.cls-92{fill:#85435f;}.cls-93{fill:#8e506c;}.cls-94{fill:#5d1c31;}.cls-95{fill:#64273c;}.cls-96{fill:#85425d;}.cls-97{fill:#5f1d33;}.cls-98{fill:#712d47;}.cls-99{fill:#7c364f;}.cls-100{fill:#59192a;}.cls-101{fill:#722e3f;}.cls-102{fill:#823654;}.cls-103{fill:#90526a;}.cls-104{fill:#985d73;}.cls-105{fill:#804c62;}.cls-106{fill:#894a62;}.cls-107{fill:#9f6578;}.cls-108{fill:#9c5773;}.cls-109{fill:#a05471;}.cls-110{fill:#7d304d;}.cls-111{fill:#8c455d;}.cls-112{fill:#8b4963;}.cls-113{fill:#7c4558;}.cls-114{fill:#a26b80;}.cls-115{fill:#742a46;}.cls-116{fill:#8e526e;}.cls-117{fill:#844966;}.cls-118{fill:#e1cecf;}.cls-119{fill:#f8f2ef;}.cls-120{fill:#9c6475;}.cls-121{fill:#9c5f74;}.cls-122{fill:#631b2f;}.cls-123{fill:#97647a;}.cls-124{fill:#97596d;}.cls-125{fill:#ac8593;}.cls-126{fill:#9d697d;}.cls-127{fill:#693346;}.cls-128{fill:#bc97a2;}.cls-129{fill:#a0667d;}.cls-130{fill:#916075;}.cls-131{fill:#7f425a;}.cls-132{fill:#853650;}.cls-133{fill:#f1dde3;}.cls-134{fill:#975a6c;}.cls-135{fill:#7c3b56;}.cls-136{fill:#e5c9ce;}.cls-137{fill:#ad848b;}.cls-138{fill:#c4abaf;}.cls-139{fill:#d3a5a8;}.cls-140{fill:#8f5363;}.cls-141{fill:#a18885;}.cls-142{fill:#ba8490;}.cls-143{fill:#a1677d;}</style></defs><title>tache5</title><g class="cls-1"><g id="taches_vin" data-name="taches vin"><g id="tache_5" data-name="tache 5"><path class="cls-2" d="M559.57,5875.58A57.21,57.21,0,0,1,570,5898.12c1.51,4.79.34,9.94,2,14.69q-1.36,18.4-3.27,36.76c-1.06,10.22-2.14,21.58,3.69,31.79,3.41,6,2.93,13.4,1.88,19.82-0.75,4.57-1.09,9.58-3,14-6.05,13.75-6.7,28.63-9.24,43.11-0.48,2.47-.88,5-3.63,6.12-4.25-.58-5.87-4.17-6-7.34-0.51-9.05-5.42-13.09-13.8-14.08-0.77-1.21-1.36-2.78-.52-3.84,10.23-12.9,7.48-28.72,6.69-42.66-0.69-12.34-2.26-25.43-6-37.74-0.49-1.65-1-3.26,0-4.9,6.5-1.9,9.55,2.43,9.65,7.31,0.14,6.47,2.93,10.88,7.16,14.57,3-12.46-1.38-26.19,3.93-38.93,4.27-13.26,6.62-26.63,2.5-40.4,0.54-4.33-2.74-7.4-3.73-11.23-0.88-3.37-3.57-7,1.27-9.56" transform="translate(-108.72 -5764.65)"/><path class="cls-3" d="M279.71,6212.51l-7.26-3.62a6.89,6.89,0,0,1-6.58-6.57c-0.11-3.07,2.92-5,6.28-5.31a6.27,6.27,0,0,1,2.76,1c2.06,1.42,3.11,4.49,6.59,3.91,1.55-3.34-3.88-4.42-2.58-7.61,0.65-3.51,3.9-5,5.8-7.6,2.17-3.34,5.44-6.11,5.46-10.58a5.1,5.1,0,0,1,3.69-2.26c12.11,1.7,12.12,1.7,11.25,13.15-0.3,4,1.08,8,0,12-0.69,2.94-1.66,5.87-.59,9.12,5.32-10.11,5.32-10.11,3.43-14.92-1-1-2.23-2.74-1.38-3.52,8.54-8,14.39-18.71,25.15-24.37,9-3.73,16.09-1.15,21.53,6.67a5.87,5.87,0,0,1-1,4.25,5.19,5.19,0,0,0-.43,5.54c4,9,2.55,12-7.07,16.67-1.61-1.1-3.1-2.59-5.38-1.75,0.87,3.31,3.82-.06,5.17,1.63,1.9,1.56,4.19,4.09,2.89,5.9-5.21,7.23,1.72,7.81,5.13,10.37a8.48,8.48,0,0,1,.22,6.09l-22.77.23c-2-3.45-8.06-4.55-5.83-10.53,0.73-2,.09-4.3-2.59-4.46-2.38-.15-3.65,1.67-3.84,3.86-0.37,4.21-1,8.12-6.2,8.86-4.2-.6-8.4-1.26-12.55.26-4.35-7.53-1.48-15.93-2.73-24.87-5.36,3-4.58,8.42-6.57,12.23s-3.09,9.74-9.9,6.29" transform="translate(-108.72 -5764.65)"/><path class="cls-4" d="M110.61,6022.54c-1.21-13.1-2.27-26.21-1.75-39.39,1.54-3,.58-6.82,2.81-9.62,2.09-2.61,5-3.92,8.14-3,3.41,1,2.19,4,1.75,6.08,1.48-2.67-.09-5.51-0.51-8.44-0.59-4.2-.3-8.79,3.51-11,4.4-2.6,6.07,2.67,8.89,4.59,2.61,0.08-3,4.21,1.76,3.45,2.46-.39,4.42,1.15,6,2.69-0.32-4.55-5-10.85,4.32-12.33,2.81,4.85,7.8,7.15,12.1,10.26a9.6,9.6,0,0,1-.38,8.46c-4-1.54-6.52,3.62-10.48,2.51a9.79,9.79,0,0,0-6.1,5.25c-2.2,4.26-3.28,8,3.61,8.51,2.82,0.19,5.42,1,7.06,3.64,2.23,4.73.77,10,2.24,14.84,0.88,4.23-.88,8.56,1.39,12.92,2,3.9-2.27,4.81-4.66,6.43-3.27,2.22-5,.5-6.24-2.39-2.4-5.63-7.42-9.76-5.55-17.61,1.56-6.56-6.76-.43-8.85-4-2.5-2.37-4.38-.93-6.17,1.06-1.67,1.72-4.08,1.35-6.16,2.11,1.26,1.36,3,1,4.39,1.56a3.44,3.44,0,0,1,2.12,3.44c-2.35,6.08-5.89,10.59-13.27,10" transform="translate(-108.72 -5764.65)"/><path class="cls-5" d="M220.33,6187.93c-3.42-6.85-13.62-4.82-16.4-12.51l1.27-.58c3.21-.07,6.34-0.44,8.72-3,2.62-2.4,5.66-1.27,9.47-.86-1-5.65-2.41-11.47,3.24-15.37a27.57,27.57,0,0,1,4.79-2.52,10.34,10.34,0,0,0,4.88-3.93c2.64-4.45,3.86-11.43,11.75-6.78,1.77,2.81,2.75,6.78,1,8.82-9.44,10.71,3,17.53,2.92,28.51,6.81-9.64,13.27-10.62,20.63-4.85,2.72,5.22.94,10.57-3.33,12.52-8.11,3.73-12.07,7.95-7.5,16.75a1.81,1.81,0,0,1-.64.7,1.43,1.43,0,0,1-1.79-.18l-3.85-.4c-3.37-1.14-6.61-2.45-8.14-6.06l-0.08,0c-3.76-1.57-7.82-2.52-6.4-8.46,1.5-6.3-5.18-6-7.92-9,2.16,2.81,6.42,4.87,3.08,9.3s-6.65,3.22-10-.54c-1.28-1.45-4.07,0-5.72-1.57" transform="translate(-108.72 -5764.65)"/><path class="cls-6" d="M559.51,6057.64c2.43-14.67,4.21-29.36,9.05-43.67,3.09-9.12,2.67-19.43,3.82-29.2-12.68-7.34-.7-21.23-8.12-30.35-3.39-4.16,3.63-7.3,3.66-12,0.05-9.14,1.21-18.28,1.91-27.41,6.12,1.09,3.92,6.2,4.39,9.7,2.18,16.07,0,32.9,6.4,48.18,5.9,14.1-.42,27.42-0.35,41.1-3.74,17.6-11.08,34.19-14.62,51.86-0.67,2,0,4.49-2.09,6-6.48-3.25-1.15-9.87-4.05-14.15" transform="translate(-108.72 -5764.65)"/><path class="cls-7" d="M232.75,6154.84l-4.14,2.07c-1.93-1.64-3-3.55-2.47-6.23,1.91-9,.42-11.06-7.82-10.8-9.12.29-10.92-1.48-11.12-10.85-2.28-.81-5.93-6.74-5.19,2.07,0.28,3.32-5.29,4.51-8.46,4-4.3-.67-8.66.8-12.82-0.83-0.89-5-5.11-9-4.07-14.52,2.77-4.69-.13-10.4,2.71-15.09,2.59-.37,4.67,1,6.75,2.15,18.32,10.52,37.65,17.86,59.06,18.28,5.36,0.1,6.53,4.22,8.61,7.64-0.52,4.35-4.89,6.11-6.56,9.7-8-2.88-5.16,7.7-10.35,8.27-0.8,2-5.68-.16-4.13,4.14" transform="translate(-108.72 -5764.65)"/><path class="cls-8" d="M217.54,5809c2.55-3.13,4.08-7.42,9-7.77,2.77,3.61,5.69,7,10.71,7.3a7.92,7.92,0,0,1,4.59,3.27c1.34,6.09-3.8,7.16-7.33,9.53-6.67,4.48-9.07,13-5.42,19-4.29,4.49-8.69,8.86-14.35,11.66-3.86.12-6.1-2.54-8.49-5-1.56-1.58-2.75-4.27-5.75-2.23a4.43,4.43,0,0,1-2.52.55,9.68,9.68,0,0,1-2.35-1.19c-2.51-2-5.69-2.09-8.59-2.93-2.67-1.6-6.22-.59-8.67-2.86a2.14,2.14,0,0,1,.42-2.44c9-9.91,20.36-16.77,31.23-24.29,1.3,8.83-2,18.05,2.95,29.06,5.15-11.49-2-22.83,4.58-31.74" transform="translate(-108.72 -5764.65)"/><path class="cls-9" d="M114.92,5954.25c4-21.31,8.9-42.31,22.47-60,1.17-.92,3.21-1.44,3.57-0.25,2.31,7.65,10,13.21,8.66,22.23-1.38,7.47-11.83,10.7-9.35,20a1.09,1.09,0,0,0,.77.59,1.71,1.71,0,0,0,1-.36c4.65-9.73,5-9.87,10.09-3.59a14.59,14.59,0,0,1,.29,4.38c-3.4,9-9.39,13.16-17.76,9.75-8.69-3.54-13.36-1-17,6.53a2.09,2.09,0,0,1-2.65.77" transform="translate(-108.72 -5764.65)"/><path class="cls-10" d="M114.92,5954.25c2.21-3.42,3.93-7,7-10.06,3.43-3.42,5.53-4.75,10.07-1.13,6.58,5.24,14.45,2.45,18.09-5.36,5.46-.76,11.77-6.91,15.64,2.46a4.75,4.75,0,0,1-2.37,5,11.91,11.91,0,0,1-2.76,1c-11.88.72-18.33,10.46-27.06,16.38-3.85,1.06-5.52-2.27-7.57-4.29-6.79,6.62,3.16,19.77-10,23.4-3.05-5.6,6.57-3.59,4.58-8.38-9.18-3.15-8.08,6.17-11.62,9.92-0.52-10.17,1.17-19.87,6.06-28.9" transform="translate(-108.72 -5764.65)"/><path class="cls-11" d="M402.28,6210.44c-4.47,3.2-9.59,1.64-14.45,2a2,2,0,0,1,0-2.44,13.72,13.72,0,0,1,2-1.73c4.55-3.07,1.69-6.78.87-10.32a5.37,5.37,0,0,1,.85-4c13.66-1.72,21.36-13.94,33.21-18.9,2.13-.89,1.39-3.66,1.93-5.59a4.36,4.36,0,0,1,2.48-1.3c3.52,0.17,6.2,2.31,9.15,3.84,4.33,3.74,1.56,6.62-1.2,9.43-3.28,3.33-6.33,6.66-2.61,11.54,0.88,1.67,2,3.3.9,5.31l0,0c-7.73-.95-14,1.54-18.69,7.87l-6.17,2.42c-2.82.4-6.24-1.91-8.29,1.87" transform="translate(-108.72 -5764.65)"/><path class="cls-12" d="M552,6095.18c-7.06,17.73-19.84,31-33.85,43.26-4.17-4.75-1-9.54-.13-14.33,2.39-6.7.71-13.62,1-20.43,0.1-2.66-.88-7,2.33-7,8.36,0.23,15.5-6.38,24.06-3.74,2.06,1.12,4.77.38,6.61,2.2" transform="translate(-108.72 -5764.65)"/><path class="cls-13" d="M552,6095.18c-1.63-.39-3.42,1.8-4.94-0.29-3.83-5.69-9.41-4.13-13.49-1.7-9.77,5.84-14,4.34-15.87-6.85,0.79-6.67,3.88-12.48,6.76-18.37a22.71,22.71,0,0,1,1.9-2.32c2.54-2.44,2.45-8.26,8.27-6.59,3.66,3.59,1.93,8.48,3,12.69,2,7.38,8.13,9.81,13.55,5.33,1.86-4.52,1.41-10.11,6.21-13.23,2.39-1.51,2-4,2.06-6.23,3.39,4.13,1.78,9.7,4.05,14.15-3.16,8.14-5,17-11.56,23.39" transform="translate(-108.72 -5764.65)"/><path class="cls-14" d="M180.73,6134.27c3.82,0.15,6.73-9.14,11.7-1.07,0.43,0.7,5.41-1.4,8.16-2.16,0.38-4.5-8-2.71-5.18-7.19,2.58-4.06,6.42-2,9.49,1,1.39,1.36,3.39,2.11,5.11,3.14-6,7.29-7,15.59-4.93,24.53-1,3.64-3.73,6.67-.81,11.21a11.32,11.32,0,0,1-.06,11.51l-0.28.22c-4.55-3.4-11.32-5.18-9.35-13.25,0.38-1.57-1-2-2.33-2.7-10.31-5.38-13.54-14.11-11.51-25.19" transform="translate(-108.72 -5764.65)"/><path class="cls-15" d="M447.71,5778.51c8,4.7,18.25,4.9,25,12.17a10.27,10.27,0,0,1,2.95,6.66,4.25,4.25,0,0,1-1.21,2.59c-2.19,1.37-5.87,2-6.64.42-4.12-8.52-14.4-2.41-19.35-8.71-1.35-1.71-3.73-.19-3.62,1.55,0.38,5.81-1.86,10.19-5.12,14.86-1.86,2.66,2.25,4.26,4.73,5.24,4.95,2,8.41,4.71,6.4,10.77-2.81,3.87-6.54,4.34-9.64,1.13-4.47-4.65-12.81-6.57-11.62-15.54,0.5-3.74,1.89-7.33,1.67-11.17,0.49-4.38,1.88-8.71.67-13.18-2.17-4.86.19-7.66,4.69-7.85,3.61-.15,7.57-1.1,11.06,1.06" transform="translate(-108.72 -5764.65)"/><path class="cls-16" d="M578.12,6014.21c0-3.77-1-7.92.2-11.24,6-16.31-2-30.81-4.76-46.09-1.9-10.53-1.16-21.53-1.7-32.32-0.17-3.28,1.2-6.95-2-9.61q0.1-8.42.2-16.84l8,23.41c3.18,12.24,6.35,24.48,4.48,37.33-0.5,9.3,3.28,17.67,5.66,26.35q-0.06,2.12-.12,4.24c-3.72,5.21-3,11.7-5,17.39-1,2.8.41,7.38-4.9,7.38" transform="translate(-108.72 -5764.65)"/><path class="cls-17" d="M157.88,6097.21c-3.3,3.78-12.81-5.54-12.49,5.91a2,2,0,0,1-2.6-.67c-1.74-3.19-1.75-6.81-2.53-10.24a9.4,9.4,0,0,1,4.16-8.89c5.49-3.53,7.15-8.87,8-14.79,1.23-3,1.67-7.35,5.65-7.33,5.13,0,2.79,5,3.85,7.73,0.63,1.64,2.6,2,3.71,3.21,4,6.26,7.69,12.61,8.7,20.13-3.78,7.25-11.23,2.32-16.41,4.93" transform="translate(-108.72 -5764.65)"/><path class="cls-18" d="M474.69,5797.08c-2.43-1.59-1.94-4.07-2-6.4,5.65,0.17,9,4.09,12.66,7.64,3.48,3.84,8.62,6.52,8.68,12.74,0,4,3.77,3,5.85,4.27,3.4,2.11,9.28,1.79,8.71,8.17a6.29,6.29,0,0,1-1.84,2.13,89.71,89.71,0,0,0-11.52,7.86c-3.64,3.13-6.75,2.58-7.75-2.77-12.86-6.38-11.22-18.62-12-29.84-0.1-1.32.36-2.72-.81-3.8" transform="translate(-108.72 -5764.65)"/><path class="cls-19" d="M154.19,6068c0.52,7.26-.93,13.41-8.28,17-3,1.43-3.81,4.63-4.12,7.8-0.67,3.81-2.08,6.5-6.65,4.31-5-2.29-7.87-5.44-7.73-11.62,0.17-7.72-8.06-13.38-6.25-21.82-1.41-4.23-3-8.54,4-9.09,3.11,0.8,4.48-1.47,6-3.45a3.39,3.39,0,0,1,2.7.05,6.94,6.94,0,0,1,1.43,2.46c0.91,3.51-.56,6.7-1.16,10-1,5.5-3.61,12.25,5.18,14,9.21,1.81,10-4.68,10.21-11.33,0.84-2.84-.2-7.14,5.07-6.51a9.61,9.61,0,0,1-.41,8.2" transform="translate(-108.72 -5764.65)"/><path class="cls-20" d="M334.06,5766.19c15.87-3.19,31.78-.47,47.67-0.26a25.16,25.16,0,0,1,1.72,2.26c0.84,2.26,1.8,4.52.12,6.83a7.52,7.52,0,0,1-2.62,1.17c-9.58-1-19.19-4-28.69.44a19.54,19.54,0,0,1-7.29-.34c-5.12-3-8.23-2.2-8.76,4.34-0.28,3.46,1,8-4.65,8.68-8.76-4.84-9.74-8.2-4.7-15.94,1.89-2.9,4-5.61,7.2-7.17" transform="translate(-108.72 -5764.65)"/><path class="cls-21" d="M297,5772l16.33-3.49c0.47,1.33.78,3.2-.24,3.82-9.27,5.65-9.16,15.45-11.09,24.35-3.06,2.89-5.7,1-8.15-.91a9.26,9.26,0,0,0-8.58-1.95c-7.09,1.82-11-1.5-12.62-8.26,0.54-6.29,8.71-5.22,10.23-10.61,4.3-3,8.6-6,14.13-3" transform="translate(-108.72 -5764.65)"/><path class="cls-22" d="M559.57,5875.58c-3.19,7.22,5,12,4,18.72-2.08,4.9,2.91,9.46.71,14.37-6.94,3.52-8.52-.13-8-6.14,1-11.14-3.14-20.46-9.79-30.34-3.12,6.4-1.65,14.36-9.28,16.81-4.39-.43-4.12-3.57-3.5-6.52a14.76,14.76,0,0,0-.81-9.56,12.32,12.32,0,0,1,.36-8.65c0.91-2.72,4.79,1.09,6-3.34s5.88-3.36,9.54-1.69c5.35,4.29,9.39,9.43,10.72,16.35" transform="translate(-108.72 -5764.65)"/><path class="cls-23" d="M578.12,6014.21c1.46-5.53,3.81-11,4.08-16.59,0.22-4.7,2.47-6.48,5.85-8.18-0.9,27.38-12.33,51.66-22.4,76.35-4-6.66.95-12.92,2.7-18.17,3.68-11,4-23.06,9.77-33.42" transform="translate(-108.72 -5764.65)"/><path class="cls-24" d="M389.76,6210.46c-0.64,0-1.28.1-1.92,0.18-3.1,2.25-7.72.88-10.31,4.34a41,41,0,0,1-18.62,3.86c-1.53-4.66,2.67-8.05,2.7-12.38,0.91-6.75,4.16-10.28,11.52-9.1,5.28,0.84,10.55-2.57,15.94-.39a4.64,4.64,0,0,1,2.06,2.39c1.42,3.93,4.3,8-1.37,11.1" transform="translate(-108.72 -5764.65)"/><path class="cls-25" d="M301,5797c0-2.38.08-4.77,0-7.15-0.36-7.29-1.08-14.57,8.89-16.52,1.4-.28,2.3-3.16,3.43-4.84l6.09-.81c2.44,4.49.15,8.89-.23,13.33-1.37,6.57-2.67,13.15-6.24,19-2.54,3.35-6,3.77-9.76,2.94-3.34-1-3.05-3.38-2.13-5.95" transform="translate(-108.72 -5764.65)"/><path class="cls-26" d="M447.71,5778.51c-4,.36-7.93-0.35-12,0.86-5.35,1.6-.63,3.95-0.84,5.89-5.41,2.52-3.5,10.16-8.87,12.71-2.73.5-4.95-1.37-7.53-1.57a11.65,11.65,0,0,1-2.48-.65c-2.6-1.76-5.9-1.24-8.6-2.68-2-1.74-2.72-3.81-1.74-6.35,3.53-5.07,11.56-6.31,12-14.05l1.28-.64c9.53,2.46,19.71,2,28.78,6.5" transform="translate(-108.72 -5764.65)"/><path class="cls-27" d="M279.71,6212.51c5,0.45,6.34-2.81,7.34-6.78,1.07-4.28,2.41-8.51,3.76-12.72,1.12-3.52,4.11-3.13,6.81-2.79,2.54,0.31,3.7,2.28,2.76,4.43-3.48,7.94.51,16.24-1.46,24.2-7.49,1.18-14.58,1.13-19.2-6.35" transform="translate(-108.72 -5764.65)"/><path class="cls-28" d="M217.54,5809l2.88,1c-6.43,6.33-3.27,13.57-1.86,20.59,0.74,3.65-.81,6.63-2.29,9.66-0.9,1.84-2,4.11-4.43,3.31-1.31-.43-3.19-2.71-2.95-3.67,1.5-5.91-4.14-8.25-6-12.11,2.23-3.52,5.59,1.06,7.61-1.74-7.62-4.56-2.35-9.51-.46-14.35,2.14-1.92,4-4.61,7.52-2.68" transform="translate(-108.72 -5764.65)"/><path class="cls-29" d="M236.91,5809.5c-7.47,2.24-10.94-.5-10.37-8.3,5.87-5.4,13.71-7,20.48-10.65,0.24,0.38.48,0.76,0.73,1.14-0.32,2.19-1.45,4.86,2.66,4.46a5.93,5.93,0,0,1,2.47,1.14c6.08,8.43,5.87,11.49-1.05,15.15-2.46-1-3.6-4-6.6-4.13-2.9-.5-5.3,2.61-8.33,1.19" transform="translate(-108.72 -5764.65)"/><path class="cls-30" d="M259.3,6204.69c2.75-2.57-.7-3-1.41-4.43-2.56-5.29-3.74-11.12,4.15-12.09,8.28-1,9.49-6.22,10-12.66a3.64,3.64,0,0,1,4.05-.68c3.77,4.58,3.08,9.57.23,14-2,3.11-1.85,6.24-2.21,9.47-10.17,2-6.91,6.18-1.66,10.63-5.1.87-8.19-4.6-13.15-4.2" transform="translate(-108.72 -5764.65)"/><path class="cls-31" d="M506.25,6151l-8.63,6c-2.34,2.78-4.46,6-9,4.12-2.71-5.91-6.63-11.32-7.71-17.95,0.44-6.43,4.51-10.88,8.43-15.41a3,3,0,0,1,2.74.36c3.62,6.08,10.17,11.12,7,19.55-0.29,1.27-1.67-.33-0.55.48s1.43-.88,2.38-0.73a5,5,0,0,1,5.29,3.61" transform="translate(-108.72 -5764.65)"/><path class="cls-32" d="M157.88,6097.21c3.2-7.42,10.42-1.78,15-4.63,6.35,1.74,6.66,6.67,6.3,11.95,1.5,5.47,8.81,41.59,3.36,45.9-3.83-5.33-5-32.79-19.59-44.65-3.72-.51-1-7-5.08-8.57" transform="translate(-108.72 -5764.65)"/><path class="cls-33" d="M506.25,6151l-6.72-2.37a1.2,1.2,0,0,1-2-.05c3.52-8.56-6.12-13.15-6.22-20.61-1.06-8.3-2-16.54,8.69-19.65,3.43,1,2.44,3.67,1.9,5.8-1.74,6.83.2,13.11,1.64,19.74s4.52,7.29,9.83,5.32a3.78,3.78,0,0,1,2.56,1.18,16.7,16.7,0,0,1-9.65,10.66" transform="translate(-108.72 -5764.65)"/><path class="cls-34" d="M317.54,5780.54c-0.24-4.39,0-8.72,1.86-12.81,4.76-1.8,9.7-1.74,14.67-1.53-1.43,2.71-2.3,6-4.4,8-6.72,6.34-3.14,10.52,2.36,14.61-0.13.42-.25,0.85-0.37,1.27-1.86,2-1.91,6.5-6.49,4.74-1.61-4.41-7.79,2.33-8.83-3.58,0.77-3.53-.83-7.31,1.2-10.69" transform="translate(-108.72 -5764.65)"/><path class="cls-35" d="M507.85,5823.95c-0.18-.66-0.3-1.88-0.55-1.9-14.2-1.57-16.87-13.73-21.9-23.72,13.88,7.18,25.08,17.55,35,29.48a2.05,2.05,0,0,1,0,2.65c-5.79.94-9.37-2.38-12.54-6.51" transform="translate(-108.72 -5764.65)"/><path class="cls-36" d="M381.76,5768c0-.69,0-1.39,0-2.08,12.68,0.32,25.29,1.12,37.2,6.09l-0.24.74c-6.88,8.49-14.85,12.23-25.16,5.78-3.68-3.78-6.17-8.9-11.77-10.54" transform="translate(-108.72 -5764.65)"/><path class="cls-37" d="M363.08,6208.58l-4.16,10.26-6.21,1.8c-0.31-1.27-2.22-2.5-.07-3.81,1.06-5,7.28-10-.19-15a2.23,2.23,0,0,1-.46-2.82c5.15-8.24.31-15.8-1.48-23.56l2.76-2.47c7.1,0,10.16,5.83,14.4,10-4.58,3.86-3.07,9.45-4.06,14.34-0.53,3.73,1.78,7.59-.52,11.24" transform="translate(-108.72 -5764.65)"/><path class="cls-38" d="M220.33,6187.93c2.65,0.17,5.64-.87,7.75,1.45,3.3,3.63,5.84,1.4,7.13-1.41,1.48-3.24-1.83-3.59-4-4.32s-4.57-1.32-5.89-4.3c7.05-5.2,11.83,1.82,17.14,3.66,4.08,1.41,2.36,5.21.43,8.54-2.49,4.29,3.62,3.92,4.37,6.66-10.35.18-18.62-5.09-26.91-10.27" transform="translate(-108.72 -5764.65)"/><path class="cls-39" d="M311.47,6218.6c2.93-2.2,3.93-4.61,3.34-8.68-0.74-5.09,2.12-8,8-7.6,6.65,0.44,5.21,5.06,3.74,7.91-2.67,5.2,5.53,6.17,3.34,10.64-6-1.85-12.59.73-18.46-2.28" transform="translate(-108.72 -5764.65)"/><path class="cls-4" d="M125.22,6055.56c-4.27,1.24-4.47,4.52-4.07,8.1l-4.28-10c-1.71-1.88,1.9-5-1.52-6.48-1.08-6.26-2.15-12.52-4.81-18.36,6.37-6.47,7.21-6.12,11.79,4.81-1.07,3.16-.79,5.63,3.21,6.21a5.36,5.36,0,0,1,2.09,1.67,4.75,4.75,0,0,1,.18,2.67c-2.38,3.45.84,8.19-2.6,11.41" transform="translate(-108.72 -5764.65)"/><path class="cls-29" d="M278.44,5776.6l4-.07c1.55,7.25-7.36,3.53-8.42,8-3.38,6.4,3.28,12.25,1,18.6a5.13,5.13,0,0,1-4.73,2.89c-4.61-2.31-6.87-6.64-9.27-10.85a15.74,15.74,0,0,0-1.35-10.51l18.71-8.09" transform="translate(-108.72 -5764.65)"/><path class="cls-40" d="M489.19,6161l8.42-4c-1.49,9.79-9.3,12-17.09,14.26-6.83,3.49-13.44,2.76-19.89-1.06a2.53,2.53,0,0,1-.68-2.57c5.16-4.45,11.62-3.16,17.58-4,3.78-1.3,5.9-10.36,11.66-2.56" transform="translate(-108.72 -5764.65)"/><path class="cls-41" d="M580.17,5958.38c3.13-12.51-3.55-24.45-2.14-36.85,5.72,11.65,8.87,23.86,7.91,36.95-2,3.76-3.9,2.61-5.78-.1" transform="translate(-108.72 -5764.65)"/><path class="cls-42" d="M515.9,6140.35H514a7.16,7.16,0,0,1-2.21-5.45c0-3.18,1.76-5.82,2.57-8.76,2.53-9.17-1.53-15.48-11.16-17.55a4,4,0,0,1-2.27-2.06c0-3.88,1.93-6.28,5.57-7.41,11.31,1.09,15.82,9.22,13.73,24.72q-1,7.31-2.06,14.6l-2.26,1.91" transform="translate(-108.72 -5764.65)"/><path class="cls-43" d="M148,5917c0.06-9.27-7.71-14.91-10.57-22.82q0.49-1.09,1-2.17c1.52-2.71-2-7.42,3.38-8.59,10.5,6.82,7.45,18.74,10.63,28.33-0.63,2.45-.51,5.55-4.4,5.26" transform="translate(-108.72 -5764.65)"/><path class="cls-44" d="M460.23,6169.31c6.81,0.12,13.34,3.28,20.29,1.91-5.62,6.06-14.22,7.11-20.43,12.18-6.41-4.77-3.64-9.43.14-14.09" transform="translate(-108.72 -5764.65)"/><path class="cls-45" d="M121.08,6034.89c-2.63-3.57-2.49-11.91-10.54-6.1-3-2.12,1.18-4.15.07-6.25,4.79-2.73,9.19-5.94,12.54-10.4,0.71-.29,1.67-0.36,1.85.14,2.74,7.49-2.42,14.59-1.22,22.06,0.08,0.53-1.64.91-2.69,0.54" transform="translate(-108.72 -5764.65)"/><path class="cls-46" d="M435.42,6198.25l-2.08-4.13c0.13-.44.26-0.88,0.39-1.32a31,31,0,0,1,13-9.53c3.63-1.21,4.67-7.71,10.2-5,2,9.24-5.84,11.91-11,16.37l-10.53,3.65" transform="translate(-108.72 -5764.65)"/><path class="cls-23" d="M580.17,5958.38c1.91,1.08,3.83,1.55,5.78.1q1.11,13.37,2.22,26.74a35.26,35.26,0,0,1-8-26.83" transform="translate(-108.72 -5764.65)"/><path class="cls-47" d="M145.93,5877.73c0.37-6.18,2.44-11.39,8.21-14.51l1.3,0.58c1.8,1.57,2.15,4.27,4.24,5.59,6.32,4,3.82,7.49-.55,10.92a6.71,6.71,0,0,1-2.74.54c-3.51-1-7.22-1.25-10.46-3.12" transform="translate(-108.72 -5764.65)"/><path class="cls-48" d="M520,5830.21l0.37-2.4c6.48,4.58,10.85,11.16,16.05,16.95a6.89,6.89,0,0,1-4.21,2.15,11.83,11.83,0,0,1-7.52-1.23c-0.53-5.46-9.87-8.26-4.69-15.46" transform="translate(-108.72 -5764.65)"/><path class="cls-49" d="M548.85,5859.23c-3.77,1.25-8.34.35-10.27,5.82-0.88,2.49-2-1.49-3.38-1.63-3.87-3.11-3.88-7.22-1.64-10.84,2.88-4.67,6.48-.7,9.76.12a8.79,8.79,0,0,1,5.53,6.53" transform="translate(-108.72 -5764.65)"/><path class="cls-50" d="M154.14,5863.23c1.85-2.91,3.91-5.56,7.53-6.4,4.49-2.38,8.84-3.89,12,1.9-4.1,9.75-7,10.48-19,4.79Z" transform="translate(-108.72 -5764.65)"/><path class="cls-51" d="M143.75,6103.08l1.64,0c-1.34,3.93,5.95,7.36-1.55,7.88-5.08.35-8.59-3.44-7.78-10.09,1.6-2.85,4.5-3.13,4.27.08-0.34,4.69,3,.51,3.41,2.1" transform="translate(-108.72 -5764.65)"/><path class="cls-52" d="M416.74,6206.16c3.51-9.86,7.53-11.55,18.69-7.87a62.85,62.85,0,0,1-18.69,7.87" transform="translate(-108.72 -5764.65)"/><path class="cls-53" d="M543.32,5852.7c-10.29-2.17-8.9,4.51-8.12,10.72q-0.22,5.1-.45,10.19a2.83,2.83,0,0,1-3.1-1,10.51,10.51,0,0,1-1.7-5c0.08-7.67-2.09-15.56,2.12-22.85h4.35l6.91,7.95" transform="translate(-108.72 -5764.65)"/><path class="cls-40" d="M445.95,6194.6c3.15-5.81,11.53-8.53,10.07-17.06a6.18,6.18,0,0,1-1.66-2.7,6.55,6.55,0,0,1,1.47-6,3.53,3.53,0,0,1,4.38.46v0c0.71,4.71-4.12,9.35-.14,14.09-3.67,5-8.11,9.12-14.15,11.19" transform="translate(-108.72 -5764.65)"/><path class="cls-54" d="M172.78,5861.18c-1.57-6.9-7.36-3-11.11-4.36,1.14-1.93-.13-4.87,2.57-6.15,2.32-1.13,4.56-.42,6.81.25a25.23,25.23,0,0,1,6.35,3c2.71,2.42,4.12,5.17,2.24,8.76a4.06,4.06,0,0,1-2.39,1.22,7.27,7.27,0,0,1-3.7-1.65c-0.26-.36-0.52-0.74-0.77-1.11" transform="translate(-108.72 -5764.65)"/><path class="cls-55" d="M259.72,5784.69c6.11,2.39,5.84,6,2,10.3a4.9,4.9,0,0,1-2.4,1.52,7.62,7.62,0,0,1-2.88-.2,5.65,5.65,0,0,1-2.26-1.78c-3.35-4.75.81-6.73,3.43-9.28l2.14-.56" transform="translate(-108.72 -5764.65)"/><path class="cls-50" d="M170.74,5852.92l-6.5-2.24,14.55-14.73q0.11,1.26.21,2.53a9.27,9.27,0,0,1-1.18,5.1c-1.67,3.64-3.36,7.27-7.09,9.34" transform="translate(-108.72 -5764.65)"/><path class="cls-45" d="M143.75,6103.08c-1.5-.58-6.57,8.18-4.64-1.84,0.37-1.95-1.94-.49-3-0.33-0.31-1.27-.62-2.54-0.93-3.8,3.3,0.24,4.46-2.83,6.65-4.31,3.38,2.91,1.47,6.83,2,10.29" transform="translate(-108.72 -5764.65)"/><path class="cls-54" d="M145.93,5877.73c3.9-1.66,7.3-.78,10.31,2.05,0.8,1.64-.14,2.68-1.25,3.68-4.24,3-8.17,1.32-12.07-.81l-1.18-.8c0-2.81,1.47-4.08,4.19-4.12" transform="translate(-108.72 -5764.65)"/><path class="cls-29" d="M257.58,5785.25c-1.3,3.13-4,6-2.09,9.77-0.79,1.83-1.83,3.17-4.1,2.07l-0.07,0c-2.72-.93-3.33-3.3-3.87-5.7l-0.41-.79,10.55-5.31" transform="translate(-108.72 -5764.65)"/><path class="cls-52" d="M402.28,6210.44c0-2.71.13-5.35,3.28-6.36,4.15-1.34,2.39,4.06,5,4.5-2.37,2.4-5.47,1.51-8.29,1.87" transform="translate(-108.72 -5764.65)"/><path class="cls-56" d="M377.53,6215c1.12-6.95,6.65-3.41,10.31-4.34,0,0.59,0,1.18,0,1.77L377.53,6215" transform="translate(-108.72 -5764.65)"/><path class="cls-57" d="M115.35,6047.15l3.12-2.12c1.53,3.25-.39,5.86-1.6,8.6-1.9-1.83-1.58-4.19-1.52-6.48" transform="translate(-108.72 -5764.65)"/><path class="cls-30" d="M247.32,6198.23l8.14,6.06c-4.14-.11-7.65-1.05-8.14-6.06" transform="translate(-108.72 -5764.65)"/><path class="cls-9" d="M141.8,5884c-3.3,1.75-.91,5.95-3.44,8,0.33-3.66-2.77-8.46,3.39-10.17h0.68a2,2,0,0,1-.62,2.14" transform="translate(-108.72 -5764.65)"/><path class="cls-58" d="M538.82,5954.24c5.65,9.42,5.62,19.93,6,30.4,0.2,5.62,3.17,10.45,3.41,16.61,0.33,8.42-6.73,17-.15,25.67,0.86,1.14-3.77,6.69-6.18,10-1.45,2-3.1,3.69-3.08,6.3l-1.23.86a3.25,3.25,0,0,1-3.81-1.46c-0.46-1.33.23-3.07-.3-4-5.29-9.17-5.39-9.19,4.88-14,1.46-.69,2.4-1.46,2.18-2.9-1.88-12.05,1.46-24.62-3.67-36.33-3.39-7.51.6-16.11-3.55-23.5a14.12,14.12,0,0,1-.76-2.74c-0.46-3.19-.05-6.5-1.28-9.6-0.39-.86-0.72-1.74-1.07-2.62a34.16,34.16,0,0,1-2.45-14.22c1.08-2.25,2.87-2.56,5-1.85,6.28,6.71,9.73,14.14,6,23.41" transform="translate(-108.72 -5764.65)"/><path class="cls-59" d="M538.82,5954.24c-0.08-8.16-3.08-15.51-6.27-22.82a1.77,1.77,0,0,1,.24-2.48,4,4,0,0,1,2.82.25c2.49,1.78,3.81,4.37,4.9,7.12,0.8,2.26,1.37,4.61,2.38,6.82,2.8,6.08,6,6.75,10.67,1.51,2.3-2.56,3.09-7.28,8-6.93-4.73,11.88,1.15,24.91-4,36.77-0.66,1.51-.27,3.54-1.09,4.89-1.23,2-3.4,1.9-5.46,1,3.56-6.86-8.1-8.45-5.16-15.42,2.74-6.5-1.16-9.45-7-10.74" transform="translate(-108.72 -5764.65)"/><path class="cls-60" d="M557.45,6063.86l-4.18,14.44c-9.31,1.94-17.45-4.86-15.92-15.11,1-6.72.42-13.4,1.48-20v0c8.15-2.09,15.66-3.79,14.86,9.27-0.23,3.72,2.44,7.61,3.77,11.42" transform="translate(-108.72 -5764.65)"/><path class="cls-61" d="M561.56,5937.71a27.9,27.9,0,0,0-1.87,2.36c-3.3,5.15-5.67,13.34-13,11.52-6.48-1.62-8-9.18-7.95-15.93,3.91-1.47,8.05-.11,12.24-3,6-4.09,8.21-8.06,5.23-14.66,0.7-3.4,4.45-4.37,5.77-7.28a8.94,8.94,0,0,1,1.6-2c2.07-4.82-4.6-9.63,0-14.45,5.47,14.76,3.65,29.17-2,43.41" transform="translate(-108.72 -5764.65)"/><path class="cls-62" d="M319.67,6165.14c4.26,0.53,8.71-.23,12.74,1.87-5.83,6.85-16.05,9.91-17.4,20.7-0.54,4.32-5.67-.5-7,2.9a1.36,1.36,0,0,0,.48.85,5.15,5.15,0,0,0,.81.6c0.68,4.82,1.37,9.65-6.2,8.27,1.68-6.38-2-12.54.39-19.59,1.53-4.47-7-3.33-10.73-5.22-2.35-5.43-5.48-7-10-2.11-1.73,1.84-3.3,4.59-6.5,2.11H272c-6.46-1.85-13.24-5.07-16.47,4.77-0.4,1.21-2.63,1.81-4,2.69-1.57-3.73-4.27-7.42-4.42-11.2-0.19-4.78-1-7.55-6-9s-3.42-5.25-.22-6.29c7.85-2.54,6.14-8.53,6.28-14.06-4.54-7.83,4.51-5.7,6.44-8.79l-0.06,0c4.89,2.46,10,5.31,12.27,10.2,2.86,6.11,6.7,7,12.31,5.09,9.76,1.22,17.79,5.88,24.9,12.41,5.51,1.35,10.66,4.24,16.58,3.83" transform="translate(-108.72 -5764.65)"/><path class="cls-63" d="M350.5,6175.49c4.09,7.34,12,14.11,3.41,23.36-0.37.4,0,1.92,0.48,2.6,6.08,8.74,6.1,8.73-1.76,15.38-6-1.57-9.58-6.22-15.52-11.91,9.76,2.54,8.83-1.86,7.32-6.65h0c2.72-5.14,15-8.39,2.83-16.58-2.46-1.66.85-4.71,3.24-6.2" transform="translate(-108.72 -5764.65)"/><path class="cls-64" d="M276.18,6175.51a4.3,4.3,0,0,0,4.24-3.45c1.26-4.57,4.24-4.65,8.53-4,5.71,0.84,3.12,4.72,3.77,7.47l-2.06,2.07c-2.3,3.08-3.12,6.75-4.14,10.35l-6.21,6.2c-1.83,1.73-2.16,5.72-6.21,4.14h0c-2.29-2.4-5.3-5.56-1.76-8.15,5.68-4.15,3.13-9.63,3.84-14.6" transform="translate(-108.72 -5764.65)"/><path class="cls-65" d="M303.07,6200.33c5.31-.32,3.92-5.67,6.2-8.27,2.14,0.34,6.05-.63,5.21,2.85-1.3,5.38-6.53,9.13-5.55,16,0.34,2.42-5.33,1.95-7-1.25s-2-6.58,1.11-9.38" transform="translate(-108.72 -5764.65)"/><path class="cls-30" d="M274.11,6198.27l6.21-4.14c-1,4.66,8.21,1,5.67,6.87-0.91,2.09-1.48,5.1-4.27,5.07-4.8,0-7-3.32-7.61-7.8" transform="translate(-108.72 -5764.65)"/><path class="cls-66" d="M344.43,6198.27c-2.65,2.14-5,6.59-8.88,2-2.23-2.65-.39-5.74,1.74-6.91,4.87-2.67,6.42.87,7.14,5h0Z" transform="translate(-108.72 -5764.65)"/><path class="cls-30" d="M286.52,6187.93c0-4-.69-8.27,4.14-10.35,5.71,6.28-4.89,6-4.14,10.35" transform="translate(-108.72 -5764.65)"/><path class="cls-45" d="M156,6008c-0.23,10.86,2.07,21.37,4,32s3.09,21.41,4.59,32.11c-12.54,3.53-2.88-6.48-5.48-9.1-4-.62-2.3,4.37-4.95,5q0-4.15,0-8.29c-2.85-5.23-7.35-9.62-5.33-16.81,1.13-4,.11-4.29-7.38-1.29a2.81,2.81,0,0,1-2.48-.88c-1.21-7.47-7.79-3-11.41-5.12a6.85,6.85,0,0,1,0-7.76c8.12-5.39,8.43-8.18,1.62-15.17-4.35-3.67-7.25-7.33.14-10.84,3.87,4.85,9-3.17,12,.64,3.25,4.15-2.4,8.87-1.23,13.33,1.07,4.06,7.48,5.2,6.53,11-0.19,1.14,2.38,1.17,1.87-.79-1.41-5.45,10,.6,4.55-3.45-7.24-5.42,1-8.7-.92-12.5-1.27-1.47-1.26-3.26.26-4.12,1.67-.94,2.89.52,3.67,2" transform="translate(-108.72 -5764.65)"/><path class="cls-67" d="M133.48,5962.5c6.5-9.76,14.13-17.89,26.9-18.59,0.29,4.38-3,7.34-4.42,11.08-3.11,8.48-3.3,8.41-10,1.33-7.24,3.53-2.38,9.16-2.39,15.15-3.66-2.23-6.89-4.2-10.7-5.09-4.09-1,1-2.4.67-3.88" transform="translate(-108.72 -5764.65)"/><path class="cls-68" d="M150,5993.55a9.52,9.52,0,0,1-3-.53c-3.69-2-12.21,4.65-11.07-5.08,0.71-6.09,2.34-14,12-13,1.35,3.38,7.11,4,5.74,9.1-1.47,3.08-.53,7.09-3.67,9.52" transform="translate(-108.72 -5764.65)"/><path class="cls-69" d="M127.31,6028.66a5.76,5.76,0,0,1,0,6.26c1.44,2.79-.32,4.49-2.12,6.17-3.43,2.3-5.08-.75-6.46-2.67s0.92-2.73,2.34-3.53c2.34-7.43,2.07-15.1,2.07-22.75l-2.06-2.07c-1.29-2.72,1.07-4.23,2.06-6.19,1.19-3.29,3.33-3.72,6.17-2-4.53,3.46-.67,6.88,0,10.31,0,0.43.07,0.88,0.12,1.31a61.68,61.68,0,0,0-.71,13,5.92,5.92,0,0,1-1.46,2.21" transform="translate(-108.72 -5764.65)"/><path class="cls-70" d="M145.91,5956.32c2.82-.46,3.79,2.66,6.8,3.43-1.26-7.25,4.67-10.76,7.67-15.85l2.12,0q-3,10.31-6,20.62c-6.23.75-11-.44-10.57-8.21" transform="translate(-108.72 -5764.65)"/><path class="cls-71" d="M150,5993.55q1-5.17,2.07-10.36c1.05-1,1.57-3,3.72-2-1.7,8.95.15,17.87,0.2,26.81-2.36-1.29-4-1.29-3.93,2.07C148,6005,150.95,5999,150,5993.55" transform="translate(-108.72 -5764.65)"/><path class="cls-70" d="M155.83,5981.21l-3.72,2c1.54-4.22-7.36-3.2-4.15-8.26,1.29-2.18,3.51,1.6,3.77,0,1.79-11.37,3.12,2.78,4.62,0q-0.27,3.15-.53,6.29" transform="translate(-108.72 -5764.65)"/><path class="cls-45" d="M123.15,6003.88l-2.06,6.2c-8.21,4.42-4.4-5.16-8.41-5.87,4.07-1.81,7.12,3.17,10.47-.33" transform="translate(-108.72 -5764.65)"/><path class="cls-72" d="M203.8,6152.76c-4.59-11-2.77-18.29,6.21-24.81,1.63,0.33,3.67.41,3,2.88-0.5,2-6,.83-3.51,4.49,1.7,2.51,4.87,3.43,8.25,2.2,2.13-.77,4.68-0.56,6.65-1.55,5-2.49,3.23,1,4.85,3.49,4.25,6.64-3.23,11.67-.69,17.42-4.93,2.67-5.11,6.84-3,11.2,1,2,3.64,3.49,1,5.9-2.09,1.89-4.28,1.81-6.1-.48-2.12-2.67-4.2-.86-6.3,0-2.68-2.44-2.56-5.59-2.28-8.79,0.5-3.62,3.18-5.92,5.18-8.67,1.74-2.4,4.14-5,.33-7.69-5.37-1-8.32,5.26-13.59,4.45" transform="translate(-108.72 -5764.65)"/><path class="cls-73" d="M214.14,6163.1q0,5.18,0,10.36c-2.17,7.18-6.22,3.59-10,1.74-2.49-4.46.94-10.24-4.22-14.62-2.62-2.22,1.86-5.42,3.82-7.82,3.83-4.51,9-6.59,14.48-8.27,3.17,3.88,4.2,7.07-2.07,9-5.89,1.83-4.64,5.67-2.07,9.58" transform="translate(-108.72 -5764.65)"/><path class="cls-72" d="M232.75,6154.84c-2.3-5.05,1.53-4,4.13-4.14q-0.1,4-4.13,4.14" transform="translate(-108.72 -5764.65)"/><path class="cls-74" d="M253.72,5822l-25.13,18.41c-1.53-2.94-5.19-1.13-7.12-3.15-1.83-3.15,9.82-.28,2.93-7-1.6-1.57,4.32-10,10.16-12,3.5-1.23,6.39-2.4,6.43-6.67,7.79-.82,8.66,6.77,12.73,10.48" transform="translate(-108.72 -5764.65)"/><path class="cls-75" d="M253.72,5822c-6.44-.82-6.92-8.89-12.73-10.48-1.69,0-3.2-.4-4.07-2,2.84-1.22,4.65-4.47,8.25-4.16a44.91,44.91,0,0,0,6.15,6.13c9.69-4.75.23-9.59,0.07-14.39l4.1-2.07h0c1.39,1.47,2.8,1.75,4.23.05,0.66,0,1.31-.05,2-0.1,4.46,2,6.27,6.2,8.22,10.24,0.09,6.94-7.33,7.29-10.21,11.63l-6,5.18" transform="translate(-108.72 -5764.65)"/><path class="cls-76" d="M176.87,5842.57c0.1-1.69.47-3.23,2.13-4.1,2.69,1,7.1-5.12,8.26,2,3.15,2.13,7.09.35,10.32,2.09,0,0.68,0,1.37,0,2.05-1.76,5.15,2.3,12.81-6.45,15-2.41-.92-2.59-3.68-4.25-5.24-1.91,5.91-1.91,5.91,3.62,10,0.54,8.12-3.53,9.58-10.31,7.17-2.86-2.07-5.73-4.14-3.27-8.31,3.73-2.78,1-5.53,0-8.29-1.58-3.31-.15-6.39,2-8.35,4.84-4.47-3.48-1.73-2-4.06" transform="translate(-108.72 -5764.65)"/><path class="cls-77" d="M191.27,5859c2.61-2,4.56-4.43,3.25-7.84s0.35-5.14,3.07-6.51h2.06c9.35,1.41.48,8,3.94,11.92,1.85,1.2,3.83-3.72,6.43-1.19a1.2,1.2,0,0,1,.32.8,3.76,3.76,0,0,1-.27,1c-3.54,4-5.65,9.27-10.43,12.24-10.71,6.83-8.41-3.8-10.85-8.08,0-1.65.6-2.67,2.47-2.34" transform="translate(-108.72 -5764.65)"/><path class="cls-78" d="M210.08,5857.17c-4.9-2.15-5.2,4.39-8.92,4.55-4-5.29,2.48-11.67-1.5-17.08,0.26-1.91-.64-4.4,1.92-5.24,2-.65,3.09,1.11,3.93,2.56a22.44,22.44,0,0,0,9.3,9.25,10.89,10.89,0,0,1-4.72,6" transform="translate(-108.72 -5764.65)"/><path class="cls-79" d="M197.58,5842.59c-3.7.58-7.61,2.24-10.31-2.09,3.93-1.72,7.31-.77,10.31,2.09" transform="translate(-108.72 -5764.65)"/><path class="cls-80" d="M168.53,5921.14q-2.18,9.27-4.35,18.53c-3.86-6.75-10.08,3.3-14.15-2q0-2.06,0-4.11c1.92-2.44,1.5-4.44-1.51-5.2A2.82,2.82,0,0,0,145,5931c-0.38,3.2.53,6.83-3.18,8.82-2.21,1.69-4.22,4.15-4.73-1.41-0.87-9.59,3.54-16.14,10.88-21.36,2.44-1.49,2-4,2.09-6.24,5.47-6.53,9.66-2.22,10.86,2.71s4.22,6,7.62,7.65" transform="translate(-108.72 -5764.65)"/><path class="cls-10" d="M141.81,5939.79c1.79-3,1.63-6.45,2.4-9.68,0.67-2.8,3.1-4.75,6.13-3,3.55,2,3.87,4.51-.29,6.49-1-3.61-2.5-5.49-4-.36-0.8,2.8,0,6.22-4.28,6.58" transform="translate(-108.72 -5764.65)"/><path class="cls-81" d="M456.06,6175.54c0,0.67,0,1.34,0,2l-8.2,8.31c-7.9-2.61-10.36,4.28-14.48,8.27h0c-7.78-5.46-2.69-9.79,1.36-14,1.87-1.95,6.51-2.48,2.77-6.67,2.92-11.15,8-13.59,18.34-8.87a4,4,0,0,1,.84,2.63c-2.51,2.6-3.17,5.35-.59,8.33" transform="translate(-108.72 -5764.65)"/><path class="cls-46" d="M387.86,6190.38c13.4,1.08,20.43-10.54,30.8-15.51,3-1.44,5.77-3.33,8.64-5,1.2,2.35,4.7,4.06-.12,7.1-7.56,4.76-16.81,7-21.87,16-1.45,2.58-8.61,2.83-13.36,1.21-3.31.86-4.3-.81-4.09-3.77" transform="translate(-108.72 -5764.65)"/><path class="cls-46" d="M456.1,6167.24c-9.48-7.76-13.86-.19-18.63,6.2-3.66.27-5.51-3.06-8.45-4.24,7-8,17.66-11,24.95-18.56,4.16-.52,3.52,2.66,3,4.65a8.23,8.23,0,0,0,2.07,8.42c0.17,2.14.14,4.12-2.94,3.53" transform="translate(-108.72 -5764.65)"/><path class="cls-82" d="M387.86,6190.38l4.09,3.77q0,2,.08,4.07c0.85,2.18-.21,2.51-2,2.1,0-.69,0-1.37-0.08-2.05-3-2.25-6.84,0-9.82-1.88s-7.17-3.46-4.64-8.51l12.39,2.5" transform="translate(-108.72 -5764.65)"/><path class="cls-56" d="M390,6200.31l2-2.1c4.34,5,6.29,9.62-2.27,12.26,3.37-3.31.25-6.77,0.24-10.16" transform="translate(-108.72 -5764.65)"/><path class="cls-83" d="M520.21,6123.83c-1.08-15.44-5.09-21.72-14.51-22.78a2.12,2.12,0,0,1-.15-2.54c2.83-2.67,8.76-1.46,9.06-7.29,0.76-2.86,1.59-5.64,5.56-4.64-1.76,5.88,3.23,6.86,6.61,8.61,5.14,2.66,2.73-2.09,4-3.73,4.28-5.56,14.27-3.07,16.29,3.41-9.09-2.93-16.26,7.17-25.38,3.17-0.71,9,2.44,17.57-1.46,25.78" transform="translate(-108.72 -5764.65)"/><path class="cls-84" d="M519.94,6050.91l8.56-26.36c7.13-9,9-19.24,7.48-30.48-0.4-3-2.91-7.46,2.81-8.84,8.55,7.56.32,17.65,3.92,26.17,1.5,3.54.51,8.09,0.88,12.17,0.33,3.71-.8,6.22-4.85,5.58-5.89-.94-5.86-1.15-7.81,5.65,3.26,2.79,3.77-5,6-2,2.61,3.55-2.84,6.54-2.22,10.37,3.5,5.52,4.41,11,0,16.54-5.79,0-2.69,6.59-6.2,8.26-4.51-4.84-6.59-10.91-8.52-17" transform="translate(-108.72 -5764.65)"/><path class="cls-31" d="M505.74,6099c0,0.68,0,1.36,0,2l-4,6.27a1.17,1.17,0,0,1,.38,1.35,0.88,0.88,0,0,1-.55.62c-10.88,2.12-6.06,12.87-10.25,18.67l-0.06,0c-2.65-2.92-5.19-5.89-4.1-10.3l22.25-31.33c4-6.22,9.35-12,6.82-20.42l1.66-4c7.72-1.44,8.75-.71,8.58,6.13l-6.26,18.58a6.31,6.31,0,0,0-4.09,6.21c-2.73,3.27-6.68,4.5-10.34,6.23" transform="translate(-108.72 -5764.65)"/><path class="cls-85" d="M534.66,6059.7q0-8.27,0-16.54l4.15,0c3.23,5.57,5.7,10.46,1.24,17.38-4,6.27,3.95,16.08,13.2,17.74-0.22,2.59.05,7.08-3.54,5.59-5.63-2.32-13.91-2.24-14.85-11-0.47-4.37-.17-8.83-0.21-13.24" transform="translate(-108.72 -5764.65)"/><path class="cls-12" d="M526.42,6068c0.3-6.45-5.39-4.55-8.58-6.13-1.47-4.06-.13-7.59,2.1-11,2.79,5.71,9,9.71,8.52,17l-2,0" transform="translate(-108.72 -5764.65)"/><path class="cls-83" d="M533.05,6083c1.63,0.66,2.81,1.45,2.31,3a2.63,2.63,0,0,1-2.1,1.42,2.3,2.3,0,0,1-2-2.86c0.15-.65,1.21-1.09,1.74-1.52" transform="translate(-108.72 -5764.65)"/><path class="cls-86" d="M449.89,5824c0.43-5.52-2.22-7.63-7.62-8.62-7.78-1.43-8.29-5.88-2.79-11.12,2.61-2.49,5.33-4.71,1.44-8.23,2.44-2.59.14-8,5.12-9,3.79-.79,5.85.89,6.06,4.82a5.87,5.87,0,0,0,.8,1.8c10.17-9.57,13,9.47,21.75,5.55,3.67,14.9,5.15,29.63-3.28,43.62-11.43-1.41-15.91-10.74-21.48-18.84" transform="translate(-108.72 -5764.65)"/><path class="cls-87" d="M449.89,5824c8.36,4.57,12.27,14.07,20.66,18.61A132.41,132.41,0,0,0,481.81,5855a24.16,24.16,0,0,1,3.85,4.15,4.34,4.34,0,0,1-.28,2.81c-1.33,1.6-2.84,2.67-5,1.68-17.73-19.54-36.42-37.85-61.45-48.06a3.47,3.47,0,0,1-.81-3.86c1.38-2,3.72-2.52,5.54-3.83,3.48-2.2,3.56-7,7-9.21a2.64,2.64,0,0,1,2.53.19c2.6,3.09-.39,5.57-0.95,8.29-1.76,8.56,8.57,18.43,17.64,16.81" transform="translate(-108.72 -5764.65)"/><path class="cls-88" d="M480.88,5857c-3.54-4.75-11.32-6.48-10.32-14.47a101.4,101.4,0,0,0,4.09-43.39c0-.7,0-1.39,0-2.09,6.86,5.2,3.49,13.44,4.89,20,1.18,5.51.92,8.19,7.22,8,2.65-.08,4.08,2.22,2.37,5.1-7.19,4-8.68,8.86-3.36,15.8,2.2,2.87,3.83,6.92,1.65,10.65-1.61,2.76-4.34.65-6.59,0.43" transform="translate(-108.72 -5764.65)"/><path class="cls-89" d="M433.2,5798.87a15.08,15.08,0,0,0-1.79.55c-2.15-1-4.19,2.05-6.37.18A2.13,2.13,0,0,1,425,5797c2-1.68,4.22-3.08,3.58-6.34-1.06-5.44,2.15-6.1,6.39-5.42,1.73,4.83-1,9.09-1.73,13.61" transform="translate(-108.72 -5764.65)"/><path class="cls-90" d="M480.88,5857c8-.54,4.86-5.26,3.55-9.33-1.16-3.61-8.08-6-2.34-11.38,0.5-.48-2.53-4.71-4.1-7.51,4.32-1.6,7.07,5.81,11.18,1.34,0.57,3.88,2.95,5,4.95,1.66,2.79-4.68,7.36-5.81,11.59-7.86,7,2.84,10.85,7.9,11.46,15.48,0.25,3-.28,5.44-3.54,6.42-2.71,1.36-2.33,3.73-2.14,6.15,0.28,3.62-1.49,5.7-5.07,6.37-1.65.31-4.3-.21-4.83,0.9-5.76,12.23-11.1,4.52-16.54-.15-1.71-.06-3.25-0.44-4.16-2.09" transform="translate(-108.72 -5764.65)"/><path class="cls-91" d="M512,5842.59c1.68,0.36,3.83,2.17,3.3-1.94-0.9-7-4.64-12.12-9.55-16.69h2.14c4.88,0.49,7.78,4.8,12.15,6.26,1.14,2.55-1.8,6.59,3.62,7.7,5.22,1.07-.77,4.68.84,6.86,0.69,2.45-.59,3.9-2.52,5a7.68,7.68,0,0,1-3.11.4c-3.52-1.41-9.31-.81-6.87-7.61" transform="translate(-108.72 -5764.65)"/><path class="cls-92" d="M152.09,6068c-0.95,11.93-10.71,18.05-19.21,11.19-4.45-3.6-3.31-10.72-1.47-15.88a28.32,28.32,0,0,0,2.09-9.79c12.49-6.83,16.51-5,16.39,7.47-0.59,2-1.34,3.79-4,2.92-2.09-.67-4.67-0.79-3.34,2.17,1.12,2.49,3.32-.52,5.11-0.67,2.45-.79,3.31,1.15,4.46,2.58" transform="translate(-108.72 -5764.65)"/><path class="cls-93" d="M152.09,6068l-4.1-2.1a1.27,1.27,0,0,1-.48-1.36,0.82,0.82,0,0,1,.46-0.69c3.09-14.52-6.57-11.17-14.46-10.33,0-.7,0-1.39,0-2.09a32.08,32.08,0,0,0,6.22-10.33c1.67-1.67,3.11-3.72,5.07-4.93,4.55-2.83,8.9.07,7.4,3.88-2.75,7-.67,11.72,3.08,16.88,0.31,0.43-.7,1.83-1.09,2.78-3,2.18-1.76,5.44-2.08,8.29" transform="translate(-108.72 -5764.65)"/><path class="cls-45" d="M139.71,6041.11c1.75,5.74.38,9.61-6.22,10.32h-2.06c-3.77-1.56-5.26-4.26-4.13-8.27h0c1.6-1.85,4.73-3.94,5.8-2.25,2.66,4.24,4.54-1,6.59.16Z" transform="translate(-108.72 -5764.65)"/><path class="cls-57" d="M127.29,6043.17l4.13,8.27c-0.48,2.4,1.27,5.64-1.7,7-2.17,1-2.73-2.3-4.51-2.92,1.25-4-5-9.34,2.08-12.4" transform="translate(-108.72 -5764.65)"/><path class="cls-94" d="M352.69,5774.33a47.54,47.54,0,0,1,28.9,0c3.9,4.63,3,9.87,2,15.14a12.15,12.15,0,0,1-5.13,6.29c-7.43,3-14.63-1.37-21.11-2.87-6.76-1.56-5.37-11.6-4.66-18.59" transform="translate(-108.72 -5764.65)"/><path class="cls-95" d="M352.69,5774.33c0.13,4.94,5.25,8.82,2.83,14.44-0.7,1.61,2.18,4,2.71,3.52,7.53-6.12,12.71,3.24,19.27,2.71-5.14,7.37-12.52,4.89-19.45,4.42-3.23-.64-6.81.41-9.67-2,0-4.24.69-9.16-6.35-6.32-4.55-6.35.61-11.3,2.4-16.75h8.26Z" transform="translate(-108.72 -5764.65)"/><path class="cls-96" d="M381.76,5768c7.85-2.68,9,4.46,12.27,8.43,2.37,5.58,11.54,2.94,12.43,10.3l2.07,6.21c-2.61,4.61-3.27,4.64-9.19.43-1.34-.79-1.61-3.73-4.46-1.46-3.15,2.51-7,3.87-11.05,1.68-1.64-2.36.18-4.52,0.38-6.79,0.92-2.94,5.45-5.7.42-8.94-1-1-1.89-2-.95-3.54l-1.93-6.32" transform="translate(-108.72 -5764.65)"/><path class="cls-97" d="M344.43,5774.33c-0.56,1.52,5.26,1.7.47,4.72-3.5,2.19-2.52,7.63-2.57,11.81-1.69,3.73-4.69,4.63-8.28,3.4-2.6-.89-3.72-2.74-2-5.44h0c3.13-2.77,2.69-6.43,1.26-9.42-2.61-5.47,3.39-5.79,5-8.24,2-3,3.82,2.25,6.1,3.19" transform="translate(-108.72 -5764.65)"/><path class="cls-98" d="M383.69,5774.33l2.09,2.08c4.95,3.45.68,6.9,0,10.34l-2.11,6.16a2.25,2.25,0,0,1-2.43.19,1.59,1.59,0,0,1,.38-2.25q0-8.25,0-16.5l2.11,0" transform="translate(-108.72 -5764.65)"/><path class="cls-99" d="M284.35,5807.08l-3.31.61c-3.93,1.05-7,.79-7-4.43-1.08-4.28-2-8.61-3.3-12.82-1-3.33-.33-5.32,3.29-5.87,2.71,5.12,4.78,11.4,12.54,5.58,2.75-2.06,5.39,0,7.23,1.92,2.11,2.22,3.53,5.14,7.21,5,2.27,1.3.28,2.61,0,3.92l-11.74,4.76c-1.32.56-2.43,0.08-3.59-.55-0.58-.31-1.3-1.42-1.81-0.64-0.3.46,0.93,1.53,0.45,2.55" transform="translate(-108.72 -5764.65)"/><path class="cls-100" d="M563.61,5908.75c0,0.69,0,1.37,0,2.06-1.67,2.26-4.89,2.69-6.3,5.28-1.49,3.72-.18,9.21-6.86,9.46-6,.22-9.68-2.16-11.7-7.75-1.15-3.2-2.92-6.16-4.37-9.24a12.77,12.77,0,0,1,.65-9.42c1.87-2.74,1.79-5.67.84-8.7a2.55,2.55,0,0,1,1-2.34c5.14-3.93,5.3-9.79,6-15.45,0.25-2,.08-4.38,2.82-4.78s3.49,1.78,4.37,3.59c5.09,10.52,11.8,20.61,8.44,33.33-1.26,4.75,2.69,3.55,5.11,4" transform="translate(-108.72 -5764.65)"/><path class="cls-101" d="M536.7,5900.45l-2,6.23c-1,1.79-.91,4.29-3.36,5.15-2.83.14-4.06-1.46-4.41-4-0.12-2.52,1.68-4.85.75-7.47a41.48,41.48,0,0,0-2-6.07,8,8,0,0,1,1.47-5,25.35,25.35,0,0,0,3.18-7c0.2-.83.45-1.65,0.69-2.46,0.45-1.65.6-3.36,1-5l0.81-1a15.34,15.34,0,0,0,1.91-.11c4.17,1.56,2.55,4.53,2,7.44-0.43,2.29-3.38,4.76.09,7,0,0.68,0,1.36,0,2-1.24,3.42.37,6.88-.13,10.31" transform="translate(-108.72 -5764.65)"/><path class="cls-102" d="M375.47,6187.87c1.65,7.86,9.76,6.75,14.45,10.39-7.13-.39-13.79,3.17-21.19,1.85-6.77-1.2-1.3,7.21-5.66,8.47q-1-6.17-2.07-12.34c0.83-.61,2.22-1.24,2.2-2-0.31-10.82,6-8.44,12.28-6.31h0Z" transform="translate(-108.72 -5764.65)"/><path class="cls-20" d="M332,5788.81c2.1,7.43,6.5,3.27,10.31,2,2.92-1,2-8.45,6.36-5,2,1.59,4.56,7.83-.31,11.58l-36.86,2.14,6-19q0,6.2,0,12.41c2.15,3.12,6.13-1.24,8.23,2,2.76-1.37,1.72-6.57,6.24-6.16" transform="translate(-108.72 -5764.65)"/><path class="cls-103" d="M406.46,5786.73c-3.93-3.7-11-3.57-12.43-10.3,9.4,6.68,16.85.26,24.66-3.67,2.61,6.9,2,7.61-12.23,14" transform="translate(-108.72 -5764.65)"/><path class="cls-103" d="M400.24,5790.9c2.57,1.48,4.17,6.89,8.29,2,3.46-2.11,6.44-2.33,8.27,2.07-2.79,5.13-5.87,9.75-12.95,7.65-3.16-1.45-4.63-4.08-5.22-7.35a5.63,5.63,0,0,1,1.61-4.41" transform="translate(-108.72 -5764.65)"/><path class="cls-103" d="M425,5797a3.85,3.85,0,0,0-.1,2c2,3.55.47,7.19,0.31,10.8-1.66,2.12-4.06,1.58-6.27,1.72-3.4-1.34-2.9-4-2.38-6.76a22.57,22.57,0,0,1,.63-2.5,60.74,60.74,0,0,0,1.73-7.3c3.63-4.21,3.92,1.76,6.09,2" transform="translate(-108.72 -5764.65)"/><path class="cls-104" d="M418.87,5795c3.77,2.78,1,5.53,0,8.29-5,.79-10.64,5.62-14.45-2.08,6.58,2.81,6.93-6.83,12.41-6.22h2.06" transform="translate(-108.72 -5764.65)"/><path class="cls-105" d="M247.44,5791.35c2.42,1.13,2.68,3.74,3.88,5.7-2.92,1.45-5.82,3.13-9.24.94,0.11-3.75,4.35-3.91,5.37-6.64" transform="translate(-108.72 -5764.65)"/><path class="cls-106" d="M251.32,5811.49c-4.65.56-6.61-1.57-6.15-6.13,3.92,0.17,6,2.18,6.15,6.13" transform="translate(-108.72 -5764.65)"/><path class="cls-107" d="M487.12,6117.63c1.87,3.24,5,6,4.1,10.3-1.88,5.32-7.2,8.68-8.24,14.49a2.55,2.55,0,0,1-2.67.51c-3.13-2.56-8.68-3.05-7.82-9.06,4.09-6.13,8.17-12.26,14.64-16.24" transform="translate(-108.72 -5764.65)"/><path class="cls-108" d="M480.92,6142.44H483c0.3,6.78,8,11.09,6.22,18.58-3.55-1.38-7.53-3.78-6.87,3.45,0.2,2.21-1.69,2.57-3.43,2.76-6.31-3-8.75-8-7.94-14.83a9.76,9.76,0,0,1,1-2.74c2.46-3,4.74-6.3,8.92-7.2" transform="translate(-108.72 -5764.65)"/><path class="cls-109" d="M497.5,6148.58l2,0.05c-0.2,2-.36,4.26-2.75,4.88a2.27,2.27,0,0,1-2.75-2.22c-0.13-2.26,1.8-2.44,3.47-2.71" transform="translate(-108.72 -5764.65)"/><path class="cls-110" d="M501.52,6109.3c0-.66.1-1.31,0.17-2h2c2.56,7.28,1.7,15.11,3.77,22.59,1.27,4.58,4,3.45,6.53,4.25q0,3.09,0,6.19c-8.82,5.33-9.92,4.22-12.67-5.12-2.64-9-4.81-17.31.22-25.93" transform="translate(-108.72 -5764.65)"/><path class="cls-111" d="M325.78,5795a59.63,59.63,0,0,1-6.88,1.27c-3.22.23-3.5-1.12-1.35-3.29,1.24-.35,2.49-0.74,3.75-1.05,1.73-.42,1.76-4.29,4-2.58,1,0.79.39,3.71,0.51,5.66" transform="translate(-108.72 -5764.65)"/><path class="cls-112" d="M375.49,6187.88c-9.8-5.83-8.37,7.79-14.48,8.36,3.29-3.57-4.15-12.52,6.28-12.5l8.2,4.14" transform="translate(-108.72 -5764.65)"/><path class="cls-57" d="M139.67,6041.09c-3.33,5.38-8.63-.87-12.38,2.08l-2.09-2.08,2.12-6.17a16.61,16.61,0,0,0,3.91-.46c2.43-.89,3.88-4.79,7.53-1.59,3.09,2.72.91,5.46,0.92,8.21" transform="translate(-108.72 -5764.65)"/><path class="cls-113" d="M274.06,5803.27c1.32,3.06,3.88,4.16,7,4.43l-21.33,9.15c2-5.07,6.56-8,10.2-11.62l4.15-2" transform="translate(-108.72 -5764.65)"/><path class="cls-114" d="M472.64,6150.7c-0.19,6.37,2.17,11.76,6.26,16.5-6.51-1.85-12.69-.71-18.68,2.09l-4.09,0a1.16,1.16,0,0,1-.64-1.38,0.92,0.92,0,0,1,.61-0.7h0c1.67-.89,2-2.43,2.05-4.13,4-2.59,9.21-3.87,9.76-10.11,0.15-1.77,2.32-3.21,4.73-2.29" transform="translate(-108.72 -5764.65)"/><path class="cls-115" d="M514,6134.15c-2.33,1.7-3.87,5.31-7.65,3.71-4.18-1.78-.11-4.74-0.77-7-2.24-7.73-5.11-15.38-1.88-23.53,3.75-2.55,7.55-1.87,9.66,1.63,3.28,5.41,6.25,11.34,3.93,18-0.85,2.45-3.35,4.24-3.29,7.19" transform="translate(-108.72 -5764.65)"/><path class="cls-116" d="M168.53,5921.14c-4.66,0-11.46,3.88-9.22-6.92,0.75-3.61-4.5-6.45-9.27-3.44-1.77-9.23-2.94-18.65-8.25-26.78-18.24,33.16.41-1.43,0.62-2.14,3.93-2.9,7.84,4.61,11.77,0,2.51,3.25-1.48,7.56,2.47,11.23,1.09-4.8-.48-10.2,3.61-13.74,2.25-.59,3.75.54,5,2.17,5.06,8.91.88,19.19,4.07,28.55,0.64,1.86,2.59,4.45,1.42,7.07l-2.27,4" transform="translate(-108.72 -5764.65)"/><path class="cls-11" d="M433.34,6194.12c3.63-4.85,3.67-16,14.48-8.27l-14.48,8.27" transform="translate(-108.72 -5764.65)"/><path class="cls-54" d="M164.51,5881.86l-4.17-2a1.29,1.29,0,0,1-2.1-.11c-0.77-2.41,10.44-6.59-1.39-7.67-4.47-.41-0.41-5.85-2.13-8.54,5.92-1.54,12.86,4.83,18-2.33h0c1.5,0.42,0,6.9,4.11,2.05l0,0a6.21,6.21,0,0,0,4.11,6.2,5.54,5.54,0,0,1,1,5.59c-5.24,3.86-10.15,8.59-17.58,6.81" transform="translate(-108.72 -5764.65)"/><path class="cls-117" d="M158.25,5879.72l2.1,0.11c-2.39,6.14,1.81,13.32-3.25,19.93-4.49-5.86-7-11.26-2.9-17.88l2.05-2.1q1,0,2-.06" transform="translate(-108.72 -5764.65)"/><path class="cls-118" d="M522.19,5848.77l2.26-4h7.62c0.76,8.23,1.84,16.45.41,24.72-5.12.43-4.16,10.2-11.39,7.42-1.88-9.47-.53-18.81,1.1-28.13" transform="translate(-108.72 -5764.65)"/><path class="cls-119" d="M522.2,5877.69c3.83-2.23,1.85-11.72,10.27-8.21q0.18,2.12.36,4.24l-0.35-.19c-1.76,4.74-4.46,8.21-10.21,7.56-1.52-1.09-4.23-2.17-.08-3.41" transform="translate(-108.72 -5764.65)"/><path class="cls-46" d="M456.09,6167.25c0,0.7,0,1.39,0,2.08,0,2.07,0,4.14-.06,6.21-4.85-2.78-5-5.54,0-8.29" transform="translate(-108.72 -5764.65)"/><path class="cls-79" d="M176.87,5842.57c2.39,0.33,6.47-1,4.15,4.08-1.29,2.82-2.73,5.56-4.11,8.34l-6.17-2.06c1.4-3.83,2.68-7.73,6.13-10.35" transform="translate(-108.72 -5764.65)"/><path class="cls-50" d="M176.89,5863.24c-3.42,2.23-1.54,8.27-6.89,9.44-1.62-4.56,3.24-7.42,2.78-11.49,1.69,0,3.23.39,4.11,2.05" transform="translate(-108.72 -5764.65)"/><path class="cls-29" d="M259.72,5795.08c0.2,1.39,1.84,3.37-.84,3.77s-3.17-1.72-3.39-3.82l4.23,0.05" transform="translate(-108.72 -5764.65)"/><path class="cls-120" d="M524.16,5934l-20.78-39.57c7.07-6,10.12,2.37,14.95,4.11a1.17,1.17,0,0,1-.43,1.61,3,3,0,0,0,1.63-.9,6.75,6.75,0,0,1,4.9.21,7.26,7.26,0,0,1,3,3.08c0.44,1.43.07,2.87,0,4.3-0.63,4.15,2.2,6.94,4,10.12-3.45,4.55,5.43,7.83,1.31,12.46-0.09.68-.16,1.35-0.21,2-1.61.17-3.14,0.5-4,2.15-1.37,1.33-3.2-2.46-4.43.4" transform="translate(-108.72 -5764.65)"/><path class="cls-121" d="M538.79,5985.24c0,6.89-.11,13.78.08,20.66,0.23,8.35-3.12,14.55-10.37,18.66,4.1-20.24,3.54-40.78,3.75-61.26-1-2.52.13-3.22,2.46-2.86,7.55,7.25.55,16.9,4.08,24.81" transform="translate(-108.72 -5764.65)"/><path class="cls-121" d="M524.16,5934c0.87-6.78,3,.06,4.43-0.4,3.15,4.32,1.88,9.87,4,14.47-2.33,1.23-3.27-1.45-5-1.79a16.13,16.13,0,0,1-3.38-12.28" transform="translate(-108.72 -5764.65)"/><path class="cls-120" d="M527.54,5946.25l5,1.79,0,0c2.43,3.09-.44,7.22,2,10.3,0,0.69,0,1.38.07,2.07l-2.46,2.86c-3.2-5.23-3.06-11.39-4.71-17" transform="translate(-108.72 -5764.65)"/><path class="cls-121" d="M534.64,5958.36c-3.4-2.9-1.53-6.83-2-10.3,3.47,2.88,1.52,6.84,2,10.3" transform="translate(-108.72 -5764.65)"/><path class="cls-122" d="M532.47,5911c-0.81-2.23-1.56-4.42,2.21-4.3,4.37,1.26,4.62,5.87,6.31,8.86,2.09,3.68,1.73,7.74,8.11,8,7.09,0.25,5.15-6.2,8.33-8.55a1.13,1.13,0,0,1,.63,1.38,0.92,0.92,0,0,1-.62.69c0.85,4.54,8.28,10.51,2.32,12.91-6.37,2.57-11.27,15.08-21,5.73l-4.1-6.24c0.78-5.73-4-10.25-3.45-15.93a5.42,5.42,0,0,1,1.23-2.51" transform="translate(-108.72 -5764.65)"/><path class="cls-61" d="M532.54,5912.77c-1.59,5.85,9.43,10.06,2.15,16.64l-1.93,0c0-4.25-7.18-7.17-2.29-12.34-1.21-2.35-1.48-4.25,2.08-4.28" transform="translate(-108.72 -5764.65)"/><path class="cls-22" d="M557.44,5917V5915c0.19-4.17,3.18-4.17,6.18-4.14,2.75,6.85-5,3.22-6.17,6.21" transform="translate(-108.72 -5764.65)"/><path class="cls-91" d="M480.34,5863.64l4.66-2.48c7.27,1.77,11,9,19,11.87-4.71-6.94-2.15-11.28,3.87-14.35,2.24-1.14,3.36-3,4.37-5.32,2.17-5,5.29-4.52,8.47-.73-1.86,12.55-4.31,25.11.84,37.5a7.29,7.29,0,0,1-.52,4.27c-1.64,2.17-3.52,2.92-6.15,1.44a94.59,94.59,0,0,1-30.14-26.28l-4.46-5.91" transform="translate(-108.72 -5764.65)"/><path class="cls-123" d="M164.51,5881.86c4.94-3.57,10.93-4.36,16.53-6.19,5.83,3.45,7.43,7.95,2.59,13.25a10.33,10.33,0,0,0-2.84,7.3l-10,20.93c-7.56-.86-2.24-6.85-3.94-10.17-4.09-7.93-1.92-16.7-2.35-25.13" transform="translate(-108.72 -5764.65)"/><path class="cls-104" d="M418.81,5805.3a5.66,5.66,0,0,0,.08,6.27q0,2,0,4l-43.94-14c2.29-2.78,4.64-5.51,6.83-8.38q1-.13,1.9-0.32c4.25-.91,9.59.51,11.23-5.86,0.39-1.53,2.17-.63,5.33,3.85V5795c-1.46,1.84-3.75,1.18-6.35,2.18,5.44,5.83,11.29,9.22,19.21,7.48,2-.45,3.94-0.9,5.7.63" transform="translate(-108.72 -5764.65)"/><path class="cls-40" d="M472.64,6150.7c-1.19,1.15-3.58,2.57-3.4,3.43,2.27,10.59-4.9,9.11-11.09,9-2.64-.13-5.66.67-4.49-4.19,0.61-2.54,4-5.43.31-8.26,2.32-4.18,6.09-6.54,10.37-8.26,4.75,0.79,8.23,2.85,8.3,8.31h0Z" transform="translate(-108.72 -5764.65)"/><path class="cls-79" d="M180.79,5896.23c-2.1-2.28-4.84-5.32-.85-7.34,8.25-4.16,2.9-8.67,1.1-13.22q0-3.1,0-6.2c7.06,3.63,8.23-.54,8.25-6.24a1.31,1.31,0,0,1-.43-1.39,0.85,0.85,0,0,1,.48-0.67c3,7.83,3,7.83,10.3,8.24l-18.86,26.81" transform="translate(-108.72 -5764.65)"/><path class="cls-124" d="M484.8,5869.55c7.94,4.31,12.41,12.83,20.6,16.88,5,2.45,9.77,5.18,14.64,7.78a5.24,5.24,0,0,1,5.09,2.4c0.4,1.54.27,2.92-1.27,3.82l-5.73.05c-4.95-2-8.7-6.81-14.75-6.08-6-8.45-15-14.65-18.58-24.85" transform="translate(-108.72 -5764.65)"/><path class="cls-125" d="M278.19,6148.9c-5.57,2.58-11.93,10.74-13.94-3.73-0.56-4-7.92-6.75-10.64-11.56,7.19-3.53,17.33,1.47,20.45,10.64,0.85,2.51,1.13,4.49,4.13,4.65" transform="translate(-108.72 -5764.65)"/><path class="cls-114" d="M472.65,6150.7l-8.3-8.31c2.25-3.28,4.59-6.47,8.13-8.52,0.73,4.91,8.36,3,8.44,8.57a21.83,21.83,0,0,1-8.27,8.27" transform="translate(-108.72 -5764.65)"/><path class="cls-126" d="M516.19,6065.88c4.36,0.18,3.42,3.11,2.89,5.7-1.14,5.48-5.59,9.71-5.9,15.52l-3.81-.8,6.82-20.42" transform="translate(-108.72 -5764.65)"/><path class="cls-127" d="M381.78,5793.23c0.05,4.69-1.69,7.92-6.83,8.38-5.6-1-11.55.75-16.9-2.2,6.72-.43,13.51-0.55,19.45-4.42l4.13-4.14c0,0.79.09,1.58,0.15,2.38" transform="translate(-108.72 -5764.65)"/><path class="cls-128" d="M319.67,6165.14c-7.06,5.33-11.65,0-16.58-3.83,6-.69,11.29,1.56,16.58,3.83" transform="translate(-108.72 -5764.65)"/><path class="cls-113" d="M284.35,5807.08l-4-2.42c3.48-4.49,6.12-.76,9,1.06a5,5,0,0,1-4.95,1.36" transform="translate(-108.72 -5764.65)"/><path class="cls-129" d="M127.31,6028.66c0-.68,0-1.36,0-2,2-4.64-.66-9.94,2.06-14.48h0c9.75-2.87,6.42,6.06,7.13,9.27,1.43,6.51-3.79,7.67-9.18,7.25" transform="translate(-108.72 -5764.65)"/><path class="cls-45" d="M129.35,6012.15c-0.8,4.81,1.89,10.12-2.06,14.48-1.45-5.13-2.19-10.16,2.06-14.48" transform="translate(-108.72 -5764.65)"/><path class="cls-130" d="M214.14,6163.1c-7,2.28-4.56-4.52-4.41-6,0.3-2.78,1.79-8.12,5-7.21,9,2.6,2.12-3.93,3.59-5.42,7.58,2.93,4,8,1.88,12.15-1.29,2.52-4,4.33-6,6.46" transform="translate(-108.72 -5764.65)"/><path class="cls-131" d="M189.35,5861.18c0,0.68,0,1.37-.05,2.06-1.85.58-3.34,4.63-4.57,2.77-2.26-3.42-4.26-7.72-2-12.28,1.28-2.53,2.68-5.31,6-4.48,4,1,.59,3.94,1.08,5.92a32.85,32.85,0,0,0,1.43,3.84l-1.93,2.18" transform="translate(-108.72 -5764.65)"/><path class="cls-12" d="M505.74,6099c3-2.82,5.21-6.95,10.34-6.23-0.19,7.48-5.84,5.9-10.34,6.23" transform="translate(-108.72 -5764.65)"/><path class="cls-132" d="M520,5852.84c-2.49-1.08-4.57-2.68-6.34,1.57-1.55,3.72-4.15,7.29-8.84,8.21-3.5.69-1.78,2.46-.82,4.27,1.63,3.08,5.9,6.62,2,9.75-4.51,3.66-5.44-2.92-8.19-4.27-5.46-2.68-8.38-7.73-12.86-11.21,0-.68,0-1.35,0-2a12.74,12.74,0,0,1,8.15,3.8c1.58,1.51,4.49.34,4.34-.22-2.72-10,5.73-5.48,9-6.51s4.25-3.24,2.85-4.95c-3.84-4.65.35-6.22,2.54-8.67,0.3,5.32,5.66,3.9,8.23,6.18,1.19,1.41,1.28,2.76-.17,4.06" transform="translate(-108.72 -5764.65)"/><path class="cls-133" d="M425.16,5809.86c-3.4-3.51-.69-7.19-0.31-10.8,2,3.41,4.76-6.9,6.56.35-2,3.5-1.16,8.76-6.25,10.44" transform="translate(-108.72 -5764.65)"/><path class="cls-134" d="M520,5852.84q0.09-2,.17-4.06h2c3.46,9.64.2,19.28,0,28.92-2,.63-1.84,1.5-0.3,2.54a1.88,1.88,0,0,1,1.17,2,37.42,37.42,0,0,1-1.4,6.25,3.85,3.85,0,0,1-1.76,1.81c-6.52-12.49-6.14-25,.09-37.43" transform="translate(-108.72 -5764.65)"/><path class="cls-135" d="M148,6063.85c0,0.68,0,1.36,0,2-2,2.86-3.2,7.2-8,2.43-4-3.94-1.12-5.75,1.38-8.05,5.65-5.19,3.67,3.74,6.61,3.58" transform="translate(-108.72 -5764.65)"/><path class="cls-20" d="M385.79,5786.75c-0.69-3.45,2.27-6.9,0-10.34,9.78,3.44,2.69,6.9,0,10.34" transform="translate(-108.72 -5764.65)"/><path class="cls-22" d="M536.7,5900.45c-3.06-3.48-6-7,.13-10.31,5.71,3.51,2.09,6.9-.13,10.31" transform="translate(-108.72 -5764.65)"/><path class="cls-136" d="M520.28,5888c-0.13-2.3-.43-4.65,1.51-6.47a23.8,23.8,0,0,0,8.31-3.55c1.59-1,3.32-.68,2.68,2a5.5,5.5,0,0,1-.34,1.81c-2,3.33-4.23,6.39-8.28,7.46a3.93,3.93,0,0,1-3.88-1.29" transform="translate(-108.72 -5764.65)"/><path class="cls-137" d="M520.28,5888l3.9,0c2.61-1,4,.54,5.29,2.46l-2.75,3.51a2.78,2.78,0,0,1-2.39,2.39c-1.74-.1-3.41-0.35-4.3-2.16q-0.05-2-.11-3.93l0.36-2.3" transform="translate(-108.72 -5764.65)"/><path class="cls-138" d="M532.78,5880c-4.07-2.46-6.92,4-11,1.51,0-.42.07-0.85,0.12-1.27,4.82-.19,6.8-4.85,10.58-6.7,0.54,2.13,3.19,4.17.29,6.45" transform="translate(-108.72 -5764.65)"/><path class="cls-139" d="M524.33,5896.36l2.39-2.39c3.54,1.36,3.33,3.74,1.76,6.49,0.57,2.06-.24,2.78-2.26,2.34l-2.36-2.38q0.23-2,.47-4.06" transform="translate(-108.72 -5764.65)"/><path class="cls-140" d="M532.54,5912.77c-1.72.92-2,2.54-2.08,4.28-6.46-1.44-3.16-6.71-4.06-10.34,0.62-1,1.29-1,2-.11,0.09,2.63,1.4,4.13,4.06,4.37a7.19,7.19,0,0,1,.06,1.8" transform="translate(-108.72 -5764.65)"/><path class="cls-141" d="M529.47,5890.46l-5.29-2.46,8.26-6.21a14.18,14.18,0,0,1-3,8.67" transform="translate(-108.72 -5764.65)"/><path class="cls-142" d="M528.41,5906.61c-0.67,0-1.34.06-2,.11q-0.09-2-.18-3.92l2.26-2.34c6.08,2.12.16,4.1-.07,6.14" transform="translate(-108.72 -5764.65)"/><path class="cls-143" d="M418.81,5805.3c-12,4-21.86,1.07-29.6-8.93,3.16-5,7.28-1.67,11-1.36l4.15,6.2c4.14,5.36,10.15-2.27,14.45,2.08q0,1,0,2" transform="translate(-108.72 -5764.65)"/><path class="cls-124" d="M519.31,5903.12c0.64,2.21-.42,3.25-2.38,3.21a2.79,2.79,0,0,1-2.09-1.56c-0.51-1.92.93-3.16,2.42-3.79,2.18-.92,1,1.77,2,2.14" transform="translate(-108.72 -5764.65)"/></g></g></g></svg>