<svg xmlns="http://www.w3.org/2000/svg" viewBox="0 0 460.42 446.9"><defs><style>.cls-1{isolation:isolate;}.cls-2{fill:#40121c;}.cls-10,.cls-100,.cls-101,.cls-102,.cls-103,.cls-104,.cls-105,.cls-106,.cls-107,.cls-108,.cls-109,.cls-11,.cls-110,.cls-111,.cls-12,.cls-13,.cls-14,.cls-15,.cls-16,.cls-17,.cls-18,.cls-19,.cls-2,.cls-20,.cls-21,.cls-22,.cls-23,.cls-24,.cls-25,.cls-26,.cls-27,.cls-28,.cls-29,.cls-3,.cls-30,.cls-31,.cls-32,.cls-33,.cls-34,.cls-35,.cls-36,.cls-37,.cls-38,.cls-39,.cls-4,.cls-40,.cls-41,.cls-42,.cls-43,.cls-44,.cls-45,.cls-46,.cls-47,.cls-48,.cls-49,.cls-5,.cls-50,.cls-51,.cls-52,.cls-53,.cls-54,.cls-55,.cls-56,.cls-57,.cls-58,.cls-59,.cls-6,.cls-60,.cls-61,.cls-62,.cls-63,.cls-64,.cls-65,.cls-66,.cls-67,.cls-68,.cls-69,.cls-7,.cls-70,.cls-71,.cls-72,.cls-73,.cls-74,.cls-75,.cls-76,.cls-77,.cls-78,.cls-79,.cls-8,.cls-80,.cls-81,.cls-82,.cls-83,.cls-84,.cls-85,.cls-86,.cls-87,.cls-88,.cls-89,.cls-9,.cls-90,.cls-91,.cls-92,.cls-93,.cls-94,.cls-95,.cls-96,.cls-97,.cls-98,.cls-99{fill-rule:evenodd;mix-blend-mode:darken;}.cls-3{fill:#661f34;}.cls-4{fill:#311217;}.cls-5{fill:#7e394f;}.cls-6{fill:#3b1218;}.cls-7{fill:#4a1925;}.cls-8{fill:#48131c;}.cls-9{fill:#45141f;}.cls-10{fill:#42131c;}.cls-11{fill:#3a1218;}.cls-12{fill:#7b364c;}.cls-13{fill:#49151f;}.cls-14{fill:#6a2839;}.cls-15{fill:#5c1c2e;}.cls-16{fill:#471922;}.cls-17{fill:#8e596c;}.cls-18{fill:#75293e;}.cls-19{fill:#803e52;}.cls-20{fill:#581b2c;}.cls-21{fill:#5d192c;}.cls-22{fill:#561e2c;}.cls-23{fill:#7a2f49;}.cls-24{fill:#521726;}.cls-25{fill:#5f2536;}.cls-26{fill:#6a263d;}.cls-27{fill:#732e43;}.cls-28{fill:#6c2538;}.cls-29{fill:#712c43;}.cls-30{fill:#7e3f55;}.cls-31{fill:#501622;}.cls-32{fill:#5b1d31;}.cls-33{fill:#742b43;}.cls-34{fill:#7a3449;}.cls-35{fill:#87485d;}.cls-36{fill:#83425b;}.cls-37{fill:#642138;}.cls-38{fill:#531726;}.cls-39{fill:#8b4c62;}.cls-40{fill:#843f54;}.cls-41{fill:#5e1f33;}.cls-42{fill:#6e2a42;}.cls-43{fill:#34161a;}.cls-44{fill:#72324a;}.cls-45{fill:#5e2234;}.cls-46{fill:#4f1b29;}.cls-47{fill:#6e2036;}.cls-48{fill:#6a273b;}.cls-49{fill:#531f2b;}.cls-50{fill:#732640;}.cls-51{fill:#7a334c;}.cls-52{fill:#6d3f4a;}.cls-53{fill:#622334;}.cls-54{fill:#6b293a;}.cls-55{fill:#7d3e53;}.cls-56{fill:#7a2e45;}.cls-57{fill:#83485d;}.cls-58{fill:#946d78;}.cls-59{fill:#653746;}.cls-60{fill:#422c2e;}.cls-61{fill:#532831;}.cls-62{fill:#94737f;}.cls-63{fill:#74394d;}.cls-64{fill:#4c1c27;}.cls-65{fill:#58242f;}.cls-66{fill:#662f41;}.cls-67{fill:#703d4a;}.cls-68{fill:#5c2d3b;}.cls-69{fill:#584346;}.cls-70{fill:#381a1f;}.cls-71{fill:#632f3e;}.cls-72{fill:#45262f;}.cls-73{fill:#60474b;}.cls-74{fill:#bfb3b5;}.cls-75{fill:#341118;}.cls-76{fill:#4f1320;}.cls-77{fill:#5a182a;}.cls-78{fill:#702945;}.cls-79{fill:#5a1a2b;}.cls-80{fill:#908281;}.cls-81{fill:#61192f;}.cls-82{fill:#681e33;}.cls-83{fill:#621b2f;}.cls-84{fill:#5a182b;}.cls-85{fill:#955a71;}.cls-86{fill:#6b213a;}.cls-87{fill:#7b2c48;}.cls-88{fill:#4e1725;}.cls-89{fill:#4a141e;}.cls-90{fill:#843e55;}.cls-91{fill:#6e2c42;}.cls-92{fill:#89465c;}.cls-93{fill:#7e374f;}.cls-94{fill:#7b3448;}.cls-95{fill:#924e66;}.cls-96{fill:#7a314b;}.cls-97{fill:#6d303f;}.cls-98{fill:#8a4560;}.cls-99{fill:#96506d;}.cls-100{fill:#70273c;}.cls-101{fill:#93526c;}.cls-102{fill:#5f192e;}.cls-103{fill:#7f354d;}.cls-104{fill:#642235;}.cls-105{fill:#978b87;}.cls-106{fill:#732f48;}.cls-107{fill:#854158;}.cls-108{fill:#864f63;}.cls-109{fill:#77324a;}.cls-110{fill:#7b354e;}.cls-111{fill:#8c4561;}</style></defs><title>tache1</title><g class="cls-1"><g id="taches_vin" data-name="taches vin"><g id="tache_1" data-name="tache 1"><path class="cls-2" d="M1503.28,6468.47c-2.09-3.23-7-3-8.89-6.59-3.19-3.81.81-7.11,1.62-10,7-24.66,5-38.74,7.56-63.47,0.34-3.23-.37-6.56,1.36-9.6,7.78-15.75,4.24,8.87,6.23-8.09,0.33-2.89-.08-5.86.31-8.75,0.52-3.89.36-8.53,6.06-8.75,4.74-.18,8.53,1.53,10.51,6.25,1.44,3.45,1.46,7.13,2.07,10.7-1.71,16.67,5.68-9.75,6.8,6.54a23.68,23.68,0,0,1-.18,3.17c-1.16,7.95-4.26,15.8-1.12,24-3.06,7.42-2.55,14.55.14,22.19,6,17.17.4,22.05-7,37.45-2.12,4.42-6.21,6.89-10.45,5.41-12.89-4.51-2-5.55-15-.45" transform="translate(-1270.87 -6281.03)"/><path class="cls-3" d="M1681.94,6589.57c6.29-19.25,11.93-38.62,10.85-59.22,2.26-3.5-.07-7.7,1.72-11.28q-0.07-6.67-.14-13.34c-1.75-5,.94-10.52-1.66-15.45,0.6-12.68-6.62-24.4-4.59-37.25,1.39-3.11-1.2-8,4.17-9.34,1.08,4.81,6,.8,8,3.46,3.06,3.41,4,8,6.19,11.81,2.13,5.54,4.33,10,11.53,11.52,7.59,1.63,5.77,8.78,4.73,14.57a5.41,5.41,0,0,1-2.17,2.15c-15-1.29-15.62-1.25-14.81,14.5,0.57,11.11-2.33,21.66-3,32.54-0.51,8.14,1.25,11.61,10.07,10.06a21.24,21.24,0,0,1,10.83.69c3.81,11.88-6.52,15-13.18,18.64-7.44,4-6.71,6.52-1.27,10.86,1.51,5.64-1.17,8.31-6.45,9.13-4.35-.64-6.86-3.85-9.55-7.2-2.41,3.74-1,7.95-2.21,11.48-1.81,5.24-4.86,7.69-9.08,1.67" transform="translate(-1270.87 -6281.03)"/><path class="cls-4" d="M1287.4,6353.64l11-8.62c3.6-1.84,6.8-1.8,9.14,1.95-0.17,1.45,0,2.52,1.75,1.06,7.17,0.71,11.89,7.55,20.35,6.93,2.93-.21,6-1.83,9.15-1.33,2.83-.24,5.55,0,7.92,1.77,1.54,2.74-.6,3.88-2.25,5.24-5.24,8.14-9.93,16.86-21.1,18.25-1.42.18-1.62,1.78-1.6,3.5,0.24,16.05-5.87,20.07-20.16,13.59a26.32,26.32,0,0,1-7.3-4.78c-2.63-3.53-7-2.07-10.34-3.52-3.14-1.66-5-4-4.19-7.79a31.19,31.19,0,0,0,3-10.35,16.75,16.75,0,0,1,3.43-9c1.22-1.53,2.07-6,1.24-6.87" transform="translate(-1270.87 -6281.03)"/><path class="cls-5" d="M1461.39,6397.84l7.07-19.77c1.8-2.72-.8-5.44-0.24-8.76l2-2.6c0.94-1.78,2.81-2.67,4-4.2l1,0.36c6.93-2.51,5.58,7.47,10.87,7,0.66,1.63,1.11,0,1-.09-6-5.87-1.72-9.06.7-13.18,2.51-2.57,8.91,27,13.35,27.69,0.68,0.78-3.29-31.34-3.15-30.31-1.81,7.77,7.56,15.41,4.94,23.22a31.76,31.76,0,0,1-2.73,7,6.18,6.18,0,0,1-2.32,1.94c-3.23.84-6.39,1.06-8.33-2.34-2.76-4.84.34,1.69-1,1-9.48,7.91-9.32,18.69-8.81,29.56-0.07,3.31.52,6.09,3.31,8.58,5.9,5.27,1.73,6.84-3.29,7.79-0.14,1.2-5.2-2.36-1.5.8,1.4,2.75.46-3.23,2.55-.89,2.25,3.07,5.94,5.14,6.51,9.37-0.89,8-6.08,4.86-10.39,4-12.39-10.22-14.39-13.12-15.56-28.4,2-5.92-.72-11.86,0-17.79" transform="translate(-1270.87 -6281.03)"/><path class="cls-6" d="M1294.1,6389.1c4.39,0.57,6.89,5.1,11.76,5.21,3.11,0.07,8.85,5.53,8.69,1.76-0.2-5,13.33-7.42,2.4-13.56-1.7-1-1.27-5.76,2-6,11.49-.92,18.62-6.56,21.6-17.65,0.09-.34,1.33-0.38,2-0.55,8.25,5,4.59,11.9,2.85,18.43-1.92,7.24-5.35,13.47-11.7,17.93-3.45,2.42-12.45,2.55-4.67,10.54,1.42,1.45-2.33,4.62-3.8,3.91-12-5.76-19.34,4.7-28.7,7.92-8.82-4.76-14.09-13.65-22.24-19.2a31.79,31.79,0,0,1-1.34-20.11c0.83-3.21,1.95-8.24,6.72-6.56,4.53,1.59,3,5.75,1.21,9.14-0.37,3.42,3,4.33,4.39,6.61,2.47,2.58,6.48-1,8.8,2.2" transform="translate(-1270.87 -6281.03)"/><path class="cls-7" d="M1479.11,6727.68l-24.17-4.1c0.94-5.16-2.81-1.87-4.41-2.46-17.85-2.21-31.7-12.85-46.28-22,1.54-5.19,4.82-6.73,13.33-6.25,14.51,3.29,29.09,6.3,43.47,10.09a10.62,10.62,0,0,0,8.08-1c3.59,1.38,7.37.71,11.05,1,3.52,5.88-2.2,12.66,1.84,18.46,1.57,0.91,4,1.63,3.58,3.64-0.78,3.39-4.49,1.17-6.48,2.59" transform="translate(-1270.87 -6281.03)"/><path class="cls-8" d="M1675.19,6422.09l-31-39.65c-0.37-4,4-7.1,1.22-12-2.47-4.38,3.62-7.25,4.71-11.35a3.12,3.12,0,0,1,2.08-2c9.26,2.21,13.1,9,15,17.52-0.21,1.37-1.92.88-2.42,1.91a10.88,10.88,0,0,0,2.83-1.62c12.1,5.37,18.4,16,24.35,26.88-0.67,3-3.75,4.75-3.5,8.57,0.57,9.11-4.56,12.68-13.29,11.73" transform="translate(-1270.87 -6281.03)"/><path class="cls-9" d="M1470.44,6292.25c11.31-4.54,23.26-6.23,35.19-8,6.72-1.91,13.22-.54,19.68,1.35h0c0.26,0.74.3,1.88-.11,2-10.57,1.7-10.81,9.33-10.51,17.6a15,15,0,0,1-5.64,12.31c-1.8,1.3-3.68,2.3-6,1.54-3.49-6.47-14.34-3.94-15.82-12.4-7.31,10.26-5.17,22.49-5.36,34.35a119.61,119.61,0,0,0,1,22.52c0.35,2.48.82,6.21-3.89,5.87-3.16-6.29-8.47-12.61-8.78-19.84,0.25-10.24-3.33-20.74,3.35-30.52,1.88-2.76.75-7.13-.54-10.63-1.41-3.83-2.95-7.83.19-11.32,4.49-5-3.63-2.19-2.77-4.78" transform="translate(-1270.87 -6281.03)"/><path class="cls-10" d="M1296.55,6417c8.39-8.78,16.23-19.12,31.15-9.21-7.13-6.41-6.56-10.1,1.42-14,12.56-6.13,18.86-22.79,13.45-35.53,1.79-.06,3.44-0.43,4.38-2.18,1-3.06,3.35-4,6.33-3.81a6.41,6.41,0,0,1,3.93,2.47c2.78,5.08,3.06,10.64,3.05,16.24a12,12,0,0,1-.64,2.83c-2.92,2.47-.71,5.9-1.6,8.76-0.38,2.91-1.57,5.27-4.41,6.53-2.3.47-4.8-4.29-6.89,0.13-1.12,2.36,4.59,1.26,2.52,4.44L1337.77,6408c-2,7.86-8.84,9.63-15.25,11.9l-4.2,2.29c-3.61,2.46-7.3,1.12-11,.22l-0.83-.52-1,.13c-3-1.59-7.37,0-9.34-4Z" transform="translate(-1270.87 -6281.03)"/><path class="cls-11" d="M1470.44,6292.25h10.76c-6.18,5.27-9.25,9.09-5.11,16.6,2.45,4.44,3.27,12.52-3.34,18-4.18,3.44.79,8.91-.44,13.64-0.76,3,1.1,6.56-2.11,9.05-3.11-1.39-1-4.59-2.31-6.62a17.73,17.73,0,0,1-4.31-6.09c-5.32-5.87-14.35-3.89-19.85-9.38-1.24,1-2.71,1.61-3.77.11-1.55-2.19.53-3.09,1.87-4.17,7-2.24,5.65-7.92,4.47-12.68-1.57-6.36-6.85-.63-10.06-2.31-3-1.72-3.34-3.91-1.15-6.54,12.43-.81,23.52-6.5,35.34-9.57" transform="translate(-1270.87 -6281.03)"/><path class="cls-12" d="M1630.94,6332.29c3.16,1,5,3.58,6.9,6.05-9-.83-1.63,5.54-3.44,7.88-3.89,3.61-9.63-2.86-13.21,2.45-3.56,2.85-8.06,3.23-12.17,4.64-8.92-5.59-16.7-13.71-28.55-12.69a2.29,2.29,0,0,1-.8-1.77,1.15,1.15,0,0,1,.25-1c3.29-4.56,8.15-4.44,12.83-3.83,3.58,0.47,7.33.88,6.85-3.78-0.43-4.06-4.61-1.82-7.14-2-2.14-.19-4.32.5-6.51,0.41-4.4-.83-6.9-5-11.1-6.25a8.88,8.88,0,0,1-.71-6.24,11.14,11.14,0,0,1,6.24-7.31c14.84,3.74,28.23,10.64,41.08,18.78,3,1.89,5.47,4.88,9.49,4.72" transform="translate(-1270.87 -6281.03)"/><path class="cls-13" d="M1683.84,6651.07c-6.16,6.81-14.49,10.54-22,15.51-3.35,1.71-6.39,4.39-10.6,3.38a7.84,7.84,0,0,1-3.72-3c-3.08-6.88-3.51-13.74-.41-20.84,0.89-2,1.13-4.79,3.74-4.37,5.92,1,.42-3.24,2-4.07l2.66-4.19a31.58,31.58,0,0,0,9-7.4c8-9.59,8.52-9.42,16.23,1.14a9.72,9.72,0,0,1,.49,7.41c-2.4,6.08-.84,11.33,2.57,16.39" transform="translate(-1270.87 -6281.03)"/><path class="cls-14" d="M1507.71,6316.46c7.05-8.48,3.79-18.5,4.92-28.37,3.46-1.88,8.94,1.82,12.71-2.49,10.24-.68,18.85,5.22,28.47,7-2.25,5.45-5.54,10.44-7,16.25-1.39,5.45-5.51,5.77-10.12,4.73-5.91-2.09-8.45-7.46-11.75-12.09-1.16-3.61-1.16-3.61-7.13.42,0.39,3.6,5.61,1,6,4.59-4.64,10.31-7.91,20.45-7.65,32.42,0.16,7.91-1.38,18.47-11.28,23.14a7,7,0,0,1-3.24-.59,5.58,5.58,0,0,1-2-2.46c-0.53-4.5-1.38-8.61,1.55-13.24a20.66,20.66,0,0,0,1.35-20.05c3.49-2.11,2.87-6.53,5.18-9.3" transform="translate(-1270.87 -6281.03)"/><path class="cls-15" d="M1681.94,6589.57c4.3,2.12,8.06,3.08,6.69-4-0.89-4.58,1.15-8.23,2.91-12.4,4.48,2.28,7.45,5.72,9.92,9.69,0.09,0.5.17,1,.27,1.5,0.3,10.7,0,21.48,4.22,31.65-0.87,5.09-3.69,9.16-6.79,13.09-7.73-1.8-5.84-10.1-9.75-14.52-0.68-.77.67-3.19-2-2.44-2.52.89-3.22,3.29-4.51,5.17a6.57,6.57,0,0,1-3.69,2.52c-1.85.35-4.93-.05-5-1-0.11-4.84-2.87-4-5.81-3.36a1.6,1.6,0,0,1-.27-0.79,4.11,4.11,0,0,1,.32-1,88.69,88.69,0,0,1,13.48-24.15" transform="translate(-1270.87 -6281.03)"/><path class="cls-16" d="M1355.78,6356.09l-2.65-2.42c-0.87-3.62,2-5.74,3.38-8.47,5.08-11.23,14.41-16.15,26.09-17.56,2.68-1.88,4.71-4.79,8.3-5.22a9.88,9.88,0,0,1,4.68-4.07c5.93-1.27,10.66-10.39,18-2.78-0.71,2.88-3.3,3.78-5.43,5.16-4.63,2.56-9.41,5-5.83,11.7,0.8,2.05,3.55,3.47,2.09,6.27-3.72,5-12.37,4.67-13.58,12.43-0.8,2-1.84,3.82-4.4,3.84-2.44-.52-3.27-2.3-3.55-4.51-0.29-2.05-.29-4.22-2.35-5.85-2.4,3.24-.85,8-4.5,10.39-6.49,4.72-13.48.35-20.19,1.11" transform="translate(-1270.87 -6281.03)"/><path class="cls-17" d="M1580.93,6428.6c-4.34,10.7-1.63,12.06-13.69,17.94-3.35-1.73-7.55-4.17-5.81-6.93,11-15.18,12.68-21.29,10.25-39.21-1.56-4.06-3.49-8-4.85-12.11-1.54-4.66-4.5-5.15-8.44-3a4.92,4.92,0,0,1-3-.22c-2.8-1.78-3.39-4.79-4.26-7.64s-3-4.84-4.48-7.26a21.25,21.25,0,0,1-1.14-2.65c-6.62-10.76-2.12-11.32,6.9-15.09,3-.18.25,1.54,1.34,4.05,15.91,14.55,26.06,32.15,28.54,53.82-2.1,6,.09,12.29-1.4,18.32" transform="translate(-1270.87 -6281.03)"/><path class="cls-18" d="M1648.67,6666.43l2.23,2.31c0.8,2.12,4.19,1.7,4.36,4.44-3.22,4.8-8.86,5.88-13.34,8.73-3.24-.33-5.55-1.73-9.29,1.84-6.32,6-16.49,5.15-24.43,9-2.36-6-9.25-5.12-13.19-8.74a4.21,4.21,0,0,1,.68-4.51,66.14,66.14,0,0,1,24.4-14.67c5.08,1,10,1.36,14.91-1.18a10.29,10.29,0,0,1,11.4.73c0.75,0.69,1.51,1.39,2.28,2.07" transform="translate(-1270.87 -6281.03)"/><path class="cls-19" d="M1536.14,6311.91c4.28,0.08,7.86,1.06,8.7-6,0.55-4.61,2-11.63,9-13.29,4.83-1.33,6.59,4.75,11,4.53-1,5.93-6.31,2.58-9.27,4.27,0.79,4.22,2,8.26,6.14,10.59a8.67,8.67,0,0,1,2,2.33c0.56,3,.13,5.42-4.85,5.12,7.37,3.27,11.09-5.51,17.22-3q0,3.31,0,6.61c1.62,4-5.15,9.07,1.68,12.34,1,1.35,1.57,2.69-.15,3.93-3.71.59-7.58-.48-11.2,1.06-4.47-.77-5.6,5.39-10,4.82l-1-.92c-1.28-2.87-.64-6.33-2.84-8.9-0.92-1.05-1.89-2-2.9-3-4.86-2.45.68-9.67-5.38-11.54-4.3-.34-10.84,7.53-12.29-3.32,0.46-2.6.17-5.77,4.25-5.63" transform="translate(-1270.87 -6281.03)"/><path class="cls-20" d="M1540.9,6699.63a56.83,56.83,0,0,1,21.79-6.73c5.76-1.4,11.55-3,15.88,3,3.12,8.15-4.46,13.93-4.73,21.34-1.83,5.08-5.87,1.57-8.82,2.27-5.41,1.22-11.1.75-16.37,2.79-6.6-2.66-1.23-13-9.43-14.65-4-3.64-.64-5.72,1.68-8" transform="translate(-1270.87 -6281.03)"/><path class="cls-21" d="M1505.5,6380.3c0.17,11,2.1,21.81.37,33-1.2,7.74-2.29,5.33.8,12.81,4.71,11.35-11.56,20.53-7.57,31.6,0.34,0.94-5.37.11-4.72,4.21l-4.21-2.74c-2.06-4.93,1.75-9.77,5.75-14.08,2.72-2.93,2.3-6.66,2.89-10.14,0.06-7.56-7.19-2.43-5-10.49,0.33-5.79-1.37-11.62.34-17.37,1.11-5.61,6-10.84.37-17.08-1.64-1.81,2.57-3.7,4.34-5.35l0,0c1.89-2.25,2.69-5,3.52-7.73a2,2,0,0,1,2.15-1.55c2.09,1.28,2.73,2.85,1,4.89" transform="translate(-1270.87 -6281.03)"/><path class="cls-22" d="M1413,6316.42c-7.75-6-11.24,5.27-17.73,4.35,1.31-9.9,9.25-11,16.79-12.72,3.2-1.25,6-3.4,9.37-4.27,1.94-.15,3.9.45,5.83-0.15l7.86-1.79c0.07,2.16-.39,4.51,2.13,5.76,6.51,4.27,9.3,9.92,6.58,17.64l-2.84,1,2.77,1.19-26.16,6.74c-3,1.17-3.09-1.19-2.36-2.57,3-5.72-1.87-10.08-2.23-15.17" transform="translate(-1270.87 -6281.03)"/><path class="cls-23" d="M1703.7,6459.55c-0.35-4.12-5.1-6.48-4.42-11,1.92-11,.77-22.45,4.49-33.22,12.62,18.7,18.87,39.63,21.57,61.79-6-7.35-11.68-15.09-21.63-17.57" transform="translate(-1270.87 -6281.03)"/><path class="cls-24" d="M1503.28,6468.47c3.45-8.4,9.52-6.83,14.48-4.75,5.57,2.34,7.41,1.77,10.13-4.47,8-18.26,10.83-24.77.88-43.32-2.52-4.7,5.41-8.24,5.35-13.62l1.38-.85c5.6,0.16,4.64,4.58,5.12,8,0.75,5.4,0,11,2.31,16.19,2.53,4.65.94-1.52,0.71,3.27-0.78,14.71-5,30.44-14,42.3-4.79,2.73-10.73,0-15.41,3.27l-11-6" transform="translate(-1270.87 -6281.03)"/><path class="cls-25" d="M1479.13,6723.76c-1.23-6.75-4.08-13.67,2.15-19.6,2.79-2.08,5.76-1.33,8.73-.56l22.14,0.42c5.35-2.77,9.15-1,11.88,4a19.57,19.57,0,0,1,2.47,8.26c-2.22,4.15,6.29,6.19,2.13,10.72-2.5.13-5,.05-7.49,0.07-7.72.41-14.07,0.5-18.38-8.89-4.11-9-13.49-7.5-16.65,1.81-1.44,4.22-5.36,1.34-7,3.76" transform="translate(-1270.87 -6281.03)"/><path class="cls-26" d="M1529.63,6470.55c5.06-12.82,11.28-27.52,11.1-41.81,7.61-.73-1.95,1.17,3.47-1a6.89,6.89,0,0,1,2.89,0c6.19,0.27,10.52-8.82,8.42-1.32-0.54,1.95-1.18,3.85-1.75,5.79-1.8,5.31,2.37,11.46-3.31,14.72-8.54,5.69-8.63,7.67-.83,17.23-5.87,4.46-13.58,5.05-19.83,8.25-0.82-.33-1.12-0.71-0.9-1.13a1,1,0,0,1,.73-0.68" transform="translate(-1270.87 -6281.03)"/><path class="cls-27" d="M1609,6353.32c1.4-6.13,8-2.8,11-6.05,4.41-1.37,8.83,1.17,13.25-.07,0.79-3.33-6.24-10.72,4.59-8.85l2.19,2.19c2.79,11.74,2.82,23.08-4.71,33.37-7.91-8-17.19-14.17-26.3-20.6" transform="translate(-1270.87 -6281.03)"/><path class="cls-28" d="M1578.19,6697.38c-4.41-4.11-9.77-4.95-15.5-4.48l15.54-5.81c3.46-.29,7.16.93,10-2.46,2.14-2.54,4.86-2.92,7.54-.47,6.08,0.46,14.61-2.74,13.23,8.86,1.71,2.95,1.93,5.9,0,8.86l-2.51,3.55c-2.38,3.6-5.92,4.29-9.88,3.91a3.69,3.69,0,0,1-2.13-3.42c-0.66-7.19-3.7-10.79-11.37-7.75a4.28,4.28,0,0,1-5-.79" transform="translate(-1270.87 -6281.03)"/><path class="cls-29" d="M1479.13,6723.76c1.46-1,4.25-2.69,4.21-2.76-3.85-6.57,1.44-13.33,4.74-13.27,6.79,0.13,16.94,2.76,18.25,9.35,2.1,10.61,8.54,8.62,15,9.12a1.31,1.31,0,0,1-1.3,1.71l-40.89-.24,4.78-3.06-4.76-.87" transform="translate(-1270.87 -6281.03)"/><path class="cls-30" d="M1552,6353.37c-10.6,4.33-3.78,9.15-4.71,13.7-9.84,1.5-6.57-7.23-10.51-12.67-2-7.31-3.29,27.13-2,19.51,2-5.48,2.42-11.56,6.09-16.43,2.84-1.67,1.35-4.1,3.66.67-1.34,11.12-4.35,13.5,1.4,24.32,1,1.11,6.54-30.85,6.12-29.11" transform="translate(-1270.87 -6281.03)"/><path class="cls-31" d="M1690.46,6402.31c-7.41-9.42-13.1-20.41-24.23-26.42-3.6-7.21-6.46-15.07-15.4-17.61-4.31-1.72-6.17-5-5.21-9.42,0.57-2.62,2.59-3.17,4.9-1.53,14.11,16.06,31.54,29.22,42.18,48.32,0.89,2.77,3,6-2.25,6.65" transform="translate(-1270.87 -6281.03)"/><path class="cls-32" d="M1507.71,6316.46c-2.24,2.55,4.58,9.65-4.42,8.8-3.33,1.74-5.13,5.47-8.81,6.76-10.61,5.28-10.28,14.42-8.79,24.16,1.16,7.55,9.21,15.52-1.73,17.39-0.18-1.41-4.77-2.82-5-4.23,0.76-9.56-.68-19.12.08-28.68,3.14-7.3-1.24-15.88,4.67-23,3.42-4.14,5.3-8.08,10.62-2.8,2.43,2.41,6.45,1.32,8.93,3.79Z" transform="translate(-1270.87 -6281.03)"/><path class="cls-33" d="M1708.06,6574.1c-3.94-.85-8.28-1.37-8.6-6.68-0.35-5.84,5-2.39,7.23-4.14,6.58-5.05,16.11-7.25,16.74-17.86a3.38,3.38,0,0,1-.74-3.24c1.56-2.47,3.49-2.82,5.8-1a16.19,16.19,0,0,1-.12,8.57c-3.51,6.24-1,13.91-4.79,20.09-4,1.06-2.74,7-7.2,7.63-3.61,1-6-1-8.32-3.36" transform="translate(-1270.87 -6281.03)"/><path class="cls-3" d="M1727.88,6541c-1.82,0-3.46.43-4.42,2.2-4.72-.16-5-4.1-4.9-7,0.53-15.16.84-30.3,0.31-45.46-0.06-1.8,1.25-3.35,2.4-4.77l0,0c2.91-1.6,4.52.47,6.24,2.22q1.51,7.75,3,15.5a92.85,92.85,0,0,1-.11,24.08q-0.23,5.41-.45,10.83c-0.65.87-.81,2.15-2.12,2.45" transform="translate(-1270.87 -6281.03)"/><path class="cls-34" d="M1578.19,6697.38c5.07,0,9.07-7.64,14.86-2.25,4.09,3.81,5.34,8.41,2.87,13.69,0.59,0.52.74,0.94,0.44,1.27a1.1,1.1,0,0,1-.8.42l-21.72,6.75c-6.18-8.3,4.89-12.82,4.35-19.89" transform="translate(-1270.87 -6281.03)"/><path class="cls-35" d="M1560.57,6314.21c-9.34-2-4.85-11.58-10.53-16.63,5.89,0,10.48,3.3,14.72-.41,4.81,2.11,10.53,2.68,13.45,8,1,1.46,3.59,2.15,2.17,4.71l-4.42,6.6c-5.43,1.93-9.14,9.42-16.46,5.17-1.66-1-5,1.71-5.1-1.75-0.09-4.54,3.2-2.12,5.4-2,2.48,0.16,2.63-1.85,2.92-3.61s3.9-2,2.87-4.81c-3.4-.16-3.07,3.46-5,4.73" transform="translate(-1270.87 -6281.03)"/><path class="cls-36" d="M1485.62,6376.07c0.13-2.3.27,4.22,0.41,1.93,5.33-9.49,1.66-19.3.84-30.55a15,15,0,0,1,8-14.44c8.66,1.64,8.37,9.54,5.95,13.67-2.25,3.83-1.28,7.33-2.62,10.69-4.32,5.69,2.25,4.19,3.94,5.92,1.42,3.31,4.86,6.08,2.47,8.52a10.38,10.38,0,0,1-4,1.95,10.3,10.3,0,0,0-6.76,3.91,15,15,0,0,1-2,1.71c-3.16,2.73,2.22.14-3.45,1.47-2.22-.83-1-3.67-2.8-4.76" transform="translate(-1270.87 -6281.03)"/><path class="cls-37" d="M1679.47,6618.11l2.18-2.21a11.49,11.49,0,0,0,4.4-6.6c2.79,0.52,7.11-2.54,6,5.08-0.44,2.85,3,10.6,7.16,14.73-3.17,5.5-5.75,11.42-10.82,15.6-5-4.48-9.38-9.14-7.13-16.81,0.78-2.66-2.06-4.52-2.58-7a3.14,3.14,0,0,1,.83-2.79" transform="translate(-1270.87 -6281.03)"/><path class="cls-38" d="M1690.46,6402.31c2.59-1.6,2.1-4.23,2.25-6.65l4.38,6.7a28.28,28.28,0,0,1,1.48,8.51c-3.91,9.61-7.48,19.51-19.24,22.35-5.47-2.19-4.05-6.93-4.14-11.12,6.24-3.56,14.83-5.18,9.73-16.23-2.27-4.91,4.61-.75,5.54-3.54" transform="translate(-1270.87 -6281.03)"/><path class="cls-39" d="M1549.46,6446.26c4.48-4.12-.25-10.37,2.37-15.32,4.34-1.56,7.09,1.17,9.94,3.66,1.71,2.26,7.35,4.59,5.36,7.34-2.44,1.59-.12,3.07.09,4.61l-7.14,10.77a7,7,0,0,1-3.2.23c-4.15-.91-8.51,6.16-11.54,1.24-2.41-3.91,1-8.85,4.11-12.53" transform="translate(-1270.87 -6281.03)"/><path class="cls-40" d="M1609.05,6701.88c-0.17-3-2.18-5.9,0-8.86,2.66-5.92,7.42-7.34,13.6-7.67,5.81-.31,11.77-2.16,10.51-10.66,4.25,0.94,5.74,5.06,8.78,7.22-0.07.45-.14,0.91-0.2,1.36-3.18,5.13-9,6.38-13.65,9.44l-19,9.17" transform="translate(-1270.87 -6281.03)"/><path class="cls-41" d="M1679.33,6433.21a51.49,51.49,0,0,0,17.73-24.27c6.41,4,6.49,5.6.65,13.58-0.62.74-1.27,1.47-1.86,2.22-4.79,5.85,1.27,13.51-3.2,19.4-4.91,1.23,2,8.5-4.53,8.88-2.33-6.87-8.27-12.14-8.79-19.81" transform="translate(-1270.87 -6281.03)"/><path class="cls-42" d="M1692.65,6444.14c0.24-7.39-5.26-15.35,2.22-22,4.13,4.33-.6,9.74,2.26,14.23-2.91-4.48,2.36-10-2.26-14.23,3.71-3.91,9-7.55,2.18-13.2-3.38-2.21-.7-4.39,0-6.59a17.12,17.12,0,0,1,6.68,13c0.39,11.33,1.81,22.79-4.49,33.22-1.78-2.1-6.85.72-6.63-4.4" transform="translate(-1270.87 -6281.03)"/><path class="cls-43" d="M1280.91,6380.29c-0.65-2.53,1.58-6.79-2.21-7.25-3.31-.41-4,3.79-4.16,6.45-0.4,6.09-.18,12.22-0.22,18.33-2.21-.67-1.43-3-2.38-4.34-1.59-5.82-1.14-11.67-.33-17.53,0.64-10.71,6.87-17.46,15.79-22.32,0.13,2.33,8.56,2,1.85,6.8-3.13,2.24-4.19,6.63-4,10.82,0.21,3.81-.37,7.26-4.39,9" transform="translate(-1270.87 -6281.03)"/><path class="cls-44" d="M1494.52,6334.08c-3.69,7-6,13.74-5,22.34,1,8.17,1.52,15.11-3.52,21.57l-2.07-4.42c6.2-4.1,1-9.18-.79-16.72-3.68-15.36-.43-21.9,11.31-27.22,1.38,1.47,1.3,3,0,4.45" transform="translate(-1270.87 -6281.03)"/><path class="cls-43" d="M1307.32,6349.47c-1.67-4.09-5.17-4.52-8.92-4.45,6.18-5.51,12.82-5.67,19.82-1.74,2.63,2.92,6.2,2.42,9.59,2.6,4.74,2.08,9.37,4.29,10.89,9.91-9,1.54-18.14,3.77-25.33-4.64-1.64-1.91-3.91-1.57-6-1.68h0Z" transform="translate(-1270.87 -6281.03)"/><path class="cls-45" d="M1413,6316.42c6.71,4.57,8.26,10.48,4.59,17.74l-13.23,4.52-4.54-4.62c-0.56-6.32,4.28-10.32,6.64-15.38l6.55-2.26" transform="translate(-1270.87 -6281.03)"/><path class="cls-46" d="M1384.42,6349.57c0,1.75.37,3.33,2.06,4.27,1.12,4.49-3.38,2.62-4.8,4.25-6.1.37-7.66,7.19-12.76,9-4.46-.51-6.51,4.88-10.93,4.46q-1.11-7.71-2.21-15.42c5.84-8.07,13.82,2.77,20-2.27,3.12-.92,4.45-5.48,8.64-4.24" transform="translate(-1270.87 -6281.03)"/><path class="cls-47" d="M1708.06,6574.1l8.83,2.15a4,4,0,0,1,.82,4.32c-9.94,5.55-4.67,14.59-5.11,22.32-1.16,3.73-1.75,7.7-4.53,10.75-9.74-8.64-7.22-19.91-6.62-30.77h0c3.93-1.62,7.44-3.55,6.6-8.77" transform="translate(-1270.87 -6281.03)"/><path class="cls-48" d="M1501.09,6435.34c1.48,8.93-11.55,15.1-10.91,23.81-6.71-4.1-9.77-7.3-13.28-15.13,1.57-4.21,8.8,3.25,8.77-4.26,3.26-.29,7.38,2.57,8.6-3.87,0.71-3.74,4.15-4.74,6.82-.55" transform="translate(-1270.87 -6281.03)"/><path class="cls-49" d="M1648.67,6666.43l-1.06,0h-1.06c-1.67-3.09-5.32-3.43-7.67-5.49-2.85-2.5-6.44-5.06-3.46-9.77,5.39-5.07,10.76-10.16,17.5-13.49,1.5,3,5,1.86,8.6,3.73-4.93,2.86-12.34-.74-13,8.47-0.41,5.63.48,11,.15,16.5" transform="translate(-1270.87 -6281.03)"/><path class="cls-50" d="M1727.55,6488.19l-6.24-2.22c-2.6-4.26,6.36-17.24-9-12-0.38.13-1.41-2.19-2.36-3.14-3.16-3.16-4.51-7.29-6.21-11.24,7.67-.68,14.11.69,17.06,9.12,1,3,3,5.64,4.57,8.45,1.64,3.51,3.32,7,2.22,11.08" transform="translate(-1270.87 -6281.03)"/><path class="cls-51" d="M1525.26,6717.17q-1.1-4.38-2.2-8.76c4.17-7.63,9.57-7,15.55-2.3,5.44-.46,9.36.67,8.81,7.48-0.23,2.79-.63,5.89,2,8.09a1,1,0,0,1,.6,1.14,0.75,0.75,0,0,1-.46.63l-4.51.86c-2,.63-4.08.74-6.08,1.29-5.35-3-5.35-3,.49-9.38-5-2.8-9.35,3.71-14.2.94" transform="translate(-1270.87 -6281.03)"/><path class="cls-52" d="M1580.38,6309.85l-2.17-4.71c18.58,7.09,37.35,13.82,52.72,27.16-4.29,2.56-7.66-.21-10.63-2.4-12.19-9-25.92-14.75-39.92-20" transform="translate(-1270.87 -6281.03)"/><path class="cls-53" d="M1650.53,6347.33c-8.09,3.88.54,7.29,0.31,10.95,0,0.73,0,1.45,0,2.18-9,1.13-7,11.73-13.18,15.32l-2.32-1.87c3.79-10.81,2.71-22.31,4.71-33.37l10.5,6.79" transform="translate(-1270.87 -6281.03)"/><path class="cls-54" d="M1635.42,6651.22c0.13,7.7,9.55,8.62,11.13,15.25-4-1.78-7.47-2.92-12,.46s-10.39,3.52-14.52-2.11l15.34-13.6" transform="translate(-1270.87 -6281.03)"/><path class="cls-55" d="M1549.46,6446.26c0.66,4.18-1.64,7.66-2.83,12.25,4.45-4.78,8.9-5,13.46-1.19-3.08,2.9-6.17,5.79-10.47,6.8-3.46-4.64-7.88-.89-13.1-0.68,2.81-6.48,5-12.05,7.63-17.42,1.6-3.27,3.5.28,5.3,0.25" transform="translate(-1270.87 -6281.03)"/><path class="cls-49" d="M1679.47,6618.11q0,1.1,0,2.19c1.53,2.21,1.94,4.41,0,6.62-6.09-7.59-10.29-3.66-14.39,2.22-2.23,3.2-4.58,6.71-9.49,4.4l12.88-19.82c5.38-2.82,6.18,5.87,11,4.39" transform="translate(-1270.87 -6281.03)"/><path class="cls-31" d="M1637.64,6375.78c1.37-4.53,3.59-8.82,5-13.18,2.14-6.39,4.9-3.56,8.13-2.13-2.5,5.84-7.2,11.77,1.33,16.55-2.32,3.35-7.31,1.07-7.94,5.44l-6.57-6.66" transform="translate(-1270.87 -6281.03)"/><path class="cls-15" d="M1679.45,6626.92q0-3.3,0-6.61c1.26,1.24,3.85,3.07,3.59,3.63-3.78,8.44,4.47,13.67,5.29,20.78l-4.51,6.36c-6.92-1.7-8.38-6.24-6.35-12.46,1.24-3.81,2.39-7.61,2-11.7" transform="translate(-1270.87 -6281.03)"/><path class="cls-56" d="M1712.6,6602.89c-7.45-12-6.22-18.42,4.25-22.17,2.48,1.66,1,4.36,1.75,6.49,0.19,6.06-.74,11.7-6,15.68" transform="translate(-1270.87 -6281.03)"/><path class="cls-57" d="M1490,6358.21c-0.52,1.21-7.09,9-1.65,11.91,0.56,0.3,5.31,2,5,2.74-0.64,1.46-1.72,1.58-3.41.78-5.22-2.46-12.14-5.35-14.77-10.78,1.1-3.28,1.34-5.41,4-7.33l1.25,0c2.09,0.25,4.18.47,6.27,0.72a5.36,5.36,0,0,1,3.28,1.94" transform="translate(-1270.87 -6281.03)"/><path class="cls-58" d="M1366.81,6662a66,66,0,0,1,14.79,13.82c0.22,5.69-4.62,1.19-6.26,3.11l-15.27-14.43c0-6.81,4.44-1.81,6.75-2.5" transform="translate(-1270.87 -6281.03)"/><path class="cls-59" d="M1538.61,6706.12c-5.47-1.19-10.75-1-15.55,2.29-3.71-1.27-6-6.07-10.89-4.4,9.31-3.22,18.84-5,28.73-4.38l-2.29,6.49" transform="translate(-1270.87 -6281.03)"/><path class="cls-60" d="M1564.89,6355.85c-0.13,4.77-2.38,6.63-6.12,6.81s-6.78-1.12-6.74-5.11c0-2.89,5.2-7.1,8.54-7.46,4.08-.44,2.81,2.43,4.31,5.76" transform="translate(-1270.87 -6281.03)"/><path class="cls-61" d="M1417.57,6692.91c-5.15.57-10.18,1.41-13.33,6.25-1.73-1.19-3.34-2.66-5.24-3.48-2.22-1-3.9-1.91-3.17-4.7,0.8-3,3.72-2.85,5.27-2.12,5.27,2.49,11.63.21,16.47,4" transform="translate(-1270.87 -6281.03)"/><path class="cls-62" d="M1366.81,6662c-1.53,2.78-5.63-1.39-6.75,2.5a19.38,19.38,0,0,0-2.51-2.1c-3-1.77-7.29-2.35-6.34-7.5,0.26-1.4,0-3.35,1.75-3.49,4.65-.36,7.17,2.56,9.28,6.35,1,1.72,3,2.84,4.56,4.24" transform="translate(-1270.87 -6281.03)"/><path class="cls-3" d="M1701.46,6582.87c1.84,10.34-.08,21.48,6.62,30.78L1706,6616c-8.06-10.16-8.51-21.35-4.49-33.15" transform="translate(-1270.87 -6281.03)"/><path class="cls-63" d="M1544.47,6358.16c-2-1.84.41-.91-1.56,0.08-3.26-5.29-.09-9.74,2.31-13.91,3.31-5.73,7.11-5.07,10.41.35l0.69,0.52c-3.59,3.68-11.83,7.22-11.86,13" transform="translate(-1270.87 -6281.03)"/><path class="cls-64" d="M1349.25,6393.7c-4.42-5.48-4.59,4.38-8.58,1.92-0.79-7.24,9.38-7.78,8.45-14.58,6,1.16,2,6,4.49,8.09l-4.37,4.57" transform="translate(-1270.87 -6281.03)"/><path class="cls-65" d="M1461.39,6397.84c4.59,3.82.75,10.31,5.11,14.91,2.12,2.24-3,2.32-5.15,2.88a18.58,18.58,0,0,1,0-17.79" transform="translate(-1270.87 -6281.03)"/><path class="cls-66" d="M1718.6,6587.22c-2.11-1.75-1.65-4.2-1.75-6.49,0-1.49,0-3,0-4.47,1.4-2.74,2.33-5.87,4.3-8.11,2.52-2.86,1.83.71,2.4,1.68a35.91,35.91,0,0,1-5,17.39" transform="translate(-1270.87 -6281.03)"/><path class="cls-67" d="M1595.78,6684.16c-6.34-2-10,11.89-17.54,2.93,5.8-2.56,10.94-6.64,17.44-7.6q0.05,2.33.1,4.67" transform="translate(-1270.87 -6281.03)"/><path class="cls-68" d="M1358,6371.51c3.81-1.07,3.1-13.23,10.93-4.46l-8.74,11.07c-1.81-1-1-3.22-2.16-4.47q0-1.07,0-2.14" transform="translate(-1270.87 -6281.03)"/><path class="cls-69" d="M1587,6379.52c-0.41,2.52-1.75,4.93-4.59,4.75s-3.92-2.95-4.12-5.49,1.88-4,4-4.11c2.83-.13,4.66,1.53,4.66,4.85" transform="translate(-1270.87 -6281.03)"/><path class="cls-70" d="M1529.63,6470.55l0.17,1.81c-4.8,3.47-10.23,2.33-15.53,2.13,3.49-7.67,10.31-2.35,15.36-3.94" transform="translate(-1270.87 -6281.03)"/><path class="cls-71" d="M1468.22,6369.31c3.43,5.21,4.21,7.07.24,8.76-0.94-4-4.83-7.36-.24-8.76" transform="translate(-1270.87 -6281.03)"/><path class="cls-72" d="M1549.55,6723.46c0-.59-0.09-1.18-0.14-1.78,4.76-3.91,10.29-2.29,15.6-2.15-4.55,3.68-10.52,1.79-15.47,3.93" transform="translate(-1270.87 -6281.03)"/><path class="cls-14" d="M1525.32,6285.59c-6.57-.38-13.3,1.69-19.68-1.35l2.09-1.08c3.64-2.86,7.29-2.83,10.94,0,2.11,1.11,5.29-.66,6.65,2.46" transform="translate(-1270.87 -6281.03)"/><path class="cls-49" d="M1655.26,6673.19c-1.46-1.47-5.42-.49-4.36-4.44l11-2.16-6.63,6.61" transform="translate(-1270.87 -6281.03)"/><path class="cls-46" d="M1358,6373.65c1.77,1,2,2.72,2.16,4.48-0.21,1.74.14,3.74-2.16,4.47-0.49-3-7.84-6,0-8.94" transform="translate(-1270.87 -6281.03)"/><path class="cls-73" d="M1322.22,6343.09l4.74,2.46q1.15,0.61.77,1.23a1,1,0,0,1-.77.62q-7.33,4.21-8.74-4.13l4-.19" transform="translate(-1270.87 -6281.03)"/><path class="cls-74" d="M1375.33,6679l6.26-3.11c2.61,0.47,2.68,2.13,1.34,3.73-2.68,3.2-5-.62-7.6-0.62" transform="translate(-1270.87 -6281.03)"/><path class="cls-75" d="M1450.52,6721.12c2.71-2.46,5.81-1.86,9.23-1.21l-4.81,3.67-4.42-2.46" transform="translate(-1270.87 -6281.03)"/><path class="cls-76" d="M1505.5,6380.3c-0.05-1.81-.43-3.46-2.18-4.43-2-3.49-6.29-7.49-4.16-10.29,10.82-14.21,7.54,12.41,4-2.94a3.06,3.06,0,0,1,.35-2.07c8.77-5.8,11-15.94,10.1-24.2-1.38-12.49,2.56-21.81,9.47-31-1.08-2.4.31-3.53,2.26-4.37,6.34,0.92,5.94,8.53,10.83,10.88-2.42,1.71-1.78,4.38-2.1,6.74,0.35,12.13-.6,24.28,2.07,36.35,2.5,11.31.38,14.67-8.59,16.49-1-2-.64-4.13-0.74-6.28-0.26-5.47-2.38-10.23-9-9.46s-3.2,6.19-3.26,9.31c-0.31,16.73.64-8.9-3.13,7.24-0.72,3.09-.69,7.72-5.85,8" transform="translate(-1270.87 -6281.03)"/><path class="cls-77" d="M1527.51,6371.49c9.35-3.43,6.75-10.63,5.57-17.45-2-11.85-4.52-23.73.95-35.39,2.2,2.23,2.2,2.23,11-2.13,3.7,4.87,2,9.56-.53,14.18-4,7.31-7.41,14-4.22,23.4,2,5.9-2.1,13.09-3.95,19.59,0.72,7.34,1.44-27.16,2.16-19.83-0.49,6,2,11.22,4,16.68,2.45,6.88.31,8.65-8.29,7.61,2.67-11.69-7.26,12.12-6.3.66,0.45-5.33-.21-1.94-0.37-7.32" transform="translate(-1270.87 -6281.03)"/><path class="cls-78" d="M1534.18,6378.15c6.58-.15,10.3-1.75,4.72-8.66-4.06-5-3.85-10.33-.39-15.63,4.76,4,1.36,11.81,8.76,13.21,0,0.74,0,1.47,0,2.21-1.87,1.52-4.16,2.74-1.9,5.79a26.35,26.35,0,0,1,5.19,11.29c0.17,5.69,4.18,11.74-1.5,16.92-1.53,2-2.87,4.22-5,5.72-0.95.5,2.47,0.56,1.45,0.26-4.64-5.44-5.45-12.06-4.13-18.51,1-4.9-2.16-5.24-4.79-6.7-1.08-1.1-1.43-2.67-2.43-3.82q0-1,0-2.08" transform="translate(-1270.87 -6281.03)"/><path class="cls-24" d="M1534.18,6380.23l2.16,2.25c1.23,1.81,1.9,3.91,3,5.77,4.09,6.9,2,11.4-5.2,14l0,0c-6.1-7.38-.63-14.73.06-22.09" transform="translate(-1270.87 -6281.03)"/><path class="cls-79" d="M1721.27,6486c0,15.68,3.14,31.33.17,47.07-0.62,3.29-1.3,7.33,2,10.18,0,0.72,0,1.45,0,2.17-5.72,4.32-13.21-.61-19.23,3.76-1.5,1.09-2.9-2.71-3.27-4.75a56.55,56.55,0,0,1,.66-23.68c2-8.35,1.56-17.32,1.7-26,0.25-14.65,1.07-15.24,14.71-8.94,0.93,0.42,2.16.17,3.25,0.24" transform="translate(-1270.87 -6281.03)"/><path class="cls-80" d="M1327,6347.4v-1.85c2.51-1.18,2.41-6.51,8.4-1.76,5.2,4.12,14.91,2.56,22.62,3.51l-4.86,6.36-6.18,2.44-8.26-.32L1327,6347.4" transform="translate(-1270.87 -6281.03)"/><path class="cls-43" d="M1294.1,6389.1c-3-.31-6.49,1-8.8-2.2,2.85,1.09,7.59-5.45,8.8,2.2" transform="translate(-1270.87 -6281.03)"/><path class="cls-43" d="M1307.32,6349.47c-0.27,2.21-.76,4.27-3.65,4a1.89,1.89,0,0,1-1.29-1.15c0.58-2.66,2.88-2.61,4.94-2.89h0Z" transform="translate(-1270.87 -6281.03)"/><path class="cls-81" d="M1501.09,6435.34c-2.29-.82-5.63-2.5-5.31,1.75,0.28,3.65,0,7.06-3.12,8.16-4,1.41-4.13-4.21-7-5.49-1-3.82-6.75-4.1-6.64-8.78-2.33-2.5-.4,2.75-2.25,0-2.45-1.53-.1-0.75.1-2.23,5.16-.57,8.1,3.33,13.25,0,2-1.72,2.69-5.44,6.52-4.52,0.71,5.15-2.19.19,5.15,3.54,3.14,1.43.15,5-.72,7.53" transform="translate(-1270.87 -6281.03)"/><path class="cls-82" d="M1503.49,6360.57c8.44,11.1,8.4-6.86-.61,3.41-3.22,3.67.12,7.38,0.43,11.89,0,0.74,0,1.47,0,2.21a1.35,1.35,0,0,1-2.22,0,33.2,33.2,0,0,0-6.68-16.7c-2.58-3.32,1.66-4.93,2.34-7.47,4.43-7,9.38,27.67,5.54,20.24,0-1-4.08-1.92-3.37-2.66,1.53-2.74,2.59-5.6,2.1-8.81a1.36,1.36,0,0,1,.47-2.15c0.68,0,1.36,0,2,.05" transform="translate(-1270.87 -6281.03)"/><path class="cls-83" d="M1498.87,6384.66c0.88,2-7.26,3.94.9,7,4.13,1.55-1.58,9.93-3.15,15.16-4.2,3.05-7.72,6.62-9.05,11.87-3.76,1.53-5.66,4.74-7.74-2,0.7-7,.71-13.87,6.57-19.63,3.59-3.54.18-9.71,1.48-14.56,1-2.06.13-4.15,2.47-4,4.91,0.3,0,2.81.71,4.14,1.91,3.36,5.17,1.51,7.81,2" transform="translate(-1270.87 -6281.03)"/><path class="cls-84" d="M1487.88,6382.49c2.42,7.37,7.73,14.75-3.42,20.48-3.85,2,1,9.05-3.21,12.59a3,3,0,0,1-4.41,0c-0.29-12.35-1.88-25.13,11-33.06" transform="translate(-1270.87 -6281.03)"/><path class="cls-85" d="M1498.88,6371.49c0.11,0.73,4.62,1.46,4.73,2.18,1.61,6.9,2.11,4.86-2.57,10.95-2.88,1.54-9.42-29.21-11-26.41l-4.28,0c-1.13-2.53,5.31,21.58,6.51,19.82l0,0c2.46-1.93.22-4.16,2.23-6.54h4.39" transform="translate(-1270.87 -6281.03)"/><path class="cls-86" d="M1476.84,6415.55h4.41c1.52,6.45,3.91.31,6.56,2.14-0.29-.23,3.33,6.11,1.27,5.68,2.31,0.48,2,5,3.17,7.52-1.12,1.36-15.13-2.18-15.37-2.13,1.87-3.47,4.53-.46,8.3-0.64-3.77-4.34-11-5.72-8.35-12.57" transform="translate(-1270.87 -6281.03)"/><path class="cls-87" d="M1501,6384.62c0.85-6.59,1.71-4.36,2.56-10.95,6.12,8.14,2.77-26.13-6.89-19.77,0-.77,4.35,31.49,4.33,30.72" transform="translate(-1270.87 -6281.03)"/><path class="cls-86" d="M1476.78,6431c3,2.16,1.92-3.52,2.25,0-3.9-1.71-2.31,3.72-2.25,0" transform="translate(-1270.87 -6281.03)"/><path class="cls-83" d="M1501.06,6378.08h2.22a6.53,6.53,0,0,1-4.42,6.61c0.14-2.4-.29-5,2.21-6.61" transform="translate(-1270.87 -6281.03)"/><path class="cls-31" d="M1666.24,6375.89c-4.74,4.14-5.37-.78-8.09-3C1662.56,6371.39,1663.56,6375.49,1666.24,6375.89Z" transform="translate(-1270.87 -6281.03)"/><path class="cls-88" d="M1503.29,6318.63c-8.83,2.21-8.83,2.21-13.28-4.68-7.54,7.31-8.38,17.37-10.94,26.72-0.06-25.9-.06-25.9,9.72-39.47,0.88,5,1.74,11.37,8,10.08,8.22-1.69,6.09,3.41,6.46,7.36" transform="translate(-1270.87 -6281.03)"/><path class="cls-89" d="M1443.82,6325.23c-1.15-6.27-3.67-12-6.58-17.64,3.95-2.5,11.61-4.82,11.48-1-0.2,5.82,8,15.84-4.9,18.62" transform="translate(-1270.87 -6281.03)"/><path class="cls-90" d="M1579.7,6338.77l-0.85.08-0.7-.5-2.23-2.13c-0.7-1.82.37-2.76,1.75-3.55,0.42-2.12,7.1,2.71,3.85-3.48,0.54-1.52,1.26-2.73,3.18-1.79,6.54-3.63,13.45-1.67,21.56-2.16-2.33,5.31-7.28,8.28-4.64,14.9-8.32-5.11-15.12-4.93-21.93-1.37" transform="translate(-1270.87 -6281.03)"/><path class="cls-91" d="M1584.71,6327.41l-2.15,2.23c-0.75,2.18-6.11-.22-4.39,4.42l-2.24,2.17c-12-4.44-1.3-8.78.06-13.16,5.85-4.47,5.83,2.88,8.73,4.34" transform="translate(-1270.87 -6281.03)"/><path class="cls-92" d="M1633.25,6347.2c-4.4,4.54-8.82,2.52-13.25.07,4.38-7.2,8.8-4.63,13.25-.07" transform="translate(-1270.87 -6281.03)"/><path class="cls-93" d="M1494.52,6334.08q0-2.23,0-4.45c3.88,0.43,3.07-8.55,8.81-4.38,11.24,7,2.18,15.76.4,22.67-0.79,3.07-.69,7.17-2.54,10.28-1.47,1.38-2.95,1.23-4.43,0-1.38-7.2,5.14-13.72,1.68-21.25-0.95-2.05-2-2.71-3.88-2.91" transform="translate(-1270.87 -6281.03)"/><path class="cls-94" d="M1525.31,6301l-2.25,4.37-8,2.72c-4.24-11.62,6.68-11.17,11.79-15.16,1.12-.88,3.1.29,3.45,1.8,0.93,4-4.16,3.5-5,6.27" transform="translate(-1270.87 -6281.03)"/><path class="cls-95" d="M1496.71,6358.24l4.43,0c0.1,0.77.21,1.54,0.31,2.31-0.15.72-.31,1.43-0.47,2.15-2.65,4.49-6.52,2-8,0-2-2.73,1-4.08,3.68-4.41" transform="translate(-1270.87 -6281.03)"/><path class="cls-96" d="M1686.05,6609.3c3,5.2,1,7-4.4,6.6a6.47,6.47,0,0,1,4.4-6.6" transform="translate(-1270.87 -6281.03)"/><path class="cls-97" d="M1384.42,6349.57c-2.53,2.12-4.57,5.25-8.64,4.24,0.61-4.52,1.21-9,2-14.57,4.1,2.68,9.73,3.33,6.69,10.34" transform="translate(-1270.87 -6281.03)"/><path class="cls-22" d="M1406.45,6318.68c0.17,1.6,3.71,3.29,1.88,3.82-6.21,1.78-4.77,8.47-8.52,11.56-4.36-8,.43-12,6.64-15.38" transform="translate(-1270.87 -6281.03)"/><path class="cls-98" d="M1556.13,6384.71c8-7,9.9-6.46,13.35,3.25,1.2,3.39,2.84,6.63,4.27,9.94-1.75,6.68,1.41,13.79-1.62,20.28-1.6,3.42-1.27,9.22-7.86,7.69-3.4-5-.63-12.57-6.84-16.41-3.51-6-4-13-6.53-19.37a7.8,7.8,0,0,1,5.24-5.39" transform="translate(-1270.87 -6281.03)"/><path class="cls-99" d="M1564.94,6426.54c4.6-5.36,6.27-11.35,5.88-18.55-0.17-3.06-2.73-8.18,2.92-10.09,4.14,19.91,6.65,27.6-6.6,44-0.74-2.19-5.88-4.38-6.62-6.58,0.08-.48.16-1,0.23-1.44,2.63-5.37,7,.64,3.69-6,0.16-.45.33-0.9,0.5-1.35" transform="translate(-1270.87 -6281.03)"/><path class="cls-30" d="M1556.13,6384.71c-0.06,2.86-1.54,4.31-4.37,4.4-1.34-.14-1.64-1.31-2.21-2.22-3.55-5.93-2.69-11.86-6.22-17.75,3.31-2.88,1.32.73,4,.13a13.7,13.7,0,0,1,6.61,6.59c-2.44,3.75-2.07,6.78,2.22,8.84h0Z" transform="translate(-1270.87 -6281.03)"/><path class="cls-98" d="M1556.13,6384.71c-10.61-.47-5.17-5-2.22-8.84a15.34,15.34,0,0,0,2.22,8.84" transform="translate(-1270.87 -6281.03)"/><path class="cls-100" d="M1536.35,6373.69c5.88-12.86-5.62-26.87,2.5-39.5,3.52-5.46,8-10.42,6.2-17.68,8,2.58,1.94,11.31,6.7,15.31-0.1,1-1.44,2.21-.74,2.87s2-.46,3-0.72c4.19,3,3.36,6.79,1.63,10.71-4.37-2.18-8.27-3.25-9.76,3.33-0.78,3.46-2,6.82-3,10.23-4,4.38-2,11.3-6.56,15.45" transform="translate(-1270.87 -6281.03)"/><path class="cls-101" d="M1560.57,6314.21c-0.37-3.59-2.92-8.12,3.73-8.67,2.89-.24,5.2,1.1,5.58,3.82,0.83,5.92-4,4.37-7.18,4.93l-2.13-.09" transform="translate(-1270.87 -6281.03)"/><path class="cls-102" d="M1554,6334c-0.4,2.08-.6,4.5-3.72,3.52a17,17,0,0,1-3.52-2.12l5-3.55Z" transform="translate(-1270.87 -6281.03)"/><path class="cls-103" d="M1492.26,6430.89c-0.36-.3-6.41-10.14-4.44-13.2-4.52-8.56,8.71-10.82,8.81-10.86-2,5.82,1,11.63,0,17.45Z" transform="translate(-1270.87 -6281.03)"/><path class="cls-104" d="M1431.69,6327.06c-1-4.64-1.54-9.3,1.41-12.09,2.14-2,4.42,1.42,5.11,3.81,1.48,5.12-2,6.74-6.52,8.29" transform="translate(-1270.87 -6281.03)"/><path class="cls-105" d="M1413.05,6309.86c-0.29-7.87,3-8.73,8.94-4.63-3,1.52-4.92,5.1-8.94,4.63" transform="translate(-1270.87 -6281.03)"/><path class="cls-77" d="M1534.14,6402.3c8.1-5.79,1-13.26,2.2-19.82,3.41,2.85,6.63-1.09,10.48-.37-4.92,9.17-8.92,18.08-3.9,26.81a4.29,4.29,0,0,1,.85,4.45c-3.67,3.71.19,9.22-3.09,13.17-3.89-5.66-2.21-12.22-2.61-18.34-0.21-3.31-.11-5.56-3.94-5.9" transform="translate(-1270.87 -6281.03)"/><path class="cls-106" d="M1540.69,6426.54c0.63-5.19-6.64-12.14,2.21-13.22,5.2-5.52,6.67-.55,7.32,3.13,0.85,4.82-1.34,9-5.09,12.29-1.6,1.12-2.59.55-1.8,2.32,4.1,9.23,3.69-.21-2.6-2.32-0.84-4.4,3.57,2.19,0-2.2" transform="translate(-1270.87 -6281.03)"/><path class="cls-107" d="M1538.84,6723.95c-2.57,3.16-6,2-9.2,1.78-2.65-2.24-8.27-3-4.38-8.55,2.3-1.12,4.51-2.88,6.92-3.21,3.72-.51,8.19-6.14,11.26.33,3.25,6.87-2.62,6.7-6.75,7.62a1.61,1.61,0,0,0-.48.65l2.63,1.38" transform="translate(-1270.87 -6281.03)"/><path class="cls-78" d="M1545.13,6428.74c0.94-3.35,2.09-6.65,2.77-10.05,0.76-3.82.84-7.48-5-5.37q0-2.2,0-4.4l0.06,0a35.22,35.22,0,0,1,6.48-3.42c7.93-.9,7.53,6.35,10.33,10.5a7.17,7.17,0,0,1-.52,5.75c-4.37,1.66-7.53,5.4-11.93,7h-2.21" transform="translate(-1270.87 -6281.03)"/><path class="cls-99" d="M1560.52,6435.36l-8.69-4.42c-0.09-1.87.33-3.5,2.06-4.54,2.61-2.44,1.63,4.27,4.63,2,6.28-1.38,6.09.73,6.4,4.87,0.33,4.4-2.18-1.28-4.37,2Z" transform="translate(-1270.87 -6281.03)"/><path class="cls-106" d="M1558.27,6431c0,3.13-1.41-5.7-4.38-4.58,3.58-7.25-5.82,6.31-6.56,2.32,3.25-2.9,3.41-11,11-6.59a4,4,0,0,1,1.07,3.93c-0.47,1.62-2.88,2.78-1.15,4.92" transform="translate(-1270.87 -6281.03)"/><path class="cls-108" d="M1492.24,6378.05c-3.77,7-6-27.18-6.51-19.83-2.37,0-4.84.43-6.69-1.66,3.12-2.54,8,26.8,8.84,23.71,2.9-2,.05-5.09,0-7.86-0.13-3.53,1.12,4.19,4.4,5.63" transform="translate(-1270.87 -6281.03)"/><path class="cls-108" d="M1494.49,6371.5c0.43,4.86,2.69,7.11-2.23,6.54,0.25-4.17-2-6.38,2.23-6.54" transform="translate(-1270.87 -6281.03)"/><path class="cls-109" d="M1694.87,6422.14c1.79,0.52,6.07-.46,4.76,2.12-2.86,5.68.86,12.3-4.77,19v-21.15h0Z" transform="translate(-1270.87 -6281.03)"/><path class="cls-110" d="M1558.25,6415.58c-4.85-1-1.59-10.06-8.72-8.85-4.07.2-3.55-1.9-2.21-4.41,6.19-4.36-.54-10.57,2.21-15.42l2.21,2.22c3.1,6.31,6.34,12.57,6.62,19.83a6,6,0,0,1,1.5,2.6,4.34,4.34,0,0,1-1.62,4" transform="translate(-1270.87 -6281.03)"/><path class="cls-106" d="M1547.32,6402.31c0,1.81.44,3.46,2.21,4.41-1.57,2.57-4.14,2.14-6.55,2.16l4.34-6.56" transform="translate(-1270.87 -6281.03)"/><path class="cls-12" d="M1578.16,6334.05c-2.47-5.39,1.63-4.23,4.39-4.41,2.49,5.4-1.6,4.26-4.39,4.41" transform="translate(-1270.87 -6281.03)"/><path class="cls-99" d="M1558.38,6411.11c0-.72,0-1.44,0-2.17,11,2.56,5,11.51,6.56,17.6h0c-1.59,1.36-3.21,1.18-4.85.1-1.89-5,.93-10.57-1.72-15.52" transform="translate(-1270.87 -6281.03)"/><path class="cls-111" d="M1560.57,6426.53H1565c7.85,8.67,2.27,3.35-4.4,8.8,0.81-4.63,3.13-.23,2.07-5.14-0.64-3-2-1.48-4.35.8-2.15-1.5-2.2-3,0-4.46,0.76-1.13,1.51-1.07,2.26,0" transform="translate(-1270.87 -6281.03)"/><path class="cls-98" d="M1560.57,6426.53h-2.26q0-2.19.06-4.39-0.06-3.28-.11-6.56c0-1.49.08-3,.13-4.46,4.15,4.65,1.31,10.3,2.19,15.41" transform="translate(-1270.87 -6281.03)"/></g></g></g></svg>