<svg xmlns="http://www.w3.org/2000/svg" viewBox="0 0 437.1 435.86"><defs><style>.cls-1{isolation:isolate;}.cls-2{fill:#51131f;}.cls-10,.cls-100,.cls-101,.cls-102,.cls-103,.cls-104,.cls-105,.cls-106,.cls-107,.cls-108,.cls-109,.cls-11,.cls-110,.cls-111,.cls-112,.cls-113,.cls-114,.cls-115,.cls-116,.cls-117,.cls-118,.cls-12,.cls-13,.cls-14,.cls-15,.cls-16,.cls-17,.cls-18,.cls-19,.cls-2,.cls-20,.cls-21,.cls-22,.cls-23,.cls-24,.cls-25,.cls-26,.cls-27,.cls-28,.cls-29,.cls-3,.cls-30,.cls-31,.cls-32,.cls-33,.cls-34,.cls-35,.cls-36,.cls-37,.cls-38,.cls-39,.cls-4,.cls-40,.cls-41,.cls-42,.cls-43,.cls-44,.cls-45,.cls-46,.cls-47,.cls-48,.cls-49,.cls-5,.cls-50,.cls-51,.cls-52,.cls-53,.cls-54,.cls-55,.cls-56,.cls-57,.cls-58,.cls-59,.cls-6,.cls-60,.cls-61,.cls-62,.cls-63,.cls-64,.cls-65,.cls-66,.cls-67,.cls-68,.cls-69,.cls-7,.cls-70,.cls-71,.cls-72,.cls-73,.cls-74,.cls-75,.cls-76,.cls-77,.cls-78,.cls-79,.cls-8,.cls-80,.cls-81,.cls-82,.cls-83,.cls-84,.cls-85,.cls-86,.cls-87,.cls-88,.cls-89,.cls-9,.cls-90,.cls-91,.cls-92,.cls-93,.cls-94,.cls-95,.cls-96,.cls-97,.cls-98,.cls-99{fill-rule:evenodd;mix-blend-mode:darken;}.cls-3{fill:#40131b;}.cls-4{fill:#511521;}.cls-5{fill:#732840;}.cls-6{fill:#3e1218;}.cls-7{fill:#662135;}.cls-8{fill:#47121d;}.cls-9{fill:#6f273e;}.cls-10{fill:#671f35;}.cls-11{fill:#5e1a2e;}.cls-12{fill:#91506b;}.cls-13{fill:#5b1c2d;}.cls-14{fill:#762a43;}.cls-15{fill:#62202f;}.cls-16{fill:#904f69;}.cls-17{fill:#501724;}.cls-18{fill:#471b20;}.cls-19{fill:#611a2d;}.cls-20{fill:#3e1317;}.cls-21{fill:#733147;}.cls-22{fill:#4f1a23;}.cls-23{fill:#863f57;}.cls-24{fill:#7c2d44;}.cls-25{fill:#47131d;}.cls-26{fill:#72253e;}.cls-27{fill:#521725;}.cls-28{fill:#8a5166;}.cls-29{fill:#4e1420;}.cls-30{fill:#5a212f;}.cls-31{fill:#884b64;}.cls-32{fill:#975770;}.cls-33{fill:#723644;}.cls-34{fill:#611f34;}.cls-35{fill:#591a2a;}.cls-36{fill:#641e31;}.cls-37{fill:#52262a;}.cls-38{fill:#742f46;}.cls-39{fill:#692336;}.cls-40{fill:#5e2734;}.cls-41{fill:#45131d;}.cls-42{fill:#7a344b;}.cls-43{fill:#84485e;}.cls-44{fill:#78384a;}.cls-45{fill:#82485a;}.cls-46{fill:#8d556a;}.cls-47{fill:#823b4f;}.cls-48{fill:#7d4c5d;}.cls-49{fill:#975c70;}.cls-50{fill:#764556;}.cls-51{fill:#87465c;}.cls-52{fill:#8e5269;}.cls-53{fill:#934b65;}.cls-54{fill:#551625;}.cls-55{fill:#5d1a29;}.cls-56{fill:#661d32;}.cls-57{fill:#601d31;}.cls-58{fill:#371015;}.cls-59{fill:#4f1524;}.cls-60{fill:#5d182c;}.cls-61{fill:#5f1a2c;}.cls-62{fill:#71263f;}.cls-63{fill:#5c162a;}.cls-64{fill:#531724;}.cls-65{fill:#8c405b;}.cls-66{fill:#5d1a2c;}.cls-67{fill:#9b6076;}.cls-68{fill:#5a1627;}.cls-69{fill:#561222;}.cls-70{fill:#7d344d;}.cls-71{fill:#803650;}.cls-72{fill:#642a38;}.cls-73{fill:#4c1521;}.cls-74{fill:#732f46;}.cls-75{fill:#561426;}.cls-76{fill:#86425e;}.cls-77{fill:#9d5b75;}.cls-78{fill:#7a5061;}.cls-79{fill:#47131e;}.cls-80{fill:#5d2435;}.cls-81{fill:#6e2b3d;}.cls-82{fill:#70273b;}.cls-83{fill:#6a243f;}.cls-84{fill:#8a435c;}.cls-85{fill:#863a53;}.cls-86{fill:#75233b;}.cls-87{fill:#73233a;}.cls-88{fill:#7b2f4c;}.cls-89{fill:#873d5a;}.cls-90{fill:#61172e;}.cls-91{fill:#80354a;}.cls-92{fill:#904e69;}.cls-93{fill:#a1687e;}.cls-94{fill:#a87186;}.cls-95{fill:#691f37;}.cls-96{fill:#8b425b;}.cls-97{fill:#9d5c75;}.cls-98{fill:#7e304b;}.cls-99{fill:#924b61;}.cls-100{fill:#a66f82;}.cls-101{fill:#904a65;}.cls-102{fill:#833b56;}.cls-103{fill:#6b273d;}.cls-104{fill:#7c334d;}.cls-105{fill:#9b5c76;}.cls-106{fill:#7d2c43;}.cls-107{fill:#692338;}.cls-108{fill:#955672;}.cls-109{fill:#712641;}.cls-110{fill:#8d5769;}.cls-111{fill:#7c334a;}.cls-112{fill:#732e43;}.cls-113{fill:#681c36;}.cls-114{fill:#48121a;}.cls-115{fill:#8e4a64;}.cls-116{fill:#782e47;}.cls-117{fill:#99536f;}.cls-118{fill:#6d223a;}</style></defs><title>tache2</title><g class="cls-1"><g id="taches_vin" data-name="taches vin"><g id="tache_2" data-name="tache 2"><path class="cls-2" d="M709.62,6419.22c0-5.5,5.68-8.12,6.62-13.14,2.5,1.22,4,.43,4.9-2.18,4.4-13.1,13.29-23.73,21.63-34.07,3.54-4.39,10.34-10.71,18.79-9.35,2.66,4.82,4.9,9.66,1,14.85-0.71.64-1.71,0.12-2.55,0.45,0.66,1,2.06.75,2.85,1.66,3,13.71,4.07,27.13-5.42,39.05-5.06,2.91-5.53-1.32-5.73-4.25-0.28-4.07-1.85-3.72-4.44-2.1-2.74,1-5.64,1.58-8.11,3.22-7.37,4.92-8,11.1-.23,14.8,8.41,4,9.67,9.43,6.51,16.87-2.56,6-2.73,12.42-8,18.24-5.83,6.46-10.07,6.82-16.62,3.8a26.69,26.69,0,0,1-6.06-4.82c-8.92-6.34-7.54-17.14-11.16-25.78-0.8-6.72,5.71-10.9,6-17.25" transform="translate(-688.65 -6295.89)"/><path class="cls-3" d="M760.29,6375.25c5.45-5.14-1.32-10.28,0-15.42,0.63-3.41,0-7.1,2.26-10.14,7.6-9.12,19.2-12.12,28.53-18.6,2.24,0.21,4.37.63,5.62,2.82,8.83,17.63,9.81,36.24,7,55.36-0.7,4.83,1.85,9.25,2.36,14-0.17,2.26-.93,4.75-2.74,5.67-12.76,6.48-19.66,18.66-28.66,28.8a8.34,8.34,0,0,1-4.67,2.55c-9.54-1.83-10.46-11.45-15.58-17.3-0.53-2.2-.33-4.22,1.43-5.85,6.18-10.13,5.5-21.63,6.51-32.78,0.23-2.52.37-5.12-2.09-6.86a1.29,1.29,0,0,1-.56-1.46,0.92,0.92,0,0,1,.56-0.73" transform="translate(-688.65 -6295.89)"/><path class="cls-4" d="M698.58,6562.42c-3.53-2.18-1-6.15-2.66-8.89-1.45-3.68.51-7.81-1.52-11.42-2.71-14.41-5.23-28.85-5-43.6a19.87,19.87,0,0,1,0-10.91l1.29-11a3.15,3.15,0,0,1,3.44-1.07c5.71-4.72,9-3.55,9.75,4,2.17,4.66,3.46,9.84,8,13,10.46,5.42,13.33,24.06,7,37.51-5.28,11.15-11.72,21.59-17.45,32.45a2.2,2.2,0,0,1-2.84,0" transform="translate(-688.65 -6295.89)"/><path class="cls-5" d="M1125.57,6512.49c-2.81,4.11,1.37,8.3-.16,12.43-1.54.5-3.27,0.24-4-1-4-6.87-8.71-5.47-15.47-3.47-7.67,2.26-5.6,5.94-4.33,10.46,0.29,1,1.41,1.66,2.09,2.5,6.42,8,6,9.13-4.36,11.71-5.28-2.53-7-7.09-7.19-12.52-0.15-4-.05-8-1.37-11.88a18.45,18.45,0,0,1,.28-9.92c-0.85-13.56,10.76-25.25,6-39.44a1.54,1.54,0,0,1,0-1.08c4.64-11.11,12.53-20.37,17.7-31.18,5.49,7.2,3.43,16.45,6.61,24.28a7.65,7.65,0,0,1,.46,8.27c-5.74,9.67-2,18,2.84,26.42,0.37,4.8-.84,9.69.9,14.39" transform="translate(-688.65 -6295.89)"/><path class="cls-6" d="M1066.51,6366.33a119.12,119.12,0,0,1,33,44.11c-7.61,5.7-1.57,12-.79,18.1a9.61,9.61,0,0,1-.71,3c-2.37,5.38-7.58,4.56-12,5.71-6.73,1.74-6.46-3.89-9.32-7.2-8.55-9.89-13.54-21.13-16.8-33.44-5.26-13.55-3.68-20.72,6.65-30.24" transform="translate(-688.65 -6295.89)"/><path class="cls-7" d="M1013.7,6322.28c2.23,2.18,7.07,1.73,6.63,6.6,2.17,12.1-3.06,22.94-5.78,34.22-6.92.28-12.43-3.78-18.26-6.41-11.59-5.21-24.15-7.42-35.79-12.35a4.79,4.79,0,0,1,.2-4.49c3.57-1.59.52-8.84,6.87-8.11a14.23,14.23,0,0,1,8.08,3.44c1.57,1.54,2,5,5.6,3.34-1.28-1.79-4-.85-5.12-2.82-4.78-4.63-6.42-11.19-10.18-16.46,0.17-3.7,2.31-5.44,5.58-4,5.14,2.19,9.68.25,14.41-1,3.68-.25,7.16.69,10.61,1.77,13.89,4.36,16.3,10.18,10.15,24.3-3.4.85-4.52-1.45-5.31-4-0.61-2,.32-4.38-1.89-6-1.16-.83-1.71-2.35-3-3.16-4.07,16.11-4,16.21,8.33,14.58,8.18,1.75,4.9-4.46,5.24-7.83,0.42-4.15-3.39-9.49,3.61-11.57" transform="translate(-688.65 -6295.89)"/><path class="cls-8" d="M888.43,6298.33c3.49,1.33,7,2.82,10.55.23,7.21,11.11,7.64,22.16-.44,33-1.37,1.84,2.77,3.45-.05,5.1-4.11,2.91-8.81,3.65-13.68,3.83-3.61-.22-9.57.32-9.76-2.92-0.43-7.17-4.58-14.16-2-21.29,1.37-3.85,2.69-7.52,2.63-11.62,0.62-3,2.87-4.12,5.42-5,2.38-.83,5.12.13,7.37-1.41" transform="translate(-688.65 -6295.89)"/><path class="cls-9" d="M1050.55,6348.92c2.51,3.35,8.07,3.65,8.75,8.81,1.84,11.48-2.4,22.1-4.73,33-0.58,2.71-2.62,4.26-5.23,5-9.2-6.92-19-13.3-23.3-24.82,4.57-7.41,5.41-15.72,6-24.15,0.38-5.89,2.09-9.84,8.63-4.72,2.51,3.18,1.24,7.53,3,10.85,3.57,0.4,3.36-4.87,6.89-4" transform="translate(-688.65 -6295.89)"/><path class="cls-10" d="M1101.56,6544.79c1.29-2.92,9.07-5,.68-9.11-7.58-3.7-4-10.56-3.63-16.47,0.2-3.56,1.74-2.11,3.41-1.41,1.25,0.52,3.4,1.56,3.77,1.14,11-12.5,13.9,1.42,19.61,6,1.45,16.62-1.95,32.62-6.25,48.49-1.71-7.73-11.12-8.84-13.61-15.49-1.58-4.22-3.94-8.38-4-13.13" transform="translate(-688.65 -6295.89)"/><path class="cls-11" d="M1114.75,6439.13c-2.17,9.27-4.09,18.45-12.53,24.83-4.18,3.16-4.34,9.08-1.76,13,4.31,6.6,1.22,11.22-3,15.13-3.79,3.52-1.94,7.36-2.42,11.08-0.31,2.42,2.69,6.05-2.59,6.46-2.12,0-3.73-1.42-3.77-3.19-0.3-14.78-6.73-28.9-4.72-43.9,1.23-3.55,3.14-7.39,7.19-7.07,10.34,0.82,10.34-6.54,11.59-13.28,1.28-6.92-1.93-14.56,3.3-20.85,4.81,5,5.58,11.94,8.69,17.75" transform="translate(-688.65 -6295.89)"/><path class="cls-12" d="M918.83,6729.13l-11,.55c-5.48-.06-10.93.24-16.41-0.79-11.08-2.06-13.1-7-6.81-17.48,4.17-1.16,4.32,3.65,7.11,5-1-2.19-3-3.27-4.13-5.09a5.34,5.34,0,0,1,3.6-5.06c12,1.64,23.72-1.57,35.53-2.81,6.22,2.34,8.1,7.29,8,13.42-1.39,1.29-3.66,1.21-4.79,2.23-1.88,1.7-10.35-4.47-6,5,1,2.21-3.06,3.54-5.05,5" transform="translate(-688.65 -6295.89)"/><path class="cls-13" d="M1039.79,6342.14c-5.52-2.09-6.81.06-5.08,5.12,2.4,7-3.42,12.78-3,19.63,0.16,2.52-2.8,4-5.63,4.27-5.77.1-9.62-2.3-10.75-8.25-3.47-12.1,3.55-22.65,5-34,8.83-.27,13.22,7.27,19.65,11.21q1,0.79.59,1.43a1.08,1.08,0,0,1-.79.61" transform="translate(-688.65 -6295.89)"/><path class="cls-14" d="M1101.56,6544.79c0.88,3.52,5.77,4.2,5.21,9.6-0.35,3.4,2.59,9.7,9.42,7.86,4.4-1.18,2.78,2,2.28,3.51-0.9,2.75-2.5,5.33.67,7.65,0,3.6-.3,7.06-4.06,9a6.41,6.41,0,0,1-6.07,1.31c-5.55-2.38-4.66-7.41-5-12-3.67-7.38-8.35-6.24-13.46-1.64a4.92,4.92,0,0,1-2.87-.9,9.88,9.88,0,0,1-1.83-4.21c0.44-4.48-4.64-6.68-4.57-11,6.21-7,9.56-15,8.68-24.57-0.29-3.14,0-6.54,2.94-8.83,5,7.33-2.11,18.94,8.61,24.22" transform="translate(-688.65 -6295.89)"/><path class="cls-15" d="M881.37,6300.49l-4.4,4.27c-5.21,6.85-9.14,13.92-6.24,23.12,1.26,4-1.29,6.91-4.7,8.92a6.4,6.4,0,0,1-6-.51c-2.39-2.59-.38-5.6-0.77-8.4-1.17-8.49-4.29-2-6.7-.93-6.7,1.21-4.43-7.29-9.07-8.32-3-.27-4.8-2.35-6.76-4.24-1.49-2-2.51-4.2-1.55-6.8l2.09-1c1.79-2.32,4.75-.19,6.73-1.78,9.68-.71,18.73-5.24,28.6-4.8,3-.86,5.92-1.49,8.74.47" transform="translate(-688.65 -6295.89)"/><path class="cls-16" d="M857.18,6724.92c-7.46.39-13-5.15-19.82-6.56-1.59-4.58-7.06-3.25-9.65-6.32-1.35-3.43,0-6.32,1.83-9.1,9.49-6.76,19.67-1.51,29.54-1.72a12.28,12.28,0,0,1,2.84,1.13c2.64,2.38,6.16,3,9.23,4.53,5.64,5.28,7.73,10.9,1.62,17.29-5,3.27-10.6-3.76-15.6.76" transform="translate(-688.65 -6295.89)"/><path class="cls-17" d="M742.81,6650c-4.38-5.75-10.34-10.25-13.38-17.05-1.81-8.07,6.43-14.66,3.36-22.91a8.22,8.22,0,0,1,.85-2.86c3.19-4.79,1.1-10.62,3.05-15.65,2.94-3,.35-9.71,7-10.16a46.92,46.92,0,0,1,12.95,28.52c-5,3.59-7.64-1.81-11.29-2.86-1.44,11.46-2.9,22.9,3.7,33.59,2.24,3.63-.95,6-3.41,8.13a8.75,8.75,0,0,1-2.79,1.24" transform="translate(-688.65 -6295.89)"/><path class="cls-18" d="M835.2,6307.6l2.16,6c1.41,5.54-2.2,10.86-1.22,16.07,1.34,7.17-7.32,15.35,2.21,21.56-2.06,5.25-6.29,5.89-11.12,5.29-3.94-4.95-5.29-11.09-5.22-16.93,0.15-12.35.63-12.34-11.14-8-5.21-.09-9.76,5.35-15.36,1.86-1.86-.05-3.54-0.45-4.45-2.32,7.31-7.44,19.14-5.91,26.47-13.32,1.71-2.29,3.84-3.77,6.84-3.58,5,0,5.78-6.76,10.84-6.58" transform="translate(-688.65 -6295.89)"/><path class="cls-19" d="M784.47,6689.73c-4.57-3.32-11.28-4-13.16-10.64-1-2.36.13-3.9,2-5.15,3.48-1.89,5.24-4.63,4.22-9-0.21,4-.94,7.39-5.11,8.7-4,.08-7.2-2.15-5.49-5.82,4.12-8.88,4-18.36,5.56-27.61,0.25-1.49,1.49-2.44,2.71-3.28,6.74,2,9.63,7.88,13.25,13,0.42,5.75.59,11.35,3,17,3.29,7.53-1.91,14-4.76,20.55a13,13,0,0,1-2.24,2.25" transform="translate(-688.65 -6295.89)"/><path class="cls-20" d="M947.31,6301.18c4.29,1.77,8.21,4.79,13.27,4,0.25,2.45-4.4,3.19-.76,7.63,4.49,5.48-.27,13-2.17,19.25-1,3.42.65,9.9-6.25,10.2a20.56,20.56,0,0,1-12.24-3.23,4.48,4.48,0,0,1-1.46-2.7c1.83-8.86-4.72-18.95,3.87-26.78,0.68-.62.85-0.7,0.74-1.42-1-6.38-.93-6.38,5-7" transform="translate(-688.65 -6295.89)"/><path class="cls-21" d="M912.14,6297.89c5.2-2.62,10.37-2.79,15.48.25-1.9,5.36-1.16,11.14-2.6,16.57-1.14,3.18-3.58,5.48-5.6,8.06-3.78,4.86,1.44,4.06,3.34,5.38,2.57,2.46,5.06,4.94,1.87,8.63-6.21,2.71-12.56,2.19-18.94.82-6.69-7.62-4.05-15.44.28-22.71,1.58-2.65,3.18-3.33.6-6.8-4.4-5.9.2-8.67,5.57-10.21" transform="translate(-688.65 -6295.89)"/><path class="cls-22" d="M762.53,6349.69c0.95,3.76,3.65,7.91-2.26,10.14-5.28,2.47-6.08,11.78-14.49,9.44-0.66,10.57-17.31,12.85-13.39,25.82a1.39,1.39,0,0,1-.34,1c-10.58-1.14-5.3,11-11.44,13.63-4,1.71-2.86-2.49-4.38-3.62,8.93-24.13,25.12-42.31,46.3-56.39" transform="translate(-688.65 -6295.89)"/><path class="cls-23" d="M1108.2,6582.21l6.9,0.16c0.56,5.21-3.62,8.5-5.21,12.83-8.51,2-7.35,10.27-10.4,15.82-1,2.77.5,6.23-2.34,8.49-7-4.23-2.44-13.3-7.71-18.25,2.89-6.1-1.13-11.59-1.49-17.4-0.26-4.3-.72-8.77,1.88-12.72,4.16-.71,6.94-8,12.38-2.6,2.17,4.48-2.07,11.78,6,13.67" transform="translate(-688.65 -6295.89)"/><path class="cls-24" d="M1074.77,6652.63c-1.71,3.1-1.71,7.46-6.24,8.47-3.73-1.19-7.35-2.68-11.15-3.66a19.8,19.8,0,0,1-2.94-.85,11.16,11.16,0,0,1-4.92-3.83,26.36,26.36,0,0,1-3.23-7.34,126.23,126.23,0,0,0-3.75-12.65c-1.4-4.41-2.11-8.52,2.39-11.83,3.21-2.35,3.82-6,4.35-9.75,0.56-4,1.6-7.69,7-4.58,4,7.89.54,14.86-2.42,21.62,0.88-.68-1.4-0.39-0.23.5,9.15,7,9.15,7,8.1,10.36a11.58,11.58,0,0,1-3.7,2.06c-1.95.82-2.75,2.41-1.75,4.28,1.25,2.33,3.87,2.25,5.72,1.61,2.78-1-.5-3.6.78-5.28,2.75-5,4.62-1.47,6.65.65,1.86,3.36,4.48,6.32,5.39,10.19" transform="translate(-688.65 -6295.89)"/><path class="cls-25" d="M947.31,6301.18l-7.2,2.63c1.95,5.38,6.3-.25,9.13,3.51-14,4.4-9.42,15-7.78,24.25,0.59,3.35-.53,3.63-2.81,4-2.78,2.55-6,2.78-9.37,1.65a4.78,4.78,0,0,1-2.21-2.18c0.81-2.44,3-3.16,1.69-7.78-2.47-8.81-5.5-19.47,1.08-28.74l17.47,2.61" transform="translate(-688.65 -6295.89)"/><path class="cls-26" d="M714.1,6604.08c-3.33-1.13-3-3.68-2.46-6.32a12.21,12.21,0,0,1,1.26-4.17c1.88-3.29,2.54-7.93,8-7.41,1.78,1.12,2.16,3.82,3.92,4.49,3.67,1.4,2.45-1.14,1.87-2.94,6.29-6.82-.42-12.88-1.09-19.29,3.5-5,3.5-5,11.36,2.32,3.56,4.86,1.82,10.2,1.36,15.41-0.68,4.82-3.13,8.86-5.73,12.77-0.29,2.34,1.85,1.95,3,2.65,3,3.25.67,5.18-1.72,7.09h0c-1.49,5.5-4.46,8.87-10.74,7.53-4-3.31-2-11.13-9.06-12.12" transform="translate(-688.65 -6295.89)"/><path class="cls-27" d="M1106.06,6421.37c-0.65,10.15,1.44,20.49-2.2,30.42-1.79,4.88-2,12.16-10.44,5.81-3.42-2.57-4.76,1.92-6.88,3.51-3.43-1.78-4.27-4.83-4.12-8.36,1.35-4,1.75-9,8.18-7.28,3.48,0.93,3.33-1.92,3.63-3.82,0.62-3.9,1.26-7.76,3-11.37,6.47-2.35,2.15-10.08,6.69-13.39,2.2,0.77,2,2.72,2.19,4.48" transform="translate(-688.65 -6295.89)"/><path class="cls-28" d="M918.83,6729.13c-0.46-3.29,5.64-4.34,2.87-8.41-2.52-3.69-.39-4.23,2.77-4.19s6.54,0,9.81,0c6.11-6.64-.18-12.31-1.44-18.38a8,8,0,0,1,5.75-5.44c10.9,1.63,11.76,3.1,8.21,13.93-0.61,4.48-.81,9.11-4.36,12.57a6,6,0,0,1-2.52,1.47c-7.16,2.5-11.33,12.43-21.09,8.49" transform="translate(-688.65 -6295.89)"/><path class="cls-29" d="M1048.66,6395.19c6.58-9,6.36-20.08,8.78-30.33,0.57-2.39-.38-5.15,1.86-7.12l7.2,8.6c-4.15,7.08-8.5,14.06-6.81,22.94,0.41,2.13.23,4.34,2.25,5.79a12.7,12.7,0,0,1-1.06,9,6.4,6.4,0,0,1-3.72,2.79c-5.9-1.63-8.69-5.54-8.51-11.63" transform="translate(-688.65 -6295.89)"/><path class="cls-30" d="M984.92,6315.73c-4.15,3.85-8.26,6.6-13.8,1.89-2.76-2.35-3.37.43-3.86,2.54,0.2,4.41,3.31,8.83,0,13.23-5.21-.29.21,6.49-4.39,6.61-7-.15-5.67-4.39-4.48-8.81,2.29-8.52,5.3-16.95,4.56-26,9.7-1.55,17.54,4.27,26.26,6.59,0.89,3.78-3.23,2.2-4.24,4" transform="translate(-688.65 -6295.89)"/><path class="cls-31" d="M872.58,6723.16c3.11-5.69,1.22-10.67-2.2-15.42a4.36,4.36,0,0,1,3.6-3.3c5.55,0.57,11.59-1,16.2,3.68l-2.19,4h0c-6.63,1.4-4.4,6.54-3.95,10.39,0.54,4.56,4.47,4.69,8.22,5.09,5.19,0.54,10.82-2,15.52,2.07-9.6,5.28-19.06-1.37-28.61-.34-2.26-2-5.83-2.59-6.59-6.19" transform="translate(-688.65 -6295.89)"/><path class="cls-27" d="M775.62,6637.64c-3,10.44.09,22.12-6.9,31.9-1.21,1.69,2.62,2.63,4.73,3a1.27,1.27,0,0,1,.6,1.44,0.9,0.9,0,0,1-.54.74l-2.2,4.4c-3.74-3.6-9.61-5-11.05-11,0-.51.1-1,0.14-1.53,8-10.14,11.34-20.45,3.41-32.62-2.37-3.64-1.86-9.09,1.84-13,8.63,2.39,10.67,8.72,10,16.68" transform="translate(-688.65 -6295.89)"/><path class="cls-32" d="M1055.36,6654.94a12.75,12.75,0,0,1,2.14.06c2.53,2.89,6.63,3.61,9.08,6.6l-4.74,6.13c-1,1.56-2.53,1.67-4.15,1.54-12.49-5.56-19.59-2-22.74,11.27-1.07,1.8-1.5,4.84-4.74,2.46-2.83-4.38-1.84-9.31-2.05-14.07,0.1-3.48.23-7,2.56-9.88,7.29-6.8,16.18-4.18,24.64-4.12" transform="translate(-688.65 -6295.89)"/><path class="cls-33" d="M984.92,6315.73l4.24-4c9.88-.48,17.19,5,24.53,10.51-3.38,2.83-3.59,7-1.25,9.59,5.84,6.41-.42,12.31-2.63,14.84-4.19,4.78-4.81-1.06-5.14-4.51a1.35,1.35,0,0,1-.46-1.46,0.91,0.91,0,0,1,.51-0.71c5.35-14.57,3.54-18.39-10.45-22-3.1-.8-6.22-1.53-9.34-2.3" transform="translate(-688.65 -6295.89)"/><path class="cls-34" d="M912.14,6297.89c-5.33,4.49-5.39,6.31.12,9.72,2,1.26,2.43,4,1.32,4.3-12.56,3.95-7.37,15.38-10.19,23.37-1.43,1.45-2.89,1.44-4.38.09-0.79-.74-2.38-1.93-2.26-2.16,6.38-11.22,5.14-22.87,2.24-34.65l13.16-.68" transform="translate(-688.65 -6295.89)"/><path class="cls-35" d="M929.84,6298.57c-2.92,8.22,2.66,16.51-.37,24.85-1.53,4.21,4,5.47,5,9-1.92,2-5.75.4-7.11,3.57l-1.05.24-0.82-.71-4.35-6.52c-2.23-4.87-.21-9,2.15-13.16,1.91-5.78-4.38-13.59,4.39-17.66l2.22,0.43" transform="translate(-688.65 -6295.89)"/><path class="cls-36" d="M1074.77,6652.63c-3.26-2.07-6.08-4.45-6.24-8.74-1.53-3.82-3.14-7.62-1.48-11.82,1.19-1.86,2.48-2.29,4.34-.64,6.69,6,7.63,5.55,10.71-2.76,1.88-5.1-.16-11.15,4-15.61a2.47,2.47,0,0,1,3.07.38,17.78,17.78,0,0,1,1.43,15.13c-2.64,9.77-8.73,17.26-15.88,24.05" transform="translate(-688.65 -6295.89)"/><path class="cls-25" d="M962.9,6305.18c3.56,2.57,5.44,5.4,2.56,9.84-3.76,5.79-2.22,13.3-6.07,19.28-1.61,2.5,1,4.5,3.43,5.69l-2.36,2.31c-3.73,2.36-7.09,3.19-9-2.14,6.76-8.06,7.82-25.09,1.68-31.73l7.41-3.24h2.32" transform="translate(-688.65 -6295.89)"/><path class="cls-37" d="M694.2,6476.55l-3.51,0c3.5-12.91,7.48-25.72,10.33-38.78,1.54-7,3.77-13.3,8.6-18.59,4.11,7.28-6.09,11-4.39,17.7,0.21,14.3-3,27.63-11,39.63" transform="translate(-688.65 -6295.89)"/><path class="cls-38" d="M784.47,6689.73c0-.61.05-1.21,0.1-1.82a7.92,7.92,0,0,1,3.9-3.61c6.34-2.23,8.28-6.18,5.66-12.55-1.41-3.44-2.74-7.47,3.74-7,8.54,4.71,6.44,12.6,5.7,19.89-0.32,3.12-2.93,5.77-2.55,9.21-0.21,2.18-.93,4-3.3,4.66l-13.25-8.82" transform="translate(-688.65 -6295.89)"/><path class="cls-27" d="M742.81,6650a8.45,8.45,0,0,1,.56-1.88c4-.3,9.83-4.73,11.55.32,2.11,6.2,14.67,9.67,5.83,19.05l-0.5.68c-10-2-11.66-12.08-17.44-18.17" transform="translate(-688.65 -6295.89)"/><path class="cls-39" d="M722.87,6615.26c5,0,7.84-3.58,11-6.59,5.9,9.44-1.86,16.37-4.47,24.25-2.89-3.55-3.86-8.48-8-11.13,0.88-2.09-.57-4.69,1.44-6.53" transform="translate(-688.65 -6295.89)"/><path class="cls-40" d="M714.05,6595.41l-2.42,2.34c-8.31-10.31-9.72-23.18-13.05-35.33l2.25,0c4.8-1.22,6.45,2.42,8.48,5.49,0.78,6.89.62,14,4,20.34,0.41,2.38,1.77,4.68.7,7.2" transform="translate(-688.65 -6295.89)"/><path class="cls-41" d="M1103.87,6416.9c-0.7,5.23,2.76,12.53-6.69,13.39-0.26-3.43-2.72-5.85-4-8.74-2.41-5.64-4.11-12.15,6.29-11.11l4.36,6.46" transform="translate(-688.65 -6295.89)"/><path class="cls-42" d="M1090.65,6628.58c-1.38-5.09-2.87-10.16-2.3-15.54-3.14-4.49-1.66-8,2.3-11,3.12-1.34,4.75-.51,4.31,3.06-0.62,5,1,9.69,2.18,14.43,0.34,4.81-4.76,5.73-6.49,9.07" transform="translate(-688.65 -6295.89)"/><path class="cls-43" d="M1123.59,6496.36c-6.34-2.2-10.12-14.72-5.82-22.15,2.06-3.55,3.57-6.8,3.58-10.81q1.38,14.32,2.76,28.65c0.59,1.53.75,3-.53,4.31" transform="translate(-688.65 -6295.89)"/><path class="cls-44" d="M1039.79,6342.14c0.05-.69.12-1.36,0.2-2,3.87,2.53,8.58,4.06,10.57,8.83a36.07,36.07,0,0,0-1.84,4.8c-0.59,2.53-1,5.24-4.49,4.51-2.71-.57-4.21-2.47-4.24-5.39,0-3.57-.13-7.14-0.2-10.71" transform="translate(-688.65 -6295.89)"/><path class="cls-45" d="M1024.65,6692.58c-1.16,4.8-7.94,3.31-9.09,8.11-2.08,2.87-5.47,1.26-8.07,2.37-3.37.47-6.78,1-9.45-1.92,0-7.6,6.34-4.27,9.87-5.78,2.84,0,4.52-.74,2.22-3.81a4.72,4.72,0,0,1,1.38-2.42,11.6,11.6,0,0,1,8.29-1.88c1,2.33,5.43,1.55,4.85,5.34" transform="translate(-688.65 -6295.89)"/><path class="cls-46" d="M1024.65,6692.58c-0.77-2.28-5.64-.55-4.55-4.65-1.86-4.1.25-7.23,2.48-10.34,4.26-1.88,2.33-9.35,8.53-9.5q0.11,8,.22,15.95c0.39,2.69-1.08,4.43-3,5.92l-3.63,2.63" transform="translate(-688.65 -6295.89)"/><path class="cls-47" d="M722.87,6615.26c-0.12,2.25.71,4.72-1.44,6.53,1.06-7.35-9.36-10-7.33-17.71,8.64-2.2,8.64-2.2,8.77,11.18" transform="translate(-688.65 -6295.89)"/><path class="cls-48" d="M872.58,6723.16c2.66,1.57,6.33,2.07,6.59,6.19-8.06,2.13-14.35-4.53-22-4.43,4.13-9.36,10.47.62,15.4-1.76" transform="translate(-688.65 -6295.89)"/><path class="cls-49" d="M1099.48,6611c-2.57-6.78,1.06-11.88,4.65-16.94,2.63-3.72,4-.33,5.75,1.12l-1.91,6.23c-1.76,3.4-3,7.16-6.43,9.4-0.69,0-1.37.11-2.06,0.19" transform="translate(-688.65 -6295.89)"/><path class="cls-50" d="M826.27,6714.58l-4.34-2.44c-2.6-2.07-7-.29-8.81-4L804.4,6703c0.87-5.09,4.77-3.93,8.12-4,6.39,2.48,12.64,5.15,14.8,12.61a3,3,0,0,1-1,3" transform="translate(-688.65 -6295.89)"/><path class="cls-51" d="M813.11,6701.1c-3,.33-6.26-0.91-8.7,1.85-4.35,1.76-3.82-3.89-6.68-4.4l2.17-4,1.28-.58c3.69,0.68,7,2.52,10.52,3.64,1.21,0.87,2.17,1.84,1.42,3.5" transform="translate(-688.65 -6295.89)"/><path class="cls-52" d="M826.27,6714.58q0.07-1.19.14-2.38,1-1.64,2.11-.07c4.42,0,9.36-.77,8.84,6.23-3.18-2.75-8.14-.31-11.08-3.78" transform="translate(-688.65 -6295.89)"/><path class="cls-53" d="M1066.58,6661.61c-4-.89-8.26-1.36-9.08-6.6,4.54,0.47,8.44,2.09,11,6.11a3.6,3.6,0,0,1-1.94.5" transform="translate(-688.65 -6295.89)"/><path class="cls-54" d="M720.64,6465.52c10.8,6.24,13.11-7.25,20.54-9a1.55,1.55,0,0,0-.7-3c-2.06-.27-3.77-1.11-3.6-3.17,0.23-2.91,2.57-1.57,4.22-1.49a2,2,0,0,0,1-.21c2.14-1.19,2.09-3.46.81-4.57-4-3.42,6.79-8.6-1.73-11.44-5.26-1.75-12.91-6-11.93-10,1.93-7.78,7.53-15,17.79-14.45,0.76,1.69-.12,2.92-1.14,4.12-7.08,5.74-7.42,11.14.69,16.28a10.53,10.53,0,0,1,4.57,5.91,27.53,27.53,0,0,0,5.63,13.5c1.18,4.92-2.84,6.9-5.51,9.55-5.85,5.81-9.41,13.38-15.08,19.32-2.93,1.24-3.42-7.2-8.22-1.74-1.44,1.65-6.57-1.63-9.16-4.39-1.44-2.45-.49-4.1,1.79-5.29" transform="translate(-688.65 -6295.89)"/><path class="cls-55" d="M694.2,6476.55l11-39.63c6.63,6.72,2.73,18.23,11,24.2-2.43,3-6.44,4.35-8.21,8-4,3,.08,10.85-7.18,11.8v-5.84c-3.75-4.35-2.45,8-6.64,1.46" transform="translate(-688.65 -6295.89)"/><path class="cls-56" d="M756.89,6448.33c-7.91-1.54-7.53-7.72-7.63-13.63,1.63-8.63-5.29-15.69-4.42-24.19l2.24-2.24c2.84-1.27,2.75-6.47,7.56-5.45,1.14,4.66-3.73,10,1.23,14.27q0,3.3,0,6.6c3.92,6.74,2.86,14.66,5.2,21.78-0.3,2.56-1.58,3.69-4.19,2.86" transform="translate(-688.65 -6295.89)"/><path class="cls-57" d="M707.39,6467.69c0.37-5.65,4.1-6.79,8.84-6.57a7.59,7.59,0,0,1,4.41,4.4l-2.18,4.38-1.09.8a7.48,7.48,0,0,1-2.68-.06c-2.18-.51-4.44-0.76-6.43-1.91l-0.87-1" transform="translate(-688.65 -6295.89)"/><path class="cls-22" d="M760.29,6375.25q0,1.1,0,2.19c-3.67-.34-4.81-2.53-4-5.83,0.19-.73,1.59-1.86,2-1.69,2.57,0.94,1.68,3.39,2,5.33" transform="translate(-688.65 -6295.89)"/><path class="cls-58" d="M779.24,6349.5c16.07-.45,13.35,0,15.73,16.18,1.64,11.23-3.62,22.66,2.18,33.33,1.1,2,.16,5.15-2,5.56-6.14,1.13-1.11-3.72-1.54-3.86-3.46-1.09-5.48-5-10.47-3.5-9,2.61-13.8-3.3-10.52-12.34,1.35-3.7-.37-6.75-1.73-9.33-3.62-6.86-1.26-14.2-1.92-21.16-0.4-4.22,8.23-1.57,10.3-4.89" transform="translate(-688.65 -6295.89)"/><path class="cls-59" d="M809.4,6397.44c-1.52,2.24-2.28,5.11-5.15,6.24-2.88-7-2.91-14-2.64-21.66,0.47-13.53,3.57-27.91-6.07-40.28-1.35-1.73-.09-5.5,0-8.33,5.47-.3,9.59-5.31,15.41-4.41,10.05,4.19,10.73,14,13.24,22.58,0.57,2,.25,4.23,1.63,6-0.23,2.39-2.22,3.27-3.86,4.43-5.07.89-7.84-1.87-9.7-6.09-0.18-3.81,2.61-8-2.25-11.71-1.67,4.62.16,8.91,0.59,13.18-2,9.51-4,19-2,28.81,0.37,3.73-.72,7.56.82,11.21" transform="translate(-688.65 -6295.89)"/><path class="cls-2" d="M768.83,6439c-1.74,3.39-4.71,5.37-8,7-7.6-6.12-3.33-14.86-4.94-22.31,7.26,2.63,7,11.59,12.95,15.33" transform="translate(-688.65 -6295.89)"/><path class="cls-60" d="M707.43,6569a14.11,14.11,0,0,0-6.61-6.64c-0.09-5.82,3.66-9.73,6-14.39,7-14.07,16.64-28.24,12-46.19-1.62-6.24-7.06-4.14-9.17-7.65,2.3-3,6.49-2.22,9.1-4.61,8.62-3.08,11.38-.18,10,10.45-2.28,1.64-1.33,3.59-.45,5.55a8,8,0,0,1-.11,2.89c-1.48,4.09-3.59,8.37-2.31,12.61,3.5,11.62-.84,20.77-8,29.37-0.87,1-.93,2.71-1.44,4.07a24.15,24.15,0,0,1-1.21,2.83c-3.43,3.34-.92,10.63-7.75,11.7" transform="translate(-688.65 -6295.89)"/><path class="cls-57" d="M720.62,6491.92c-3.06,3.73-7.29,1.68-11,2.23-5.4-2.76-4.73-9.56-8.79-13.21,5.16-2.94-1.68-11.82,6.56-13.24l0.08,0.07c2.32,2.27,2.9,5.33,3.78,8.25,0.43,6.88,5.33,11.15,9.38,15.91" transform="translate(-688.65 -6295.89)"/><path class="cls-41" d="M1084.19,6452.28c-9.27-13.28-17.08-27.43-24.75-41.66,0.81-2.21-1-4.53.3-6.72a14.91,14.91,0,0,1,2.2-8.83c2.44,1.86,4.28,4.45,3.68,7.38-2.18,10.78,6.57,15.37,12,21.78,2.76,3.28,3.28,6.87,2.26,12.19,6.16-3.51,13-.35,17.32-6.13,0,4,0,8.06,0,12.09,0,6-.59,9.8-8,5-3.9-2.49-2.15,4.29-5,4.85" transform="translate(-688.65 -6295.89)"/><path class="cls-61" d="M1004.72,6340q0,1.09,0,2.17c-3.47.25-4.32,7.21-8.73,4-3.72-2.72-7-6.48-3.8-11.85a3.68,3.68,0,0,1,.44-1c3.88-3.07-7-10.25,2-10.49,7.9-.21,8.65,7.58,8.81,14.17,0,1,.85,2,1.31,3" transform="translate(-688.65 -6295.89)"/><path class="cls-62" d="M967.21,6333.39c-0.46-4.41-2.24-8.83,0-13.23,2.32,3.78,6,3.94,11.22,3.49-9.63,3.41-2.07,8-2.42,11.93h0c-3.22.37-6.08-.71-8.84-2.2" transform="translate(-688.65 -6295.89)"/><path class="cls-63" d="M976.06,6335.59l10.28-.52c-1.07,4.69-4.09,8.34-8,8.18s-3.78-4.35-2.25-7.65h0" transform="translate(-688.65 -6295.89)"/><path class="cls-64" d="M883.63,6337.85c-4.73,3.71-10.25,1.9-15.47,2.18-1.27-1.23-2.39-2.54-2.15-4.49,2.55-3.31,2.65-6.31,1.64-10.76-1.88-8.24-.47-16.48,9.32-20,0.65,2,2.49,5.12,1.75,6-5.93,7-.9,14.56-2,21.22-1.51,9.32,4.27,4.57,6.9,5.88" transform="translate(-688.65 -6295.89)"/><path class="cls-65" d="M1048,6368.45c-6.12-.11-8.4-2.56-10.13-7.54,4.93,0.94,7.88,2.7,10.13,7.54" transform="translate(-688.65 -6295.89)"/><path class="cls-66" d="M1120.14,6532.76c0,4-3.92,5.89-6.67,8.62-3.59-3.86-4.72-9.56-9.42-12.6,3.73-2.81,3.94-10.22,9.35-9.84,7.83,0.55,4.59,8.53,6.74,13.82" transform="translate(-688.65 -6295.89)"/><path class="cls-67" d="M926.92,6705.12l7.26-6.28c7.87,5.14,7.91,10.46.11,17.66-2.29-3.9-2.33-9.26-7.37-11.38" transform="translate(-688.65 -6295.89)"/><path class="cls-31" d="M888,6712.14c8.48,3.07,8.48,3.07,2,9.24-3-2.58-1.74-6.08-2-9.23h0Z" transform="translate(-688.65 -6295.89)"/><path class="cls-68" d="M1090.64,6602l-2.3,11-2.15,0-1.51-.4c-3.71-2.29-4.36-5.69-2.89-9.42,4.09-10.4,3.58-21.24,3.43-32.07,0.45-1.65,1.18-2.91,3.23-2.21,0.71,0,1.42,0,2.13,0,0.75,0.46,1,1,.79,1.46a1,1,0,0,1-.69.78c2.38,6.52-4.8,14.4,3.54,20.58,2.09,1.55-5.34,5.55-3.58,10.18" transform="translate(-688.65 -6295.89)"/><path class="cls-69" d="M1088.45,6569l-2.29,2.25c-4.89,3.72-9.57,3.66-14-.77-2-7.46,3.61-8.37,8.54-9.86a7,7,0,0,1,7.65,4q0.06,2.17.12,4.35" transform="translate(-688.65 -6295.89)"/><path class="cls-70" d="M1090.68,6571.25c0-.75-0.07-1.5-0.1-2.24,2.11-1.77-.8-8.19,4.66-6.23,4.13,1.48,11.16.66,10.74,8.43-2.46,1.25-3.21-.92-4.4-2.19-4.34-2.69-6.75,4-10.9,2.23" transform="translate(-688.65 -6295.89)"/><path class="cls-71" d="M1101.58,6569l4.4,2.19c1.64,3.49-1.06,7.85,2.22,11-13.22,1.12-7.57-7.22-6.62-13.2" transform="translate(-688.65 -6295.89)"/><path class="cls-72" d="M1088.33,6564.63l-6.53-2.26c-1.94-1.79-6.71,1.11-6.63-4l6.61-2.58c5.6,0.42,6.88,4,6.56,8.85" transform="translate(-688.65 -6295.89)"/><path class="cls-73" d="M846.54,6347.24c-2.36,2.77-5.59,3.69-9,4.26-7.41-2.79-5.95-7.9-5-14.2,1.25-8,.18-16.38,4.78-23.71,3.42-.35,4.31,3.07,6.57,4.42,4.67,9.41,4.06,19.29,2.61,29.24" transform="translate(-688.65 -6295.89)"/><path class="cls-74" d="M846.54,6347.24c-4.87-9.39-1.6-19.5-2.61-29.24,0.35-1.94-.66-4.91,2.13-5.28,2.4-.31,2.18,2.36,2.22,4,0.08,4-.08,8,4.42,10.09l1.14,1c1.9,4.69,2.13,9.8,3.7,14.57a19.35,19.35,0,0,1-11,4.81" transform="translate(-688.65 -6295.89)"/><path class="cls-75" d="M852.7,6326.84c0.78-3.53,1.07-7.46,5.56-8.43,0.68-.15,2.38,1,2.37,1.56-0.11,5.23,5.19,10.95-1.22,15.66l-1.38.48c-5.49-1-2.88-6.56-5.31-9.28h0Z" transform="translate(-688.65 -6295.89)"/><path class="cls-74" d="M866,6335.54c1.77,1,2.12,2.67,2.15,4.49l-8.82,2c-1.73-2.15-1.87-4.29,0-6.42v0l6.61-.09" transform="translate(-688.65 -6295.89)"/><path class="cls-76" d="M815.79,6678.85c4,6.43,11.42,7.85,17.09,11.82a5.57,5.57,0,0,1,2,3.8,8.39,8.39,0,0,1-.79,4.27,56,56,0,0,0-3.37,4.59l-2.24,8.8q-1.06,0-2.11.07c-2.76-5.7-8.78-7.51-13.3-11.1l-2.2-2.18c-6.28-8.62-4.47-16,4.89-20.08" transform="translate(-688.65 -6295.89)"/><path class="cls-52" d="M830.75,6703.33c0-1.82.4-3.46,2.17-4.4,2-2.31,5-2.81,7.6-4.06l1.36-.49c7,2.06,14,4.11,19.84,8.84-10.32,1.4-20.67-2.77-31,.12" transform="translate(-688.65 -6295.89)"/><path class="cls-77" d="M845.53,6715.08c3.12-3.36,4.85-9.26,10.36-5.88,2.24,1.37,2,5.14.68,7.11-4,6.06-7-3.21-11-1.23" transform="translate(-688.65 -6295.89)"/><path class="cls-78" d="M861.63,6703.2c3.6,1,7.73.17,10.85,3l-2.1,1.56c-3.47-.45-8.21,1.56-8.75-4.54" transform="translate(-688.65 -6295.89)"/><path class="cls-79" d="M759.92,6615.32l5,5.93c1.27,6.64,2,13.11,4.91,19.68,4.63,10.41.74,20-9.08,26.53,1.52-9.77-5.93-18.07-17.38-19.38,2.34-2.95,6.57-4.2,1.35-9.86-3.88-4.2-5.59-13.3-3.93-18.95,1.86-6.32,1.22-11.84.48-18l15,9.23h0c-2.8,4.64-.57,5.48,3.64,4.83" transform="translate(-688.65 -6295.89)"/><path class="cls-80" d="M735.5,6551.38c2.14,10.34,2.86,21,7.19,30.83-3.87,1.73,1.26,8-4.4,8.81-1.63-1-.7-3.32-2.22-4.38q0-7.7,0-15.4c-4.07-2.31-4.64-6.3-5-10.39,1.55-3.11-4.22-9.76,4.5-9.46" transform="translate(-688.65 -6295.89)"/><path class="cls-39" d="M736.06,6586.63c1.77,0.94,2.15,2.58,2.22,4.38-1.91,5.78,4.38,13.6-4.4,17.66,0.52-2.21,3.49-4.43,0-6.64-1.81-.1-3.44-0.53-4.39-2.28,0.82-5.06,7.09-7.39,6.58-13.13" transform="translate(-688.65 -6295.89)"/><path class="cls-73" d="M825.79,6357.61c-6.35-.84-3.4-6.13-4.54-9.47-2.38-6.95-6.15-13.16-10.32-19.15,3.33,0.2,4.53-3.56,7.38-4.07,4.37-.77,9.25-0.1,7.76,5.49-2.33,8.71,1.92,16.93.42,25.38a2.22,2.22,0,0,1-.69,1.82" transform="translate(-688.65 -6295.89)"/><path class="cls-81" d="M786.72,6650.49l13.09,11.25c1,2.27-.2,3.39-2.12,4.16-6.27,1.51-.92,4.16-0.41,6,1.87,6.73,3.67,13.1-6.55,14.27a39,39,0,0,0-6.18,1.74c9-12,.77-25,2.16-37.43" transform="translate(-688.65 -6295.89)"/><path class="cls-82" d="M773.5,6674.7q0-1.09-.05-2.18c3.53-3.84-1.23-10.92,6.31-14.43-0.6,6.81,4.22,14.25-6.26,16.6" transform="translate(-688.65 -6295.89)"/><path class="cls-35" d="M938.65,6337.43c-3.83-.22-8,1.75-11.36-1.54l11.36-.28c0,0.61,0,1.21,0,1.81" transform="translate(-688.65 -6295.89)"/><path class="cls-83" d="M923.23,6315.79c0.06,4.52.38,9.07-2.15,13.16-2.55-.42-5.63,2.9-7.64-0.64-1.76-3.09,2-4,3.12-6a14.22,14.22,0,0,1,6.67-6.55" transform="translate(-688.65 -6295.89)"/><path class="cls-84" d="M1042.17,6569.18c4.21-2.39,7.59-6.57,13.13-6.13,1,3.72-1.11,6.09-3.55,8.33-3.48,2.14-4.62,5.25-4.23,9.25,0.45,4.69,1.74,9.82-6.4,9.05-3.72-.35-3.13,3.76-2.65,5.87,2.27,9.84,3.72,19.39,2.44,29.81-0.86,7,3.31,14.49,7.83,20.72l2.25,6.58c-1.35,1.36-3.46,2.26-4.78,1.39-7.05-4.66-9.78.62-12.91,5.22-3.16,2.34-1.89,5.77-2.19,8.82-3.75,2.75-.84,9.48-6.61,11-2.72-2.77-2.7-6.1-2-9.57a42.81,42.81,0,0,0,3.52-23.34c-0.53-4.91-1.55-9.5-7.88-9.77a5.76,5.76,0,0,1-2.81-1.19c-1.25-5.56,1.4-10.23,3.42-15a5.91,5.91,0,0,1,2.43-1.92c3.45-1.13,6,.71,8.45,2.94,1.12-13.36-6.24-27,2.87-39.48,4.78-3,7.14-7.83,9.68-12.54" transform="translate(-688.65 -6295.89)"/><path class="cls-85" d="M1048.74,6646.08c-9.77-7.94-13.12-17.86-9.42-30,1-3.2,1.38-6.76-.82-9.41-3.41-4.11-2.65-8.78-3-13.43-0.71-8.4,2.67-9.37,10-4.81,0.13-7.27-5.23-16,5.5-19.32,3.75,4.61,5,11.13,3,15.35-3.47,7.56-.3,13,2.25,19.16a4.33,4.33,0,0,1-1,2.85c-3.41.3-4.07,1.89-3.21,5.2,0.48,1.86.11,5.2-1.13,6.07-12.45,8.69-2.17,18.92-2.24,28.39" transform="translate(-688.65 -6295.89)"/><path class="cls-86" d="M1055.32,6606.42c0-.72,0-1.44,0-2.16a8.9,8.9,0,0,1,.39-9.26c5.48,2.9,4.48,8.32,6.34,12.27,0.24,0.52,0,2,.84,1.39,0.55-.4.55-1.93,1.47-2.65,8.33,7.05,5.11,16.06,4.18,24.67q0,6.61,0,13.21c-2,.29-1.4-4.5-4.39-2.22-2.42,1.16-3.55-.27-4.41-2.21,2.67-9,2.67-9.15-4.78-9.25-3.46,0-1.71-2.44-1.69-3.47,0.14-6.82,3.22-13.35,2.06-20.33" transform="translate(-688.65 -6295.89)"/><path class="cls-53" d="M1033.3,6659.27c1.19-7.5.63-17.87,12.52-7.3,1.08,1,3.42.49,5.17,0.69l4.37,2.28c-1.63,5.85-7.56-1.54-9.58,3.12-4.65-4.63-8.26,1.42-12.48,1.21" transform="translate(-688.65 -6295.89)"/><path class="cls-87" d="M1059.73,6639.47l4.41,2.21c1.79,7,1.18,6-1.66,7.78-6.76,4.23-9,1.36-10.07-4.94-1.24-7.07,3.29-5.67,7.32-5" transform="translate(-688.65 -6295.89)"/><path class="cls-88" d="M733.76,6560.24c-0.1,3.84.26,7.58,2.25,11a7.58,7.58,0,0,1-6.18-3.49c-2.39-3.18-2.18-.1-2.59,1.28-3.42,6.38.46,13.4-1.75,19.89-2.57,1.33-3.61-.67-4.83-2.24-4.68,1-3.46,6.55-6.62,8.75l-2.2-6.56c-1.6-3.65-1.78-7.5-1.65-11.4,6.63-2.89,7.93-8.89,9.2-15.16,0.7-3.45,2.19-7.1,6.35-7.86,4.46-.82,6.16,2.73,8,5.81" transform="translate(-688.65 -6295.89)"/><path class="cls-89" d="M725.09,6588.75c-1-6.77-6-14,2.16-19.74,2.46,6.59,12,13.21-.11,19.72a1.32,1.32,0,0,1-2,0" transform="translate(-688.65 -6295.89)"/><path class="cls-90" d="M725.09,6588.75c0.69,0,1.37,0,2,0,1.17,3.05,1.17,3.05-3.33,8l-3.14-10.07Z" transform="translate(-688.65 -6295.89)"/><path class="cls-91" d="M729.47,6599.76c1.79,0.13,3.44.53,4.39,2.28-1.46,1.94-3.34,2.91-5.32,1.11-1.28-1.16-.33-2.5.93-3.39" transform="translate(-688.65 -6295.89)"/><path class="cls-92" d="M971.68,6648.48l2.22,0c5.49,2.89,11.64-6.52,16.89.89,4.55,9.36,6,19.31,5.61,29.63-0.21,4.84-.64,9.63-6.07,11.71s-7.61-2.58-10.57-5.56c-2-2-3.13-4.93-6.15-6.24-6.32,5.94-7.9,15.44-15.27,20.57-3.61,2.89-5.48,7.13-8.25,10.68-3,1.45-4.7-1.29-6.95-2.23,1.9-5.63,9.46-13.17-4.55-13.41l4.51-6.58c7.29-7.41,12.35-17.36,24-19.77,3.63-.75,3.65-4.72,3.57-8.19-0.09-3.83-1.86-7.89,1-11.48" transform="translate(-688.65 -6295.89)"/><path class="cls-93" d="M943.16,6707.9l6.47,2a3.32,3.32,0,0,1,4.21-.57c1.78,2.59-.16,3.66-2,4.78-4.11.51-6.12,6-11,4.65,1.2-3.54,4.89-6.55,2.3-10.89" transform="translate(-688.65 -6295.89)"/><path class="cls-6" d="M1059.74,6403.89c0.76,2.28,3.47,4.65-.3,6.72-2-.58-2.16-2.21-2.25-3.89l2.55-2.83" transform="translate(-688.65 -6295.89)"/><path class="cls-94" d="M1057.73,6668.79l-4.57,3.75c-7.52-.39-12.57,6.08-19.59,7.06,0.07-4.81-2.36-10.83,4.93-12.51,6.49-1.51,13.91-10.8,19.23,1.7" transform="translate(-688.65 -6295.89)"/><path class="cls-68" d="M1068.55,6630.68c-4.41-7.59.83-16.89-4.31-24.35-4.5-10.78-8.51-21.57-6-33.68,1.11-5.32,3.2-9.64,8.08-12.32,2.72-1.66,5.47-3.21,8.84-2l6.64,4c-2.76,2.47-8.51,1-8.85,6.64-3.63,18.35-.83,36.28,3.55,54.74,4.55-2.71,1.76-11.81,9.62-10.72l0.06,0c-0.35,5.05.71,10.17-1,15.16-1.9,5.47-2.84,12.17-10,12.83-7.65.7-1.93-8.42-6.62-10.38" transform="translate(-688.65 -6295.89)"/><path class="cls-51" d="M797.7,6665.9l2.12-4.16c4.89,3.9,9.84,7.75,13.26,13.13-4.78,6.27-5.89,15-13.12,19.63l-0.06,0c-2.65-2-2.35-4.34-.74-6.71,5.28-7.72,2.57-14.85-1.46-21.93" transform="translate(-688.65 -6295.89)"/><path class="cls-95" d="M711.85,6575.64q0,6.6,0,13.2c-4.67-5.9-5.23-12.71-4.42-19.83,3.8-3.6,1.49-10.26,6.61-13.2,3.75,7.1,5.21,14-2.19,19.83" transform="translate(-688.65 -6295.89)"/><path class="cls-96" d="M1015.71,6635.07h2.21a7.14,7.14,0,0,1,1.81,2.73,13.19,13.19,0,0,1-.15,6.58c-1.43,5.31-2.72,10.65-4.28,15.93-4.9,9.45-1.18,20.05-4,29.78,0,0.75,0,1.5,0,2.24-5.33,3-7.43.11-8-3.77-3.57,5.79,6.73,3,5.84,8.13-2.81,4.71-7.73-.86-10.87,2.23a7.24,7.24,0,0,1-3.76-5.25c1.27-8.56,2.85-17.09,3-25.77,0.11-4.87,1.12-9.37,4.48-13.08,3.65-3.94,7-8.06,7.41-13.75a11.06,11.06,0,0,1,1.28-2.75,7.53,7.53,0,0,1,5-3.26" transform="translate(-688.65 -6295.89)"/><path class="cls-97" d="M995.87,6694.54c1.77,0.93,2.16,2.61,2.36,4.4,2.3,3.27,5.82,1.85,8.86,2.31-4.11,4.56-9.71,4.24-15.1,4.63-4.72,1.06-7.32-2.78-10.29-5-4.94-3.7-7.1-.9-9.37,2.82-5.33,1.11-10.39,2.73-14,7.18a3.75,3.75,0,0,1-4.24-.91l-4.42,0c-0.51-5.3,2.13-8.71,6.63-11,8-.42,8.91-7.82,12-12.67,4-6.18,7.84-9,10.77-.24,3.07,9.14,12.34,3.58,16.79,8.51" transform="translate(-688.65 -6295.89)"/><path class="cls-98" d="M1011.31,6690.1c-3.37-10.56-3.34-20.89,2.18-30.82,5,4.69.21,10.68,2.12,15.72,1.53,2.5,2.4,1.45,3.14-.59,0.94-2.54,1.51-5.33,4.33-6.65l1.45,0.38q0,5.48,0,11l-4.4,8.82c-2.75,1.46-5.58,2.58-8.79,2.18" transform="translate(-688.65 -6295.89)"/><path class="cls-99" d="M1009.1,6696.7c-8.44-4.11-9-6.6-3.8-16.54,3.92,3.16-5.75,13.07,6,12.18,1.14,2.39,1.72,4.51-2.19,4.36" transform="translate(-688.65 -6295.89)"/><path class="cls-100" d="M954.05,6710l4.38,0c2.4-6.23,9.12-3.79,13.23-6.6,0.76-8.75,3.51-12.21,11.16-4.58,2.72,2.71,6.09,4.77,9.17,7.13q-0.34.85-.64,1.71c-13.37.91-26,6.38-39.47,6.56Z" transform="translate(-688.65 -6295.89)"/><path class="cls-101" d="M800,6694.49c4.77-6.28,3-16.95,13.12-19.63l2.72,4c-6.46,5.52-7.46,12.36-4.89,20.07-4.61.91-7.53-2.37-10.95-4.43" transform="translate(-688.65 -6295.89)"/><path class="cls-102" d="M744.83,6410.51c5.87,6.57,5.49,15.38,8,23.14,1,3-2.18,1.08-3.56,1-1.18-1.29-2.16-2.89-3.58-3.84-11.78-7.86-12-11.61-.84-20.35" transform="translate(-688.65 -6295.89)"/><path class="cls-57" d="M735.89,6476.51q-1.19,7.68-2.38,15.36c-9.45-4.29-15.78-13.47-15.1-21.92l0,0c5.33,3.46,12.95.91,17.43,6.61" transform="translate(-688.65 -6295.89)"/><path class="cls-103" d="M718.42,6469.94c2.78,8.86,9.73,14.84,15.1,21.92q0.32,25.28.64,50.55l-1.65.62c-8.44-10.91-9-23-5.28-35.7q0-1.08,0-2.17c-1.22-1.48-1.36-3,0-4.45,1.73-4.86-.9-8.3-3.8-11.66l-2.81,2.85c-8.16-1.9-11.55-7.22-11-15.36,3.54-.9,4.38-4.5,6.66-6.65l2.16,0" transform="translate(-688.65 -6295.89)"/><path class="cls-104" d="M716.26,6469.91c-0.7,3.26,1.75,7.44-1.8,9.69-2.09,1.33-2.93-2.4-4.85-3-3.2-2.33-1.92-5.75-2.14-8.8,3.05,0.22,6.46-1,8.8,2.15" transform="translate(-688.65 -6295.89)"/><path class="cls-105" d="M995.89,6635.16c22.48-14.41,16.25-35.8,13.73-56.37l8.12,0.82a5.6,5.6,0,0,1,2,4.13c1.17,8.69,2.82,17.32,3.62,26.08,0.37,4-.11,7.22-3.26,9.82h0c-2.88,5.19-4,11.25-8.06,15.88-3.49,4.29-6.34,8.83-7.21,14.47-0.52,3.39-2,6.35-6,6.75-4.26.42-6.91-1.59-8-5.7,1.06-5.49,3.11-10.68,5.1-15.87" transform="translate(-688.65 -6295.89)"/><path class="cls-106" d="M1066.33,6560.34c-5.86,10.52-8.55,21.16-3.45,33,1.63,3.81,1,8.61,1.35,12.95v8.13c-4.18-6.2-8-10.51-6.42-17.71-3.59,2.67-2,5.32-2.49,7.51-14.15-8.07-.39-20.21-4.28-29.83-0.63-1.55-.07-3.57-0.05-5.38l4.31-6c3.61-1.17,6.79-4.12,11-2.71" transform="translate(-688.65 -6295.89)"/><path class="cls-107" d="M813.18,6355.45l8.75,6.6c-0.32,11.71-.24,23.53-9.11,32.87-5.07-.37-4-4.1-3.39-7,0.64-3.07,2.34-6,.66-9.27-0.23-1.34-2.47.22-1-.08a0.52,0.52,0,0,1,.72.32c1.61,3.66,2,6.73-3.26,7.34-2.88-9.83-1.75-19.34,2.21-28.64,1-1.75,2.08-3.27,4.46-2.16" transform="translate(-688.65 -6295.89)"/><path class="cls-108" d="M971.68,6648.48c0.82,4.84,1.11,9.85,2.6,14.47,1.36,4.18-1.56,6-3.72,6.54-11.44,2.91-17.52,13.5-27.45,18.43,5.78-13.84,18.24-23.9,21.7-39.16,1.07-4.7,4.54.43,6.87-.28" transform="translate(-688.65 -6295.89)"/><path class="cls-109" d="M711.85,6575.64c4-6.25,2.52-13.1,2.19-19.83h0c2.56-10.18,13.22-8.27,19.43-13l0.68-.37c1.8,2.79,1.16,5.93,1.34,9-5.5,2,.12,6.16-1.74,8.86-9.34-6.18-10.73-5.84-11.92,5.11-0.61,5.61-6.86,9.17-3.32,17.49l-6.67-7.19" transform="translate(-688.65 -6295.89)"/><path class="cls-110" d="M1017.91,6584.42c-0.06-1.61-.11-3.2-0.17-4.81,10.05,1,16-7.52,24.43-10.43,0.62,6.77-.28,12.5-8.84,13-4.81,3-8.5,14-15.42,2.19" transform="translate(-688.65 -6295.89)"/><path class="cls-108" d="M995.89,6635.16c-0.78,5.31,2.46,11.77-4.4,15.32-0.73,1.08-1.47,1-2.2,0-4.38-6.33-10.87,3.32-15.37-2,8.36-2.72,14.48-9.16,22-13.3" transform="translate(-688.65 -6295.89)"/><path class="cls-111" d="M806.52,6386.25c4-2.89,1-7.71,3.22-11.85,4.57,2.8,3.61,6.77,2.76,10.34s-3.05,6.86.32,10.17a3.36,3.36,0,0,1-3.42,2.53c-8.9-1.69-.78-7.76-2.88-11.19" transform="translate(-688.65 -6295.89)"/><path class="cls-17" d="M759.92,6615.32c-2.44,1.08-1.16,6.08-4.17,5.26-2.13-.58-4.45-3.8-5-6.22-0.86-4,5.08-.38,5.5-3.86a6.28,6.28,0,0,1,3.64,4.83" transform="translate(-688.65 -6295.89)"/><path class="cls-15" d="M859.39,6335.65q0,3.21,0,6.42l-0.84.47-1-.11c-7.11-3.5-4.09-10.12-4.82-15.6,3.25,2.16,2.08,7.67,6.67,8.82" transform="translate(-688.65 -6295.89)"/><path class="cls-52" d="M833,6694.52l-0.07-3.86c3.7-.47,6.47,1.32,9,3.71l-0.42.4c-2.9,2.18-5.74,2-8.51-.25" transform="translate(-688.65 -6295.89)"/><path class="cls-112" d="M813.18,6355.45l-4.46,2.16c-0.74-2.42-2-4.81-2.11-7.26-0.19-3.53-1.2-7.42,1.62-10.5a1.94,1.94,0,0,1,3.48.65c1.39,4.05,7.94,6.73,3.45,12.4-0.67.84-1.32,1.7-2,2.54" transform="translate(-688.65 -6295.89)"/><path class="cls-113" d="M733.47,6542.79c-3.27,5.1-3.36,4.47-12,5.72-2.23.32-1.8,7.72-7.41,7.29,1-7.32,3.24-13.81,9.39-18.79,3.22-2.61,1.26-6.68.42-10.25-1.62-6.88-2.5-13.78,3.37-19.41,0.23,12.14-1.63,24.65,6.24,35.45" transform="translate(-688.65 -6295.89)"/><path class="cls-113" d="M727.23,6500.72q0,2.23,0,4.45c-2.07-1.5-5.08-2.24-4.74-5.73Z" transform="translate(-688.65 -6295.89)"/><path class="cls-114" d="M1086.13,6613c-5.81,2.37-3.44,8.16-5.17,12.24-0.8,1.89-1.35,4.55-4.11,4.35-2.53-.18-3.42-2.34-3.74-4.61-2.51-17.51-5.63-35-4.64-52.8,0.2-3.55,1.18-4.65,4.49-3.2,3.86,4,8.8,1.48,13.2,2.21,4,10.57,2.34,21.07-1.55,31.05-1.76,4.51-.94,7.45,1.53,10.76" transform="translate(-688.65 -6295.89)"/><path class="cls-16" d="M833,6694.52l8.52,0.25c-0.59,6-5.33,3.53-8.55,4.16q0-2.2,0-4.4" transform="translate(-688.65 -6295.89)"/><path class="cls-115" d="M1017.91,6584.42c6.26,7.18,10.29-1.38,15.42-2.19-5.17,6.75,2.72,15.72-3.78,22.26-1.4,1.41.08,1.69,1,1.87,8,1.6,4.41,5.54,1.8,9.14-2.73,3.76.52,7.55-.12,12.27-3.86-3.8-5.85-9.53-12.09-8.13,1.43-8.4-.16-16.62-1.35-24.88-0.49-3.41-2.75-6.72-.84-10.33" transform="translate(-688.65 -6295.89)"/><path class="cls-116" d="M1018,6637.31q0-1.12,0-2.23c2.07-1.12,3.21-5.11,6.55-.56,5.85,8,6.35,23.79.08,33.63l-0.06-.08a10.79,10.79,0,0,1-2.75-11.22c2.54-7.49-.29-13.47-3.78-19.54" transform="translate(-688.65 -6295.89)"/><path class="cls-115" d="M1011.32,6632.88c2.32-4.2,6.54-7.51,5.26-13.39-0.29-1.32,2.27,0,3.51.15,0.1,5.58-2.36,10.45-4.38,15.44a7.47,7.47,0,0,1-4.42,4.39c-1.71-2.2-1.44-4.39,0-6.58" transform="translate(-688.65 -6295.89)"/><path class="cls-117" d="M1011.32,6632.88q0,3.29,0,6.58h0c-3.17,4.72-4.34,10.3-6.58,15.42-7.78,7.49-3.24,17.85-5.71,26.69a93.43,93.43,0,0,0-3.13,13c-9.21-.07-18.79.55-21.31-15.2-2.3,8.16-7.28,11-8.73,16.68-1.18,4.66-5.2,5.74-9.56,2.91,5-7,10.08-13.8,13.52-21.82,1.59-3.72,4.68-5.42,7.68,0,2.74,5,6.44,12.42,12,11,7.86-2,3.48-10.64,4-16.35,0.71-7.38-3-14.16-4.26-21.31h2.2c1.62,3.4,4.32,5,8,4,3.86-1,3-4.53,3-7.28,0.09-6.61,5.64-9.74,8.86-14.35" transform="translate(-688.65 -6295.89)"/><path class="cls-118" d="M1018,6637.31c6,4.56,10.7,9.57,6.49,17.85-2.17,4.29,1.06,8.6,0,12.91-1.32,2.8-3.33,5.47-3.83,8.41-1.92,11.31-4.61,3.36-7.15.43-0.44-11.26,3.58-21.93,4.39-33q0-3.27.06-6.56" transform="translate(-688.65 -6295.89)"/><path class="cls-116" d="M1017.9,6643.87c3.59,11.69-3.59,21.94-4.39,33-4.41-5.87,2.17-11.75,0-17.63,0.44-5.43,1.46-10.69,4.4-15.41" transform="translate(-688.65 -6295.89)"/><path class="cls-115" d="M1004.71,6654.89c-0.36-6.23-.38-12.31,6.58-15.42,1.16,6.57-1.38,11.56-6.58,15.42" transform="translate(-688.65 -6295.89)"/><path class="cls-93" d="M971.66,6703.32c-2.45,6.13-9.55,2.93-13.23,6.6,1.36-8.31,7.09-7.86,13.23-6.6" transform="translate(-688.65 -6295.89)"/></g></g></g></svg>