<svg xmlns="http://www.w3.org/2000/svg" viewBox="0 0 455.09 465.98"><defs><style>.cls-1{isolation:isolate;}.cls-2{fill:#a45672;}.cls-10,.cls-100,.cls-101,.cls-102,.cls-103,.cls-104,.cls-11,.cls-12,.cls-13,.cls-14,.cls-15,.cls-16,.cls-17,.cls-18,.cls-19,.cls-2,.cls-20,.cls-21,.cls-22,.cls-23,.cls-24,.cls-25,.cls-26,.cls-27,.cls-28,.cls-29,.cls-3,.cls-30,.cls-31,.cls-32,.cls-33,.cls-34,.cls-35,.cls-36,.cls-37,.cls-38,.cls-39,.cls-4,.cls-40,.cls-41,.cls-42,.cls-43,.cls-44,.cls-45,.cls-46,.cls-47,.cls-48,.cls-49,.cls-5,.cls-50,.cls-51,.cls-52,.cls-53,.cls-54,.cls-55,.cls-56,.cls-57,.cls-58,.cls-59,.cls-6,.cls-60,.cls-61,.cls-62,.cls-63,.cls-64,.cls-65,.cls-66,.cls-67,.cls-68,.cls-69,.cls-7,.cls-70,.cls-71,.cls-72,.cls-73,.cls-74,.cls-75,.cls-76,.cls-77,.cls-78,.cls-79,.cls-8,.cls-80,.cls-81,.cls-82,.cls-83,.cls-84,.cls-85,.cls-86,.cls-87,.cls-88,.cls-89,.cls-9,.cls-90,.cls-91,.cls-92,.cls-93,.cls-94,.cls-95,.cls-96,.cls-97,.cls-98,.cls-99{fill-rule:evenodd;mix-blend-mode:darken;}.cls-3{fill:#a25a77;}.cls-4{fill:#a25976;}.cls-5{fill:#c799a8;}.cls-6{fill:#a75c78;}.cls-7{fill:#9e5773;}.cls-8{fill:#9e546d;}.cls-9{fill:#b17088;}.cls-10{fill:#b16c84;}.cls-11{fill:#caa2af;}.cls-12{fill:#a45c77;}.cls-13{fill:#a25c77;}.cls-14{fill:#9f516b;}.cls-15{fill:#ac6a82;}.cls-16{fill:#9d506c;}.cls-17{fill:#b5778e;}.cls-18{fill:#b37089;}.cls-19{fill:#a8647e;}.cls-20{fill:#7a384a;}.cls-21{fill:#974e6a;}.cls-22{fill:#7b3146;}.cls-23{fill:#aa6b7f;}.cls-24{fill:#ac697f;}.cls-25{fill:#aa617b;}.cls-26{fill:#a65f77;}.cls-27{fill:#c797a6;}.cls-28{fill:#792f40;}.cls-29{fill:#90495f;}.cls-30{fill:#a35b71;}.cls-31{fill:#b77a8f;}.cls-32{fill:#caa1ac;}.cls-33{fill:#b0778b;}.cls-34{fill:#ba7b8e;}.cls-35{fill:#7a223e;}.cls-36{fill:#ac6b85;}.cls-37{fill:#b16d87;}.cls-38{fill:#a16b7d;}.cls-39{fill:#945f6f;}.cls-40{fill:#895062;}.cls-41{fill:#9a6473;}.cls-42{fill:#8e5a69;}.cls-43{fill:#9f6d7b;}.cls-44{fill:#c291a1;}.cls-45{fill:#95445b;}.cls-46{fill:#998086;}.cls-47{fill:#956c76;}.cls-48{fill:#bd8e9f;}.cls-49{fill:#914b62;}.cls-50{fill:#a85d7b;}.cls-51{fill:#a35778;}.cls-52{fill:#aa627f;}.cls-53{fill:#ac6d87;}.cls-54{fill:#ac6380;}.cls-55{fill:#ae7489;}.cls-56{fill:#af6a85;}.cls-57{fill:#a65f7a;}.cls-58{fill:#a05a77;}.cls-59{fill:#a25873;}.cls-60{fill:#9b4966;}.cls-61{fill:#a95f7c;}.cls-62{fill:#934968;}.cls-63{fill:#eeb2c5;}.cls-64{fill:#994d66;}.cls-65{fill:#a55674;}.cls-66{fill:#ac6581;}.cls-67{fill:#994c6b;}.cls-68{fill:#b27b8e;}.cls-69{fill:#a65977;}.cls-70{fill:#a05371;}.cls-71{fill:#b26e87;}.cls-72{fill:#a15774;}.cls-73{fill:#ad5f7c;}.cls-74{fill:#a4647d;}.cls-75{fill:#af798b;}.cls-76{fill:#98435d;}.cls-77{fill:#a45a76;}.cls-78{fill:#732235;}.cls-79{fill:#9f5470;}.cls-80{fill:#6e1e31;}.cls-81{fill:#fbecf2;}.cls-82{fill:#5b1e2c;}.cls-83{fill:#9b6b75;}.cls-84{fill:#a05773;}.cls-85{fill:#b66c84;}.cls-86{fill:#a75b76;}.cls-87{fill:#a65c79;}.cls-88{fill:#ad6581;}.cls-89{fill:#d892a9;}.cls-90{fill:#b0788d;}.cls-91{fill:#b17587;}.cls-92{fill:#b2778d;}.cls-93{fill:#ddddda;}.cls-94{fill:#efecec;}.cls-95{fill:#9a576e;}.cls-96{fill:#ab848e;}.cls-97{fill:#d5d1d1;}.cls-98{fill:#884053;}.cls-99{fill:#b16b85;}.cls-100{fill:#9d5271;}.cls-101{fill:#904867;}.cls-102{fill:#a55b78;}.cls-103{fill:#a75d79;}.cls-104{fill:#9f5574;}</style></defs><title>tache3</title><g class="cls-1"><g id="taches_vin" data-name="taches vin"><g id="tache_3" data-name="tache 3"><path class="cls-2" d="M508.89,6401l2.56,2.55c3.42,4.08,4.75,9.15,6.64,14,3.77,13,8.37,25.79,11.07,39,2.38,11.64,4,23.64,2.49,35.69-0.55,10.37-9.27,16.29-15.11,22.44s-8.59-2.79-10.46-8c-1.25-21.14-7.09-41.45-11-62.12-2.25-14.09,5.44-26.06,8.36-39.07a11.67,11.67,0,0,1,5.41-4.41" transform="translate(-78.42 -6270.82)"/><path class="cls-3" d="M135.83,6354.73c1.25-2.75-.79-6.51,2.64-8.59a2.78,2.78,0,0,1,1.84-2.37c5.69,3,8.88-6.59,14.71-2.92-1.32,5.92-.28,10.2,5.85,13.53,8.88,4.83,9.73,12.87,5.93,21.7-4.25,3.19-8.43,5.81-10.07,1.75,5.77,12.53-3.28,25.45-10.06,38.15-2.49,4.67-4.37,9.53-6.69,14.23-4.88,5.15-9.6,5.73-14.06-.51a7,7,0,0,1-.37-3.29c4.39-8.6,4.4-18.58,8.43-27.23-4.91,1.82-9.2,6.37-15.35,4.23-1.85-2.39-2.1-5.26-2.42-8.1-1.41-10.68,2.52-19.26,10.36-26.3,6.37-2.61,5.59-9.89,9.26-14.26" transform="translate(-78.42 -6270.82)"/><path class="cls-4" d="M119.84,6632c-11.28-16.42-20.13-34-25.54-53.25,3.09-5.35-2.06-11.89,2.43-17.05,1-1.93,2.21-3.78,4.28-4.79,1.23-1.95,2.1,3.91,3.52.12,2-5.3,4.1-10.59,9.17-13.85,7.37,5.18-2.43,15.93,7.26,19.77,3.86,4,4.86,8.68,3.4,14-0.81,3.68-2,7.14-5,9.4,8.62,2.68,11.76,10.2,15.27,17.39,2.86,12-4,20.34-10.77,28.66-1,1.27-2.77.86-4-.36" transform="translate(-78.42 -6270.82)"/><path class="cls-5" d="M128.69,6370.67c-6.63,6.36-11.55,13.41-9.47,23.3a20.51,20.51,0,0,1-2.3,2.34c-6.57,3.8-6,11.08-8.23,17a101.43,101.43,0,0,1-6.05,13.61c-6.92,14.7-12.7,29.53-7.6,46.23,2.38,7.81-.11,16.07,1.91,24,2.32,10.47,3.17,21.15,5.65,31.65,1.79,7.56,4.66,17.35-5.86,22.58C93,6544.42,84,6539,90.55,6529.19c-7.17-8-3.68-18.47-6.32-27.48-4.09-14,1.64-28.28-1.74-42.23l1.57-4.77c-1.85-4.32,2.06-7.49,2.26-11.39,0-8,4.14-14.55,7.43-21.4,1.5-8.24,6.85-15,9-22.94,0.85-5,4.59-8.25,7.31-12.12,2.71-2.62,3.44-6.69,6.62-9a8.31,8.31,0,0,0,.42-2.18c3.39-4,5.29-9.88,12.09-9.57a3.44,3.44,0,0,1-.54,4.52" transform="translate(-78.42 -6270.82)"/><path class="cls-6" d="M508.36,6507.68c2,2.39,1.65,7.74,6.44,6.54,4-1,4.73-3.81,2.22-7.82-1.12-1.78,2.2-2.32,3.83-3.06a21.32,21.32,0,0,0,10.8-11.1c-0.12,7.78,3.63,15.42.8,23.29a20.61,20.61,0,0,1,.14,11.44c-4,3.54-1.56,7.44-.83,11.4,0.86,4.71-1,8.76-4.25,12.19-5.39-2.43-4.67,4.92-8.38,5.23-9.9-3.8-10.24-14.25-15.1-21.58-0.16-9.11-4.76-18.94,4.32-26.54" transform="translate(-78.42 -6270.82)"/><path class="cls-7" d="M172.92,6690.47c-11.89-5-17.83-16.93-27.84-24.12-7.17-9.66,2.49-16,5.39-23.22,1.39-3.45,3.64-7.21,5.53-10.82,8.41,0.18,11.7,7.11,16.3,12.32,4.3,10.61,1.15,20.55-2.83,30.55,4.7-5,8.82-10.12,7.13-17.68-0.54-2.42.17-4.61,3.12-5.2,10.9,5.82,21.72,11.72,27.59,23.46,0.22,2.26-.14,4.3-2.24,5.62-1.75-1.49-3.46-1.76-5,.28a4.59,4.59,0,0,1-2.78-.61c-2.47-2.12-5.1-4.06-7.31-6.27-0.89,0,.12.56-0.11,0.82-3.52,6.62-10,9.9-15.47,14.25l-1.45.61" transform="translate(-78.42 -6270.82)"/><path class="cls-8" d="M506.14,6629.1c-7.55,6.88-10.48,17.32-18.42,23.89-5.83-.29-5.15-5.18-6.22-8.82,0.13-4,1.64-7.82,5-9.77,9.19-5.29,2.88-8.55-1.83-13.31,0.1,8.84-3.22,12.88-11.58,10.26-3.5-1.67-5.16-4.64-5.87-8.28,2.18-15.12,12.66-25.17,22-35.91,4.65,2.46,3.26,7.18,3.95,11,1.08,6.07,3.11,11,10.42,11.05a14.25,14.25,0,0,1,3,.18,6.08,6.08,0,0,1,2.59,1.43c0.89,1.49-.84,3.78,1.45,4.87q0.07,1.83.14,3.67c-1.27,3.37-.7,7.61-4.64,9.7" transform="translate(-78.42 -6270.82)"/><path class="cls-9" d="M431.86,6324.25c3.4,1,4.59,3.62,4.9,6.85-0.68,3.05-3.43,4.78-4.74,7.43a11.7,11.7,0,0,1-1.88,2.38,6.69,6.69,0,0,1-2.86.93c-2.95.11-5.94-.6-8.82,0.58-6.45,12.9-2.05,24.56,4,36a5.78,5.78,0,0,1,.57,3.31c-9.54,6.82-11.49,6.53-20-3-1.11-4.71-1.74-9.54-7.32-11.72-3.3-1.28-5.63-3.88-4.36-8,2.89-4.58,4-11.06,12-9.89,2.87,0.42,3.53-2.64,3.12-5-0.91-5.15-2.12-11-7.5-12.69-5.69-1.81-3.83-5.57-4.11-9,1.64-12.1,3.55-13.8,11.07-5.31,8.18,9.23,18.54,1.23,26,7.17" transform="translate(-78.42 -6270.82)"/><path class="cls-10" d="M340.49,6733.18l-2,1.61c-4.54,2.43-9.83-.57-14.34,2l-18.25-.43c0.22-5.61,9.14-3.67,8.64-10.84-0.55-7.91.52-15.64-9.38-18.74-2.46-.77-6.62-2.28-2.57-6.37,11.43-3.26,23-1.86,34.53-1.13,9.39,6.42,11.12,23.82,3.34,33.9" transform="translate(-78.42 -6270.82)"/><path class="cls-11" d="M82.49,6459.48c9.74,5.71,3.67,15,3.38,21.71-0.65,15,4.34,29.14,3.78,43.83-0.35,9.27,6.48,16.53,6.56,25.59,3.72,3.21,4.45,7,2.35,11.44-5.34,4.56,4.14,12.89-4.24,16.67L91.12,6569c0.16-6.26-4.5-11.92-2.3-18.43,0-.82,0-1.63,0-2.44-1.88-2.1-5.58-2.92-4.78-6.88l-2.26-16.55c-2.44-7.61.92-15.72-2-23.29l0.06,0.07c-2-3.13,3.22-6.29,0-9.42l0.05,0.1a17.59,17.59,0,0,1-.09-14l0,0c2.9-5.14-.3-11,2-16.23l0.74-2.48" transform="translate(-78.42 -6270.82)"/><path class="cls-12" d="M429.57,6338.3c0-4.8,4.18-5.41,7.19-7.21l2.22,2.13c6.3,5.8,10.18,15.16,21,14.25,6.29,2.38,13.2,3.6,17.62,9.46a8.7,8.7,0,0,1-3.12,2.64,33.38,33.38,0,0,0-3.31,2.81c-1.92,1.67-4.56,2.91-5.88.25-5.59-11.29-8.27-1.91-11,1.66-4.6,5.89-4.62,15.08-13.13,18.23-6.27.89-12.59,2.34-18.25-2l-2.55-.63a29.74,29.74,0,0,1-.52-16.11c6.25-1.25,6.57,4.58,9.21,7.63,7,3.1,6.67-3.3,7.15-6.41,1.52-9.64.39-19-6.59-26.66" transform="translate(-78.42 -6270.82)"/><path class="cls-13" d="M157,6631.37c4.39,11.2-8.79,15.75-10.12,25.36a69.41,69.41,0,0,1-1.8,9.61c-8-7.92-16.3-15.6-18.69-27.33-2.37-2.5-1.44-5.12.26-7.26,4.13-5.21,24-7.39,30.17-3.5a3.84,3.84,0,0,1,.17,3.12" transform="translate(-78.42 -6270.82)"/><path class="cls-14" d="M508.77,6611h-2.33c0.59-10.56,4-21.08.46-31.69,0.67-6.79-10.51-5.16-9-12.57a4.69,4.69,0,0,1,3.14-3.46c3.54-.62,6.19,1.83,9.31,2.64,2.16,0.63,4.2,1.52,8.06,4.78-4.66-7.57-5.43-12.82,2-15.65,0.74-2.61-1.83-6.33,1.89-7.79,2.29-.89,5.36-0.83,5.19,3.26,4.25,15.54-2.58,29.52-6.3,43.91-0.85,3.26-2.43,6.34-3.67,9.5-4.12.87-3.15,8.06-8.77,7.07" transform="translate(-78.42 -6270.82)"/><path class="cls-15" d="M278.06,6273.85c9.28-.12,18.49-6.52,27.85-0.35,2.37,2.44,2.55,5.18,1.12,8.13-4,4.85-9.08-1.55-13.81,1.52-8.6,5.59-11.14,19.41-4.36,27.12,2.19,2.48,4.64,2.22,7.32,1.68,5-1,9.25-3.65,13.86-5.56,4.31-1.09,8.37-3,12.76-3.87,2.83,0.7,3.5,2.79,3.44,5.35a6.14,6.14,0,0,1-1.5,3.16c-3.43,2.49-7.92,1.89-11.5,4-6.82,3.63-13.64,7.28-21.62,7.59-3,.09-6.06.16-9.1,0-9.28-3.4-15.3-20.43-10.32-29.47,1.29-2.35,3.23-4.31,4.67-6.58,6.27-3.65-3.12-8.8,1.19-12.64" transform="translate(-78.42 -6270.82)"/><path class="cls-16" d="M471.47,6359.23l2.34-2.3c5.93,5,10.43,11.41,16.51,16.25,2.43,3,8.18,3.5,7,9.25-0.18,4.44,5.94,7.64,2.52,12.74-2.74,2.88-5.44,1.58-8.38.2-2.59-1.21-5.4-4.46-8.26-1.49-2.2,2.28.37,5,1.13,7.49,1.72,5.62,2.91,11.24-1,16.53-11.61-4.37-12.5-16.45-18.09-25.15a2.08,2.08,0,0,1-.06-1.11c6.79-9.89,10.3-20.41,6.33-32.39" transform="translate(-78.42 -6270.82)"/><path class="cls-17" d="M431.86,6324.25c-6.74.34-14.31-2-19.21,7.15,2.56-12.84-11.19-10.07-13.36-17.8-3.64,2.58,1.88,6.62-2.43,8.33a6.68,6.68,0,0,1-5.47-3.72c-3.08-6.95-7.93-10.51-15.77-10.5-3.16,0-6-1.93-3.91-6.17a6.43,6.43,0,0,1,2.71-2.2,9.52,9.52,0,0,1,8.49,1.57c12.55,1,24.53,4,33,13.86,4.5,5.25,12.38,3.48,15.94,9.47" transform="translate(-78.42 -6270.82)"/><path class="cls-18" d="M305.9,6282.33q0-4.42,0-8.84a7.59,7.59,0,0,1,2-.37,15.41,15.41,0,0,0,12.25-.07c8.19,6.49,20.09,1.55,28,9-0.17.5-.34,1-0.5,1.51-3.41,4.11-7.4,2.89-11.44,1.29-3.9-1.18-7.72.12-11.57,0.44-4.31.79-5.15,3.26-4.12,7.29,0.88,3.48,2.79,6.85,1.8,10.66-2.35,5.43-7.19,4.62-11.68,4.66-9.87-7-5.07-16.72-4.67-25.62" transform="translate(-78.42 -6270.82)"/><path class="cls-19" d="M156.73,6629.69c-8.19-4.07-27.56,1.89-30.33,9.32-4.52-.17-5.41-3.72-6.56-7,8.06-7.59,12.86-16.76,13.55-27.93a1.66,1.66,0,0,1-.67-1.81,1.14,1.14,0,0,1,.65-0.91c7.07,0.13,8.76,6.51,12.07,10.77,2.53,3.26,3.95,7.39,8.31,8.92,2.82,2.26,5.62,4.54,3,8.67" transform="translate(-78.42 -6270.82)"/><path class="cls-20" d="M247.57,6724.79c-10.79-2-21.16-5.23-30.53-11.16a12.75,12.75,0,0,1-1.39-12.61,3.74,3.74,0,0,1,2.62-2.1c4.76,5,7.63,12.14,15.64,13.64,3.74,0.71,8.53,5.89,10.61-.21,1.74-5.1,4.29-12.62-4.58-15.53-3.32-1.09-6.65-2.18-9.26-4.65-2-1.87-2.65-3.81.17-5.61,21.49-1.65,28.57,5.49,26.91,27.13,0,6.86-2.38,11.46-10.19,11.09" transform="translate(-78.42 -6270.82)"/><path class="cls-21" d="M478,6664.63c-4.69,3.63-6.44,10.54-13.21,11.85a2.34,2.34,0,0,1-2.94.29c-7.3-10.37-11.29-21-3.58-33.13,1.52-2.38-.58-6.94,3.5-7.76,4.64-.93,6.48,3.35,8.93,6.22,6.48,6.19,3.51,15.45,7.28,22.53" transform="translate(-78.42 -6270.82)"/><path class="cls-22" d="M301.32,6701.94c7.94,3.4,16.63,5.18,16.66,17.28,0,9.49-1.14,16.24-12.07,17.15-5.78,1.56-10.16-3.75-15.74-3.2,0.55-1.86,2-2.61,3.69-3.13a26.68,26.68,0,0,1,6.36-.59c3.22-.11,6.77.44,7.8-4,3-8.28-.23-13.21-8.26-15.51-7.31-2.09-14.62-4.29-22.37-2.44-3.07-.06-5.39-2.66-8.56-2.55a5.21,5.21,0,0,1-1.87-2.68c-0.52-4,1-7,4.68-8.77a69.14,69.14,0,0,1,29.67,8.43" transform="translate(-78.42 -6270.82)"/><path class="cls-23" d="M340.49,6733.18c5.38-10.37-1.11-20.89.4-31.32,13.4-9.47,28.92-11.19,44.64-12.26,4,4,5.47,8.52,3.12,13.91-8.33.55-16.71-.36-25,0.66-8.3-1.11-11.68,3.47-12.5,10.89a102,102,0,0,0-.9,16.85l-9.71,1.26" transform="translate(-78.42 -6270.82)"/><path class="cls-24" d="M451.88,6687.92c-4.56,1.87-7,7.48-12.82,7.12-6.14,2.47-11.13,8.86-19,5.47-3.67-4.64-3.82-10.16-3.89-15.69,6.66-13.33,7.5-13.59,19.64-5.62a45.42,45.42,0,0,0,9.17,4.38c2.53,1.07,5.19,1.94,6.86,4.35" transform="translate(-78.42 -6270.82)"/><path class="cls-25" d="M478,6664.63c-4.15-2.94-8.13-5.86-5.29-12,1.88-4.07-2.66-5.84-3.6-8.93-2.4-5.36-4.76-10.73-5.44-16.65,0.38-3.08,1.79-5,5.23-4.78l4.88,7.44c4.37,3.83,5.79,9.61,9.3,14l4.62,9.28L478,6664.63" transform="translate(-78.42 -6270.82)"/><path class="cls-26" d="M350.2,6731.92c-5.08-9.42-2.12-25.21,5.84-31,2.29-1.68,4.24-1.06,5.87,1.09,3.89,5.76,4.32,11.92,2.13,18.39-2.27,3.95-6.45,6.15-9,9.81-1,2.24-2.84,2.13-4.79,1.74" transform="translate(-78.42 -6270.82)"/><path class="cls-27" d="M221.66,6289.29l2.8-2.75c3.75-.57,6.93-3.2,10.89-3a7.71,7.71,0,0,1,3.2.65c1.35,3.89-1.41,6.07-3.53,8.52-4.25,3-7.86,6.73-12,9.86a50.5,50.5,0,0,1-5.76,2.43c-4,1.29-8,2.64-12.06,3.76a9.18,9.18,0,0,1-3.22.15c-3.21-1.5-5.81-3.29-3.51-7.41l4.93-3.15c2.74-2.12,6.27-2.62,9.18-4.42l0.06,0c2.6-2.32,6.19-2.7,9-4.58" transform="translate(-78.42 -6270.82)"/><path class="cls-28" d="M294.44,6731.78l-4.27,1.4c-8.12-1.38-16.66-.9-24-5.55a8.16,8.16,0,0,1-1.55-2.8,10.92,10.92,0,0,1,3.16-8.89,4.17,4.17,0,0,1,3-.66,9.53,9.53,0,0,1,2.44,2c2.75,3.41,6.88,3,10.54,3.56,6.45,1,10.68,3.8,10.68,10.92" transform="translate(-78.42 -6270.82)"/><path class="cls-29" d="M203.76,6681.06l1.89-4.56c9.33-3.9,11.23,1.4,11.24,9-7.8,1.82-6.51,7.67-5.8,13.25,0.5,3.92,0,7.53-3.17,10.32-2.1-1.45-5.56,1-7-2.43-2.72-3.07-3-6.77-2.79-10.62s1.53-7.17,2.41-10.74a7.45,7.45,0,0,1,3.21-4.25" transform="translate(-78.42 -6270.82)"/><path class="cls-30" d="M201.09,6695.2q-0.08,5.74-.15,11.48c-11-2.6-19.79-8.89-28-16.21l0.5-.58c7.35-3.49,13,.57,18,3.41-5.61-7.58,1.35-9.71,7-12.44l0.64,0.52c1.68,1.75,1.84,3.93,1.71,6.18-0.17,2.55-2.12,5.18.28,7.64" transform="translate(-78.42 -6270.82)"/><path class="cls-31" d="M278.06,6273.85c-0.82,4.63,5.24,8.09,2.21,13.09-3,1.57-6.41,2-9.46,3.87-11.49,7-12.7,6.58-21.44-4.41,2.49-6.36,9.1-4.25,13.57-6.56,4-2.05,9-1.39,12.53-4.84,0.52-1.14,1.2-1.95,2.59-1.16" transform="translate(-78.42 -6270.82)"/><path class="cls-32" d="M275.47,6275c-5.75,10-17.52,7-25.64,11.85-4.58,3.56-8.16,1.74-11.36-2.12l-2.66-.19q-0.93-1-.34-1.62a1.37,1.37,0,0,1,1-.47l15.89-2.66c5-6.86,13.07-.78,18.84-4.43l4.31-.37" transform="translate(-78.42 -6270.82)"/><path class="cls-23" d="M355,6730.18c-0.06-4.89,3.11-7.44,6.89-9.55,7.6-.59,13.52-5.27,20.09-8.33a6,6,0,0,1,2.94.56c1.82,1.71.7,3.66,0.45,5.54-8,9.3-20.5,7.2-30.37,11.78" transform="translate(-78.42 -6270.82)"/><path class="cls-17" d="M348.09,6282.1c9.76,2.41,19.12,5.56,25.52,14.07a3.3,3.3,0,0,1,0,4.74l-0.1.09c-3.89,3-7.59,4.08-9.82-1.68-2.06-5.31-6.26-7.3-11.39-8.16-3.52-1.73-5.38-4.37-4.69-8.43Z" transform="translate(-78.42 -6270.82)"/><path class="cls-33" d="M460,6347.47c-15.84,8.29-16.57-5.74-21-14.25,7.39,4.19,15.89,6.74,21,14.25" transform="translate(-78.42 -6270.82)"/><path class="cls-34" d="M152,6331.78c7.38-2.41,12.32-8.5,18.74-12.36a6.11,6.11,0,0,1,4.76-1.06c6.79,3.15,6.45,6.74.38,10.21-3.9,2.23-8.53,3-12.3,5.56a26,26,0,0,1-2.87,1.59c-3,.66-5.62,4.47-9,1.92-2-1.51-1.33-4,.27-5.86" transform="translate(-78.42 -6270.82)"/><path class="cls-35" d="M207.91,6709.11c3.29-7.06-3.75-14.86,1.55-21.71,1-1.31-.3-4.47,2.37-3.91,1.18,0.25,1.85,3,2.75,4.57,3.59,2.77,3.27,6.34,2.08,10.09-2,3.63-2,8.32-5.92,10.89l-1.87,1.67-1-1.6" transform="translate(-78.42 -6270.82)"/><path class="cls-36" d="M198.48,6301.49c0.11,3.25,1.89,5.22,4.8,6.36-2,9.61-5.35,10.64-16.72,5.09-1.08-3.69.48-6.58,2.78-9.26l9.14-2.19" transform="translate(-78.42 -6270.82)"/><path class="cls-37" d="M152,6331.78c1.36,9.73,6.82-1.77,9.37,1.81,0,4.71-2.17,7.16-7,7-4.67,1.38-7.75,7.45-13.82,4.7-1.56-1.88-.34-3.45.55-5.07a13.46,13.46,0,0,1,4.09-3.7c1.48-2.72,4.05-3.88,6.82-4.75" transform="translate(-78.42 -6270.82)"/><path class="cls-38" d="M189.34,6303.67c0.42,3.28-.81,6.14-2.31,8.92,5.65,7.06-.46,7.26-4.92,8.45a8.61,8.61,0,0,1-5.39-3.51,6.07,6.07,0,0,1,.52-4.85c3.91-3.18,6.47-8.15,12.1-9" transform="translate(-78.42 -6270.82)"/><path class="cls-39" d="M422.62,6704.52a64.92,64.92,0,0,1-25.56,9.35l-0.7-1.59c5.5-9,14.29-10.86,23.86-11,2,0.22,3.24,1,2.4,3.27" transform="translate(-78.42 -6270.82)"/><path class="cls-40" d="M499.44,6394.19c1.72-4.37-7.49-6.74-2.15-11.76,5.36,5.28,9.51,11.3,11.6,18.62-0.17,1.94-.5,3.79-2.44,4.83-3.46-1.41-4.45-4.68-5.82-7.67a9.09,9.09,0,0,1-1.19-4" transform="translate(-78.42 -6270.82)"/><path class="cls-41" d="M451.88,6687.92c-2.24-.14-4.69.26-6-2.26A21.07,21.07,0,0,1,459.26,6675a4,4,0,0,1,2.81,1.32l2.73,0.15c-3.06,5.23-7.77,8.59-12.93,11.44" transform="translate(-78.42 -6270.82)"/><path class="cls-42" d="M490.32,6373.17c-8.27-2.61-13.65-8.15-16.51-16.25h3.81c4.59,5.13,9.67,9.89,12.7,16.24" transform="translate(-78.42 -6270.82)"/><path class="cls-43" d="M422.62,6704.52L420.2,6702c-1.17.57-2.39,0.31-2.44-.94s1.18-1.64,2.42-1.37c7.2,2.14,11.93-5.77,18.88-4.62-3.11,7.28-10.64,6.88-16.44,9.47" transform="translate(-78.42 -6270.82)"/><path class="cls-44" d="M128.69,6370.67q0-2.3,0-4.61c-0.75-.4-1-0.85-0.86-1.36a0.94,0.94,0,0,1,.61-0.8,12.39,12.39,0,0,1,7.44-9.17c0.47,6.6.35,12.92-7.15,15.94" transform="translate(-78.42 -6270.82)"/><path class="cls-45" d="M508.77,6611c4.17-.81,1.72-9.83,8.77-7.07-0.74,4.83-4.54,7.88-6.9,11.76l-5.43,3.54c-1.08-4.28,3.07-5.36,3.56-8.22" transform="translate(-78.42 -6270.82)"/><path class="cls-46" d="M145.18,6336.53c-0.28,1.89-1,3.44-3,4.17-4.66.37-10.24,5.84-13.34-2.42,5.12-3.46,10.71-2.53,16.29-1.75" transform="translate(-78.42 -6270.82)"/><path class="cls-47" d="M247.57,6724.79c5.16-2,8.22-5.29,7.19-11.23a4,4,0,0,1,5.28.1c2.55,4.67,2,8.72-2.43,12a10.65,10.65,0,0,1-7.47.21l-2.56-1.06" transform="translate(-78.42 -6270.82)"/><path class="cls-39" d="M385.37,6718.4c-2.73-1.54-.41-3.17-0.09-4.77,3.79-3.26,7.62-3.34,11.49-.15l0.3,0.39c-3.41,2.78-7.62,3.47-11.69,4.52" transform="translate(-78.42 -6270.82)"/><path class="cls-48" d="M373.58,6300.91q0-2.37,0-4.74c3.87,0.09,7.59.49,9.33,4.75h-9.35" transform="translate(-78.42 -6270.82)"/><path class="cls-49" d="M496.67,6443.43l-12.06-23.27c1.23-2.12,3.41-2.69,5.51-3.35,8-1.63,8-8.26,8.88-14.36,0.34-2.24.85-4.41,2.79-5.89l4.65,9.32c-3.52,12.45-8.52,24.52-9.78,37.56" transform="translate(-78.42 -6270.82)"/><path class="cls-50" d="M138.06,6429.18c1-5.66-.47-12.41,7.31-14.89,2-.65,1.47-3.26,2.05-5,4-12,9.61-23.61,7.78-36.93-0.23-1.67,2.08-3.69,3.22-5.52,6.62,4.12-2.51,6.44.15,10.14l7.47-1.4c4.88,7.06,10.56,14.18.11,19,1.84-1.72,6.05-3.25,9.09-6.42,3.2-1.43,8.46-3.13,8.22,1.4-0.44,8.07,5.8,15.11,2.83,23-2.77,7.42-4.92,15.38-12.24,20.09-4.37-.38-6,1.59-5,5.86-13.08,7.19-16.4,19-15.15,32.73,0.43,4.76.77,9.22-3.6,12.47a2.56,2.56,0,0,1-1,.43c-7.46-.41-14.45-7.52-22.47-1.45-0.67.51-2.49-1.34-3.39-2.59-1.64-7,3.49-13.41,1.89-20.5-0.33-1.46,1.15-2.9,2.72-3.38,8.33-2.54,8.25-9.07,6.56-15.42-1.34-5.06,1.28-8.11,3.52-11.65" transform="translate(-78.42 -6270.82)"/><path class="cls-51" d="M138.06,6429.18c-0.6,4.91-4.92,10.34,2.15,14.17,1.42,0.77,2.28,2.93.46,3.59-7.61,2.76-4.17,8.46-3.12,12.82-4.33,2.9-5.77-2.58-9.92-1.3,2.67,7.78-1.35,14.71-3.55,22l-1.43,1c-3.29.5-5.46-1-6.81-3.86,5.57-11.71-2.35-21.83-3.92-32.71,0-2.78.15-5.52,1.65-8,1.73-1.49,6.57,2.07,5.72-4.28-0.43-3.19,4-3.72,7.13-3.46,3.88,0.91,7.77,5.09,11.65,0" transform="translate(-78.42 -6270.82)"/><path class="cls-52" d="M175.37,6389.53c-3.66,6.12-8.45,10.14-17.61,8.95,3.5-3.15,6-5.7,8.82-7.87,5.19-4,7.59-6.62-1.91-6.68-3,0-3-1,1.37-8.37,0.53-8.5-.06-15.63-8.67-21.46-3.84-2.61-6.64.62-9.28-1.4,0.62-5.06,6.78-6.83,6.28-12.09l7-7h0c10.39,0.73,19,11,14.81,20.45-4.64,10.4-3.77,19.29.24,28.93a6,6,0,0,1-1.07,6.56" transform="translate(-78.42 -6270.82)"/><path class="cls-50" d="M119.43,6403.53c4.11-4.63,11.77-3.38,15.82-9-1.62,11.12.37,23.15-8.84,32.35l-1.47-.53c-4.48-5.24-4.91-12.42-8.57-18.06a5.17,5.17,0,0,1,.38-3.11,5.08,5.08,0,0,1,2.68-1.63" transform="translate(-78.42 -6270.82)"/><path class="cls-50" d="M126.41,6429.18c-7.56,2-3,10.62-7.82,14.29-2.83-1.65-.52-6-3.78-7.32a5.06,5.06,0,0,1-1.72-3,6,6,0,0,1,1.62-4.84c3.67-2.21,7.53-3,11.69-1.49l0,0c0,0.77,0,1.55,0,2.32" transform="translate(-78.42 -6270.82)"/><path class="cls-50" d="M141.78,6397.42c0.21,1.67-.23,2.87-1.52,2.62-0.75-.14-1.49-1.42-1.81-2.33-0.17-.47.58-1.27,0.91-1.91l2.43,1.63" transform="translate(-78.42 -6270.82)"/><path class="cls-53" d="M119.43,6403.53l-2.35,2.34c-3.51-3.89-2.92-7.75.1-11.59a8.93,8.93,0,0,0,2-.3q0.1,4.77.21,9.56" transform="translate(-78.42 -6270.82)"/><path class="cls-54" d="M124.07,6480.48c8.66,3.33,8.76-2.6,7.05-9.25,8.67,2.67,10.06,12.68,18.59,11.58,1.82,1.45,2,3.41,1.66,5.5a14.32,14.32,0,0,1-1,2.81c-2.73,5.16.39,10.83-1.35,16.08a6.82,6.82,0,0,1-1.8,2.43c-3.83,1.5-6.38,4.92-10,6.69-5.73-.17-6.67,4.16-7.94,8.31-2.78,9.15-6.75,17.9-6,28,0.29,3.84-.29,8.6-3.79,11.8-2.13-3.62-5.3-2.9-8.82-1.65,1-6,6.17-10.63,3.18-17.63-2.78,4.89-5.43,9.29-7.81,13.83-4.4,8.42-2.55-4.12-5.16-1.5-0.2-13,2.51-25.78,3.41-38.69,1.91-3.89,5.85-5.87,8.69-8.91,4-4.31,8.5-6.69,3.52-14.35-3.78-5.81,3.49-10.68,7.63-15" transform="translate(-78.42 -6270.82)"/><path class="cls-55" d="M119.42,6564.4c0-15.9,3.4-31.06,8.48-46.09,2.48-7.31,5.16-7.46,10.13-2.91a6.81,6.81,0,0,1,3.83.81,2.91,2.91,0,0,1,1.36,2.13c-19.71,14.9-21.17,42.74-10.81,64,6.57,13.46,15.48,25.74,20.21,40.13-7.36.93-6.38-6.37-9.59-9.51-3.57-3.49-4.78-8.92-9.61-11.25-4-8.51-9.05-16.51-11.66-25.64,1.71-4.38.74-8.22-2.33-11.65" transform="translate(-78.42 -6270.82)"/><path class="cls-56" d="M105.41,6517.79c2,13.64-3.12,26.43-4.6,39.66-0.09,1.86-.46,3.59-2.26,4.61q-1.18-5.72-2.35-11.44a20.76,20.76,0,0,0,3.63-21.54c-4.28-10.59-3.12-21.71-5.92-32.27a2.21,2.21,0,0,1,1-.35c0.78,0.63,1.8.47,1.66-.39-1.21-7.37-2.92-14.74,2.94-21.11,3.37-.68,5.08,1.47,6.67,3.85a16.2,16.2,0,0,1,1.41,3c2,7.12,1.67,14-2,20.58-2.1,2.41-2.95,5-1.19,8a13.31,13.31,0,0,1,1,7.39" transform="translate(-78.42 -6270.82)"/><path class="cls-57" d="M121.76,6576.05c6.35,7.42,11.24,15.52,11.67,25.64q0,1.19,0,2.37c-5.57-4.55-8-11.59-13.5-16.43-3.9-3.44,2.58-7.4,1.86-11.57" transform="translate(-78.42 -6270.82)"/><path class="cls-58" d="M100.75,6475.81c-4.24,6.08-2.93,12.83-2.37,19.49s-2.19,3.37-4.48,1.49c-1.75-11.89-3.42-24.06-4-35.78-0.59-12.18,2.33-25.71,10.88-36.33a4.05,4.05,0,0,1,4.48-1.17c6.54,6.31-.77,12.07-0.83,18.14-0.06,5.7,3.18-1.51,3.59,1.18a10.25,10.25,0,0,1,2.78,3.9c7.52,9.32-.44,16.22-3.71,23.87-1.27,2.78-3.7,4.15-6.38,5.2" transform="translate(-78.42 -6270.82)"/><path class="cls-44" d="M105.41,6424.56l-4.6.13a90.71,90.71,0,0,0,7.49-21.24c0.9-4.41,1.61-10.35,8.89-9.18q-0.05,5.8-.1,11.6h0c-3.14,6.7.79,17.81-11.67,18.69" transform="translate(-78.42 -6270.82)"/><path class="cls-59" d="M496.38,6566.47c3.45-10,7.63-19.83,9.13-30.43,9.08,3.13,5.86,15.91,14.93,19-1.2,3.38-6.65,5.92-1.36,10.58a5.09,5.09,0,0,1-.63,8c-3.53,2.07-2.28-4-5.15-4.18-1.5-.08-3-0.28-4.5-0.43-2-2-1.94-7.22-7-4.66l-2.33,2.33a2,2,0,0,1-3.07-.27" transform="translate(-78.42 -6270.82)"/><path class="cls-60" d="M198.46,6680.86c-6.57,6.09-7.28,12.42-.29,19.64-8.1-5.05-15.67-9.66-24.74-10.6,2.21-8.4,11.7-9.5,15.91-15.88l0,0c5.36-.79,7.59,2.56,9.09,6.87" transform="translate(-78.42 -6270.82)"/><path class="cls-61" d="M170.71,6645.88c4.63,0.4,7.06,3.47,8.87,7.29,1.9,7.8-1.06,14.55-4.16,21.44-1.14,2.53-1.64,5.13-4.69,5.87-2.81.68-4.08-1.19-5.35-3.27-1.71-2.82-1-5.16,1.2-7.18,7.74-7,4.62-15.78,4.13-24.15" transform="translate(-78.42 -6270.82)"/><path class="cls-62" d="M156.67,6671c-3-10.9,1.18-19.43,5.42-28.33,8.06,13.82,6.89,20-5.42,28.33" transform="translate(-78.42 -6270.82)"/><path class="cls-63" d="M198.52,6688.13q0.28-3.38.57-6.76c1.6,0.56,2.63-7.31,4.66-.31l-0.85,4.53c-0.9,1.82-1.71,3.8-4.38,2.54" transform="translate(-78.42 -6270.82)"/><path class="cls-60" d="M189.34,6674c-3.06-.49-6.25-0.82-5.8-5.62,4.33-.46,4.21,3.52,5.83,5.59Z" transform="translate(-78.42 -6270.82)"/><path class="cls-45" d="M508.78,6578.4c4.49,11.25,4.32,22.17-2.33,32.63l-2.33,0c-13.52-8-15.43-26.85-3.63-35.67,4.35-3.26,7-2,8.3,3" transform="translate(-78.42 -6270.82)"/><path class="cls-64" d="M508.78,6578.4c-3.3-4.17-5.83-3.27-8.59.83-7.12,10.56-6.43,17,3.92,31.82-7.71,3-11.4-1.08-12.72-7.9-1-5.26-1.09-10.71-1.58-16.07,0.62-7.37,4.13-13.82,6.57-20.61l3.07,0.27c0.26,4.18,3.14,4.64,6.46,4.71,6.12,0.13,4.39,3.61,2.86,6.95" transform="translate(-78.42 -6270.82)"/><path class="cls-65" d="M483.1,6643.71c-7-2.09-7.44-8.52-9.3-14,5.11-.06,11.38.94,6.73-7.72-0.86-1.6-2.4-3.62-.29-5.13,1-.7,3.46-0.81,4.16-0.11a130.5,130.5,0,0,1,12.13,13.56c1.21,1.61-1,3.8-3.08,3.83-6.46.1-8.11,5.1-10.35,9.59" transform="translate(-78.42 -6270.82)"/><path class="cls-66" d="M382.63,6345.35c-2.55-2.35-5.5-4.32-6.74-7.83-6-17.08-18.85-23.41-36-23-3.06.07-6.25,0.49-9-1.54a6.22,6.22,0,0,1,6.88-3c9.77,2.53,13-3.61,15.55-10.95,0.55-3.3-4-6.23-.76-9.74,6.73-1,11.81,1.46,13.22,8.18,1.17,5.61,4.5,3.82,7.71,3.49q0.1,2.15.18,4.3c14.22-3.5,17.94,7.64,23.21,16.63,1.33,1.63-2.59,4.56,3.93,5.93,6,1.26,9.9,12.72,9.39,21.81-0.1,1.69-1.42,3.83-2.36,3.29-8-4.62-10.79,3.28-15.59,6.24-3.45-4.44.49-14-9.62-13.84" transform="translate(-78.42 -6270.82)"/><path class="cls-67" d="M429.57,6338.3c11.09,5.83,14.72,31.8,5.12,38.43-3.4,2.34-6.75,1.4-7.52-3.5-3.28-11.19-8.94-22.54,2.24-32.74q0-1.09.16-2.18" transform="translate(-78.42 -6270.82)"/><path class="cls-68" d="M382.63,6345.35c9.53-3.41,11.62-.4,9.62,13.84,0,3.84,2.8,5.71,5.73,6.18,8.41,1.35,8.09,6.34,5.89,12.45-14.48-6-20.88-17.24-21.24-32.46" transform="translate(-78.42 -6270.82)"/><path class="cls-66" d="M420.2,6363.91c2.77,5.3.15,10.63,0.12,15.95a41,41,0,0,1-7.27-31.94c0.66-3.93.49-7.76,4.83-9.62,4,4.87.1,10.56,1.63,15.67-3.46,3.56,4.43,6.36.69,9.95" transform="translate(-78.42 -6270.82)"/><path class="cls-69" d="M420.2,6363.91c0.77-3.5-5.46-5.24-2.34-9.34,1.78-5.56,4.63-10.39,9.33-14l2.23-.07c-5.83,10.56-2.44,21.76-2.24,32.74-3.35-2.33-2.12-8.1-7-9.32" transform="translate(-78.42 -6270.82)"/><path class="cls-12" d="M427.18,6340.56a23.54,23.54,0,0,1-9.33,14c-4.55-5.43.59-10.85,0-16.28l9.3,2.27" transform="translate(-78.42 -6270.82)"/><path class="cls-17" d="M423.44,6327.22c0.57,0.65,2.24,1.71,2.21,2.72s-1.58,2.64-2.73,2.91a2.79,2.79,0,0,1-3.59-3.12c0.11-1.64,1.6-2.44,4.1-2.5" transform="translate(-78.42 -6270.82)"/><path class="cls-70" d="M466.85,6391.77c-5.74-8.25-15.36-8.17-23.63-11,2.16-4.89,4.38-9.75,6.46-14.67,3.32-7.83,7.66-14.07,18.78-11.37,2.42,2-6,4.79-1.25,7.35,0.71,0.37,2.8-1.85,4.26-2.87,10.56,12.56,2.86,22.54-4.62,32.54" transform="translate(-78.42 -6270.82)"/><path class="cls-64" d="M501.78,6564.42c1.38-2,3.6-3.88,5.66-2.71,2.62,1.5.94,4.85,1.35,7.37l-7-4.66" transform="translate(-78.42 -6270.82)"/><path class="cls-71" d="M238.47,6284.74l11.37,2.12c7.5,4.74,14.72,9.41,21.92-1,2-2.95,5.72-.11,8.52,1-10.55,7.55-4.77,17.84-4.63,27.22,0.08,4.9,3.2,5.49,7,5.45-2.68,15.54-4.9,17-21.3,13.55a7.38,7.38,0,0,1-2.62-1.92c-2.41-5.2-5.78-8.91-1.05-16.18,5.83-9-6-19.7-20.14-19.24-2.2-.6-4.68-1-3.89-4.27l4.86-6.8" transform="translate(-78.42 -6270.82)"/><path class="cls-72" d="M305.9,6282.33c5.48,7.82-.89,17.81,4.67,25.62-6.65,5.77-16.5,11.44-22.59,7-7.23-5.29-6.53-17.12-5.07-26.57,1.17-7.59,11.62-10.08,23-6" transform="translate(-78.42 -6270.82)"/><path class="cls-73" d="M352.55,6289.32l4.67,9.29c-2.57,2.47-5.53,2.84-8.26.68s-4.14-.7-5.14,1.46c-5.09,11-6.68,11.69-19.24,7.18-0.06-1.91-.46-3.65-2.34-4.64-9.22-16-9.14-16.75,2.32-21,4.11,3.57,1.9,9.55,5.68,14.42,0.7-5.9-2.52-13,6-14.42a10,10,0,0,0,11.32.42l5,6.6" transform="translate(-78.42 -6270.82)"/><path class="cls-74" d="M324.59,6307.93h16c4.3-5.19-7.79-4.75-1.73-9,3-2.09,7.09-7.8,11.74-.89,0.76,1.14,4.32.4,6.58,0.52-2.65,16-14.86,14.53-26.35,14.37l-6.25-.82q-1.25-.59-0.86-1.24a1.08,1.08,0,0,1,.81-0.65c0-.78,0-1.56,0-2.34" transform="translate(-78.42 -6270.82)"/><path class="cls-75" d="M259.31,6331.27c1.51,0,3.23-.49,4.48.07,12.22,5.51,15.2-3.59,18.83-11.73l10.06,0.31c-3.28,2.62-8,4.56-9.58,8-6.07,12.74-17.15,12.58-28.46,12.55-3-5.38,3.3-6,4.68-9.16" transform="translate(-78.42 -6270.82)"/><path class="cls-18" d="M324.57,6310.27c0,0.63,0,1.26.06,1.89l-11.51-.17c3.44-3.08,7.61-1.28,11.45-1.72" transform="translate(-78.42 -6270.82)"/><path class="cls-76" d="M492.49,6419.83l-7.88.33-1.68-2.2c-0.19-7.08,2.27-14.64-4.4-20.44-2.47-2.15-.31-4.12,1.27-5.77,2.14-2.22,3.73-3.86,7.72-1.91,3.65,1.79,6.65,6.71,11.91,4.35l2.36,2.37q0,3.5,0,7c-3.43,3.69-7.36,6.34-12.73,6.07,7.27,1.37,7.34,5.13,3.44,10.22" transform="translate(-78.42 -6270.82)"/><path class="cls-77" d="M336.26,6282.29c-6.26,3.38-2.2,8.61-2.4,13.11-0.12,2.85,1,6.83-3.38,7.26-3.57.35-3.34-3.47-4.43-5.72-2.28-4.7-1.19-9.74-1.48-14.64h11.69Z" transform="translate(-78.42 -6270.82)"/><path class="cls-78" d="M219.68,6699.67c1-1.67-4-2.94-.33-4.8,2.14-4.12,2.32-10.93,10.08-7.33l0,0c1.29,3.93,5.24,5.45,8.16,5.65,11.41,0.78,10.74,6.87,10.72,16.19,0,12.43-7.08,10.84-12.72,7.76-6.79-3.72-19.5-3.72-15.92-17.43" transform="translate(-78.42 -6270.82)"/><path class="cls-79" d="M447.68,6649.75c3.88-9,12.09-14.59,17.6-22.31,3.45,4.9,2.52,10.84,3.85,16.25-2.8-1.32-2.8-5.69-7.52-6.26a19.68,19.68,0,0,1-3.26,13.43c-3.63,5.58-4,12.92,2.58,17.63,3.71,2.66,2.65,4.95,1.15,7.82h-2.31c-10.2-6.06-10.42-16.65-12.09-26.58" transform="translate(-78.42 -6270.82)"/><path class="cls-80" d="M294.44,6731.78c-3.52-7.64-11-10.22-17.67-9.05-5.75,1-3.93-3.05-5.72-4.49,2.37-3.53-3.84-10.37,4.49-11.6,6.27-4.26,24.06-2.13,32.22,3.32,7.6,5.07,4.3,11.41,2.84,17.67-1.8,4.5-7.29,1-9.6,4.44l-6.56-.29" transform="translate(-78.42 -6270.82)"/><path class="cls-81" d="M264,6706.59c3.86-2.89-.79-11.66,7.79-11.29-3.73,2.07-3.69,5.36-2.86,8.89,2.61,4,2.43,7.94.14,12l-3.15,9.16-4.31,0c-0.67-6.41-.89-12.77,2.39-18.68" transform="translate(-78.42 -6270.82)"/><path class="cls-28" d="M301,6732.07c-0.64-9.77,7.91.31,9.6-4.44-0.92,6.4-5.8,4.25-9.6,4.44" transform="translate(-78.42 -6270.82)"/><path class="cls-82" d="M275.54,6706.64c-4.31,2.78-.14,8.84-4.49,11.6-0.05-.79-0.11-1.57-0.17-2.36a14.21,14.21,0,0,1,0-11.44c3.28-2.94,3.55.56,4.69,2.19" transform="translate(-78.42 -6270.82)"/><path class="cls-83" d="M270.84,6704.45q0,5.72,0,11.44c-0.61.07-1.22,0.16-1.83,0.25q-0.07-6-.14-11.95l1.93,0.26" transform="translate(-78.42 -6270.82)"/><path class="cls-84" d="M385.19,6690.23l23.73-11.57c4.49-1.34,9.93-4.51,8.94,4.67,1.36,5.36,3.06,10.67,2.32,16.33-1.63.78-1.57,1.55,0,2.31-7.81,3.83-17.4,4.07-23.44,11.51l-11.49.15h-0.11c-2.69-4-.59-6.78,2.36-9.34,0.88-5-1.59-9.36-2.33-14.05" transform="translate(-78.42 -6270.82)"/><path class="cls-85" d="M387.52,6704.29q-1.18,4.67-2.36,9.34c-8.15,1-12.94,13.22-23.27,7q0-9.33,0-18.65c8.48,1.39,17.91-7.65,25.61,2.31" transform="translate(-78.42 -6270.82)"/><path class="cls-86" d="M417.86,6683.33c-0.64-6-5.34-4.31-8.95-4.67l17.83-12.39c3.08,0.48,6.85,1.89,5.25-3.91,5.2-4.25,11.82-6.73,15.69-12.62,5,8.44,6.07,18.62,12.09,26.58-5.25,2.21-8.13,7.94-13.93,9.33-4,.38-8.17-0.46-10.5-3.2-6.58-7.78-12.07-7.59-17.5.87" transform="translate(-78.42 -6270.82)"/><path class="cls-87" d="M201.3,6359.73c-2.76,2.19-5.67,4.08-9.31,4.41-10.38-4-16.69-16.5-14.44-28.25,1.08-5.61,4.29-10.55,4.89-16.28,3.4-1.11,5.41-3.14,4.59-7,5.94,0.21,13.09,4.58,16.25-4.75h0c4.48-2,11.5,3.22,13.85-4.86,1.17-1.76,2.94-2.06,4.86-2,3,1.58,1.06,6.79,2.62,6.74,4.31-.14,6.07,2.27,8,5.09,1.72,8.7.7,15.56-10.55,15.18-3.3-.11-5.54,1.72-5.68,4.47-0.59,11.65-9.36,18.57-15.09,27.25" transform="translate(-78.42 -6270.82)"/><path class="cls-88" d="M231.32,6312.6c-4.95-2.39-11.83-3.23-9.33-11.6,3.24-3.92,6.5-7.84,11.62-9.46,1,1.92,2.75,2.36,4.7,2.41-0.48,6.5,1.14,13.63-5.45,18.31l-1.54.34" transform="translate(-78.42 -6270.82)"/><path class="cls-36" d="M217.13,6303c0.3,15.59-8.74,4.62-13.84,4.86,4.08-3.14,8.88-4.25,13.84-4.86" transform="translate(-78.42 -6270.82)"/><path class="cls-89" d="M198.52,6688.13l4.38-2.54q-0.91,4.8-1.82,9.6c-2.95-1.59-2.55-4.4-2.56-7.06" transform="translate(-78.42 -6270.82)"/><path class="cls-37" d="M182.44,6319.61c1.17,2,2.94,2.84,1,6.45-4.38,8.19-4.14,17.12-1,26.36,1.88,5.62,7.3,7.14,9.59,11.72-7.54,5.11-12.68,11.07-7.36,20.75,5.24,4.46,4.24,10.65,4.57,16.48,0.06,0.76.09,1.52,0.13,2.29,5,11.62,3.28,21.66-7,29.68l-2.35.28c-2.17-1.2-5.23.56-7-2.11,11.9-11.62,11.31-26.12,9-40.78-0.69-4.39-4.46-.32-6.64-1.21-1.75-5.1-3.3-10.29-5.33-15.27-1.84-4.51-2.67-9-.55-13.46,6.82-14.25,5.81-17.94-8.11-27.21,2.38-5.44,8-5.42,12.43-6.7,6.2-1.79,4.92-4.11,1.51-7.36l1.94-2.4,5.18,2.49" transform="translate(-78.42 -6270.82)"/><path class="cls-20" d="M264,6706.59a32.3,32.3,0,0,1-2.39,18.68l-4.55-.1c2.31-3.72,2.51-7.78,1.94-12,0.25-3.28-.55-7.35,5-6.62" transform="translate(-78.42 -6270.82)"/><path class="cls-88" d="M201.3,6359.73c-1.29-2.52-2.57-6.39.08-7.31,9.5-3.3,9.06-11.72,11.64-19,1.56-4.39-.28-13.89,11.62-8.09,6,2.91,6.32-7.21,6.68-12.76,1.18-.55,2.74-0.29,2.93.71,2.1,10.81,10.16,17.56,16.92,25.2a5.07,5.07,0,0,1-1.29,2.87c-6.62,3.24-13.3,1.45-20,.33-8.28-1.38-13.16,1.42-12.52,10.64l-16.05,7.39" transform="translate(-78.42 -6270.82)"/><path class="cls-90" d="M217.35,6352.34c-4.59-9.2-1.92-14.17,7.83-14,8.3,0.1,16.31,3.64,24.76,2.25a2,2,0,0,1,3.13.44c-10.59,7.94-23.56,8.4-35.73,11.36" transform="translate(-78.42 -6270.82)"/><path class="cls-91" d="M173.84,6456.86c4.45,3.1,10,4.53,13.37,9.25,1.58,2.88-1.16,3.69-2.48,5.18-6,5.2-17-.55-20.7,9.54l-1.34-1.1c-0.88-8.57-2-17.21,6-23.54a10.27,10.27,0,0,1,5.17.67" transform="translate(-78.42 -6270.82)"/><path class="cls-91" d="M164,6480.83c-3.95,9.57.91,18.08,4.35,27.78H157.15a6.13,6.13,0,0,1-4.76.7c-1.65-6.4,3-13.65-2.67-19.51,3.22-2.81,4.43-6.66,6.11-10.46,2.64-6,5.69-4.76,7.69.84Z" transform="translate(-78.42 -6270.82)"/><path class="cls-92" d="M182.33,6433.34c4.32-9.42,9.21-18.72,7-29.68,5,5.82,6.94,13.69,14.69,19.82-9.47.86-12.58,10.88-21.69,9.86" transform="translate(-78.42 -6270.82)"/><path class="cls-92" d="M173.84,6456.86l-5.5.31c-5.39.29-7.56-3.23-7.63-7.66-0.09-5.13,1.78-9.66,7.64-11-0.69-3.83-2-8.06,4.68-7,2.5,0.09,5.19-.43,7,2.11-6.33,2.51-7.56,9.12-10.91,13.95-3.63,5.24,1.76,6.89,4.77,9.3" transform="translate(-78.42 -6270.82)"/><path class="cls-93" d="M189.2,6401.37c-3-5.07-4.09-10.7-4.58-16.48,6.21-.31,11.91,1.5,17.89,3.81-2.8,6.53-10.63,6.91-13.31,12.67" transform="translate(-78.42 -6270.82)"/><path class="cls-94" d="M193.36,6466.94l26.15,7c-10.44,2.14-20.34,0-30.22-2.44,0.75-2.07,2.94-2.87,4.07-4.6" transform="translate(-78.42 -6270.82)"/><path class="cls-95" d="M432,6662.37c1.79,0.43,4.67.32,5.18,1.37,1.57,3.23-2,4.73-3.75,6.05-3.82,2.84-5.09-1-6.68-3.51a7.92,7.92,0,0,1,5.25-3.92" transform="translate(-78.42 -6270.82)"/><path class="cls-55" d="M152,6508.45l5.1,0.16c-5,2.73-8,8.36-13.92,9.75l-0.67-.75c-3.14-5.55,2-6.75,4.82-9.16a3.16,3.16,0,0,1,4.66,0" transform="translate(-78.42 -6270.82)"/><path class="cls-20" d="M229.42,6687.55c-5.83-1-7,4.49-10.07,7.33,0.21-3.69.42-7.38,0.71-12.46l9.37,5.13" transform="translate(-78.42 -6270.82)"/><path class="cls-71" d="M253.08,6341l-3.13-.44c0-.76,0-1.53,0-2.29,1.48-4.49,3-8.88,9.31-7l0,0c5.08,6.45-5.69,4.8-4.68,9.16a1.89,1.89,0,0,1-1.54.55" transform="translate(-78.42 -6270.82)"/><path class="cls-96" d="M193.36,6466.94c5,7.12-2.76,3-4.07,4.6l-4.55-.25,2.48-5.18,6.15,0.83" transform="translate(-78.42 -6270.82)"/><path class="cls-97" d="M238.11,6476.13c1.33,0.83,2.52,1.19,3.06,2,0.85,1.27-.22,2.17-1.36,2.14A4.25,4.25,0,0,1,237,6479c-0.28-.31.61-1.65,1.11-2.84" transform="translate(-78.42 -6270.82)"/><path class="cls-98" d="M492.49,6419.83c0.16-1.13.85-2.55,0.41-3.34-6-10.55,2.14-11.25,8.88-12.95-0.55,6.88-1.47,13.55-9.29,16.28" transform="translate(-78.42 -6270.82)"/><path class="cls-99" d="M168.35,6438.48c-6.35,6.23-7.76,12.46,0,18.69-3.66,7.24-4.14,15.15-4.83,23-2.14-1-6.47-5.86-5.76.25,0.91,7.78-3,8.34-8,9.37,0-2.33,0-4.67,0-7,0.74-2.15,2.57-4.63,2-6.38-3.1-10.18-1.08-19,4.1-28.2,3.38-6,5-9.11,12.49-9.74" transform="translate(-78.42 -6270.82)"/><path class="cls-50" d="M105.41,6517.79c-2.72-1.68-2.23-4.44-2.33-7,1.67-3.1-2.9-6.21,0-9.31,4.53-6.58,2.71-13.87,2.31-21a20.62,20.62,0,0,1,11.67-2.33l7,2.33c-0.17,2.55-.23,4.36-3,6.51-3.06,2.35-6.21,8-.31,11.44,7.91,4.62,3.27,6.63-1.35,8.87-5.35,2.6-6.13,11.25-14,10.49" transform="translate(-78.42 -6270.82)"/><path class="cls-100" d="M117.08,6478.15c-3.41,3.18-7.23,4.27-11.66,2.33h0c-2.35-3.11-.2-6.22,0-9.32,0.22-2.94-1.07-6.75,1.77-8.48,8.09-4.91,4.14-9.8.6-14.89,2-1.78,3.8-4,6.93-2.3,0.22,1.9-.23,4.33.78,5.63,6.78,8.75,5.63,17.77,1.58,27" transform="translate(-78.42 -6270.82)"/><path class="cls-101" d="M114.72,6445.48l-6.93,2.3q0-2.32-.08-4.63a3,3,0,0,1-.69-2.9c2-2.83,2.62-7.3,7.71-6.39,0,0.77,0,1.53.06,2.3q0,4.66-.08,9.32" transform="translate(-78.42 -6270.82)"/><path class="cls-53" d="M107.87,6440.92q-0.06,1.12-.16,2.24l-4.34,6.57c-3.52-9.13,1.63-16.93,2-25.17,4.23-2.25,7.15-5.34,7-10.54-0.14-3.68,1.2-6.56,4.72-8.15,5.61,5.88,6.61,13.81,9.31,21-3.59,2.25-7.56,2.59-11.66,2.38-2.94,3.51-4.28,8-6.86,11.69" transform="translate(-78.42 -6270.82)"/><path class="cls-51" d="M107.87,6440.92c0.62-4.88,2.12-9.23,6.86-11.69q0,2.32,0,4.64l-6.86,7.05" transform="translate(-78.42 -6270.82)"/><path class="cls-99" d="M152,6508.45h-4.66c1.92-6.07-5.35-13.3,2.34-18.65,13.52,4.62,6.27,11.84,2.33,18.64" transform="translate(-78.42 -6270.82)"/><path class="cls-99" d="M147.38,6508.45c-1.32,3.2-4.84,5.25-4.82,9.16-1.92.11-3.56-.36-4.52-2.2,0.37-6,4.34-7.18,9.34-7" transform="translate(-78.42 -6270.82)"/><path class="cls-54" d="M103.1,6501.48c-4.65,3.1,14.29,6.24,0,9.31-6-3.11-3.27-6.21,0-9.31" transform="translate(-78.42 -6270.82)"/><path class="cls-50" d="M105.42,6471.16c4.18,3.11-.82,6.22,0,9.32l-4.66-4.67a8,8,0,0,1,4.66-4.66" transform="translate(-78.42 -6270.82)"/><path class="cls-102" d="M369.2,6321.57c4.39-5.51,10.4-7.67,14-8.81,7.76-2.45,4.57,10,10.9,12-2.32,4.07,1.79,10.7-4.18,12.89-4.22,1.55-9.16-2.9-8.27-5.7,3.8-11.87-3.87-11-12.46-10.39" transform="translate(-78.42 -6270.82)"/><path class="cls-103" d="M259.28,6331.24c-3.93,1.24-6.47,4.32-9.31,7-12.12-4.26-15.44-14.91-18.65-25.65,5.78-4.92,1.2-13.73,7-18.65,6.79-4,13.26-1.69,17.44,3.35,4.59,5.52,5.89,13.12,7.26,20.28-11.31,1.8-1.59,9.35-3.73,13.66" transform="translate(-78.42 -6270.82)"/><path class="cls-104" d="M207.48,6330.48c1,7.73-7.88,19.06-15.76,20.49-1.53.28-2.91,0.75-4-1-2.9-4.58,7.29-29.29,12.54-29.45,6.73-.2,4.63,6.85,7.2,9.91" transform="translate(-78.42 -6270.82)"/></g></g></g></svg>