<svg id="Bateau" xmlns="http://www.w3.org/2000/svg" viewBox="0 0 410.37 343.36"><defs><style>.cls-1{fill:#1d1d1b;}.cls-2,.cls-3{fill:none;stroke:#1d1d1b;stroke-linecap:round;}.cls-2{stroke-linejoin:round;stroke-width:2px;}.cls-3{stroke-miterlimit:10;}</style></defs><title>bateau</title><g id="Calque_1" data-name="Calque 1"><polygon class="cls-1" points="194.08 314.19 186.5 314.19 187.89 7.47 192.69 7.47 194.08 314.19"/><path class="cls-1" d="M380.11,215.67s-11.81,3-20.41,5.8-17.9,3.28-24.3,1.77-21.33-4.37-21.33-4.37,0.49-5.53-3.63-15.24S281,164.34,277.07,162.2c0,0,21.1,10.12,36.47,18.88s38.1,18.7,47.23,23.06,20.53,10.53,20.53,10.53Z"/><g id="voiles"><path id="voile" class="cls-1" d="M275.78,169a107.65,107.65,0,0,0-4-23L270.9,143a112.13,112.13,0,0,0-14-28.15h-155c3.72,3.63,6.59,10.34,8.78,16.08l0.7,1.5,0.22,1.34c0.4,1.19.79,2.44,1.13,3.66l0.79,3c5.06,20.5,3.18,44.71-.41,65.06l-1,5.51a292.63,292.63,0,0,1-10.21,38.38s82.57-6,107.24-6c20.41,0,52.1,6,52.1,6s5.73-17.23,11.28-41.73l0.7-3.26a135.33,135.33,0,0,0,2.8-30.63"/><path id="voile-2" data-name="voile" class="cls-1" d="M251.37,72.67A34.83,34.83,0,0,0,248.48,62l-0.6-1.43a48.66,48.66,0,0,0-10-13.13h-111c2.66,1.69,4.72,4.82,6.29,7.5l0.35,0.7,0.31,0.63c0.29,0.56.56,1.14,0.81,1.71l0.56,1.39c3.62,9.56,2.27,20.85-.29,30.34l-0.72,2.57a102.16,102.16,0,0,1-7.31,17.9s69-1.9,86.69-1.9a141.2,141.2,0,0,1,24.26,1.86A62.7,62.7,0,0,0,249,90.7l0.5-1.52a41.94,41.94,0,0,0,2-14.28"/><path id="voile-3" data-name="voile" class="cls-1" d="M362.39,122.67A34.83,34.83,0,0,0,359.5,112l-0.6-1.43a48.66,48.66,0,0,0-10-13.13h-75c2.66,1.69,4.72,4.82,6.28,7.5l4.31,0.73-3.64.59c0.29,0.56.56,1.14,0.81,1.71l0.56,1.39c3.62,9.56,2.28,20.85-.29,30.34l-0.73,2.57a102.18,102.18,0,0,1-7.3,17.9s34.06-3.9,51.72-3.9c14.61,0,23.26,3.86,23.26,3.86A62.68,62.68,0,0,0,360,140.7l0.5-1.52a41.91,41.91,0,0,0,2-14.28"/></g><path class="cls-1" d="M322.2,266.25l84.33-47a2.27,2.27,0,0,1,3,.86l0.39,0.67a3.26,3.26,0,0,1-1,4.36l-79.29,53.71Z"/><path class="cls-1" d="M138.08,343.36c-45.24,0-82.55-32.59-82-52V261.25h99.52v13.16a0.11,0.11,0,0,0,.11.11H168v2.13c0,11.14,9.06,11.21,20.2,11.21h23.24c11.14,0,20.21-.06,20.21-11.21V261.51H340.37v29.81c-1.51,16.79-36.81,52-82,52H138.08Z"/><g id="drapeaux"><path class="cls-1" d="M185.08,12.79s-3.94,6.08-4.19,12.21c-0.19,4.78,1,7.11,1,7.11a66.69,66.69,0,0,1-21-.06c-11.17-2-17.26-1.94-26.43-1.58a28.33,28.33,0,0,0,2.45-10.15c0.1-3.48-2.89-7.22-.58-10.11,0,0,8.25-2.64,22.63.63a82.71,82.71,0,0,0,26.18,1.94"/><path class="cls-1" d="M290.65,57.82c-3.87,3.37-6.44,4.6-11.52,2.44s-10.83,3.52-10.83,3.52,3.29,4.33,5.62,7.31c0,0-2.74,7.58-5.62,10.83a93.67,93.67,0,0,0,13.16,0c6.17-.54,9-6.23,13.85-6.77s11.38,2.51,11.38,2.51v-19s-11.38-4.87-16-.81"/><path id="drapeau" class="cls-1" d="M41.28,212.68c-6.14-.6-12.25-0.58-11.54,1.57s-4.26,1-10-.18S13.32,215.16,14,217s-4.93,1.46-8,5-6,23.72-6,23.72,4.94-7,13-7.49,15.21,0.79,13.1-2.34-0.19-3.34,3.62-2.64,5,3.08,5,3.08,2.44-11.27,4-16.21,2.54-7.41,2.54-7.41"/></g><rect class="cls-1" x="40.57" y="261.25" width="114.97" height="9.76"/><path class="cls-1" d="M148.73,236.9"/><path class="cls-1" d="M40.57,236.9"/><rect class="cls-1" x="47.08" y="239.03" width="5.75" height="22.23"/><rect class="cls-1" x="65.71" y="239.03" width="5.75" height="22.23"/><rect class="cls-1" x="84.35" y="239.03" width="5.75" height="22.23"/><rect class="cls-1" x="102.99" y="239.03" width="5.75" height="22.23"/><rect class="cls-1" x="121.63" y="239.03" width="5.75" height="22.23"/><rect class="cls-1" x="140.26" y="239.03" width="5.75" height="22.23"/><rect class="cls-1" x="40.57" y="236.9" width="108.15" height="4.88"/><polygon class="cls-1" points="78.84 280.95 36.28 207.27 38.4 205.89 83.52 280.17 78.84 280.95"/><path class="cls-1" d="M99.12,249.4a4.73,4.73,0,1,1-4.73-4.73,4.73,4.73,0,0,1,4.73,4.73"/><rect class="cls-1" x="96.84" y="247.25" width="168.86" height="4.09"/><path class="cls-1" d="M270.68,249.4a4.73,4.73,0,1,1-4.73-4.73,4.73,4.73,0,0,1,4.73,4.73"/><path class="cls-1" d="M318.08,314.19"/><path class="cls-1" d="M316.69,53.47"/><rect class="cls-1" x="270.28" y="158.17" width="84.9" height="2.93"/><path class="cls-1" d="M358.74,159.72a3.39,3.39,0,1,1-3.39-3.39,3.39,3.39,0,0,1,3.39,3.39"/><path class="cls-1" d="M271.91,99.59a3.39,3.39,0,1,1-3.39-3.39,3.39,3.39,0,0,1,3.39,3.39"/><path class="cls-1" d="M358.74,99.59a3.39,3.39,0,1,1-3.39-3.39,3.39,3.39,0,0,1,3.39,3.39"/><rect class="cls-1" x="270.28" y="98.04" width="84.9" height="2.93"/><path class="cls-1" d="M318.08,50a4,4,0,1,1-4-4,4,4,0,0,1,4,4"/><path class="cls-1" d="M317.26,56.74h-6.42a1.55,1.55,0,0,1-1.55-1.55V55a1.55,1.55,0,0,1,1.55-1.55h6.42a1.64,1.64,0,0,1,0,3.28"/><polygon class="cls-1" points="318.08 314.19 310.5 314.19 311.89 53.47 316.69 53.47 318.08 314.19"/><path class="cls-1" d="M194.08,4a4,4,0,1,1-4-4,4,4,0,0,1,4,4"/><path class="cls-1" d="M193.26,10.74h-6.42a1.55,1.55,0,0,1-1.55-1.55V9a1.55,1.55,0,0,1,1.55-1.55h6.42a1.64,1.64,0,0,1,0,3.28"/><path class="cls-1" d="M124.91,49.59a3.39,3.39,0,1,1-3.39-3.39,3.39,3.39,0,0,1,3.39,3.39"/><path class="cls-1" d="M247.72,49.59a3.39,3.39,0,1,1-3.39-3.39,3.39,3.39,0,0,1,3.39,3.39"/><rect class="cls-1" x="123.28" y="48.04" width="120.87" height="2.93"/><path class="cls-1" d="M124.91,109.72a3.39,3.39,0,1,1-3.39-3.39,3.39,3.39,0,0,1,3.39,3.39"/><path class="cls-1" d="M247.72,109.72a3.39,3.39,0,1,1-3.39-3.39,3.39,3.39,0,0,1,3.39,3.39"/><rect class="cls-1" x="123.28" y="108.17" width="120.87" height="2.93"/><path class="cls-1" d="M99.12,117.9a4.73,4.73,0,1,1-4.73-4.73,4.73,4.73,0,0,1,4.73,4.73"/><path class="cls-1" d="M270.68,117.9a4.73,4.73,0,1,1-4.73-4.73,4.73,4.73,0,0,1,4.73,4.73"/><rect class="cls-1" x="96.84" y="115.75" width="168.86" height="4.09"/></g><g id="Calque_2" data-name="Calque 2"><line class="cls-2" x1="185.43" y1="24.77" x2="41.03" y2="264.64"/><path class="cls-2" d="M101.87,114.86c-18.48,41.78-14.23,93.78,1.23,136.77"/><path class="cls-2" d="M255.39,325.59c18.19-82.82,43.09-180.88,58.71-270.4"/><path class="cls-2" d="M294.86,330.53c6.86-90,17-153.71,22.16-253.76"/><path class="cls-2" d="M401.56,226.87c-0.45-.56-208.71-189.1-208.71-189.1"/><path class="cls-2" d="M41.75,210.85c-11.07,21.74-5.51,49.82,14.9,75.29"/><path class="cls-2" d="M176.73,336.83l13.74-299"/><path class="cls-2" d="M208.28,337.63q-11.08-163-22.17-326.06"/><path class="cls-2" d="M215.59,337.63L193.42,11.58"/><line class="cls-2" x1="188.03" y1="37.77" x2="101.88" y2="249.37"/><path class="cls-2" d="M186.5,116.83s198.65,99.13,215.07,110"/><path class="cls-3" d="M317,58c-2.7.2-6.48,1.06-10.33,1.13"/><path class="cls-3" d="M317,76.77c-3.4-.26-7.4,1.36-11.16,0"/><path class="cls-3" d="M311.42,60.24c3.1,0.15,4.34,0,5.62.15"/><path class="cls-3" d="M311.45,59.66c3.08-.35,4.28-0.72,5.57-0.77"/><path class="cls-3" d="M311.45,59.14c3.08-.35,4.28-0.72,5.57-0.77"/><path class="cls-3" d="M317,76.77c-3.4-.26-7.4,1.36-11.16,0"/><path class="cls-3" d="M311.45,77.9c3.08-.35,4.28-0.72,5.57-0.77"/><path class="cls-3" d="M311.42,79c3.1,0.16,4.34,0,5.62.15"/><path class="cls-2" d="M129.19,111.46a34.9,34.9,0,0,0-2.62-3.33"/><path class="cls-2" d="M125.8,108.48a35,35,0,0,1,2,3.72"/><path class="cls-2" d="M127.86,107.46a34.88,34.88,0,0,1,2.21,3.61"/><path class="cls-2" d="M238.12,111.88a35,35,0,0,0,.32-4.22"/><path class="cls-2" d="M237.63,107.39a34.78,34.78,0,0,1-1,4.1"/><path class="cls-2" d="M239.85,108a34.9,34.9,0,0,1-.81,4.15"/><path class="cls-3" d="M193,12c-2.7.2-6.48,1.06-10.33,1.13"/><path class="cls-3" d="M187.45,13.66c3.08-.35,4.29-0.72,5.57-0.77"/><path class="cls-3" d="M187.42,14.24c3.1,0.15,4.34,0,5.62.15"/><path class="cls-3" d="M193,30.77c-3.4-.26-10.63.75-14.19,1.13"/><path class="cls-3" d="M187.45,31.9c3.08-.35,4.29-0.72,5.57-0.77"/><path class="cls-3" d="M187.42,33c3.1,0.16,4.34,0,5.62.15"/><path class="cls-2" d="M276.19,161.46a34.71,34.71,0,0,0-2.61-3.33"/><path class="cls-2" d="M274.86,157.46a35,35,0,0,1,2.21,3.6"/><path class="cls-2" d="M349.14,161.88a35,35,0,0,0,.32-4.22"/><path class="cls-2" d="M348.66,157.39a34.8,34.8,0,0,1-1,4.1"/><path class="cls-2" d="M350.87,158a34.67,34.67,0,0,1-.81,4.15"/><path class="cls-2" d="M105.1,251.84a48.86,48.86,0,0,0-3.65-4.65"/><path class="cls-2" d="M100.35,247.68a48.61,48.61,0,0,1,2.81,5.2"/><path class="cls-2" d="M257.27,252.43a48.61,48.61,0,0,0,.45-5.89"/><path class="cls-2" d="M256.59,246.15a48.82,48.82,0,0,1-1.44,5.73"/><path class="cls-2" d="M259.68,247a48.65,48.65,0,0,1-1.13,5.8"/><path class="cls-2" d="M102.18,120.68a55.28,55.28,0,0,0-.64-5.76"/><path class="cls-2" d="M100.56,114.86a57.8,57.8,0,0,1-.2,5.88"/><path class="cls-2" d="M103.23,114.86a57.16,57.16,0,0,1,.07,5.86"/></g></svg>