<svg id="groupe-boussole" xmlns="http://www.w3.org/2000/svg" viewBox="0 0 3300 2425"><defs><style>.cls-1,.cls-10,.cls-11,.cls-12,.cls-2,.cls-3,.cls-5,.cls-6,.cls-7,.cls-9{fill:none;}.cls-1,.cls-10,.cls-11,.cls-2,.cls-3,.cls-6,.cls-7,.cls-8,.cls-9{stroke:#1d1d1b;}.cls-1,.cls-10,.cls-11,.cls-12,.cls-2,.cls-3,.cls-6,.cls-7,.cls-8,.cls-9{stroke-miterlimit:10;}.cls-1,.cls-2,.cls-7,.cls-8,.cls-9{stroke-width:5px;}.cls-1{stroke-dasharray:8 3;}.cls-12,.cls-3{stroke-width:4px;}.cls-4{fill:#1d1d1b;}.cls-6{stroke-width:0.75px;}.cls-7{opacity:0.7;}.cls-8{fill:#fff;}.cls-8,.cls-9{stroke-dasharray:8 8;}.cls-10{stroke-width:3px;}.cls-11{stroke-width:6px;}.cls-12{stroke:#000;fill-rule:evenodd;}</style></defs><title>boussole</title><g id="boussole"><path class="cls-1" d="M1090.46 1163.39a194.49 194.49 0 0 1 10.75 148.92c-34 102.25-144.38 157.61-246.62 123.64s-157.6-144.37-123.65-246.61a194.4 194.4 0 0 1 92.36-110.12"/><path class="cls-2" d="M1041.37 837.63l-261.08 849.33"/><path class="cls-3" d="M1044.28 1182.13a146.11 146.11 0 1 1-198.06-58.87 146.12 146.12 0 0 1 198.06 58.87z"/><path class="cls-2" d="M1029.99 1189.88a129.86 129.86 0 1 1-176-52.32 129.87 129.87 0 0 1 176 52.32z"/><path class="cls-2" d="M1032.06 1435.86l28.71 69.76-158.35-212.54-248.75 91.52 216.29-148.74-99.9-242.76 158.35 212.55 248.75-91.52-216.29 148.75 71.19 172.98"/><path class="cls-2" d="M960.41 1225.61l262.87 118.89-284.12-50.15-118.89 262.87 50.15-284.11-262.87-118.89 284.11 50.14 118.89-262.86-50.14 284.11z"/><path class="cls-2" d="M1052.77 916.13a47.21 47.21 0 1 1-64-19 47.2 47.2 0 0 1 64 19z"/><path class="cls-4" d="M1223.55 1343.89l-307.78-94.42 23.39 44.88 284.39 49.54zM818.76 1561.72l96-312.56-43.77 22.94-52.23 289.62zM608.78 1155.18l306.99 94.29-24.11-45.11-282.88-49.18zM1009.83 945.61l-94.06 303.86 44.64-23.86 49.42-280z"/><path class="cls-2" d="M1053.72 881.85l-47.53-14.12M1002.3 839.29l53.25-50.42 17.04 71.32"/><path class="cls-2" d="M1072.59 860.19l-31.22-22.56-39.07 1.66"/><path class="cls-3" d="M774.64 1599.95l36.61-16.17 21.18 33.97M766.34 1626.88l36.63-16.17 21.16 33.98M832.43 1617.75l-8.3 26.94M774.64 1599.95l-8.3 26.93"/><path class="cls-3" d="M762.77 1638.48l36.62-16.18 21.18 33.97M754.48 1665.41l36.62-16.18 21.17 33.98M820.57 1656.27l-8.3 26.94M762.77 1638.48l-8.29 26.93"/><circle class="cls-2" cx="915.77" cy="1249.47" r="346.23"/><circle class="cls-7" cx="915.77" cy="1249.47" r="637.24"/><circle class="cls-7" cx="915.77" cy="1249.48" r="913.27"/><path class="cls-7" d="M1226.63 1088.6l1618.24-854.85"/><path class="cls-2" d="M1256.63 1358.63l1871.24 522.05M746.87 949.75L497.55 497.54"/><path class="cls-8" d="M1259.63 1226.61l1945.24-138.86"/><path class="cls-9" d="M1259.63 1298.62l1868.24 210.02M1247.63 1133.6l2049.2-564.06M1139.62 977.58l1092.1-951.09M1202.62 1454.63l1925.25 966.1"/></g><g id="ile"><g id="montagnes"><path class="cls-4" d="M2863.92 211.75l12.12-21 12.13 21h-24.25zM2906.92 185.75l12.12-21 12.13 21h-24.25zM3008.92 201.75l12.12-21 12.13 21h-24.25z"/></g><g id="croix"><path class="cls-10" d="M2888.87 110.75v30M2876.87 118.75h21"/></g><path id="rivage" class="cls-10" d="M2820.02.08s-14.81 271.11 59.23 290.47c0 0 45.56 10.25 55.82-30.76 0 0 8-38.73 87.71-30.76 0 0 59.23 44.42 85.43 39.87 0 0 61.51-1.14 68.35-25.06"/><path class="cls-11" d="M3175.87 9.75l-344 2s-13 238 52 255c0 0 40 9 49-27 0 0 7-34 77-27 0 0 52 39 75 35 0 0 54-1 60-22z"/></g><g id="vague4" class="vague"><path class="cls-12" d="M2220.87 1325.75h28s8-35 45-26c0 0-28 16-8 26h14"/><path class="cls-12" d="M2285.87 1325.75h13s8-35 45-26c0 0-28 16-8 26h16"/><path class="cls-12" d="M2336.87 1325.75h13s8-35 45-26c0 0-28 16-8 26h22"/></g><g id="vague5" class="vague"><path class="cls-12" d="M2695.87 1431.75h28s8-35 45-26c0 0-28 16-8 26h14"/><path class="cls-12" d="M2760.87 1431.75h13s8-35 45-26c0 0-28 16-8 26h16"/><path class="cls-12" d="M2811.87 1431.75h13s8-35 45-26c0 0-28 16-8 26h22"/></g><g id="vague2" class="vague"><path class="cls-12" d="M2765.87 679.75h28s8-35 45-26c0 0-28 16-8 26h14"/><path class="cls-12" d="M2830.87 679.75h13s8-35 45-26c0 0-28 16-8 26h16"/><path class="cls-12" d="M2881.87 679.75h13s8-35 45-26c0 0-28 16-8 26h22"/></g><g id="vague1" class="vague"><path class="cls-12" d="M1573.87 131.75h28s8-35 45-26c0 0-28 16-8 26h14"/><path class="cls-12" d="M1638.87 131.75h13s8-35 45-26c0 0-28 16-8 26h16"/><path class="cls-12" d="M1689.87 131.75h13s8-35 45-26c0 0-28 16-8 26h22"/></g><g id="vague3" class="vague"><path class="cls-12" d="M727.87 771.75h28s8-35 45-26c0 0-28 16-8 26h14"/><path class="cls-12" d="M792.87 771.75h13s8-35 45-26c0 0-28 16-8 26h16"/><path class="cls-12" d="M843.87 771.75h13s8-35 45-26c0 0-28 16-8 26h22"/></g><g id="vague6" class="vague"><path class="cls-12" d="M2151.73 1793.67h28s8-35 45-26c0 0-28 16-8 26h14"/><path class="cls-12" d="M2216.73 1793.67h13s8-35 45-26c0 0-28 16-8 26h16"/><path class="cls-12" d="M2267.73 1793.67h13s8-35 45-26c0 0-28 16-8 26h22"/></g></svg>