<svg id="gun" xmlns="http://www.w3.org/2000/svg" viewBox="0 0 749.91 1341.72"><defs><style>.cls-1{opacity:0.9;}.cls-2{fill:#1d1d1b;}.cls-3,.cls-5,.cls-6,.cls-7{fill:none;stroke-miterlimit:10;}.cls-3{stroke:#231f20;}.cls-4{fill:#404042;}.cls-5,.cls-6,.cls-7{stroke:#bbbdbf;}.cls-5{stroke-width:0.5px;}.cls-6{stroke-width:2px;}</style></defs><title>gun</title><g class="cls-1"><path class="cls-2" d="M2061.5,4970.7" transform="translate(-2008.16 -4960.01)"/><path class="cls-2" d="M2745.3,5783.19s5.63,6.28-4.82,9.58c0,0-8.7-12.92-21.12-17.72s-22.31-3.66-33.66-.79-31.7,6.76-40.82,1c0,0-8,13.3-20.66,22.35s-35.53,19.51-35.53,19.51l-2.14-15.37,50.3-92.36,18-9.86s-2.47,15,6.86,28,36.39,28.2,45.67,29.83,30.52,12.42,37.91,25.83" transform="translate(-2008.16 -4960.01)"/><path class="cls-2" d="M2745.3,5783.19s5.63,6.28-4.82,9.58c0,0-8.7-12.92-21.12-17.72s-22.31-3.66-33.66-.79-31.7,6.76-40.82,1c0,0-8,13.3-20.66,22.35s-35.53,19.51-35.53,19.51l-2.14-15.37,50.3-92.36,18-9.86s-2.47,15,6.86,28,36.39,28.2,45.67,29.83S2737.91,5769.77,2745.3,5783.19Z" transform="translate(-2008.16 -4960.01)"/><path class="cls-2" d="M2477.54,5466.47l-95.4,68.9s-1.07,7.13-11.69,31.06S2336,5613,2336,5613s-5,8-3.2,15.11,13.89,32.08,13.89,32.08l2.07-1.67,159.76,230.05,83.58-61.66-5.49-25.19-70.89-282.31Z" transform="translate(-2008.16 -4960.01)"/><path class="cls-2" d="M2477.54,5466.47l-95.4,68.9s-1.07,7.13-11.69,31.06S2336,5613,2336,5613s-5,8-3.2,15.11,13.89,32.08,13.89,32.08l2.07-1.67,159.76,230.05,83.58-61.66-5.49-25.19-70.89-282.31Z" transform="translate(-2008.16 -4960.01)"/><path class="cls-2" d="M2477.54,5466.47s3.36-10.68,18.15,1.32,30.91,26.35,48.45,50.94S2648.71,5652,2648.71,5652s26.07,27.4,4.46,49.36l-11.39,9.18s7.13,18.74,3.36,30.32-16,31.08-58.58,60.88l-7.23-9s-18,18.88-52.56,15.58c-35-3.33-46.15-20.52-52.83-28.81l-106.6-138.87,148.33-121.24Z" transform="translate(-2008.16 -4960.01)"/><path class="cls-2" d="M2477.54,5466.47s3.36-10.68,18.15,1.32,30.91,26.35,48.45,50.94S2648.71,5652,2648.71,5652s26.07,27.4,4.46,49.36l-11.39,9.18s7.13,18.74,3.36,30.32-16,31.08-58.58,60.88l-7.23-9s-18,18.88-52.56,15.58c-35-3.33-46.15-20.52-52.83-28.81l-106.6-138.87,148.33-121.24Z" transform="translate(-2008.16 -4960.01)"/><path class="cls-2" d="M2066.16,4963.06s-26.16,2.86-58,46.74L2414,5512l32.48-20.48,31.07-25Z" transform="translate(-2008.16 -4960.01)"/><path class="cls-2" d="M2066.16,4963.06s-26.16,2.86-58,46.74L2414,5512l32.48-20.48,31.07-25Z" transform="translate(-2008.16 -4960.01)"/><path class="cls-2" d="M2133.51,5045.47s-2-12.1,6-17.35,9.84-11.35,2.47-19.07-30.64-22-39.2-26.5-17.3,4.12-17.3,4.12Z" transform="translate(-2008.16 -4960.01)"/><path class="cls-2" d="M2133.51,5045.47s-2-12.1,6-17.35,9.84-11.35,2.47-19.07-30.64-22-39.2-26.5-17.3,4.12-17.3,4.12Z" transform="translate(-2008.16 -4960.01)"/><path class="cls-2" d="M2174.5,5163.93s-24.36,3.69-37.29,30.05l47,60.11L2439,5582.17s31.67-26.66,46.73-37.66Z" transform="translate(-2008.16 -4960.01)"/><path class="cls-2" d="M2174.5,5163.93s-24.36,3.69-37.29,30.05l47,60.11L2439,5582.17s31.67-26.66,46.73-37.66Z" transform="translate(-2008.16 -4960.01)"/><path class="cls-2" d="M2181.91,5259.34s-8.82,11.67-16.57,13.36-24.33,3.3-14.47-18c4.17-9,17-21.61,17-21.61l18.1,24.11Z" transform="translate(-2008.16 -4960.01)"/><path class="cls-2" d="M2181.91,5259.34s-8.82,11.67-16.57,13.36-24.33,3.3-14.47-18c4.17-9,17-21.61,17-21.61l18.1,24.11Z" transform="translate(-2008.16 -4960.01)"/><path class="cls-2" d="M2384.43,5533.53l-22-34.65s-5.13-7.26,2.45-12.24l30,38.44Z" transform="translate(-2008.16 -4960.01)"/><path class="cls-2" d="M2384.43,5533.53l-22-34.65s-5.13-7.26,2.45-12.24l30,38.44Z" transform="translate(-2008.16 -4960.01)"/><polygon class="cls-2" points="615.25 704.42 509.51 573.21 380.37 677.28 482.21 803.66 615.25 704.42"/><polygon class="cls-2" points="615.25 704.42 509.51 573.21 380.37 677.28 482.21 803.66 615.25 704.42"/><path class="cls-2" d="M2505.12,5550.17l49.53,61.46s7.1,10.23-7.27,20.66-25.94-11-31.5-17.89-39.34-48-39.34-48l25.24-20.34Z" transform="translate(-2008.16 -4960.01)"/><path class="cls-2" d="M2505.12,5550.17l49.53,61.46s7.1,10.23-7.27,20.66-25.94-11-31.5-17.89-39.34-48-39.34-48l25.24-20.34Z" transform="translate(-2008.16 -4960.01)"/><path class="cls-2" d="M2440.77,5602l49.53,61.46s7.1,10.23-7.27,20.66-25.94-11-31.5-17.89-39.34-48-39.34-48l25.25-20.34Z" transform="translate(-2008.16 -4960.01)"/><path class="cls-2" d="M2440.77,5602l49.53,61.46s7.1,10.23-7.27,20.66-25.94-11-31.5-17.89-39.34-48-39.34-48l25.25-20.34Z" transform="translate(-2008.16 -4960.01)"/><rect class="cls-2" x="2593.11" y="5613.77" width="5.32" height="63.86" transform="translate(-4976.19 -2081.24) rotate(-38.87)"/><rect class="cls-2" x="2593.11" y="5613.77" width="5.32" height="63.86" transform="translate(-4976.19 -2081.24) rotate(-38.87)"/><polygon class="cls-2" points="553.34 750.61 509.54 696.26 494.93 708.03 538.28 761.83 553.34 750.61"/><polygon class="cls-2" points="553.34 750.61 509.54 696.26 494.93 708.03 538.28 761.83 553.34 750.61"/><polygon class="cls-2" points="491.48 796.75 449.49 744.65 444.65 748.56 486.8 800.52 491.48 796.75"/><polygon class="cls-2" points="491.48 796.75 449.49 744.65 444.65 748.56 486.8 800.52 491.48 796.75"/><path class="cls-2" d="M2384.91,5729.62l72.19,103,2.16,9.76L2407.34,5785s-10.63-9.66-20.82-11.7-29-3.43-42.84,8.32-33.19,35.85-1.18,78.4,46.83,42.56,65.23,38.55c14.26-3.11,28.54-19,34.06-26.3,4-5.29,14.2-15.58,19.48-20.81l14.18,64A373.11,373.11,0,0,1,2490,5958.2c6.8,24.7-5.34,42.14-5.34,42.14,10.25-32.51-5.34-66-18.42-82.22s-32.39-12.63-61.94-7.6-50.19-14.23-72-42.75c-27.27-35.6-19.48-65.17-10.87-77.8,13.66-20,36.93-35.45,43.11-49s-2.24-26.1-2.24-26.1l0.42-3.3Z" transform="translate(-2008.16 -4960.01)"/><path class="cls-2" d="M2384.91,5729.62l72.19,103,2.16,9.76L2407.34,5785s-10.63-9.66-20.82-11.7-29-3.43-42.84,8.32-33.19,35.85-1.18,78.4,46.83,42.56,65.23,38.55c14.26-3.11,28.54-19,34.06-26.3,4-5.29,14.2-15.58,19.48-20.81l14.18,64A373.11,373.11,0,0,1,2490,5958.2c6.8,24.7-5.34,42.14-5.34,42.14,10.25-32.51-5.34-66-18.42-82.22s-32.39-12.63-61.94-7.6-50.19-14.23-72-42.75c-27.27-35.6-19.48-65.17-10.87-77.8,13.66-20,36.93-35.45,43.11-49s-2.24-26.1-2.24-26.1l0.42-3.3Z" transform="translate(-2008.16 -4960.01)"/><path class="cls-2" d="M2464.56,5848.25s-1.29,1.26-3.29,3.23l-2-9.09Z" transform="translate(-2008.16 -4960.01)"/><path class="cls-2" d="M2464.56,5848.25s-1.29,1.26-3.29,3.23l-2-9.09Z" transform="translate(-2008.16 -4960.01)"/><path class="cls-2" d="M2430.2,5812.71a67.65,67.65,0,0,1-7,18.16c-5.5,10.13-15.91,24.79-25.25,29.46s-24.06,9.71-24.67,15.32,5.15,7.81,24-2.79,44.73-40.6,44.73-40.6-1.45-19.37-11.8-19.55" transform="translate(-2008.16 -4960.01)"/><path class="cls-2" d="M2430.2,5812.71a67.65,67.65,0,0,1-7,18.16c-5.5,10.13-15.91,24.79-25.25,29.46s-24.06,9.71-24.67,15.32,5.15,7.81,24-2.79,44.73-40.6,44.73-40.6S2440.55,5812.89,2430.2,5812.71Z" transform="translate(-2008.16 -4960.01)"/><path class="cls-2" d="M2592.06,5826.95s4.27,13.08.28,20.85-16.49,18.41-10.7,29.12,32.18,39,39.61,63.76L2551.34,5857Z" transform="translate(-2008.16 -4960.01)"/><path class="cls-2" d="M2592.06,5826.95s4.27,13.08.28,20.85-16.49,18.41-10.7,29.12,32.18,39,39.61,63.76L2551.34,5857Z" transform="translate(-2008.16 -4960.01)"/><path class="cls-2" d="M2484.62,6000.34c-18,74.46-82.95,98.49-100.37,105.14s-31.19,5.88-33,17.48c-1.35,8.68,29.6,41.45,73.11,94.48,41.37,50.44,64.4,86.75,79.78,84.16,14.88-2.5,32-79.59,98.09-181.94,39.86-61.74,37.2-120.15,20.09-178.13l-71-84.54-80.09,58.21s22.87,45.91,13.37,85.14" transform="translate(-2008.16 -4960.01)"/><path class="cls-2" d="M2484.62,6000.34c-18,74.46-82.95,98.49-100.37,105.14s-31.19,5.88-33,17.48c-1.35,8.68,29.6,41.45,73.11,94.48,41.37,50.44,64.4,86.75,79.78,84.16,14.88-2.5,32-79.59,98.09-181.94,39.86-61.74,37.2-120.15,20.09-178.13l-71-84.54-80.09,58.21S2494.11,5961.11,2484.62,6000.34Z" transform="translate(-2008.16 -4960.01)"/><path class="cls-2" d="M2348.72,5658.56l160.22,229.21-37.69,27.43-29.45-42.9s10.54-15.9,1.18-37.4c-5.62-12.93-20.91-37.26-35.64-49.87a207.28,207.28,0,0,0-17.29-32.77c-11.35-17.62-45.81-66.73-50.21-75.72-3.27-6.69,3.23-13.37,6.77-16.35l0,0Z" transform="translate(-2008.16 -4960.01)"/><path class="cls-2" d="M2348.72,5658.56l160.22,229.21-37.69,27.43-29.45-42.9s10.54-15.9,1.18-37.4c-5.62-12.93-20.91-37.26-35.64-49.87a207.28,207.28,0,0,0-17.29-32.77c-11.35-17.62-45.81-66.73-50.21-75.72-3.27-6.69,3.23-13.37,6.77-16.35l0,0Z" transform="translate(-2008.16 -4960.01)"/><path class="cls-2" d="M2348.72,5658.56l-2.07,1.67,0,0c1.22-1,2.1-1.63,2.1-1.63" transform="translate(-2008.16 -4960.01)"/><path class="cls-2" d="M2348.72,5658.56l-2.07,1.67,0,0C2347.84,5659.15,2348.72,5658.56,2348.72,5658.56Z" transform="translate(-2008.16 -4960.01)"/><path class="cls-2" d="M2592.41,5760c-29.42,21.5-68.42,21.73-101,4.09l132-99.64c6.92,36.38-1.58,74.06-31,95.55" transform="translate(-2008.16 -4960.01)"/><path class="cls-2" d="M2592.41,5760c-29.42,21.5-68.42,21.73-101,4.09l132-99.64C2630.33,5700.81,2621.83,5738.49,2592.41,5760Z" transform="translate(-2008.16 -4960.01)"/><line class="cls-2" x1="435.54" y1="533.73" x2="380.77" y2="569.89"/><line class="cls-2" x1="435.54" y1="533.73" x2="380.77" y2="569.89"/><path class="cls-2" d="M2519.61,6078.4a16,16,0,1,0,22.45,2.41,16,16,0,0,0-22.45-2.41" transform="translate(-2008.16 -4960.01)"/><circle class="cls-2" cx="2529.63" cy="6090.83" r="15.97" transform="translate(-5270.31 -2023.93) rotate(-38.87)"/><path class="cls-2" d="M2474.74,5809.29a6.21,6.21,0,1,0,8.73.94,6.21,6.21,0,0,0-8.73-.94" transform="translate(-2008.16 -4960.01)"/><circle class="cls-2" cx="2478.64" cy="5814.13" r="6.21" transform="translate(-5107.92 -2117.27) rotate(-38.87)"/><path class="cls-2" d="M2534.53,5834a6.21,6.21,0,1,0,8.73.93,6.2,6.2,0,0,0-8.73-.93" transform="translate(-2008.16 -4960.01)"/><circle class="cls-2" cx="2538.43" cy="5838.84" r="6.21" transform="translate(-5109.94 -2074.77) rotate(-38.86)"/></g><path class="cls-3" d="M2072.5,4968.7" transform="translate(-2008.16 -4960.01)"/><path class="cls-4" d="M2756.3,5781.19s5.63,6.28-4.82,9.58c0,0-8.7-12.92-21.12-17.72s-22.31-3.66-33.66-.79-31.7,6.76-40.82,1c0,0-8,13.3-20.66,22.35s-35.53,19.51-35.53,19.51l-2.14-15.37,50.3-92.36,18-9.86s-2.47,15,6.86,28,36.39,28.2,45.67,29.83,30.52,12.42,37.91,25.83" transform="translate(-2008.16 -4960.01)"/><path class="cls-5" d="M2756.3,5781.19s5.63,6.28-4.82,9.58c0,0-8.7-12.92-21.12-17.72s-22.31-3.66-33.66-.79-31.7,6.76-40.82,1c0,0-8,13.3-20.66,22.35s-35.53,19.51-35.53,19.51l-2.14-15.37,50.3-92.36,18-9.86s-2.47,15,6.86,28,36.39,28.2,45.67,29.83S2748.91,5767.77,2756.3,5781.19Z" transform="translate(-2008.16 -4960.01)"/><path class="cls-4" d="M2488.54,5464.47l-95.4,68.9s-1.07,7.13-11.69,31.06S2347,5611,2347,5611s-5,8-3.2,15.11,13.89,32.08,13.89,32.08l2.07-1.67,159.76,230.05,83.58-61.66-5.49-25.19-70.89-282.31Z" transform="translate(-2008.16 -4960.01)"/><path class="cls-5" d="M2488.54,5464.47l-95.4,68.9s-1.07,7.13-11.69,31.06S2347,5611,2347,5611s-5,8-3.2,15.11,13.89,32.08,13.89,32.08l2.07-1.67,159.76,230.05,83.58-61.66-5.49-25.19-70.89-282.31Z" transform="translate(-2008.16 -4960.01)"/><path class="cls-4" d="M2488.54,5464.47s3.36-10.68,18.15,1.32,30.91,26.35,48.45,50.94S2659.71,5650,2659.71,5650s26.07,27.4,4.46,49.36l-11.39,9.18s7.13,18.74,3.36,30.32-16,31.08-58.58,60.88l-7.23-9s-18,18.88-52.56,15.58c-35-3.33-46.15-20.52-52.83-28.81l-106.6-138.87,148.33-121.24Z" transform="translate(-2008.16 -4960.01)"/><path class="cls-6" d="M2488.54,5464.47s3.36-10.68,18.15,1.32,30.91,26.35,48.45,50.94S2659.71,5650,2659.71,5650s26.07,27.4,4.46,49.36l-11.39,9.18s7.13,18.74,3.36,30.32-16,31.08-58.58,60.88l-7.23-9s-18,18.88-52.56,15.58c-35-3.33-46.15-20.52-52.83-28.81l-106.6-138.87,148.33-121.24Z" transform="translate(-2008.16 -4960.01)"/><path class="cls-4" d="M2077.16,4961.06s-26.16,2.86-58,46.74L2425,5510l32.48-20.48,31.07-25Z" transform="translate(-2008.16 -4960.01)"/><path class="cls-6" d="M2077.16,4961.06s-26.16,2.86-58,46.74L2425,5510l32.48-20.48,31.07-25Z" transform="translate(-2008.16 -4960.01)"/><path class="cls-4" d="M2144.51,5043.47s-2-12.1,6-17.35,9.84-11.35,2.47-19.07-30.64-22-39.2-26.5-17.3,4.12-17.3,4.12Z" transform="translate(-2008.16 -4960.01)"/><path class="cls-5" d="M2144.51,5043.47s-2-12.1,6-17.35,9.84-11.35,2.47-19.07-30.64-22-39.2-26.5-17.3,4.12-17.3,4.12Z" transform="translate(-2008.16 -4960.01)"/><path class="cls-4" d="M2185.5,5161.93s-24.36,3.69-37.29,30.05l47,60.11L2450,5580.17s31.67-26.66,46.73-37.66Z" transform="translate(-2008.16 -4960.01)"/><path class="cls-6" d="M2185.5,5161.93s-24.36,3.69-37.29,30.05l47,60.11L2450,5580.17s31.67-26.66,46.73-37.66Z" transform="translate(-2008.16 -4960.01)"/><path class="cls-4" d="M2192.91,5257.34s-8.82,11.67-16.57,13.36-24.33,3.3-14.47-18c4.17-9,17-21.61,17-21.61l18.1,24.11Z" transform="translate(-2008.16 -4960.01)"/><path class="cls-5" d="M2192.91,5257.34s-8.82,11.67-16.57,13.36-24.33,3.3-14.47-18c4.17-9,17-21.61,17-21.61l18.1,24.11Z" transform="translate(-2008.16 -4960.01)"/><path class="cls-4" d="M2395.43,5531.53l-22-34.65s-5.13-7.26,2.45-12.24l30,38.44Z" transform="translate(-2008.16 -4960.01)"/><path class="cls-5" d="M2395.43,5531.53l-22-34.65s-5.13-7.26,2.45-12.24l30,38.44Z" transform="translate(-2008.16 -4960.01)"/><polygon class="cls-4" points="626.25 702.42 520.51 571.21 391.37 675.28 493.21 801.66 626.25 702.42"/><polygon class="cls-6" points="626.25 702.42 520.51 571.21 391.37 675.28 493.21 801.66 626.25 702.42"/><path class="cls-4" d="M2516.12,5548.17l49.53,61.46s7.1,10.23-7.27,20.66-25.94-11-31.5-17.89-39.34-48-39.34-48l25.24-20.34Z" transform="translate(-2008.16 -4960.01)"/><path class="cls-7" d="M2516.12,5548.17l49.53,61.46s7.1,10.23-7.27,20.66-25.94-11-31.5-17.89-39.34-48-39.34-48l25.24-20.34Z" transform="translate(-2008.16 -4960.01)"/><path class="cls-4" d="M2451.77,5600l49.53,61.46s7.1,10.23-7.27,20.66-25.94-11-31.5-17.89-39.34-48-39.34-48l25.25-20.34Z" transform="translate(-2008.16 -4960.01)"/><path class="cls-7" d="M2451.77,5600l49.53,61.46s7.1,10.23-7.27,20.66-25.94-11-31.5-17.89-39.34-48-39.34-48l25.25-20.34Z" transform="translate(-2008.16 -4960.01)"/><rect class="cls-4" x="2604.11" y="5611.77" width="5.32" height="63.86" transform="translate(-4972.5 -2074.78) rotate(-38.87)"/><rect class="cls-5" x="2604.11" y="5611.77" width="5.32" height="63.86" transform="translate(-4972.5 -2074.78) rotate(-38.87)"/><polygon class="cls-4" points="564.34 748.61 520.54 694.26 505.93 706.03 549.28 759.83 564.34 748.61"/><polygon class="cls-5" points="564.34 748.61 520.54 694.26 505.93 706.03 549.28 759.83 564.34 748.61"/><polygon class="cls-4" points="502.48 794.75 460.49 742.65 455.65 746.56 497.8 798.52 502.48 794.75"/><polygon class="cls-5" points="502.48 794.75 460.49 742.65 455.65 746.56 497.8 798.52 502.48 794.75"/><path class="cls-4" d="M2395.91,5727.62l72.19,103,2.16,9.76L2418.34,5783s-10.63-9.66-20.82-11.7-29-3.43-42.84,8.32-33.19,35.85-1.18,78.4,46.83,42.56,65.23,38.55c14.26-3.11,28.54-19,34.06-26.3,4-5.29,14.2-15.58,19.48-20.81l14.18,64A373.11,373.11,0,0,1,2501,5956.2c6.8,24.7-5.34,42.14-5.34,42.14,10.25-32.51-5.34-66-18.42-82.22s-32.39-12.63-61.94-7.6-50.19-14.23-72-42.75c-27.27-35.6-19.48-65.17-10.87-77.8,13.66-20,36.93-35.45,43.11-49s-2.24-26.1-2.24-26.1l0.42-3.3Z" transform="translate(-2008.16 -4960.01)"/><path class="cls-5" d="M2395.91,5727.62l72.19,103,2.16,9.76L2418.34,5783s-10.63-9.66-20.82-11.7-29-3.43-42.84,8.32-33.19,35.85-1.18,78.4,46.83,42.56,65.23,38.55c14.26-3.11,28.54-19,34.06-26.3,4-5.29,14.2-15.58,19.48-20.81l14.18,64A373.11,373.11,0,0,1,2501,5956.2c6.8,24.7-5.34,42.14-5.34,42.14,10.25-32.51-5.34-66-18.42-82.22s-32.39-12.63-61.94-7.6-50.19-14.23-72-42.75c-27.27-35.6-19.48-65.17-10.87-77.8,13.66-20,36.93-35.45,43.11-49s-2.24-26.1-2.24-26.1l0.42-3.3Z" transform="translate(-2008.16 -4960.01)"/><path class="cls-4" d="M2475.56,5846.25s-1.29,1.26-3.29,3.23l-2-9.09Z" transform="translate(-2008.16 -4960.01)"/><path class="cls-5" d="M2475.56,5846.25s-1.29,1.26-3.29,3.23l-2-9.09Z" transform="translate(-2008.16 -4960.01)"/><path class="cls-4" d="M2441.2,5810.71a67.65,67.65,0,0,1-7,18.16c-5.5,10.13-15.91,24.79-25.25,29.46s-24.06,9.71-24.67,15.32,5.15,7.81,24-2.79,44.73-40.6,44.73-40.6-1.45-19.37-11.8-19.55" transform="translate(-2008.16 -4960.01)"/><path class="cls-5" d="M2441.2,5810.71a67.65,67.65,0,0,1-7,18.16c-5.5,10.13-15.91,24.79-25.25,29.46s-24.06,9.71-24.67,15.32,5.15,7.81,24-2.79,44.73-40.6,44.73-40.6S2451.55,5810.89,2441.2,5810.71Z" transform="translate(-2008.16 -4960.01)"/><path class="cls-4" d="M2603.06,5824.95s4.27,13.08.28,20.85-16.49,18.41-10.7,29.12,32.18,39,39.61,63.76L2562.34,5855Z" transform="translate(-2008.16 -4960.01)"/><path class="cls-5" d="M2603.06,5824.95s4.27,13.08.28,20.85-16.49,18.41-10.7,29.12,32.18,39,39.61,63.76L2562.34,5855Z" transform="translate(-2008.16 -4960.01)"/><path class="cls-4" d="M2495.62,5998.34c-18,74.46-82.95,98.49-100.37,105.14s-31.19,5.88-33,17.48c-1.35,8.68,29.6,41.45,73.11,94.48,41.37,50.44,64.4,86.75,79.78,84.16,14.88-2.5,32-79.59,98.09-181.94,39.86-61.74,37.2-120.15,20.09-178.13l-71-84.54-80.09,58.21s22.87,45.91,13.37,85.14" transform="translate(-2008.16 -4960.01)"/><path class="cls-6" d="M2495.62,5998.34c-18,74.46-82.95,98.49-100.37,105.14s-31.19,5.88-33,17.48c-1.35,8.68,29.6,41.45,73.11,94.48,41.37,50.44,64.4,86.75,79.78,84.16,14.88-2.5,32-79.59,98.09-181.94,39.86-61.74,37.2-120.15,20.09-178.13l-71-84.54-80.09,58.21S2505.11,5959.11,2495.62,5998.34Z" transform="translate(-2008.16 -4960.01)"/><path class="cls-4" d="M2359.72,5656.56l160.22,229.21-37.69,27.43-29.45-42.9s10.54-15.9,1.18-37.4c-5.62-12.93-20.91-37.26-35.64-49.87a207.28,207.28,0,0,0-17.29-32.77c-11.35-17.62-45.81-66.73-50.21-75.72-3.27-6.69,3.23-13.37,6.77-16.35l0,0Z" transform="translate(-2008.16 -4960.01)"/><path class="cls-6" d="M2359.72,5656.56l160.22,229.21-37.69,27.43-29.45-42.9s10.54-15.9,1.18-37.4c-5.62-12.93-20.91-37.26-35.64-49.87a207.28,207.28,0,0,0-17.29-32.77c-11.35-17.62-45.81-66.73-50.21-75.72-3.27-6.69,3.23-13.37,6.77-16.35l0,0Z" transform="translate(-2008.16 -4960.01)"/><path class="cls-4" d="M2359.72,5656.56l-2.07,1.67,0,0c1.22-1,2.1-1.63,2.1-1.63" transform="translate(-2008.16 -4960.01)"/><path class="cls-5" d="M2359.72,5656.56l-2.07,1.67,0,0C2358.84,5657.15,2359.72,5656.56,2359.72,5656.56Z" transform="translate(-2008.16 -4960.01)"/><path class="cls-4" d="M2603.41,5758c-29.42,21.5-68.42,21.73-101,4.09l132-99.64c6.92,36.38-1.58,74.06-31,95.55" transform="translate(-2008.16 -4960.01)"/><path class="cls-6" d="M2603.41,5758c-29.42,21.5-68.42,21.73-101,4.09l132-99.64C2641.33,5698.81,2632.83,5736.49,2603.41,5758Z" transform="translate(-2008.16 -4960.01)"/><line class="cls-4" x1="446.54" y1="531.73" x2="391.77" y2="567.89"/><line class="cls-6" x1="446.54" y1="531.73" x2="391.77" y2="567.89"/><path class="cls-4" d="M2530.61,6076.4a16,16,0,1,0,22.45,2.41,16,16,0,0,0-22.45-2.41" transform="translate(-2008.16 -4960.01)"/><circle class="cls-5" cx="2540.63" cy="6088.83" r="15.97" transform="translate(-5266.62 -2017.47) rotate(-38.87)"/><path class="cls-4" d="M2545.53,5832a6.21,6.21,0,1,0,8.73.93,6.2,6.2,0,0,0-8.73-.93" transform="translate(-2008.16 -4960.01)"/></svg>