<svg id="logo_com" data-name="logo com" xmlns="http://www.w3.org/2000/svg" viewBox="0 0 947.82 1332.04"><defs><style>.cls-1,.cls-3,.cls-4{opacity:0.6;}.cls-2,.cls-3{fill:#fff;}.cls-4{fill:none;stroke:#fff;stroke-miterlimit:10;stroke-width:4px;}</style></defs><title>logo</title><g class="cls-1"><path class="cls-2" d="M563.4,2297.91v12.69H465.27V2012h17.34v285.94H563.4Z" transform="translate(-457.86 -979.83)"/><path class="cls-2" d="M683.95,2212H617.12l-17.77,98.14H583.28l55.41-298.64h24.53l55.41,298.64H701.72Zm-2.11-12.69L651,2028l-31.31,171.32h62.19Z" transform="translate(-457.86 -979.83)"/><path class="cls-2" d="M931.39,2105.87v-55.41c0-12.69-8.46-27.07-21.15-27.07H871.74c-12.69,0-21.15,14.38-21.15,27.07V2272.1c0,12.69,8.46,25.38,21.15,25.38h38.49c12.69,0,21.15-12.69,21.15-25.38v-63.87h17.34v63.87c0,20.73-16.5,39.76-36.8,39.76H871.74c-21.15,0-38.49-18.61-38.49-39.76V2050.45c0-21.15,17.35-39.76,38.49-39.76h38.49c21.15,0,38.49,18.61,38.49,39.76v55.41H931.39Z" transform="translate(-457.86 -979.83)"/><path class="cls-2" d="M1111.58,2050.45V2272.1c0,21.15-17.35,39.76-38.5,39.76h-42.72c-21.15,0-38.49-18.61-38.49-39.76V2050.45c0-21.15,17.35-39.76,38.49-39.76h42.72C1094.23,2010.69,1111.58,2029.3,1111.58,2050.45Zm-16.92,221.65V2050.45c0-12.69-8.88-27.07-21.57-27.07h-42.72c-12.69,0-21.15,14.38-21.15,27.07V2272.1c0,12.69,8.46,27.07,21.15,27.07h42.72C1085.77,2299.18,1094.66,2284.8,1094.66,2272.1Z" transform="translate(-457.86 -979.83)"/><path class="cls-2" d="M1322.22,2012V2310.6h-17.35V2026.34l-52,275.8h-19.46L1177.13,2028V2310.6h-17.34V2012h30l52.88,264.37,47.8-264.37h31.73Z" transform="translate(-457.86 -979.83)"/></g><path class="cls-3" d="M1184.79,1088.58s29,327.94,124.71,433.76c0,0-61.59,325.84-21.27,397.5h-78.1s-26-198.75,55.71-399.19c0,0-248.59-37-203.66-431.66Z" transform="translate(-457.86 -979.83)"/><path class="cls-3" d="M646.4,1088.58s-29,327.94-124.71,433.76c0,0,61.59,325.84,21.28,397.5h78.1s26-198.75-55.71-399.19c0,0,248.58-37,203.65-431.66Z" transform="translate(-457.86 -979.83)"/><rect class="cls-3" x="6.72" y="69.18" width="903.63" height="16.17"/><path class="cls-3" d="M1364.85,1003.34a23.51,23.51,0,0,1-23.51,23.52h-860a23.51,23.51,0,0,1-23.51-23.52h0a23.51,23.51,0,0,1,23.51-23.51h860a23.51,23.51,0,0,1,23.51,23.51h0Z" transform="translate(-457.86 -979.83)"/><rect class="cls-3" x="6.72" y="976.17" width="419.9" height="16.17"/><rect class="cls-3" x="493.81" y="976.17" width="419.9" height="16.17"/><circle class="cls-3" cx="459.09" cy="983.41" r="10.92"/><line class="cls-4" x1="466.37" y1="983.41" x2="466.37" y2="937.23"/><path class="cls-4" d="M925.63,1920.13c2.74,1.24,14.24,7.44,9.52,19.88" transform="translate(-457.86 -979.83)"/><g class="cls-1"><path class="cls-2" d="M1361.7,2080.8v-10.58q6.09-1.6,9.26-4.56a21.11,21.11,0,0,0,5.09-7.55,29.31,29.31,0,0,0,1.91-11.18q-7.88,0-11.6-4.44a14.5,14.5,0,0,1-3.72-9.44,13.3,13.3,0,0,1,4.15-9.95,13.45,13.45,0,0,1,9.65-4q7.11,0,12.28,6.13t5.16,16.78a39.13,39.13,0,0,1-4.06,17.58,43,43,0,0,1-11,14A32.81,32.81,0,0,1,1361.7,2080.8Z" transform="translate(-457.86 -979.83)"/></g><circle class="cls-3" cx="943.54" cy="1049.49" r="4.29"/><circle class="cls-3" cx="943.54" cy="1064.92" r="4.29"/><path class="cls-3" d="M1366.61,1088.44h-170.2s40.3,333.69,125.41,434.46c0,0-52.07,293.65-25.19,396.67l71.94,0.14Z" transform="translate(-457.86 -979.83)"/><path class="cls-3" d="M1047.48,1088.58s-73.9,348.1,193.72,438.8c0,0-82.3,230.38-43.11,392.75h-52.63s-51-164.32,26.31-379.31c0,0-300.23-29.39-236.41-452.66Z" transform="translate(-457.86 -979.83)"/><path class="cls-3" d="M464.58,1088.44h170.2s-40.31,333.69-125.41,434.46c0,0,52.07,293.65,25.2,396.67l-71.95.14Z" transform="translate(-457.86 -979.83)"/><path class="cls-3" d="M783.71,1088.58s73.9,348.1-193.71,438.8c0,0,82.3,230.38,43.11,392.75h52.63s50.95-164.32-26.32-379.31c0,0,300.23-29.39,236.41-452.66Z" transform="translate(-457.86 -979.83)"/></svg>