<svg id="Text" xmlns="http://www.w3.org/2000/svg" viewBox="0 0 251.41 80.52"><defs><style>.cls-1{fill:#5a667c;}</style></defs><title>Logo</title><g id="Text-2" data-name="Text"><path id="L" class="cls-1" d="M26.24,76.78v3.39H0V0.34H4.64V76.78h21.6Z"/><path id="A" class="cls-1" d="M58.46,53.94H40.59L35.84,80.18h-4.3L46.36,0.34h6.56L67.73,80.18H63.21ZM57.9,50.55L49.64,4.75l-8.37,45.8H57.9Z"/><path id="C" class="cls-1" d="M124.61,25.44V10.63c0-3.39-2.26-7.24-5.65-7.24H108.67c-3.39,0-5.65,3.84-5.65,7.24V69.89c0,3.39,2.26,6.79,5.65,6.79H119c3.39,0,5.65-3.39,5.65-6.79V52.81h4.64V69.89c0,5.54-4.41,10.63-9.84,10.63H108.67A10.63,10.63,0,0,1,98.38,69.89V10.63A10.63,10.63,0,0,1,108.67,0H119a10.63,10.63,0,0,1,10.29,10.63V25.44h-4.64Z"/><path id="O" class="cls-1" d="M172.78,10.63V69.89a10.63,10.63,0,0,1-10.29,10.63H151.07a10.63,10.63,0,0,1-10.29-10.63V10.63A10.63,10.63,0,0,1,151.07,0h11.42A10.62,10.62,0,0,1,172.78,10.63Zm-4.52,59.26V10.63c0-3.39-2.37-7.24-5.77-7.24H151.07c-3.39,0-5.65,3.84-5.65,7.24V69.89c0,3.39,2.26,7.24,5.65,7.24h11.42C165.89,77.12,168.26,73.28,168.26,69.89Z"/><path id="M" class="cls-1" d="M229.1,0.34V80.18h-4.64v-76L210.55,77.92h-5.2l-15-73.28V80.18h-4.64V0.34h8L207.84,71,220.62,0.34h8.48Z"/><g id="Apostrophe"><path class="cls-1" d="M239.65,18.74V15.91a5.72,5.72,0,0,0,2.48-1.22,5.65,5.65,0,0,0,1.36-2,7.84,7.84,0,0,0,.51-3,3.82,3.82,0,0,1-3.1-1.19,3.88,3.88,0,0,1-1-2.52A3.56,3.56,0,0,1,241,3.32a3.6,3.6,0,0,1,2.58-1.07,4.17,4.17,0,0,1,3.28,1.64,6.74,6.74,0,0,1,1.38,4.49,10.46,10.46,0,0,1-1.08,4.7,11.48,11.48,0,0,1-3,3.75A8.77,8.77,0,0,1,239.65,18.74Z"/><circle class="cls-1" cx="250.26" cy="4.98" r="1.15"/><circle class="cls-1" cx="250.26" cy="9.11" r="1.15"/></g></g></svg>