<svg id="Logo_mono" data-name="Logo mono" xmlns="http://www.w3.org/2000/svg" viewBox="0 0 243.4 357.77"><defs><style>.cls-1{fill:#f2f2f2;}.cls-2{fill:none;stroke:#f2f2f2;stroke-miterlimit:10;stroke-width:2px;}</style></defs><title>Logo</title><g id="La_Com" data-name="La Com"><path class="cls-1" d="M26.94,354.38v3.39H0.71V277.93H5.34v76.44h21.6Z"/><path class="cls-1" d="M57.17,331.42H39.3l-4.75,26.24h-4.3l14.81-79.84h6.56l14.81,79.84H61.92ZM56.61,328l-8.26-45.8L40,328H56.61Z"/><path class="cls-1" d="M121.92,303V288.22c0-3.39-2.26-7.24-5.65-7.24H106c-3.39,0-5.65,3.84-5.65,7.24v59.26c0,3.39,2.26,6.79,5.65,6.79h10.29c3.39,0,5.65-3.39,5.65-6.79V330.4h4.64v17.08c0,5.54-4.41,10.63-9.84,10.63H106a10.63,10.63,0,0,1-10.29-10.63V288.22A10.63,10.63,0,0,1,106,277.59h10.29a10.63,10.63,0,0,1,10.29,10.63V303h-4.64Z"/><path class="cls-1" d="M169.09,288.22v59.26a10.63,10.63,0,0,1-10.29,10.63H147.38a10.63,10.63,0,0,1-10.29-10.63V288.22a10.63,10.63,0,0,1,10.29-10.63H158.8A10.62,10.62,0,0,1,169.09,288.22Zm-4.52,59.26V288.22c0-3.39-2.37-7.24-5.77-7.24H147.38c-3.39,0-5.65,3.84-5.65,7.24v59.26c0,3.39,2.26,7.24,5.65,7.24H158.8C162.19,354.72,164.57,350.87,164.57,347.48Z"/><path class="cls-1" d="M224.41,277.93v79.84h-4.64v-76l-13.91,73.73h-5.2l-15-73.28v75.54H181V277.93h8l14.14,70.68,12.78-70.68h8.48Z"/><path class="cls-1" d="M230.24,296.33v-2.83a5.72,5.72,0,0,0,2.48-1.22,5.65,5.65,0,0,0,1.36-2,7.84,7.84,0,0,0,.51-3,3.82,3.82,0,0,1-3.1-1.19,3.88,3.88,0,0,1-1-2.52,3.56,3.56,0,0,1,1.11-2.66,3.6,3.6,0,0,1,2.58-1.07,4.17,4.17,0,0,1,3.28,1.64,6.74,6.74,0,0,1,1.38,4.49,10.46,10.46,0,0,1-1.08,4.7,11.48,11.48,0,0,1-3,3.75A8.77,8.77,0,0,1,230.24,296.33Z"/><circle class="cls-1" cx="240.85" cy="282.57" r="1.15"/><circle class="cls-1" cx="240.85" cy="286.7" r="1.15"/></g><g id="Barre_milieu" data-name="Barre milieu"><circle class="cls-1" cx="121.46" cy="262.91" r="2.92"/><line class="cls-2" x1="123.41" y1="262.91" x2="123.41" y2="250.56"/><path class="cls-2" d="M123.78,251.38c0.73,0.33,3.81,2,2.55,5.31"/><rect class="cls-1" x="0.52" y="260.97" width="112.26" height="4.32"/><rect class="cls-1" x="130.74" y="260.97" width="112.26" height="4.32"/></g><g id="Rideaux" data-name="Rideaux"><path class="cls-1" d="M242.87,29h-45.5s10.78,89.21,33.53,116.15c0,0-13.92,78.5-6.74,106l19.23,0Z"/><path class="cls-1" d="M157.56,29.07s-19.76,93.06,51.79,117.31c0,0-22,61.59-11.53,105H183.75s-13.62-43.93,7-101.4c0,0-80.26-7.86-63.2-121Z"/><path class="cls-1" d="M0.52,29H46S35.25,118.24,12.5,145.19c0,0,13.92,78.5,6.74,106L0,251.27Z"/><path class="cls-1" d="M85.84,29.07s19.76,93.06-51.79,117.31c0,0,22,61.59,11.52,105H59.65s13.62-43.93-7-101.4c0,0,80.26-7.86,63.2-121Z"/><path class="cls-1" d="M194.27,29.07s7.75,87.67,33.34,116c0,0-16.46,87.11-5.69,106.27H201s-7-53.13,14.89-106.72c0,0-66.46-9.88-54.45-115.4Z"/><path class="cls-1" d="M49.13,29.07s-7.75,87.67-33.34,116c0,0,16.46,87.11,5.69,106.27H42.36s7-53.13-14.89-106.72c0,0,66.46-9.88,54.45-115.4Z"/></g><g id="Barre_haute" data-name="Barre haute"><rect class="cls-1" x="0.52" y="18.49" width="242.45" height="4.32"/><path class="cls-1" d="M242.79,6.29a6.29,6.29,0,0,1-6.29,6.29H6.37A6.29,6.29,0,0,1,.08,6.29h0A6.29,6.29,0,0,1,6.37,0H236.5a6.29,6.29,0,0,1,6.29,6.29h0Z"/></g></svg>