<svg id="sponsors" xmlns="http://www.w3.org/2000/svg" viewBox="0 0 120.59 28.96"><defs><style>.cls-1{fill:#5a667c;}.cls-2{fill:none;stroke:#5a667c;stroke-miterlimit:10;stroke-width:0.25px;}.cls-3{fill:#5daece;}</style></defs><title>LogoTexteFull</title><path class="cls-1" d="M757.37,1180.91v1.21H748v-28.48h1.65v27.27h7.71Z" transform="translate(-717.1 -1153.53)"/><path class="cls-1" d="M768.87,1172.73H762.5l-1.69,9.36h-1.53l5.28-28.48h2.34l5.28,28.48h-1.61Zm-0.2-1.21-2.94-16.34-3,16.34h5.93Z" transform="translate(-717.1 -1153.53)"/><path class="cls-1" d="M792.46,1162.6v-5.28c0-1.21-.81-2.58-2-2.58h-3.67c-1.21,0-2,1.37-2,2.58v21.13a2.26,2.26,0,0,0,2,2.42h3.67a2.26,2.26,0,0,0,2-2.42v-6.09h1.66v6.09a3.74,3.74,0,0,1-3.51,3.79h-3.83a3.79,3.79,0,0,1-3.67-3.79v-21.13a3.79,3.79,0,0,1,3.67-3.79h3.67a3.79,3.79,0,0,1,3.67,3.79v5.28h-1.66Z" transform="translate(-717.1 -1153.53)"/><path class="cls-1" d="M809.64,1157.32v21.13a3.79,3.79,0,0,1-3.67,3.79H801.9a3.79,3.79,0,0,1-3.67-3.79v-21.13a3.79,3.79,0,0,1,3.67-3.79H806A3.79,3.79,0,0,1,809.64,1157.32ZM808,1178.45v-21.13c0-1.21-.85-2.58-2.06-2.58H801.9c-1.21,0-2,1.37-2,2.58v21.13c0,1.21.81,2.58,2,2.58H806C807.18,1181,808,1179.66,808,1178.45Z" transform="translate(-717.1 -1153.53)"/><path class="cls-1" d="M829.73,1153.65v28.48h-1.66V1155l-5,26.3h-1.86l-5.36-26.13v26.94h-1.66v-28.48h2.86l5,25.21,4.56-25.21h3Z" transform="translate(-717.1 -1153.53)"/><path class="cls-1" d="M738.19,1156.79s0.84,9.52,3.62,12.59c0,0-1.79,9.46-.62,11.54h-2.27a25.41,25.41,0,0,1,1.62-11.59s-7.21-1.07-5.91-12.53h3.56Z" transform="translate(-717.1 -1153.53)"/><path class="cls-1" d="M722.57,1156.79s-0.84,9.52-3.62,12.59c0,0,1.79,9.46.62,11.54h2.27a25.42,25.42,0,0,0-1.62-11.59s7.21-1.07,5.91-12.53h-3.56Z" transform="translate(-717.1 -1153.53)"/><rect class="cls-1" x="0.2" y="2.11" width="26.23" height="0.47"/><path class="cls-1" d="M743.42,1154.32a0.68,0.68,0,0,1-.68.68h-25a0.68,0.68,0,0,1-.68-0.68h0a0.68,0.68,0,0,1,.68-0.68h25a0.68,0.68,0,0,1,.68.68h0Z" transform="translate(-717.1 -1153.53)"/><rect class="cls-1" x="0.2" y="28.44" width="12.19" height="0.47"/><rect class="cls-1" x="14.33" y="28.44" width="12.19" height="0.47"/><circle class="cls-1" cx="13.32" cy="28.65" r="0.32"/><line class="cls-2" x1="13.54" y1="28.65" x2="13.54" y2="27.31"/><path class="cls-2" d="M730.67,1180.92a0.45,0.45,0,0,1,.28.58" transform="translate(-717.1 -1153.53)"/><path class="cls-1" d="M833.49,1160.21v-1a1.8,1.8,0,0,0,1.37-1.16A2.8,2.8,0,0,0,835,1157a1.34,1.34,0,0,1-1.46-1.33,1.26,1.26,0,0,1,.4-0.95,1.28,1.28,0,0,1,.92-0.38,1.48,1.48,0,0,1,1.17.59,2.41,2.41,0,0,1,.49,1.6,3.73,3.73,0,0,1-.39,1.68,4.12,4.12,0,0,1-1.05,1.34A3.13,3.13,0,0,1,833.49,1160.21Z" transform="translate(-717.1 -1153.53)"/><circle class="cls-1" cx="120.18" cy="1.78" r="0.41"/><circle class="cls-1" cx="120.18" cy="3.25" r="0.41"/><path class="cls-3" d="M743.47,1156.79h-4.94s1.17,9.68,3.64,12.61c0,0-1.51,8.52-.73,11.51h2.09Z" transform="translate(-717.1 -1153.53)"/><path class="cls-3" d="M734.21,1156.79s-2.14,10.1,5.62,12.74c0,0-2.39,6.69-1.25,11.4h-1.53a18.76,18.76,0,0,1,.76-11s-8.71-.85-6.86-13.14h3.25Z" transform="translate(-717.1 -1153.53)"/><path class="cls-3" d="M717.29,1156.79h4.94s-1.17,9.68-3.64,12.61c0,0,1.51,8.52.73,11.51h-2.09Z" transform="translate(-717.1 -1153.53)"/><path class="cls-3" d="M726.55,1156.79s2.14,10.1-5.62,12.74c0,0,2.39,6.69,1.25,11.4h1.53a18.76,18.76,0,0,0-.76-11s8.71-.85,6.86-13.14h-3.25Z" transform="translate(-717.1 -1153.53)"/></svg>